<svg xmlns="http://www.w3.org/2000/svg" xmlns:xlink="http://www.w3.org/1999/xlink" width="420" height="318.233" viewBox="0 0 420 318.233">
  <defs>
    <clipPath id="clip-path">
      <rect id="Rectángulo_401802" data-name="Rectángulo 401802" width="332" height="274.153" fill="none"/>
    </clipPath>
    <clipPath id="clip-path-3">
      <rect id="Rectángulo_401761" data-name="Rectángulo 401761" width="96.284" height="96.482" fill="none"/>
    </clipPath>
    <clipPath id="clip-path-4">
      <rect id="Rectángulo_401766" data-name="Rectángulo 401766" width="32.236" height="6.617" fill="none"/>
    </clipPath>
    <clipPath id="clip-path-5">
      <rect id="Rectángulo_401768" data-name="Rectángulo 401768" width="32.236" height="6.618" fill="none"/>
    </clipPath>
    <clipPath id="clip-path-21">
      <rect id="Rectángulo_401799" data-name="Rectángulo 401799" width="14.38" height="6.59" fill="none"/>
    </clipPath>
    <clipPath id="clip-path-22">
      <rect id="Rectángulo_401800" data-name="Rectángulo 401800" width="27.11" height="37.225" fill="none"/>
    </clipPath>
  </defs>
  <g id="Grupo_1210587" data-name="Grupo 1210587" transform="translate(-1000 -3361)">
    <g id="Grupo_1210370" data-name="Grupo 1210370" transform="translate(0 -0.378)">
      <rect id="Rectángulo_401803" data-name="Rectángulo 401803" width="420" height="318.233" transform="translate(1000 3361.378)" fill="#f6f0ca"/>
      <g id="Grupo_1210369" data-name="Grupo 1210369" transform="translate(1044 3383.378)">
        <g id="Grupo_1210368" data-name="Grupo 1210368" clip-path="url(#clip-path)">
          <g id="Grupo_1210359" data-name="Grupo 1210359">
            <g id="Grupo_1210358" data-name="Grupo 1210358" clip-path="url(#clip-path)">
              <path id="Trazado_1064789" data-name="Trazado 1064789" d="M321.34,145.444c0,72.292-118.15,127.359-190.443,127.359A130.9,130.9,0,0,1,0,141.907C0,69.615,27.537,0,99.829,0S321.34,73.152,321.34,145.444" fill="#fafcef"/>
              <path id="Trazado_1064790" data-name="Trazado 1064790" d="M222.624,350.63c.04.137.1.282.156.425a.117.117,0,0,0,.016.044,5.331,5.331,0,0,0,.45.913c.032.051.066.1.1.153a5.282,5.282,0,0,0,.493.619c.041.044.083.088.126.132a11.8,11.8,0,0,0,2.611-.57,11.8,11.8,0,0,1-2.611.57,5.649,5.649,0,0,0,.675.579l.148.105c.434-.1.885-.235,1.349-.39-.464.155-.915.287-1.349.39a8,8,0,0,0,1.532.8,31.71,31.71,0,0,0,3.167-1.383,31.71,31.71,0,0,1-3.167,1.383l.187.073c.138.053.279.1.423.155l.186.063q.282.094.575.183l.089.025c.088.026.177.052.266.076.5.136,1.009.245,1.5.341l.25.048,1.07.2.3.058c.582.113,1.117.232,1.588.359.093.025.184.051.272.076a11.584,11.584,0,0,1,2.184.877l-.007-.014a5.9,5.9,0,0,0-.848-1.473,5.9,5.9,0,0,1,.848,1.473,8.339,8.339,0,0,0-.629-3.207,4.9,4.9,0,0,0-4.418-2.813,19.13,19.13,0,0,1-5.535-1c-1.3-.486-1.835-1.282-2.1-.877a2.24,2.24,0,0,0,.046,1.413c.015.058.031.118.048.179m4.654,2.18c-.108.033-.2.063-.262.086.058-.022.155-.052.262-.086m-1.309.927c.815-.243,1.671-.559,2.552-.916-.88.357-1.737.673-2.552.916m1.779-1.083c-.1.036-.2.072-.307.1.1-.033.211-.068.307-.1" transform="translate(-63.887 -100.216)" fill="#80a173"/>
              <path id="Trazado_1064791" data-name="Trazado 1064791" d="M270.362,348.263a15.741,15.741,0,0,1-2.89-1.343q-.16-.1-.327-.2c-.562-.348-1.175-.766-1.827-1.235l-.338-.245c-.384-.28-.781-.573-1.191-.87l-.279-.2c-.552-.4-1.127-.795-1.728-1.165.16.393.31.808.451,1.171-.142-.364-.292-.778-.451-1.171-.106-.066-.214-.13-.321-.193l-.108-.063c-.24-.139-.478-.271-.714-.4l-.234-.125c-.182-.095-.364-.186-.545-.273-.082-.04-.164-.078-.246-.116a10.826,10.826,0,0,0-2.214-.767c.3.524.589,1.091.865,1.694-.277-.6-.565-1.17-.865-1.694-.081-.017-.161-.034-.242-.049a7.647,7.647,0,0,0-1.2-.13,15.944,15.944,0,0,1,1.858,3.106,15.944,15.944,0,0,0-1.858-3.106c-.083,0-.165,0-.247,0a7.043,7.043,0,0,0-1.068.088c-.082.013-.164.026-.245.042a7.478,7.478,0,0,0-1.94.668c-.077.039-.15.078-.222.118-.831.463-1.362.952-1.438,1.265-.158.632,1.127.425,2.809,1.255a25.926,25.926,0,0,1,6.113,4.542c2.272,2.092,4.754,2.51,6.871,1.756a11.282,11.282,0,0,0,3.747-2.35l.021-.007" transform="translate(-72.029 -97.907)" fill="#80a173"/>
              <path id="Trazado_1064792" data-name="Trazado 1064792" d="M240.75,364.71A55.6,55.6,0,0,1,241.79,341.9" transform="translate(-68.936 -98.197)" fill="none" stroke="#27423a" stroke-miterlimit="10" stroke-width="0.5"/>
              <path id="Trazado_1064793" data-name="Trazado 1064793" d="M240.221,357.034s5.228-24.263,24.161-22.857" transform="translate(-68.994 -95.963)" fill="none" stroke="#27423a" stroke-miterlimit="10" stroke-width="0.5"/>
              <path id="Trazado_1064794" data-name="Trazado 1064794" d="M240.722,367.328s2.309-8.031,9.256-10.75" transform="translate(-69.138 -102.414)" fill="none" stroke="#27423a" stroke-miterlimit="10" stroke-width="0.5"/>
              <path id="Trazado_1064795" data-name="Trazado 1064795" d="M238.251,323.868c-.086.114-.167.249-.249.378a.117.117,0,0,0-.026.039,5.347,5.347,0,0,0-.464.906c-.022.056-.043.114-.063.172a5.26,5.26,0,0,0-.2.766c-.011.059-.021.119-.03.179a11.721,11.721,0,0,0,2.015,1.756,11.721,11.721,0,0,1-2.015-1.756,5.722,5.722,0,0,0-.062.888q0,.09,0,.182c.341.287.716.57,1.118.85-.4-.279-.777-.562-1.118-.85a7.958,7.958,0,0,0,.269,1.709,31.644,31.644,0,0,0,3,1.715,31.644,31.644,0,0,1-3-1.715c.016.064.034.129.052.194.04.143.082.286.128.431l.061.187q.093.283.2.571c.011.029.022.058.033.086.032.087.064.173.1.259.191.485.406.954.622,1.407.037.078.075.153.111.23.163.337.324.664.477.979.046.094.091.186.134.278.257.535.48,1.034.66,1.488.036.09.069.178.1.264a11.706,11.706,0,0,1,.6,2.276l.006-.014a5.893,5.893,0,0,0,.676-1.56,5.893,5.893,0,0,1-.676,1.56,8.328,8.328,0,0,0,2.2-2.418,4.9,4.9,0,0,0-.38-5.224,19.155,19.155,0,0,1-2.5-5.034c-.384-1.331-.066-2.239-.546-2.205a2.232,2.232,0,0,0-1.108.88c-.038.048-.076.1-.114.146m1.028,5.036c-.091-.067-.173-.127-.225-.16.052.033.134.093.225.16m-1.525-.5c.682.509,1.446,1.008,2.258,1.5-.812-.493-1.577-.992-2.258-1.5m1.932.781c-.087-.055-.178-.12-.267-.183.089.063.18.128.267.183" transform="translate(-68.114 -92.724)" fill="#598946"/>
              <path id="Trazado_1064796" data-name="Trazado 1064796" d="M289.778,336.874a15.711,15.711,0,0,1-3-1.068q-.169-.079-.344-.167c-.592-.294-1.241-.653-1.934-1.06l-.359-.212c-.408-.242-.831-.5-1.267-.756l-.3-.176c-.587-.343-1.2-.686-1.829-1,.2.376.383.776.558,1.124-.175-.349-.363-.748-.558-1.124-.112-.055-.225-.108-.339-.162-.037-.018-.074-.036-.113-.053q-.376-.173-.748-.331c-.081-.034-.163-.07-.244-.1-.19-.078-.379-.152-.568-.222-.085-.032-.17-.063-.255-.093a10.81,10.81,0,0,0-2.276-.557c.349.493.688,1.031,1.019,1.605-.331-.574-.671-1.112-1.019-1.605-.083-.01-.164-.019-.245-.026a7.686,7.686,0,0,0-1.205-.018,15.933,15.933,0,0,1,2.139,2.92,15.933,15.933,0,0,0-2.139-2.92c-.082,0-.164.012-.245.02a7.212,7.212,0,0,0-1.056.187c-.08.021-.16.042-.239.065a7.5,7.5,0,0,0-1.87.845c-.073.046-.142.092-.21.138-.785.538-1.268,1.076-1.314,1.393-.1.644,1.161.319,2.914.989a25.918,25.918,0,0,1,6.508,3.954c2.456,1.872,4.967,2.056,7.005,1.108a11.267,11.267,0,0,0,3.512-2.688l.021-.009" transform="translate(-77.493 -95.026)" fill="#9dbf6a"/>
              <path id="Trazado_1064797" data-name="Trazado 1064797" d="M265.035,348.468a2.234,2.234,0,0,0,.079-1.412c-.25-.411-.808.372-2.116.827a19.146,19.146,0,0,1-5.557.862,4.9,4.9,0,0,0-4.484,2.705,8.338,8.338,0,0,0-.706,3.19,5.921,5.921,0,0,1,.884-1.452,5.921,5.921,0,0,0-.884,1.452.115.115,0,0,0-.006.013,11.6,11.6,0,0,1,2.2-.825l.274-.07c.475-.115,1.011-.221,1.6-.32l.3-.051,1.076-.175.251-.042c.495-.085,1-.181,1.508-.305.09-.022.179-.046.268-.07.03-.008.06-.014.089-.023.2-.054.39-.111.58-.169l.187-.058q.217-.069.426-.145l.188-.069a31.9,31.9,0,0,1-3.132-1.459,31.9,31.9,0,0,0,3.132,1.459,7.984,7.984,0,0,0,1.551-.768c-.432-.113-.88-.256-1.339-.422.46.166.907.309,1.339.422.051-.034.1-.067.15-.1a5.7,5.7,0,0,0,.689-.562,11.774,11.774,0,0,1-2.6-.632,11.774,11.774,0,0,0,2.6.632c.044-.042.087-.085.129-.128a5.28,5.28,0,0,0,.507-.608c.036-.05.071-.1.1-.15a5.341,5.341,0,0,0,.472-.9.136.136,0,0,0,.017-.044c.058-.142.123-.286.165-.422.019-.061.037-.119.053-.177m-4.5,2.337c-.057-.024-.153-.056-.26-.091.107.036.2.068.26.091m-1.5-.111c.871.378,1.72.715,2.529.977-.809-.262-1.658-.6-2.529-.977m1.081-.036c-.1-.036-.21-.073-.3-.113.095.039.2.077.3.113" transform="translate(-72.448 -99.646)" fill="#27423a"/>
              <path id="Trazado_1064798" data-name="Trazado 1064798" d="M202.466,358.165a1.9,1.9,0,0,0,.038-1.2c-.221-.345-.679.334-1.785.748a16.3,16.3,0,0,1-4.715.848,4.171,4.171,0,0,0-3.763,2.4,7.087,7.087,0,0,0-.536,2.731,5.034,5.034,0,0,1,.723-1.255,5.034,5.034,0,0,0-.723,1.255l-.006.012a9.882,9.882,0,0,1,1.86-.748c.075-.022.153-.043.232-.065.4-.108.857-.21,1.353-.306l.258-.05.912-.172.213-.041c.42-.083.85-.175,1.279-.291.076-.02.151-.042.227-.065l.076-.021c.167-.05.329-.1.49-.156l.158-.053c.123-.043.242-.086.36-.132l.159-.063a27.049,27.049,0,0,1-2.7-1.178,27.049,27.049,0,0,0,2.7,1.178,6.8,6.8,0,0,0,1.305-.686c-.37-.087-.754-.2-1.15-.332.4.133.78.245,1.15.332q.064-.044.126-.09a4.75,4.75,0,0,0,.575-.493,10,10,0,0,1-2.224-.485,10,10,0,0,0,2.224.485c.036-.037.073-.074.108-.112a4.42,4.42,0,0,0,.419-.528c.029-.043.058-.086.086-.13a4.612,4.612,0,0,0,.383-.778.113.113,0,0,0,.014-.038c.046-.122.1-.246.133-.363.015-.051.029-.1.041-.152m-3.783,2.082c-.049-.019-.131-.044-.223-.073.091.029.174.054.223.073m-1.282-.063c.75.3,1.479.573,2.174.78-.694-.207-1.424-.475-2.174-.78m.919-.053c-.089-.029-.18-.058-.262-.09.082.031.172.061.262.09" transform="translate(-55.059 -102.496)" fill="#80a173"/>
              <path id="Trazado_1064799" data-name="Trazado 1064799" d="M159.441,356.309a9.609,9.609,0,0,0,3.192,2,5.65,5.65,0,0,0,5.854-1.5,22.087,22.087,0,0,1,5.207-3.869c1.433-.707,2.528-.531,2.393-1.069-.064-.267-.517-.684-1.225-1.078-.062-.034-.124-.067-.19-.1a6.4,6.4,0,0,0-1.653-.569l-.208-.036a6.1,6.1,0,0,0-.91-.075c-.069,0-.14,0-.21,0a13.584,13.584,0,0,0-1.583,2.646,13.584,13.584,0,0,1,1.583-2.646,6.465,6.465,0,0,0-1.021.111c-.068.013-.137.026-.205.041-.257.446-.5.93-.738,1.443.236-.513.481-1,.738-1.443a9.2,9.2,0,0,0-1.887.653l-.209.1c-.155.074-.309.152-.464.233-.066.034-.133.071-.2.106-.2.109-.4.222-.609.34l-.091.054c-.092.054-.184.108-.274.165-.135.334-.264.688-.384,1,.12-.309.249-.663.384-1-.512.315-1,.655-1.472.992l-.237.173c-.35.254-.688.5-1.015.741l-.288.209c-.555.4-1.077.756-1.556,1.052-.095.058-.187.115-.279.169a13.375,13.375,0,0,1-2.462,1.144l.018.006" transform="translate(-45.788 -100.53)" fill="#80a173"/>
              <path id="Trazado_1064800" data-name="Trazado 1064800" d="M190.76,370.314a47.373,47.373,0,0,0-.887-19.435" transform="translate(-54.534 -100.777)" fill="none" stroke="#27423a" stroke-miterlimit="10" stroke-width="0.5"/>
              <path id="Trazado_1064801" data-name="Trazado 1064801" d="M183.526,363.774s-4.454-20.669-20.582-19.47" transform="translate(-46.8 -98.874)" fill="none" stroke="#27423a" stroke-miterlimit="10" stroke-width="0.5"/>
              <path id="Trazado_1064802" data-name="Trazado 1064802" d="M188.215,372.543s-1.967-6.841-7.886-9.157" transform="translate(-51.793 -104.369)" fill="none" stroke="#27423a" stroke-miterlimit="10" stroke-width="0.5"/>
              <path id="Trazado_1064803" data-name="Trazado 1064803" d="M191.226,335.4a1.9,1.9,0,0,0-.944-.75c-.408-.028-.138.745-.465,1.879a16.328,16.328,0,0,1-2.133,4.289,4.171,4.171,0,0,0-.324,4.449,7.1,7.1,0,0,0,1.872,2.061,5.045,5.045,0,0,1-.575-1.329,5.045,5.045,0,0,0,.575,1.329l.006.011a9.874,9.874,0,0,1,.51-1.939c.028-.073.056-.148.086-.225.153-.387.344-.813.562-1.268.037-.078.075-.157.114-.237.13-.269.267-.547.406-.835l.095-.2c.184-.386.367-.786.53-1.2.029-.073.056-.147.083-.221.009-.024.019-.048.028-.073.059-.164.114-.326.168-.487.017-.053.035-.106.051-.159.038-.123.075-.246.109-.367.015-.056.03-.111.044-.165a26.931,26.931,0,0,1-2.555,1.461,26.931,26.931,0,0,0,2.555-1.461,6.779,6.779,0,0,0,.229-1.456c-.291.245-.61.486-.952.724.342-.238.661-.48.952-.724,0-.052,0-.1,0-.155a4.761,4.761,0,0,0-.053-.756,9.976,9.976,0,0,1-1.716,1.5,9.976,9.976,0,0,0,1.716-1.5c-.008-.051-.016-.1-.026-.153a4.461,4.461,0,0,0-.173-.652c-.017-.049-.035-.1-.053-.146a4.508,4.508,0,0,0-.4-.772.11.11,0,0,0-.022-.034c-.07-.11-.138-.225-.212-.322-.032-.044-.065-.084-.1-.124m-.587,4.277c-.044.029-.114.08-.192.136.078-.056.148-.108.192-.136m-.817.992c.691-.421,1.343-.845,1.924-1.279-.581.433-1.232.858-1.924,1.279m.506-.77c-.076.055-.154.11-.228.156.074-.046.152-.1.228-.156" transform="translate(-53.669 -96.115)" fill="#27423a"/>
              <path id="Trazado_1064804" data-name="Trazado 1064804" d="M142.767,346.609a9.6,9.6,0,0,0,2.992,2.289,5.65,5.65,0,0,0,5.967-.944,22.081,22.081,0,0,1,5.544-3.369c1.493-.57,2.567-.293,2.482-.842-.039-.271-.45-.729-1.119-1.187-.058-.039-.117-.078-.179-.118a6.374,6.374,0,0,0-1.593-.72l-.2-.056a6.028,6.028,0,0,0-.9-.159c-.069-.007-.139-.013-.209-.018a13.571,13.571,0,0,0-1.822,2.487,13.571,13.571,0,0,1,1.822-2.487,6.529,6.529,0,0,0-1.026.016c-.069.006-.138.014-.208.022-.3.421-.587.879-.869,1.368.282-.489.572-.947.869-1.368a9.177,9.177,0,0,0-1.939.475l-.217.079q-.241.09-.483.189l-.209.088q-.316.135-.638.282c-.032.014-.063.031-.1.046-.1.045-.193.09-.289.138-.166.321-.326.661-.475.958.149-.3.309-.637.475-.958-.539.267-1.058.56-1.557.852l-.253.15c-.371.22-.731.437-1.079.644l-.307.181c-.589.346-1.142.653-1.647.9-.1.049-.2.1-.294.142a13.393,13.393,0,0,1-2.557.91l.017.008" transform="translate(-41 -98.075)" fill="#9dbf6a"/>
              <path id="Trazado_1064805" data-name="Trazado 1064805" d="M166.281,356.628c.036.116.091.239.141.359a.105.105,0,0,0,.014.037,4.567,4.567,0,0,0,.4.768c.029.043.058.086.088.128a4.481,4.481,0,0,0,.433.518l.11.109a10.037,10.037,0,0,0,2.212-.539,10.037,10.037,0,0,1-2.212.539,4.785,4.785,0,0,0,.587.479l.128.087c.368-.1.748-.218,1.141-.36-.392.143-.773.264-1.141.36a6.808,6.808,0,0,0,1.321.654,27.045,27.045,0,0,0,2.669-1.242,27.045,27.045,0,0,1-2.669,1.242l.161.059c.118.043.24.083.362.123l.16.049c.163.05.326.1.495.145l.076.019.229.06c.431.105.863.187,1.284.259l.215.036.916.15.259.043c.5.085.956.175,1.36.273l.233.059a9.8,9.8,0,0,1,1.877.7l-.006-.012a5.047,5.047,0,0,0-.753-1.237,5.047,5.047,0,0,1,.753,1.237,7.092,7.092,0,0,0-.6-2.717,4.17,4.17,0,0,0-3.82-2.3,16.32,16.32,0,0,1-4.734-.734c-1.115-.388-1.59-1.055-1.8-.7a1.9,1.9,0,0,0,.068,1.2c.014.05.029.1.045.151m4.008,1.761c-.091.031-.173.058-.222.078.049-.02.131-.048.222-.078m-1.1.816c.689-.224,1.413-.51,2.155-.833-.742.322-1.465.609-2.155.833m1.493-.959c-.081.033-.171.066-.259.1.088-.03.178-.062.259-.1" transform="translate(-47.706 -102.011)" fill="#27423a"/>
              <path id="Trazado_1064806" data-name="Trazado 1064806" d="M196.523,343.218c.518-.3.847-.614.891-.811.093-.4-.713-.255-1.781-.759a16.306,16.306,0,0,1-3.893-2.791,4.172,4.172,0,0,0-4.341-1.029,7.1,7.1,0,0,0-2.332,1.519,5.026,5.026,0,0,1,1.4-.356,5.026,5.026,0,0,0-1.4.356l-.012,0a9.977,9.977,0,0,1,1.832.814c.068.038.138.079.208.12.358.212.747.469,1.162.758.071.049.143.1.215.15.245.172.5.351.759.535l.177.124c.351.243.718.488,1.1.714.068.041.136.079.2.118l.068.039c.152.085.3.165.453.243l.149.076c.115.058.231.113.346.166l.155.071a26.98,26.98,0,0,1-1.034-2.756,26.98,26.98,0,0,0,1.034,2.756,6.832,6.832,0,0,0,1.4.458c-.2-.326-.383-.68-.563-1.056.181.376.368.729.563,1.056l.152.028a4.877,4.877,0,0,0,.755.069,10.042,10.042,0,0,1-1.2-1.933,10.042,10.042,0,0,0,1.2,1.933c.052,0,.1,0,.155,0a4.444,4.444,0,0,0,.671-.066l.153-.03a4.526,4.526,0,0,0,.825-.267.112.112,0,0,0,.036-.016c.12-.052.245-.1.352-.158.048-.026.093-.051.138-.077m-4.129-1.262c-.021-.048-.06-.125-.1-.211.043.086.083.162.1.211m-.848-.964c.3.75.619,1.461.954,2.1-.335-.642-.651-1.353-.954-2.1m.679.622c-.041-.083-.083-.17-.118-.249.034.08.076.166.118.249" transform="translate(-53.15 -96.959)" fill="#80a173"/>
              <path id="Trazado_1064807" data-name="Trazado 1064807" d="M168.032,311.623a9.609,9.609,0,0,0,.789,3.684,5.649,5.649,0,0,0,5.151,3.158,22.07,22.07,0,0,1,6.4,1.039c1.506.535,2.143,1.443,2.435.971a2.58,2.58,0,0,0-.081-1.629c-.019-.068-.038-.135-.06-.206a6.356,6.356,0,0,0-.743-1.582c-.038-.058-.078-.117-.119-.175a5.981,5.981,0,0,0-.581-.7c-.048-.051-.1-.1-.148-.149a13.568,13.568,0,0,0-3,.708,13.529,13.529,0,0,1,3-.708,6.476,6.476,0,0,0-.79-.655c-.057-.04-.114-.08-.173-.118-.5.127-1.016.287-1.548.476.532-.189,1.049-.349,1.548-.476a9.18,9.18,0,0,0-1.783-.9c-.071-.028-.144-.055-.217-.081q-.241-.088-.49-.17l-.215-.068c-.22-.069-.441-.136-.668-.2l-.1-.028c-.1-.028-.206-.056-.309-.082-.334.136-.677.29-.983.419.306-.129.649-.284.983-.419-.582-.148-1.168-.262-1.737-.364l-.289-.05c-.426-.074-.84-.143-1.239-.212l-.35-.061c-.674-.119-1.293-.245-1.84-.383-.108-.027-.213-.054-.315-.082a13.407,13.407,0,0,1-2.536-.969l.008.017" transform="translate(-48.259 -89.497)" fill="#80a173"/>
              <path id="Trazado_1064808" data-name="Trazado 1064808" d="M176.259,342.081A47.368,47.368,0,0,0,189.581,327.9" transform="translate(-50.624 -94.178)" fill="none" stroke="#27423a" stroke-miterlimit="10" stroke-width="0.5"/>
              <path id="Trazado_1064809" data-name="Trazado 1064809" d="M181.262,332.35s11.721-17.6-.376-28.33" transform="translate(-51.953 -87.318)" fill="none" stroke="#27423a" stroke-miterlimit="10" stroke-width="0.5"/>
              <path id="Trazado_1064810" data-name="Trazado 1064810" d="M177.821,341.809s3.537-6.178,1.073-12.037" transform="translate(-51.072 -94.715)" fill="none" stroke="#27423a" stroke-miterlimit="10" stroke-width="0.5"/>
              <path id="Trazado_1064811" data-name="Trazado 1064811" d="M203.971,319.044a1.907,1.907,0,0,0-.12-1.2c-.264-.313-.63.42-1.671.976a16.34,16.34,0,0,1-4.563,1.458,4.172,4.172,0,0,0-3.417,2.868,7.109,7.109,0,0,0-.173,2.778,5.019,5.019,0,0,1,.552-1.339,5.019,5.019,0,0,0-.552,1.339l0,.012a9.828,9.828,0,0,1,1.746-.985l.222-.095c.384-.16.822-.319,1.3-.48l.249-.083.882-.29.206-.068c.4-.137.82-.284,1.229-.455.073-.03.145-.062.217-.094l.072-.031c.158-.071.314-.145.465-.219l.15-.073c.115-.058.228-.118.339-.178l.149-.083a27.134,27.134,0,0,1-2.828-.814,27.134,27.134,0,0,0,2.828.814,6.782,6.782,0,0,0,1.2-.85c-.378-.038-.773-.1-1.183-.179.409.08.8.14,1.183.179.039-.035.076-.07.113-.105a4.776,4.776,0,0,0,.506-.565,10.031,10.031,0,0,1-2.269-.19,10.031,10.031,0,0,0,2.269.19c.031-.041.062-.083.092-.125a4.514,4.514,0,0,0,.346-.579c.024-.046.046-.093.068-.14a4.535,4.535,0,0,0,.278-.821.1.1,0,0,0,.009-.039c.031-.127.066-.257.084-.376.009-.053.015-.1.021-.157m-3.478,2.56c-.051-.012-.136-.026-.231-.043.095.016.18.031.231.043m-1.279.1c.783.2,1.542.375,2.257.489-.716-.114-1.474-.285-2.257-.489m.9-.173c-.092-.016-.186-.034-.271-.054.085.02.179.038.271.054" transform="translate(-55.708 -91.267)" fill="#80a173"/>
              <path id="Trazado_1064812" data-name="Trazado 1064812" d="M163.7,292.579a9.608,9.608,0,0,0,.443,3.741,5.651,5.651,0,0,0,4.836,3.622,22.1,22.1,0,0,1,6.279,1.629c1.45.674,2,1.637,2.334,1.194a2.581,2.581,0,0,0,.071-1.63c-.012-.069-.025-.138-.04-.21a6.374,6.374,0,0,0-.594-1.644c-.032-.062-.067-.123-.1-.185a6.066,6.066,0,0,0-.512-.756c-.043-.054-.088-.109-.133-.163a13.618,13.618,0,0,0-3.054.426,13.618,13.618,0,0,1,3.054-.426,6.582,6.582,0,0,0-.726-.725c-.053-.046-.106-.09-.161-.134-.509.08-1.039.192-1.587.33.548-.138,1.078-.25,1.587-.33a9.192,9.192,0,0,0-1.692-1.06l-.208-.1q-.231-.11-.472-.215l-.208-.088q-.318-.134-.646-.262l-.1-.037c-.1-.038-.2-.075-.3-.11-.346.1-.7.226-1.018.326.316-.1.672-.222,1.018-.326-.566-.2-1.138-.369-1.7-.524l-.284-.077c-.417-.113-.823-.22-1.214-.326l-.343-.093c-.66-.182-1.264-.365-1.8-.552-.1-.037-.207-.074-.306-.111a13.482,13.482,0,0,1-2.435-1.2l.006.018" transform="translate(-47.01 -84.027)" fill="#9dbf6a"/>
              <path id="Trazado_1064813" data-name="Trazado 1064813" d="M173.795,315.031c-.058.107-.108.232-.16.351a.119.119,0,0,0-.016.036,4.558,4.558,0,0,0-.271.824c-.011.05-.021.1-.03.153a4.444,4.444,0,0,0-.071.671c0,.051,0,.1,0,.155a9.989,9.989,0,0,0,1.927,1.211,9.989,9.989,0,0,1-1.927-1.211,4.849,4.849,0,0,0,.065.755c.009.051.018.1.028.153.325.2.678.386,1.053.568-.375-.182-.728-.371-1.053-.568a6.763,6.763,0,0,0,.451,1.4,26.95,26.95,0,0,0,2.751,1.048,26.95,26.95,0,0,1-2.751-1.048c.023.052.046.1.07.157q.078.172.164.346l.076.149c.078.151.158.3.241.455l.039.068c.038.069.077.138.116.205.225.383.468.75.709,1.1l.124.178c.181.262.36.516.53.761l.149.216c.287.416.542.808.752,1.166.042.071.082.14.12.208a9.984,9.984,0,0,1,.8,1.836l0-.012a5.036,5.036,0,0,0,.363-1.4,5.036,5.036,0,0,1-.363,1.4,7.094,7.094,0,0,0,1.53-2.325,4.173,4.173,0,0,0-1.009-4.346,16.3,16.3,0,0,1-2.773-3.907c-.5-1.069-.351-1.875-.751-1.783-.2.043-.513.37-.815.887-.026.045-.052.09-.077.138m1.53,4.1c-.086-.044-.163-.083-.21-.1.048.021.125.061.21.1m-1.349-.217c.641.338,1.35.657,2.1.964-.748-.307-1.458-.627-2.1-.964m1.729.4c-.08-.035-.166-.077-.249-.119.083.042.169.084.249.119" transform="translate(-49.758 -90.185)" fill="#27423a"/>
              <path id="Trazado_1064814" data-name="Trazado 1064814" d="M154.206,373.824s1.545-5.685.369-9.132c-.047-.139-.239-.237-.3-.146a7.974,7.974,0,0,0-.959,4.116,23.118,23.118,0,0,0,.111,3.4q-.788-1.705-1.712-3.376l0-.006a10.2,10.2,0,0,0-5.137-7.248c-.126-.07-.255.013-.2.145a24.088,24.088,0,0,0,1.451,3.289,11.748,11.748,0,0,0,3.635,3.955q.877,1.577,1.627,3.19a8.911,8.911,0,0,0-2.5-2.394,10.092,10.092,0,0,0-5.243-1.84.14.14,0,0,0-.095.239,21.844,21.844,0,0,0,8.667,5.876Z" transform="translate(-41.707 -103.801)" fill="#28362e"/>
              <path id="Trazado_1064815" data-name="Trazado 1064815" d="M260.942,368.081c0-.005-1.545-5.685-.369-9.132.047-.139.238-.237.3-.146a7.982,7.982,0,0,1,.958,4.116,23.118,23.118,0,0,1-.111,3.4q.788-1.705,1.712-3.375l0-.006a10.194,10.194,0,0,1,5.136-7.249c.126-.07.255.013.2.145a24.143,24.143,0,0,1-1.452,3.289,11.743,11.743,0,0,1-3.636,3.955q-.876,1.577-1.626,3.19a8.91,8.91,0,0,1,2.5-2.394,10.091,10.091,0,0,1,5.243-1.84.14.14,0,0,1,.095.239,21.844,21.844,0,0,1-8.667,5.876Z" transform="translate(-74.713 -102.152)" fill="#28362e"/>
              <path id="Trazado_1064816" data-name="Trazado 1064816" d="M248.034,381.805H144.177a4.844,4.844,0,0,1,4.844-4.844H243.19a4.844,4.844,0,0,1,4.844,4.844" transform="translate(-41.409 -108.268)" fill="#28362e"/>
              <path id="Trazado_1064817" data-name="Trazado 1064817" d="M241.956,375.009h-83.5a4.844,4.844,0,0,1,4.844-4.844h73.81a4.844,4.844,0,0,1,4.844,4.844" transform="translate(-45.511 -106.316)" fill="#28362e"/>
              <rect id="Rectángulo_401757" data-name="Rectángulo 401757" width="5.126" height="212.822" transform="translate(152.133 51.027)" fill="#28362e"/>
              <rect id="Rectángulo_401758" data-name="Rectángulo 401758" width="9.158" height="31.067" transform="translate(150.117 232.782)" fill="#28362e"/>
              <path id="Trazado_1064818" data-name="Trazado 1064818" d="M219.827,64.864a4.686,4.686,0,1,1-4.686-4.686,4.686,4.686,0,0,1,4.686,4.686" transform="translate(-60.446 -17.284)" fill="#28362e"/>
              <path id="Trazado_1064819" data-name="Trazado 1064819" d="M219.827,70.683a4.686,4.686,0,1,1-9.371,0" transform="translate(-60.446 -20.301)" fill="#28362e"/>
              <path id="Trazado_1064820" data-name="Trazado 1064820" d="M212.949,64.917a2.891,2.891,0,0,1,3.641-2.8,2.9,2.9,0,1,0-2.443,5.146,2.894,2.894,0,0,1-1.2-2.345" transform="translate(-60.886 -17.681)" fill="#4e6284"/>
              <path id="Trazado_1064821" data-name="Trazado 1064821" d="M213.4,73.13h-1.13c.022.041.043.081.067.12a2.9,2.9,0,0,0,3.323,1.21,2.891,2.891,0,0,1-2.26-1.331" transform="translate(-60.967 -21.004)" fill="#4e6284"/>
              <rect id="Rectángulo_401759" data-name="Rectángulo 401759" width="0.944" height="164.655" transform="translate(152.809 59.247)" fill="#4e6284"/>
              <path id="Trazado_1064822" data-name="Trazado 1064822" d="M213.054,332.115v23.028h-.944V332.151" transform="translate(-60.921 -95.388)" fill="#4e6284"/>
              <path id="Trazado_1064823" data-name="Trazado 1064823" d="M188.63,373.963h-24.7a1.119,1.119,0,0,1,1.118-1.118H188.63Z" transform="translate(-47.083 -107.086)" fill="#4e6284"/>
              <path id="Trazado_1064824" data-name="Trazado 1064824" d="M210.042,379.908H149.775a1.119,1.119,0,0,1,1.118-1.118h59.149Z" transform="translate(-43.017 -108.793)" fill="#4e6284"/>
              <rect id="Rectángulo_401760" data-name="Rectángulo 401760" width="190.004" height="3.141" transform="matrix(1, -0.002, 0.002, 1, 58.309, 68.377)" fill="#425a4d"/>
              <path id="Trazado_1064825" data-name="Trazado 1064825" d="M77.684,94.12A2.871,2.871,0,1,1,74.817,97a2.871,2.871,0,0,1,2.867-2.876" transform="translate(-21.488 -27.032)" fill="#425a4d"/>
              <path id="Trazado_1064826" data-name="Trazado 1064826" d="M81.247,94.116a2.871,2.871,0,1,1,.009,5.742" transform="translate(-23.335 -27.031)" fill="#425a4d"/>
              <path id="Trazado_1064827" data-name="Trazado 1064827" d="M77.724,99.513a1.776,1.776,0,0,1-1.78-1.773,1.736,1.736,0,0,1,.06-.454,1.761,1.761,0,0,0-.339,1.044c0,.982,1.155,1.489,2.137,1.487a1.174,1.174,0,0,0,1.357-1.039,1.768,1.768,0,0,1-1.436.736" transform="translate(-21.732 -27.942)" fill="#4d6693"/>
              <path id="Trazado_1064828" data-name="Trazado 1064828" d="M82.757,99.526v.692c.024-.014.049-.026.073-.041a1.775,1.775,0,0,0,.738-2.037,1.771,1.771,0,0,1-.813,1.386" transform="translate(-23.769 -28.187)" fill="#4d6693"/>
              <path id="Trazado_1064829" data-name="Trazado 1064829" d="M267.527,98.524l.155.578-178.65.3-.155-.578Z" transform="translate(-25.526 -28.297)" fill="#4d6693"/>
              <path id="Trazado_1064830" data-name="Trazado 1064830" d="M350.435,99.407a2.871,2.871,0,1,1,2.867-2.876,2.871,2.871,0,0,1-2.867,2.876" transform="translate(-99.823 -26.902)" fill="#425a4d"/>
              <path id="Trazado_1064831" data-name="Trazado 1064831" d="M348.026,99.411a2.871,2.871,0,1,1-.009-5.742" transform="translate(-99.131 -26.903)" fill="#425a4d"/>
              <path id="Trazado_1064832" data-name="Trazado 1064832" d="M351.3,95.191a1.777,1.777,0,0,1,1.78,1.774,1.732,1.732,0,0,1-.06.454,1.776,1.776,0,1,0-3.156-1.491,1.772,1.772,0,0,1,1.436-.737" transform="translate(-100.486 -27.171)" fill="#65aee5"/>
              <path id="Trazado_1064833" data-name="Trazado 1064833" d="M347.315,95.477v-.692c-.024.014-.049.026-.073.041a1.776,1.776,0,0,0-.738,2.037,1.771,1.771,0,0,1,.813-1.386" transform="translate(-99.496 -27.223)" fill="#65aee5"/>
              <path id="Trazado_1064834" data-name="Trazado 1064834" d="M218.306,96.974a2.349,2.349,0,1,1-2.349-2.349,2.348,2.348,0,0,1,2.349,2.349" transform="translate(-61.351 -27.177)" fill="#4d6693"/>
              <path id="Trazado_1064835" data-name="Trazado 1064835" d="M217.7,97.382a1.334,1.334,0,1,1-1.334-1.334,1.334,1.334,0,0,1,1.334,1.334" transform="translate(-61.76 -27.586)" fill="#28362e"/>
              <line id="Línea_2433" data-name="Línea 2433" x2="140.217" transform="translate(82.671 273.797)" fill="none" stroke="#232744" stroke-miterlimit="10" stroke-width="1"/>
              <path id="Trazado_1064836" data-name="Trazado 1064836" d="M173.691,175.585l1.4-1.969a2.3,2.3,0,0,0-.54-3.211l-2.084-1.485a1.82,1.82,0,0,1-.632-2.162,19.847,19.847,0,0,0,1.346-5.62A1.821,1.821,0,0,1,174.7,159.5l2.324-.391a2.3,2.3,0,0,0,1.889-2.652l-.4-2.384a2.3,2.3,0,0,0-2.652-1.89l-2.232.375a1.821,1.821,0,0,1-1.977-1.083,19.861,19.861,0,0,0-3.149-5.086,1.818,1.818,0,0,1-.1-2.235l1.212-1.7a2.3,2.3,0,0,0-.54-3.211l-1.969-1.4a2.3,2.3,0,0,0-3.211.539l-1.211,1.7a1.825,1.825,0,0,1-2.155.635,19.884,19.884,0,0,0-5.908-1.317,1.828,1.828,0,0,1-1.691-1.516l-.33-1.967a2.3,2.3,0,0,0-2.652-1.889l-2.384.4a2.3,2.3,0,0,0-1.89,2.652l.594,3.537a19.876,19.876,0,0,0-6.319,3.815,1.821,1.821,0,0,1-2.271.128l-1.735-1.237a2.3,2.3,0,0,0-3.211.54l-1.4,1.969a2.3,2.3,0,0,0,.54,3.211l1.945,1.386a1.819,1.819,0,0,1,.654,2.1,19.9,19.9,0,0,0-1.163,5.7,1.822,1.822,0,0,1-1.515,1.7l-2.388.4a2.3,2.3,0,0,0-1.889,2.652l.4,2.384a2.3,2.3,0,0,0,2.652,1.89l2.655-.446a1.819,1.819,0,0,1,1.951,1.028,19.874,19.874,0,0,0,3.074,4.7,1.824,1.824,0,0,1,.122,2.264l-1.559,2.188a2.3,2.3,0,0,0,.54,3.211l1.969,1.4a2.3,2.3,0,0,0,3.211-.54l1.659-2.329a1.822,1.822,0,0,1,2.121-.647,19.876,19.876,0,0,0,5.389,1.185,1.823,1.823,0,0,1,1.664,1.514l.461,2.744a2.3,2.3,0,0,0,2.652,1.889l2.384-.4a2.3,2.3,0,0,0,1.889-2.652l-.465-2.768a1.824,1.824,0,0,1,1.068-1.97,19.854,19.854,0,0,0,4.744-2.95,1.822,1.822,0,0,1,2.228-.091l2.155,1.535a2.3,2.3,0,0,0,3.211-.54m-26.541-5.474a12.385,12.385,0,1,1,15.421-2.59,12.388,12.388,0,0,1-15.421,2.59" transform="translate(-36.614 -38.484)" fill="#d6e482"/>
              <path id="Trazado_1064837" data-name="Trazado 1064837" d="M162.611,111.358l.311-1.527a1.483,1.483,0,0,0-1.158-1.748l-1.615-.329a1.174,1.174,0,0,1-.938-1.108,12.781,12.781,0,0,0-.679-3.661,1.173,1.173,0,0,1,.461-1.359l1.266-.838a1.484,1.484,0,0,0,.418-2.056l-.86-1.3a1.483,1.483,0,0,0-2.056-.418l-1.216.805A1.173,1.173,0,0,1,155.1,97.7a12.814,12.814,0,0,0-3.185-2.17,1.17,1.17,0,0,1-.642-1.29l.268-1.318a1.483,1.483,0,0,0-1.158-1.749l-1.526-.311a1.483,1.483,0,0,0-1.748,1.158l-.268,1.317a1.177,1.177,0,0,1-1.1.938,12.805,12.805,0,0,0-3.823.771,1.178,1.178,0,0,1-1.392-.45l-.709-1.071a1.483,1.483,0,0,0-2.056-.418l-1.3.86a1.483,1.483,0,0,0-.418,2.055l1.275,1.927a12.8,12.8,0,0,0-2.721,3.9,1.172,1.172,0,0,1-1.3.669l-1.346-.274A1.483,1.483,0,0,0,130.2,103.4l-.311,1.526a1.483,1.483,0,0,0,1.158,1.749l1.508.306a1.171,1.171,0,0,1,.935,1.066,12.8,12.8,0,0,0,.808,3.661,1.175,1.175,0,0,1-.446,1.4l-1.3.86a1.484,1.484,0,0,0-.418,2.056l.86,1.3a1.483,1.483,0,0,0,2.056.418l1.446-.957a1.174,1.174,0,0,1,1.418.094,12.786,12.786,0,0,0,3.039,1.961,1.174,1.174,0,0,1,.664,1.3l-.345,1.7a1.482,1.482,0,0,0,1.158,1.748l1.526.311a1.483,1.483,0,0,0,1.748-1.158l.368-1.805a1.172,1.172,0,0,1,1.078-.936,12.8,12.8,0,0,0,3.483-.713,1.174,1.174,0,0,1,1.376.455l.989,1.494a1.484,1.484,0,0,0,2.056.418l1.3-.86a1.483,1.483,0,0,0,.418-2.056l-1-1.508a1.174,1.174,0,0,1,.113-1.439,12.8,12.8,0,0,0,2.021-2.978,1.174,1.174,0,0,1,1.287-.637l1.671.34a1.483,1.483,0,0,0,1.748-1.158m-17.056,3.724a7.979,7.979,0,1,1,8.4-5.56,7.981,7.981,0,0,1-8.4,5.56" transform="translate(-37.297 -26.088)" fill="#d6e482"/>
              <path id="Trazado_1064838" data-name="Trazado 1064838" d="M294.915,131.117a1.9,1.9,0,0,0-.269-1.174c-.3-.277-.573.5-1.537,1.177a16.314,16.314,0,0,1-4.344,2.018,4.172,4.172,0,0,0-3.031,3.273,7.1,7.1,0,0,0,.176,2.778,5.032,5.032,0,0,1,.38-1.4,5.032,5.032,0,0,0-.38,1.4l0,.012a9.889,9.889,0,0,1,1.609-1.2l.208-.122c.361-.207.776-.42,1.23-.639l.237-.113.838-.4.2-.094c.385-.186.778-.384,1.163-.605.068-.039.136-.08.2-.12l.068-.04q.222-.137.435-.276l.14-.092c.107-.073.212-.145.314-.22.046-.033.093-.067.138-.1a27.209,27.209,0,0,1-2.908-.454,27.209,27.209,0,0,0,2.908.454,6.764,6.764,0,0,0,1.088-1c-.381.01-.78,0-1.2-.029.416.028.816.039,1.2.029l.1-.118a4.907,4.907,0,0,0,.431-.624,10.01,10.01,0,0,1-2.275.1,10.01,10.01,0,0,0,2.275-.1c.026-.045.051-.09.075-.135a4.5,4.5,0,0,0,.272-.617c.017-.049.034-.1.049-.148a4.541,4.541,0,0,0,.173-.85.107.107,0,0,0,0-.04c.014-.13.033-.263.036-.384,0-.054,0-.106,0-.158m-3.13,2.975c-.052-.006-.138-.009-.234-.014.1,0,.182.009.234.014m-1.257.264c.8.1,1.577.179,2.3.2-.724-.024-1.5-.1-2.3-.2m.876-.285c-.093,0-.189-.011-.276-.02.087.009.182.015.276.02" transform="translate(-82.043 -37.305)" fill="#80a173"/>
              <path id="Trazado_1064839" data-name="Trazado 1064839" d="M252.876,139.991a9.608,9.608,0,0,0,3.6,1.125,5.65,5.65,0,0,0,5.282-2.933,22.065,22.065,0,0,1,4.053-5.065c1.207-1.049,2.31-1.156,2.043-1.642a2.581,2.581,0,0,0-1.458-.732c-.068-.017-.137-.034-.208-.048a6.34,6.34,0,0,0-1.744-.13c-.069,0-.14.011-.21.018a6.021,6.021,0,0,0-.9.159c-.067.017-.135.036-.2.055a13.584,13.584,0,0,0-.858,2.961,13.584,13.584,0,0,1,.858-2.961,6.522,6.522,0,0,0-.959.367q-.094.044-.188.092c-.135.5-.249,1.026-.346,1.582.1-.556.212-1.086.346-1.582a9.174,9.174,0,0,0-1.659,1.111l-.178.148c-.13.111-.259.225-.389.344-.056.05-.11.1-.166.154q-.251.234-.5.483l-.074.076c-.076.076-.15.151-.224.228-.046.359-.08.733-.118,1.063.039-.33.072-.7.118-1.063-.415.435-.8.888-1.171,1.334-.063.076-.124.152-.186.227-.274.334-.537.661-.793.975l-.225.274c-.436.528-.85,1.005-1.238,1.413q-.114.121-.227.234a13.428,13.428,0,0,1-2.091,1.732h.019" transform="translate(-72.624 -37.496)" fill="#80a173"/>
              <path id="Trazado_1064840" data-name="Trazado 1064840" d="M286.083,146.933a47.363,47.363,0,0,0-5.795-18.572" transform="translate(-80.502 -36.867)" fill="none" stroke="#27423a" stroke-miterlimit="10" stroke-width="0.5"/>
              <path id="Trazado_1064841" data-name="Trazado 1064841" d="M277.429,142.093s-9.559-18.859-24.853-13.6" transform="translate(-72.543 -36.638)" fill="none" stroke="#27423a" stroke-miterlimit="10" stroke-width="0.5"/>
              <path id="Trazado_1064842" data-name="Trazado 1064842" d="M284.187,149.735s-3.641-6.117-9.954-6.853" transform="translate(-78.763 -41.038)" fill="none" stroke="#27423a" stroke-miterlimit="10" stroke-width="0.5"/>
              <path id="Trazado_1064843" data-name="Trazado 1064843" d="M278.5,112.692a1.9,1.9,0,0,0-1.1-.485c-.4.077.055.755.027,1.935a16.325,16.325,0,0,1-.974,4.69,4.171,4.171,0,0,0,.818,4.386,7.1,7.1,0,0,0,2.334,1.517,5.028,5.028,0,0,1-.894-1.138,5.028,5.028,0,0,0,.894,1.138l.009.01a9.872,9.872,0,0,1,0-2.005c.008-.078.016-.158.026-.239.049-.413.125-.873.222-1.369.016-.086.033-.171.05-.258.058-.293.12-.6.181-.91.014-.071.028-.141.042-.213.08-.42.155-.853.207-1.294.009-.078.017-.156.024-.235,0-.026.006-.052.009-.078.016-.174.028-.344.039-.513,0-.056.006-.112.009-.168.006-.129.01-.257.012-.383,0-.057,0-.115,0-.171a27,27,0,0,1-2.1,2.063,27,27,0,0,0,2.1-2.063,6.785,6.785,0,0,0-.148-1.466c-.22.31-.467.624-.738.942.271-.318.518-.632.738-.942-.011-.051-.024-.1-.036-.15a4.751,4.751,0,0,0-.243-.718,10.028,10.028,0,0,1-1.28,1.882,10.028,10.028,0,0,0,1.28-1.882c-.021-.048-.041-.095-.063-.141a4.535,4.535,0,0,0-.334-.587c-.029-.043-.058-.086-.088-.128a4.525,4.525,0,0,0-.579-.646.091.091,0,0,0-.03-.027c-.1-.088-.191-.183-.287-.258-.042-.034-.084-.065-.125-.1m.519,4.287c-.036.038-.09.105-.15.18.061-.075.115-.142.15-.18m-.537,1.165c.562-.582,1.084-1.158,1.535-1.725-.451.567-.974,1.143-1.535,1.725m.294-.872c-.06.072-.121.145-.18.209.059-.063.12-.137.18-.209" transform="translate(-79.323 -32.226)" fill="#80a173"/>
              <path id="Trazado_1064844" data-name="Trazado 1064844" d="M234.166,134.85a9.606,9.606,0,0,0,3.476,1.454,5.649,5.649,0,0,0,5.532-2.429,22.074,22.074,0,0,1,4.506-4.666c1.3-.932,2.408-.936,2.187-1.446a2.581,2.581,0,0,0-1.384-.864c-.066-.023-.133-.046-.2-.068a6.4,6.4,0,0,0-1.724-.292c-.069,0-.14,0-.211,0a5.962,5.962,0,0,0-.91.074c-.069.011-.138.023-.207.036a13.564,13.564,0,0,0-1.13,2.868,13.564,13.564,0,0,1,1.13-2.868,6.479,6.479,0,0,0-.989.276c-.066.024-.13.048-.2.074-.18.482-.344,1-.493,1.544.148-.545.312-1.061.493-1.544a9.163,9.163,0,0,0-1.755.952l-.19.131q-.211.148-.42.306l-.18.138c-.181.14-.363.284-.545.434l-.081.069c-.081.068-.163.137-.244.206-.079.353-.148.722-.217,1.047.069-.325.138-.694.217-1.047-.453.395-.881.81-1.29,1.22l-.207.209c-.3.307-.6.609-.88.9l-.25.252c-.483.485-.939.922-1.364,1.292-.084.073-.166.144-.247.212a13.351,13.351,0,0,1-2.243,1.53l.019,0" transform="translate(-67.25 -36.343)" fill="#9dbf6a"/>
              <path id="Trazado_1064845" data-name="Trazado 1064845" d="M258.961,139.787c.065.1.149.207.227.311a.1.1,0,0,0,.024.033,4.576,4.576,0,0,0,.584.641c.038.034.078.068.118.1a4.439,4.439,0,0,0,.55.391l.134.078a10.044,10.044,0,0,0,2-1.083,10.044,10.044,0,0,1-2,1.083,4.8,4.8,0,0,0,.69.314l.145.051c.331-.187.669-.4,1.013-.638-.344.237-.681.451-1.013.638a6.814,6.814,0,0,0,1.444.3,27.087,27.087,0,0,0,2.265-1.88,27.087,27.087,0,0,1-2.265,1.88l.17.016c.125.011.253.02.382.027l.167.007c.17.007.341.012.515.014h.315c.443-.008.882-.038,1.309-.076l.216-.02.924-.088.262-.024c.5-.045.969-.075,1.384-.082l.241,0a9.914,9.914,0,0,1,1.994.2l-.009-.009a5.021,5.021,0,0,0-1.042-1.005,5.021,5.021,0,0,1,1.042,1.005,7.1,7.1,0,0,0-1.272-2.476,4.172,4.172,0,0,0-4.28-1.258,16.3,16.3,0,0,1-4.764.493c-1.178-.091-1.805-.616-1.923-.223a1.9,1.9,0,0,0,.371,1.146c.026.045.053.09.082.135m4.324.684c-.081.053-.153.1-.195.132.042-.031.114-.079.195-.132m-.852,1.068c.61-.391,1.236-.853,1.872-1.353-.636.5-1.262.962-1.872,1.353m1.2-1.307c-.07.053-.149.106-.227.158.078-.051.157-.105.227-.158" transform="translate(-74.242 -39.666)" fill="#27423a"/>
              <path id="Trazado_1064846" data-name="Trazado 1064846" d="M358.252,163.607a47.946,47.946,0,1,1-56.335-33.515,47.948,47.948,0,0,1,56.335,33.515" transform="translate(-75.892 -37.045)" fill="#c6dbbc"/>
              <path id="Trazado_1064847" data-name="Trazado 1064847" d="M282.515,151.538l9.651,4.82a6.287,6.287,0,0,1,2.751,2.688l2.852,5.394a6.3,6.3,0,0,0,1.86,2.147l7.7,5.6a6.289,6.289,0,0,1,2.58,4.727l.515,8.99a6.283,6.283,0,0,0,.525,2.181l2.5,5.652a6.288,6.288,0,0,0,5.1,3.715l6.888.722a6.277,6.277,0,0,1,2.222.663l5.536,2.848a6.292,6.292,0,0,1,3.16,3.823l3.389,11.556a6.3,6.3,0,0,1-2.773,7.149,48.862,48.862,0,0,1-16.941,6.625,6.3,6.3,0,0,1-7.238-5.2l-2.1-12.916a6.286,6.286,0,0,1,.078-2.42l.883-3.836a6.292,6.292,0,0,0-3.322-7.038l-4.258-2.127a6.2,6.2,0,0,1-.875-.529l-1.959-1.416a6.289,6.289,0,0,0-6.333-.606l-4.627,2.149a6.365,6.365,0,0,1-.764.3l-10.37,3.258a6.3,6.3,0,0,1-2.049.287l-5.469-.143a6.269,6.269,0,0,1-5.858-4.468c-2.328-7.853-4.972-25.214,8.984-42.849a6.311,6.311,0,0,1,7.766-1.746" transform="translate(-75.796 -43.334)" fill="#9dbf6a"/>
              <g id="Grupo_1210309" data-name="Grupo 1210309" transform="translate(188.158 91.638)" opacity="0.33">
                <g id="Grupo_1210308" data-name="Grupo 1210308">
                  <g id="Grupo_1210307" data-name="Grupo 1210307" clip-path="url(#clip-path-3)">
                    <path id="Trazado_1064848" data-name="Trazado 1064848" d="M358.659,165.073a47.946,47.946,0,1,1-58.3-34.777A48,48,0,0,1,358.659,165.073Z" transform="translate(-264.047 -128.635)" fill="none" stroke="#27423a" stroke-miterlimit="10" stroke-width="0.5"/>
                    <path id="Trazado_1064849" data-name="Trazado 1064849" d="M357.019,165.822c6.533,25.725-7.772,51.558-31.954,57.7s-49.079-9.734-55.614-35.459,7.772-51.558,31.954-57.7S350.486,140.1,357.019,165.822Z" transform="translate(-265.094 -128.701)" fill="none" stroke="#27423a" stroke-miterlimit="10" stroke-width="0.5"/>
                    <path id="Trazado_1064850" data-name="Trazado 1064850" d="M355.1,166.689c6.533,25.725-6.371,51.2-28.824,56.9S280.33,213.065,273.8,187.34s6.372-51.2,28.824-56.9S348.571,140.964,355.1,166.689Z" transform="translate(-266.308 -128.773)" fill="none" stroke="#27423a" stroke-miterlimit="10" stroke-width="0.5"/>
                    <path id="Trazado_1064851" data-name="Trazado 1064851" d="M352.972,167.645c6.533,25.725-4.817,50.807-25.352,56.023s-42.48-11.41-49.013-37.136,4.817-50.807,25.352-56.023S346.438,141.92,352.972,167.645Z" transform="translate(-267.647 -128.847)" fill="none" stroke="#27423a" stroke-miterlimit="10" stroke-width="0.5"/>
                    <path id="Trazado_1064852" data-name="Trazado 1064852" d="M350.14,168.9c6.533,25.725-2.766,50.286-20.773,54.859s-37.9-12.573-44.434-38.3,2.767-50.286,20.773-54.86S343.606,143.171,350.14,168.9Z" transform="translate(-269.394 -128.935)" fill="none" stroke="#27423a" stroke-miterlimit="10" stroke-width="0.5"/>
                    <path id="Trazado_1064853" data-name="Trazado 1064853" d="M347.52,170.033c6.533,25.725-.888,49.81-16.576,53.794s-33.7-13.64-40.237-39.365.888-49.809,16.577-53.793S340.986,144.308,347.52,170.033Z" transform="translate(-270.971 -129.006)" fill="none" stroke="#27423a" stroke-miterlimit="10" stroke-width="0.5"/>
                    <path id="Trazado_1064854" data-name="Trazado 1064854" d="M340.177,173.071c6.533,25.725,4.214,48.514-5.181,50.9s-22.308-16.533-28.842-42.258-4.214-48.514,5.181-50.9S333.643,147.346,340.177,173.071Z" transform="translate(-275.024 -129.151)" fill="none" stroke="#27423a" stroke-miterlimit="10" stroke-width="0.5"/>
                    <path id="Trazado_1064855" data-name="Trazado 1064855" d="M344.192,171.442c6.533,25.725,1.463,49.212-11.325,52.46s-28.452-14.973-34.986-40.7-1.463-49.212,11.326-52.46S337.658,145.717,344.192,171.442Z" transform="translate(-272.894 -129.082)" fill="none" stroke="#27423a" stroke-miterlimit="10" stroke-width="0.5"/>
                    <path id="Trazado_1064856" data-name="Trazado 1064856" d="M337.161,174.225c6.533,25.725,6.183,48.013-.783,49.783s-17.91-17.651-24.444-43.375-6.183-48.014.783-49.783S330.627,148.5,337.161,174.225Z" transform="translate(-276.405 -129.187)" fill="none" stroke="#27423a" stroke-miterlimit="10" stroke-width="0.5"/>
                    <path id="Trazado_1064857" data-name="Trazado 1064857" d="M333.576,175.486c6.533,25.725,8.355,47.462,4.068,48.551s-13.059-18.883-19.593-44.608-8.355-47.462-4.067-48.551S327.043,149.76,333.576,175.486Z" transform="translate(-277.671 -129.216)" fill="none" stroke="#27423a" stroke-miterlimit="10" stroke-width="0.5"/>
                    <line id="Línea_2434" data-name="Línea 2434" x2="23.66" y2="93.158" transform="translate(36.312 1.662)" fill="none" stroke="#27423a" stroke-miterlimit="10" stroke-width="0.5"/>
                    <line id="Línea_2435" data-name="Línea 2435" y1="23.578" x2="92.831" transform="translate(1.726 36.452)" fill="none" stroke="#27423a" stroke-miterlimit="10" stroke-width="0.5"/>
                    <line id="Línea_2436" data-name="Línea 2436" y1="20.452" x2="80.526" transform="translate(1.944 14.647)" fill="none" stroke="#27423a" stroke-miterlimit="10" stroke-width="0.5"/>
                    <line id="Línea_2437" data-name="Línea 2437" y1="20.538" x2="80.861" transform="translate(13.646 61.34)" fill="none" stroke="#27423a" stroke-miterlimit="10" stroke-width="0.5"/>
                  </g>
                </g>
              </g>
              <path id="Trazado_1064858" data-name="Trazado 1064858" d="M330.29,173.722c2.706,7.351,10.733,9.637,10.6,9.5-.093-.1.94-7.361-.644-12.912-1.755-5.578-5.359-10.348-7.575-10.316-2.232.021-5.039,6.479-2.386,13.733" transform="translate(-94.554 -45.951)" fill="#94af64"/>
              <path id="Trazado_1064859" data-name="Trazado 1064859" d="M351.622,192.983a37.243,37.243,0,0,1-9.561-9.089c-3.569-4.964-6.732-13.668-7.4-19.538" transform="translate(-96.119 -47.205)" fill="none" stroke="#27423a" stroke-miterlimit="10" stroke-width="0.5"/>
              <path id="Trazado_1064860" data-name="Trazado 1064860" d="M338.748,168.755a44.782,44.782,0,0,0-1.795,4.218" transform="translate(-96.777 -48.469)" fill="none" stroke="#27423a" stroke-miterlimit="10" stroke-width="0.5"/>
              <path id="Trazado_1064861" data-name="Trazado 1064861" d="M337.93,180.291q-1.824-1.065-3.618-2.311" transform="translate(-96.019 -51.118)" fill="none" stroke="#27423a" stroke-miterlimit="10" stroke-width="0.5"/>
              <path id="Trazado_1064862" data-name="Trazado 1064862" d="M370.185,194.549c-5.95,2.873-7.212,9.8-7.1,9.679.078-.087,6.256.187,10.787-1.6,4.539-1.93,8.248-5.345,8.04-7.2s-5.851-3.7-11.723-.88" transform="translate(-104.28 -55.459)" fill="#699a59"/>
              <path id="Trazado_1064863" data-name="Trazado 1064863" d="M354.111,213.8a31.429,31.429,0,0,1,6.848-8.77,40.908,40.908,0,0,1,15.8-7.81" transform="translate(-101.705 -56.645)" fill="none" stroke="#27423a" stroke-miterlimit="10" stroke-width="0.5"/>
              <path id="Trazado_1064864" data-name="Trazado 1064864" d="M381.094,201.151a37.811,37.811,0,0,0-3.688-1.162" transform="translate(-108.396 -57.439)" fill="none" stroke="#27423a" stroke-miterlimit="10" stroke-width="0.5"/>
              <path id="Trazado_1064865" data-name="Trazado 1064865" d="M372.108,201.27q.743-1.618,1.644-3.226" transform="translate(-106.874 -56.881)" fill="none" stroke="#27423a" stroke-miterlimit="10" stroke-width="0.5"/>
              <path id="Trazado_1064866" data-name="Trazado 1064866" d="M349.385,170.962c-3.436,5.127-1.18,11.3-1.149,11.157.022-.108,5.13-2.807,7.937-6.386,2.745-3.7,4.12-8.206,3.074-9.6s-6.464-.217-9.862,4.833" transform="translate(-99.801 -47.556)" fill="#699a59"/>
              <path id="Trazado_1064867" data-name="Trazado 1064867" d="M347.274,187.176a29.387,29.387,0,0,1,1.086-4.667,38.227,38.227,0,0,1,9.037-13.76" transform="translate(-99.741 -48.467)" fill="none" stroke="#27423a" stroke-miterlimit="10" stroke-width="0.5"/>
              <path id="Trazado_1064868" data-name="Trazado 1064868" d="M359.477,173.852a35.366,35.366,0,0,0-3.52.807" transform="translate(-102.235 -49.932)" fill="none" stroke="#27423a" stroke-miterlimit="10" stroke-width="0.5"/>
              <path id="Trazado_1064869" data-name="Trazado 1064869" d="M352.826,178.207q-.165-1.656-.2-3.376" transform="translate(-101.279 -50.214)" fill="none" stroke="#27423a" stroke-miterlimit="10" stroke-width="0.5"/>
              <path id="Trazado_1064870" data-name="Trazado 1064870" d="M348.042,193.964c-1.582,7.671,4.029,13.851,3.993,13.663-.025-.137,4.684-5.755,6.27-11.306,1.454-5.663.912-11.617-.987-12.76-1.907-1.16-7.7,2.842-9.275,10.4" transform="translate(-99.881 -52.664)" fill="#94af64"/>
              <path id="Trazado_1064871" data-name="Trazado 1064871" d="M357.01,220.928a37.255,37.255,0,0,1-3.322-12.767c-.411-6.1,1.5-15.162,4.03-20.5" transform="translate(-101.567 -53.899)" fill="none" stroke="#27423a" stroke-miterlimit="10" stroke-width="0.5"/>
              <path id="Trazado_1064872" data-name="Trazado 1064872" d="M359.614,193.936a45.081,45.081,0,0,0-3.751,2.634" transform="translate(-102.208 -55.701)" fill="none" stroke="#27423a" stroke-miterlimit="10" stroke-width="0.5"/>
              <path id="Trazado_1064873" data-name="Trazado 1064873" d="M353.728,202.921q-.987-1.867-1.853-3.873" transform="translate(-101.063 -57.169)" fill="none" stroke="#27423a" stroke-miterlimit="10" stroke-width="0.5"/>
              <path id="Trazado_1064874" data-name="Trazado 1064874" d="M368.979,157.457c-2.234,6.773,2.195,12.95,2.183,12.776-.009-.126,4.839-4.716,6.853-9.571,1.908-4.971,2.04-10.412.442-11.645-1.6-1.249-7.262,1.765-9.478,8.439" transform="translate(-105.795 -42.72)" fill="#94af64"/>
              <path id="Trazado_1064875" data-name="Trazado 1064875" d="M374.015,182.592a33.914,33.914,0,0,1-1.669-11.895,44.159,44.159,0,0,1,5.789-18.12" transform="translate(-106.935 -43.822)" fill="none" stroke="#27423a" stroke-miterlimit="10" stroke-width="0.5"/>
              <path id="Trazado_1064876" data-name="Trazado 1064876" d="M379.938,158.436a40.952,40.952,0,0,0-3.669,1.991" transform="translate(-108.069 -45.505)" fill="none" stroke="#27423a" stroke-miterlimit="10" stroke-width="0.5"/>
              <path id="Trazado_1064877" data-name="Trazado 1064877" d="M373.785,165.789q-.7-1.792-1.271-3.7" transform="translate(-106.991 -46.555)" fill="none" stroke="#27423a" stroke-miterlimit="10" stroke-width="0.5"/>
              <path id="Trazado_1064878" data-name="Trazado 1064878" d="M396.606,166.672c-5.858,6.63-3.828,15.837-3.756,15.632.052-.147,7.822-3.009,12.492-7.561,4.605-4.734,7.416-10.875,6.2-13.06-1.217-2.208-9.142-1.539-14.931,4.988" transform="translate(-112.717 -46.111)" fill="#9dbf6a"/>
              <path id="Trazado_1064879" data-name="Trazado 1064879" d="M388.029,197.278A42.066,42.066,0,0,1,391.94,182.9c3.022-6.208,9.979-14.019,15.458-17.829" transform="translate(-111.447 -47.41)" fill="none" stroke="#27423a" stroke-miterlimit="10" stroke-width="0.5"/>
              <path id="Trazado_1064880" data-name="Trazado 1064880" d="M411.33,172.209a50.7,50.7,0,0,0-5.156.477" transform="translate(-116.658 -49.461)" fill="none" stroke="#27423a" stroke-miterlimit="10" stroke-width="0.5"/>
              <path id="Trazado_1064881" data-name="Trazado 1064881" d="M400.968,176.862q.081-2.383.358-4.836" transform="translate(-115.163 -49.408)" fill="none" stroke="#27423a" stroke-miterlimit="10" stroke-width="0.5"/>
              <path id="Trazado_1064882" data-name="Trazado 1064882" d="M410.062,185.153c-6.939-.668-11.871,4.888-11.708,4.838.119-.035,5.54,3.6,10.6,4.468,5.151.746,10.366-.3,11.2-2.092s-3.25-6.543-10.092-7.214" transform="translate(-114.411 -53.162)" fill="#699a59"/>
              <path id="Trazado_1064883" data-name="Trazado 1064883" d="M391.895,193.089a33.188,33.188,0,0,1,5.222-1.421,43.169,43.169,0,0,1,18.524,1.607" transform="translate(-112.557 -54.935)" fill="none" stroke="#27423a" stroke-miterlimit="10" stroke-width="0.5"/>
              <path id="Trazado_1064884" data-name="Trazado 1064884" d="M418.741,195.006a39.874,39.874,0,0,0-2.689-3.068" transform="translate(-119.495 -55.127)" fill="none" stroke="#27423a" stroke-miterlimit="10" stroke-width="0.5"/>
              <path id="Trazado_1064885" data-name="Trazado 1064885" d="M409.859,190.554q1.558-1.051,3.25-2.009" transform="translate(-117.717 -54.152)" fill="none" stroke="#27423a" stroke-miterlimit="10" stroke-width="0.5"/>
              <path id="Trazado_1064886" data-name="Trazado 1064886" d="M421.683,212.31c-5.124-4.727-12.412-3.282-12.251-3.223.115.043,2.24,6.213,5.746,9.968,3.652,3.708,8.441,6.026,10.184,5.1,1.76-.922,1.366-7.176-3.678-11.847" transform="translate(-117.593 -59.98)" fill="#94af64"/>
              <path id="Trazado_1064887" data-name="Trazado 1064887" d="M403.162,206.764a33.208,33.208,0,0,1,5.019,2.024,43.173,43.173,0,0,1,13.785,12.479" transform="translate(-115.793 -59.385)" fill="none" stroke="#27423a" stroke-miterlimit="10" stroke-width="0.5"/>
              <path id="Trazado_1064888" data-name="Trazado 1064888" d="M423.833,223.936a39.948,39.948,0,0,0-.289-4.069" transform="translate(-121.647 -63.149)" fill="none" stroke="#27423a" stroke-miterlimit="10" stroke-width="0.5"/>
              <path id="Trazado_1064889" data-name="Trazado 1064889" d="M418.959,215.665q1.876.1,3.8.364" transform="translate(-120.33 -61.942)" fill="none" stroke="#27423a" stroke-miterlimit="10" stroke-width="0.5"/>
              <path id="Trazado_1064890" data-name="Trazado 1064890" d="M384.139,196.309c-8.475,2.539-11.611,11.43-11.442,11.294.122-.1,8.233,1.572,14.6.172,6.41-1.591,12.038-5.321,12.157-7.821.131-2.518-6.953-6.133-15.315-3.645" transform="translate(-107.041 -56.142)" fill="#94af64"/>
              <path id="Trazado_1064891" data-name="Trazado 1064891" d="M358.342,219.25A42.089,42.089,0,0,1,369.253,209.1c5.844-3.678,15.877-6.638,22.54-6.982" transform="translate(-102.92 -58.052)" fill="none" stroke="#27423a" stroke-miterlimit="10" stroke-width="0.5"/>
              <path id="Trazado_1064892" data-name="Trazado 1064892" d="M398.115,206.3a50.572,50.572,0,0,0-4.63-2.317" transform="translate(-113.014 -58.588)" fill="none" stroke="#27423a" stroke-miterlimit="10" stroke-width="0.5"/>
              <path id="Trazado_1064893" data-name="Trazado 1064893" d="M385.932,204.7q1.327-1.982,2.857-3.918" transform="translate(-110.845 -57.667)" fill="none" stroke="#27423a" stroke-miterlimit="10" stroke-width="0.5"/>
              <path id="Trazado_1064894" data-name="Trazado 1064894" d="M270.185,189.414c.286-1.4,43.716-89.156,43.716-89.156l38.22,89.156Z" transform="translate(-77.601 -28.795)" fill="none" stroke="#4d6693" stroke-miterlimit="10" stroke-width="1"/>
              <path id="Trazado_1064895" data-name="Trazado 1064895" d="M251.51,221.319c9.886,22.258,30.7,37.6,54.783,37.6s44.9-15.34,54.784-37.6Z" transform="translate(-72.237 -63.566)" fill="#425a4d"/>
              <path id="Trazado_1064896" data-name="Trazado 1064896" d="M309.7,247.165c-17.529,0-32.84-10.384-41.124-25.846h-4.751c7.738,17.423,24.03,29.43,42.882,29.43,14.736,0,27.908-7.337,36.653-18.862a45.5,45.5,0,0,1-33.66,15.278" transform="translate(-75.773 -63.566)" fill="#687b71"/>
              <path id="Trazado_1064897" data-name="Trazado 1064897" d="M333.2,97.529a2.824,2.824,0,1,1-2.824-2.825,2.824,2.824,0,0,1,2.824,2.825" transform="translate(-94.077 -27.2)" fill="#4d6693"/>
              <path id="Trazado_1064898" data-name="Trazado 1064898" d="M332.474,98.02a1.6,1.6,0,1,1-1.6-1.6,1.6,1.6,0,0,1,1.6,1.6" transform="translate(-94.569 -27.692)" fill="#28362e"/>
              <path id="Trazado_1064899" data-name="Trazado 1064899" d="M398.258,219.939c-6.038-4.385-13.6-1.939-13.428-1.9.128.032,3.157,6.326,7.353,9.881,4.346,3.485,9.727,5.351,11.464,4.151,1.756-1.2.555-7.8-5.39-12.135" transform="translate(-110.527 -62.418)" fill="#699a59"/>
              <path id="Trazado_1064900" data-name="Trazado 1064900" d="M368.326,215.693a35.5,35.5,0,0,1,12.385,2.127c5.456,2.038,12.574,7.252,16.214,11.545" transform="translate(-105.788 -61.949)" fill="none" stroke="#27423a" stroke-miterlimit="10" stroke-width="0.5"/>
              <path id="Trazado_1064901" data-name="Trazado 1064901" d="M401.983,232.212a42.711,42.711,0,0,0-.815-4.29" transform="translate(-115.22 -65.462)" fill="none" stroke="#27423a" stroke-miterlimit="10" stroke-width="0.5"/>
              <path id="Trazado_1064902" data-name="Trazado 1064902" d="M395.768,223.989q2.008-.124,4.089-.088" transform="translate(-113.67 -64.305)" fill="none" stroke="#27423a" stroke-miterlimit="10" stroke-width="0.5"/>
              <path id="Trazado_1064903" data-name="Trazado 1064903" d="M372.678,180.185c-3.548,5.05-1.428,11.276-1.395,11.129.024-.106,5.19-2.692,8.076-6.208,2.826-3.639,4.3-8.113,3.286-9.534s-6.458-.359-9.967,4.614" transform="translate(-106.448 -50.258)" fill="#94af64"/>
              <path id="Trazado_1064904" data-name="Trazado 1064904" d="M370.153,196.347a29.307,29.307,0,0,1,1.189-4.641,38.222,38.222,0,0,1,9.338-13.557" transform="translate(-106.313 -51.167)" fill="none" stroke="#27423a" stroke-miterlimit="10" stroke-width="0.5"/>
              <path id="Trazado_1064905" data-name="Trazado 1064905" d="M382.8,183.237a35.3,35.3,0,0,0-3.538.729" transform="translate(-108.93 -52.628)" fill="none" stroke="#27423a" stroke-miterlimit="10" stroke-width="0.5"/>
              <path id="Trazado_1064906" data-name="Trazado 1064906" d="M376.066,187.413q-.128-1.659-.126-3.38" transform="translate(-107.975 -52.857)" fill="none" stroke="#27423a" stroke-miterlimit="10" stroke-width="0.5"/>
              <path id="Trazado_1064907" data-name="Trazado 1064907" d="M281.457,191.284H223.318l10.964-4.086c2.741-7.626,7.831-3.755,7.831-3.755,11.355-14.105,21.536-1.148,21.536-1.148a2.566,2.566,0,0,1,1.227.473,51.085,51.085,0,0,0,11.655,6.645Z" transform="translate(-64.14 -50.797)" fill="#fff"/>
              <path id="Trazado_1064908" data-name="Trazado 1064908" d="M22.224,45.505H89.361L76.7,40.787c-3.165-8.807-9.043-4.337-9.043-4.337-13.113-16.289-24.87-1.325-24.87-1.325a2.965,2.965,0,0,0-1.418.547,58.988,58.988,0,0,1-13.458,7.674Z" transform="translate(-6.383 -8.286)" fill="#fff"/>
              <path id="Trazado_1064909" data-name="Trazado 1064909" d="M297.3,138.28H417.39l-16.875-3.146a11.612,11.612,0,0,0-12.229-7.234c-9.294.944-11.251,5.152-11.251,5.152s-1.467-10.5-13.451-10.814-12.473,9.436-12.473,9.436-.49-3.459-3.424-3.774c0,0-12.718-14.964-26.9,1.325,0,0-6.359-4.471-9.783,4.337Z" transform="translate(-85.39 -34.933)" fill="#fff"/>
              <path id="Trazado_1064910" data-name="Trazado 1064910" d="M318.534,216.366a11.191,11.191,0,1,1-11.191-11.191,11.191,11.191,0,0,1,11.191,11.191" transform="translate(-85.059 -58.929)" fill="#617f53"/>
              <path id="Trazado_1064911" data-name="Trazado 1064911" d="M305.289,220.125l3.784,3.381,5.965-10.479" transform="translate(-87.683 -61.184)" fill="none" stroke="#fff" stroke-miterlimit="10" stroke-width="3"/>
              <path id="Trazado_1064912" data-name="Trazado 1064912" d="M361.151,293.85a9.544,9.544,0,0,0,7.925,1.979c-.075-.027-1.494-3.987-3.784-6.38-2.384-2.361-5.491-3.818-6.607-3.208s-.823,4.637,2.466,7.608" transform="translate(-102.848 -82.172)" fill="#699a59"/>
              <path id="Trazado_1064913" data-name="Trazado 1064913" d="M376.666,298.344a21.374,21.374,0,0,1-7.287-2.053,27.836,27.836,0,0,1-8.987-7.935" transform="translate(-103.509 -82.819)" fill="none" stroke="#27423a" stroke-miterlimit="10" stroke-width="0.5"/>
              <path id="Trazado_1064914" data-name="Trazado 1064914" d="M364.011,289.3a25.715,25.715,0,0,0,.219,2.622" transform="translate(-104.549 -83.091)" fill="none" stroke="#27423a" stroke-miterlimit="10" stroke-width="0.5"/>
              <path id="Trazado_1064915" data-name="Trazado 1064915" d="M366.318,295.569q-1.21-.052-2.455-.2" transform="translate(-104.506 -84.833)" fill="none" stroke="#27423a" stroke-miterlimit="10" stroke-width="0.5"/>
              <path id="Trazado_1064916" data-name="Trazado 1064916" d="M339.556,334.659a9.545,9.545,0,0,1-1.222-8.076c.02.077,3.828,1.863,5.995,4.369,2.126,2.6,3.282,5.826,2.57,6.88s-4.694.382-7.342-3.173" transform="translate(-97.058 -93.798)" fill="#617f53"/>
              <path id="Trazado_1064917" data-name="Trazado 1064917" d="M336.808,316.657a21.366,21.366,0,0,0,1.356,7.448,27.832,27.832,0,0,0,7.05,9.7" transform="translate(-96.735 -90.948)" fill="none" stroke="#27423a" stroke-miterlimit="10" stroke-width="0.5"/>
              <path id="Trazado_1064918" data-name="Trazado 1064918" d="M346.96,336.831a25.853,25.853,0,0,1-2.589-.465" transform="translate(-98.908 -96.609)" fill="none" stroke="#27423a" stroke-miterlimit="10" stroke-width="0.5"/>
              <path id="Trazado_1064919" data-name="Trazado 1064919" d="M341.977,333.136q-.063,1.21-.029,2.463" transform="translate(-98.208 -95.681)" fill="none" stroke="#27423a" stroke-miterlimit="10" stroke-width="0.5"/>
              <path id="Trazado_1064920" data-name="Trazado 1064920" d="M79.225,194.234l-39.059,7.385a2.948,2.948,0,0,1-3.445-2.349l-9.85-52.09a2.949,2.949,0,0,1,2.349-3.445l39.059-7.386a2.95,2.95,0,0,1,3.445,2.349l9.849,52.091a2.948,2.948,0,0,1-2.349,3.445" transform="translate(-7.703 -39.146)" fill="#d2aa48"/>
              <path id="Trazado_1064921" data-name="Trazado 1064921" d="M41.417,194.312l-8.33-44.057L69.8,143.313l9.448,49.967L51.7,198.489" transform="translate(-9.503 -41.161)" fill="#fff"/>
              <rect id="Rectángulo_401762" data-name="Rectángulo 401762" width="21.607" height="9.577" transform="translate(29.939 100.294) rotate(-10.708)" fill="#4d6693"/>
              <rect id="Rectángulo_401763" data-name="Rectángulo 401763" width="21.607" height="0.923" transform="translate(31.547 108.797) rotate(-10.708)" fill="#28362e"/>
              <rect id="Rectángulo_401764" data-name="Rectángulo 401764" width="15.283" height="4.862" transform="matrix(0.983, -0.186, 0.186, 0.983, 32.598, 97.337)" fill="#28362e"/>
              <g id="Grupo_1210312" data-name="Grupo 1210312" transform="translate(27.454 110.376)" opacity="0.73">
                <g id="Grupo_1210311" data-name="Grupo 1210311">
                  <g id="Grupo_1210310" data-name="Grupo 1210310" clip-path="url(#clip-path-4)">
                    <rect id="Rectángulo_401765" data-name="Rectángulo 401765" width="32.703" height="0.551" transform="translate(0 6.076) rotate(-10.707)" fill="#ffe9e7"/>
                  </g>
                </g>
              </g>
              <g id="Grupo_1210315" data-name="Grupo 1210315" transform="translate(27.883 112.648)" opacity="0.73">
                <g id="Grupo_1210314" data-name="Grupo 1210314">
                  <g id="Grupo_1210313" data-name="Grupo 1210313" clip-path="url(#clip-path-5)">
                    <rect id="Rectángulo_401767" data-name="Rectángulo 401767" width="32.703" height="0.551" transform="translate(0 6.076) rotate(-10.707)" fill="#ffe9e7"/>
                  </g>
                </g>
              </g>
              <g id="Grupo_1210318" data-name="Grupo 1210318" transform="translate(28.313 114.92)" opacity="0.73">
                <g id="Grupo_1210317" data-name="Grupo 1210317">
                  <g id="Grupo_1210316" data-name="Grupo 1210316" clip-path="url(#clip-path-4)">
                    <rect id="Rectángulo_401769" data-name="Rectángulo 401769" width="32.703" height="0.551" transform="translate(0 6.076) rotate(-10.707)" fill="#ffe9e7"/>
                  </g>
                </g>
              </g>
              <g id="Grupo_1210321" data-name="Grupo 1210321" transform="translate(28.743 117.192)" opacity="0.73">
                <g id="Grupo_1210320" data-name="Grupo 1210320">
                  <g id="Grupo_1210319" data-name="Grupo 1210319" clip-path="url(#clip-path-4)">
                    <rect id="Rectángulo_401771" data-name="Rectángulo 401771" width="32.703" height="0.551" transform="translate(0 6.076) rotate(-10.707)" fill="#ffe9e7"/>
                  </g>
                </g>
              </g>
              <g id="Grupo_1210324" data-name="Grupo 1210324" transform="translate(29.172 119.464)" opacity="0.73">
                <g id="Grupo_1210323" data-name="Grupo 1210323">
                  <g id="Grupo_1210322" data-name="Grupo 1210322" clip-path="url(#clip-path-4)">
                    <rect id="Rectángulo_401773" data-name="Rectángulo 401773" width="32.703" height="0.551" transform="translate(0 6.076) rotate(-10.707)" fill="#ffe9e7"/>
                  </g>
                </g>
              </g>
              <g id="Grupo_1210327" data-name="Grupo 1210327" transform="translate(29.602 121.736)" opacity="0.73">
                <g id="Grupo_1210326" data-name="Grupo 1210326">
                  <g id="Grupo_1210325" data-name="Grupo 1210325" clip-path="url(#clip-path-4)">
                    <rect id="Rectángulo_401775" data-name="Rectángulo 401775" width="32.703" height="0.551" transform="translate(0 6.076) rotate(-10.707)" fill="#ffe9e7"/>
                  </g>
                </g>
              </g>
              <g id="Grupo_1210330" data-name="Grupo 1210330" transform="translate(30.031 124.008)" opacity="0.73">
                <g id="Grupo_1210329" data-name="Grupo 1210329">
                  <g id="Grupo_1210328" data-name="Grupo 1210328" clip-path="url(#clip-path-4)">
                    <rect id="Rectángulo_401777" data-name="Rectángulo 401777" width="32.703" height="0.551" transform="translate(0 6.076) rotate(-10.707)" fill="#ffe9e7"/>
                  </g>
                </g>
              </g>
              <g id="Grupo_1210333" data-name="Grupo 1210333" transform="translate(30.461 126.28)" opacity="0.73">
                <g id="Grupo_1210332" data-name="Grupo 1210332">
                  <g id="Grupo_1210331" data-name="Grupo 1210331" clip-path="url(#clip-path-4)">
                    <rect id="Rectángulo_401779" data-name="Rectángulo 401779" width="32.703" height="0.551" transform="translate(0 6.076) rotate(-10.707)" fill="#ffe9e7"/>
                  </g>
                </g>
              </g>
              <g id="Grupo_1210336" data-name="Grupo 1210336" transform="translate(30.891 128.552)" opacity="0.73">
                <g id="Grupo_1210335" data-name="Grupo 1210335">
                  <g id="Grupo_1210334" data-name="Grupo 1210334" clip-path="url(#clip-path-5)">
                    <rect id="Rectángulo_401781" data-name="Rectángulo 401781" width="32.703" height="0.551" transform="translate(0 6.076) rotate(-10.707)" fill="#ffe9e7"/>
                  </g>
                </g>
              </g>
              <g id="Grupo_1210339" data-name="Grupo 1210339" transform="translate(31.32 130.824)" opacity="0.73">
                <g id="Grupo_1210338" data-name="Grupo 1210338">
                  <g id="Grupo_1210337" data-name="Grupo 1210337" clip-path="url(#clip-path-4)">
                    <rect id="Rectángulo_401783" data-name="Rectángulo 401783" width="32.703" height="0.551" transform="translate(0 6.076) rotate(-10.707)" fill="#ffe9e7"/>
                  </g>
                </g>
              </g>
              <g id="Grupo_1210342" data-name="Grupo 1210342" transform="translate(31.75 133.097)" opacity="0.73">
                <g id="Grupo_1210341" data-name="Grupo 1210341">
                  <g id="Grupo_1210340" data-name="Grupo 1210340" clip-path="url(#clip-path-4)">
                    <rect id="Rectángulo_401785" data-name="Rectángulo 401785" width="32.703" height="0.551" transform="translate(0 6.075) rotate(-10.707)" fill="#ffe9e7"/>
                  </g>
                </g>
              </g>
              <g id="Grupo_1210345" data-name="Grupo 1210345" transform="translate(32.18 135.368)" opacity="0.73">
                <g id="Grupo_1210344" data-name="Grupo 1210344">
                  <g id="Grupo_1210343" data-name="Grupo 1210343" clip-path="url(#clip-path-4)">
                    <rect id="Rectángulo_401787" data-name="Rectángulo 401787" width="32.703" height="0.551" transform="translate(0 6.076) rotate(-10.707)" fill="#ffe9e7"/>
                  </g>
                </g>
              </g>
              <g id="Grupo_1210348" data-name="Grupo 1210348" transform="translate(32.609 137.641)" opacity="0.73">
                <g id="Grupo_1210347" data-name="Grupo 1210347">
                  <g id="Grupo_1210346" data-name="Grupo 1210346" clip-path="url(#clip-path-4)">
                    <rect id="Rectángulo_401789" data-name="Rectángulo 401789" width="32.703" height="0.551" transform="translate(0 6.076) rotate(-10.707)" fill="#ffe9e7"/>
                  </g>
                </g>
              </g>
              <g id="Grupo_1210351" data-name="Grupo 1210351" transform="translate(33.039 139.912)" opacity="0.73">
                <g id="Grupo_1210350" data-name="Grupo 1210350">
                  <g id="Grupo_1210349" data-name="Grupo 1210349" clip-path="url(#clip-path-4)">
                    <rect id="Rectángulo_401791" data-name="Rectángulo 401791" width="32.703" height="0.551" transform="translate(0 6.076) rotate(-10.707)" fill="#ffe9e7"/>
                  </g>
                </g>
              </g>
              <g id="Grupo_1210354" data-name="Grupo 1210354" transform="translate(33.468 142.185)" opacity="0.73">
                <g id="Grupo_1210353" data-name="Grupo 1210353">
                  <g id="Grupo_1210352" data-name="Grupo 1210352" clip-path="url(#clip-path-4)">
                    <rect id="Rectángulo_401793" data-name="Rectángulo 401793" width="32.703" height="0.551" transform="translate(0 6.076) rotate(-10.707)" fill="#ffe9e7"/>
                  </g>
                </g>
              </g>
              <g id="Grupo_1210357" data-name="Grupo 1210357" transform="translate(33.898 144.456)" opacity="0.73">
                <g id="Grupo_1210356" data-name="Grupo 1210356">
                  <g id="Grupo_1210355" data-name="Grupo 1210355" clip-path="url(#clip-path-5)">
                    <rect id="Rectángulo_401795" data-name="Rectángulo 401795" width="32.703" height="0.551" transform="translate(0 6.076) rotate(-10.707)" fill="#ffe9e7"/>
                  </g>
                </g>
              </g>
              <path id="Trazado_1064922" data-name="Trazado 1064922" d="M87.735,202.826a4.033,4.033,0,1,1-3.6-4.42,4.033,4.033,0,0,1,3.6,4.42" transform="translate(-22.888 -56.979)" fill="#4d6693"/>
              <path id="Trazado_1064923" data-name="Trazado 1064923" d="M84.074,205.549l-1.555-1.7.57-.52.912,1,2.243-3.151.628.448Z" transform="translate(-23.701 -57.78)" fill="#fff"/>
              <path id="Trazado_1064924" data-name="Trazado 1064924" d="M44.774,214.348l10.283,4.177-3.544-5.451Z" transform="translate(-12.86 -61.198)" fill="#ddd"/>
              <path id="Trazado_1064925" data-name="Trazado 1064925" d="M43.881,189.414c.286-1.4,43.716-89.156,43.716-89.156l38.22,89.156Z" transform="translate(-12.603 -28.795)" fill="none" stroke="#4d6693" stroke-miterlimit="10" stroke-width="1"/>
              <path id="Trazado_1064926" data-name="Trazado 1064926" d="M25.206,221.319c9.886,22.258,30.7,37.6,54.783,37.6s44.9-15.34,54.783-37.6Z" transform="translate(-7.239 -63.566)" fill="#425a4d"/>
              <path id="Trazado_1064927" data-name="Trazado 1064927" d="M83.392,247.165c-17.529,0-32.84-10.384-41.124-25.846H37.517c7.738,17.423,24.03,29.43,42.882,29.43,14.736,0,27.908-7.337,36.653-18.862a45.5,45.5,0,0,1-33.66,15.278" transform="translate(-10.775 -63.566)" fill="#687b71"/>
              <path id="Trazado_1064928" data-name="Trazado 1064928" d="M106.9,97.529a2.824,2.824,0,1,1-2.824-2.825,2.824,2.824,0,0,1,2.824,2.825" transform="translate(-29.08 -27.2)" fill="#4d6693"/>
              <path id="Trazado_1064929" data-name="Trazado 1064929" d="M106.17,98.02a1.6,1.6,0,1,1-1.605-1.6,1.605,1.605,0,0,1,1.605,1.6" transform="translate(-29.571 -27.692)" fill="#28362e"/>
              <path id="Trazado_1064930" data-name="Trazado 1064930" d="M165.733,257.7c-11.363-2.773-22.727-11.11-34.09-12.926q1.35-8.449,2.7-16.779c11.363,2.773,22.727,11.11,34.09,12.926q-1.349,8.448-2.7,16.779" transform="translate(-37.81 -65.483)" fill="#80a173"/>
              <path id="Trazado_1064931" data-name="Trazado 1064931" d="M160.7,249.014c-.485,2.909-3.338,4.13-6.372,2.694s-5.1-4.853-4.617-7.752,3.338-4.13,6.372-2.694,5.1,4.853,4.617,7.752" transform="translate(-42.979 -69.12)" fill="#617f53"/>
              <path id="Trazado_1064932" data-name="Trazado 1064932" d="M165.222,257c-10.571-2.887-21.142-10.269-31.713-12.414q1.208-7.512,2.417-14.936c10.571,2.887,21.142,10.268,31.713,12.414q-1.208,7.511-2.417,14.936m-31.1-12.825c10.219,2.266,20.438,9.25,30.657,12.16q1.124-6.9,2.248-13.86c-10.219-2.266-20.438-9.25-30.657-12.16q-1.124,6.9-2.248,13.86" transform="translate(-38.345 -65.957)" fill="#617f53"/>
              <path id="Trazado_1064933" data-name="Trazado 1064933" d="M156.238,250.389q-.042.252-.085.506l-.819-.384q.044-.265.089-.53a5.779,5.779,0,0,1-1.886-1.831l.854-.478a4.87,4.87,0,0,0,1.206,1.274q.112-.666.224-1.331c-1.012-.753-1.676-1.451-1.514-2.423.154-.915.973-1.242,2.067-.867l.083-.5.819.384q-.042.253-.085.507a5.033,5.033,0,0,1,1.691,1.585l-.793.549a4.637,4.637,0,0,0-1.072-1.1l-.216,1.284c1.148.815,1.872,1.542,1.7,2.538-.164.98-1,1.316-2.268.817m-.22-3.947q.091-.546.183-1.091c-.343-.075-.573.051-.617.308s.081.488.433.783m1.208,2.671c.051-.305-.127-.545-.619-.923q-.1.593-.2,1.188c.482.166.769.032.818-.264" transform="translate(-44.098 -70.03)" fill="#80a173"/>
              <path id="Trazado_1064934" data-name="Trazado 1064934" d="M112.92,318.718c-9.78,3.024-19.56,13.077-29.34,18.166-1.684-5.093-3.369-10.333-5.054-15.782,9.78-3.024,19.56-13.077,29.34-18.166,1.685,5.093,3.369,10.333,5.054,15.782" transform="translate(-22.554 -87.007)" fill="#80a173"/>
              <path id="Trazado_1064935" data-name="Trazado 1064935" d="M105.364,321.021c.908,2.59-.473,6.13-3.086,8.03s-5.465,1.376-6.372-1.222.473-6.13,3.086-8.03,5.464-1.376,6.372,1.222" transform="translate(-27.465 -91.522)" fill="#617f53"/>
              <path id="Trazado_1064936" data-name="Trazado 1064936" d="M112.151,318.758c-9.1,3.365-18.2,12.358-27.295,17.324-1.508-4.522-3.017-9.154-4.525-13.941,9.1-3.365,18.2-12.358,27.3-17.324,1.508,4.522,3.017,9.154,4.525,13.941m-27,16.6c8.8-4.884,17.591-13.433,26.386-16.926-1.4-4.415-2.806-8.7-4.209-12.894-8.8,4.884-17.591,13.434-26.387,16.927,1.4,4.414,2.806,8.7,4.21,12.894" transform="translate(-23.072 -87.547)" fill="#617f53"/>
              <path id="Trazado_1064937" data-name="Trazado 1064937" d="M102.914,327.717l.159.448-.706.515c-.056-.157-.11-.314-.166-.47a3.259,3.259,0,0,1-2.031.5l.364-1.168a2.586,2.586,0,0,0,1.342-.246l-.419-1.18c-.991.437-1.73.572-2.036-.29a2.565,2.565,0,0,1,1-2.623q-.079-.22-.157-.44l.706-.515.159.448a2.925,2.925,0,0,1,1.8-.489q-.145.582-.292,1.162a2.517,2.517,0,0,0-1.178.243l.4,1.136c1.107-.522,1.9-.693,2.21.19a2.605,2.605,0,0,1-1.154,2.779m-1.827-2.639-.343-.967a.859.859,0,0,0-.277.818c.084.235.262.275.62.148m1.937.761c-.1-.27-.316-.272-.8-.068l.374,1.051c.39-.346.522-.72.429-.983" transform="translate(-28.529 -92.539)" fill="#80a173"/>
              <rect id="Rectángulo_401797" data-name="Rectángulo 401797" width="34.522" height="17.11" transform="matrix(0.968, -0.253, 0.253, 0.968, 106.946, 148.777)" fill="#80a173"/>
              <path id="Trazado_1064938" data-name="Trazado 1064938" d="M179.642,210.575a5.564,5.564,0,1,1-6.789-3.978,5.565,5.565,0,0,1,6.789,3.978" transform="translate(-48.451 -59.285)" fill="#617f53"/>
              <path id="Trazado_1064939" data-name="Trazado 1064939" d="M186.933,212.959l-31.074,8.11-3.869-14.823,31.074-8.11Zm-30.692,7.458,30.04-7.84-3.6-13.789-30.04,7.84Z" transform="translate(-43.653 -56.907)" fill="#617f53"/>
            </g>
          </g>
          <text id="_" data-name="$" transform="translate(123.645 155.146) rotate(-14.627)" fill="#80a173" font-size="8" font-family="SegoeUI, Segoe UI"><tspan x="0" y="0">$</tspan></text>
          <g id="Grupo_1210367" data-name="Grupo 1210367">
            <g id="Grupo_1210366" data-name="Grupo 1210366" clip-path="url(#clip-path)">
              <g id="Grupo_1210362" data-name="Grupo 1210362" transform="translate(106.946 145.031)" style="mix-blend-mode: multiply;isolation: isolate">
                <g id="Grupo_1210361" data-name="Grupo 1210361">
                  <g id="Grupo_1210360" data-name="Grupo 1210360" clip-path="url(#clip-path-21)">
                    <path id="Trazado_1064940" data-name="Trazado 1064940" d="M162.927,209.476q.746-3.025,1.492-6.006l-14.38,3.753.741,2.837a52.4,52.4,0,0,1,12.147-.584" transform="translate(-150.039 -203.47)" fill="#80a173"/>
                  </g>
                </g>
              </g>
              <path id="Trazado_1064941" data-name="Trazado 1064941" d="M152.211,201.731c-11.145-1.074-22.291,3.982-33.437,1.12q2.129-8.286,4.257-16.928c11.146,1.074,22.291-3.982,33.436-1.12q-2.128,8.286-4.256,16.928" transform="translate(-34.113 -52.822)" fill="#80a173"/>
              <path id="Trazado_1064942" data-name="Trazado 1064942" d="M148.362,194.692c-.765,3.242-3.8,6.22-6.774,6.658s-4.769-1.975-4.005-5.228,3.8-6.22,6.774-6.658,4.77,1.975,4.005,5.228" transform="translate(-39.465 -54.402)" fill="#617f53"/>
              <path id="Trazado_1064943" data-name="Trazado 1064943" d="M151.827,201.1c-10.368-.688-20.736,3.587-31.105,1.513q1.905-7.527,3.811-15.319c10.368.688,20.737-3.587,31.105-1.513q-1.905,7.528-3.811,15.32m-30.455,1.083c10.023,1.753,20.046-2.206,30.07-1.658q1.773-7.26,3.545-14.315c-10.023-1.753-20.046,2.206-30.07,1.659q-1.773,7.259-3.545,14.314" transform="translate(-34.673 -53.195)" fill="#617f53"/>
              <path id="Trazado_1064944" data-name="Trazado 1064944" d="M143.592,199.464q-.066.289-.134.576l-.8.114c.046-.2.093-.4.14-.6a2.241,2.241,0,0,1-1.761-.727l.919-1.016a1.8,1.8,0,0,0,1.118.566q.175-.758.353-1.516c-.967-.143-1.584-.456-1.326-1.56a3.067,3.067,0,0,1,2.2-2.184l.133-.567.8-.115q-.067.288-.134.575a1.994,1.994,0,0,1,1.585.591l-.863,1.055a1.733,1.733,0,0,0-1-.468q-.17.731-.341,1.462c1.1.123,1.775.428,1.51,1.56a3.05,3.05,0,0,1-2.4,2.257m.141-3.939q.144-.621.289-1.242a1.067,1.067,0,0,0-.66.7c-.07.3.038.453.371.538m.99,2c.081-.347-.08-.483-.549-.567l-.314,1.352a1.144,1.144,0,0,0,.863-.785" transform="translate(-40.507 -55.269)" fill="#80a173"/>
              <g id="Grupo_1210365" data-name="Grupo 1210365" transform="translate(68.08 96.93)" opacity="0.86">
                <g id="Grupo_1210364" data-name="Grupo 1210364">
                  <g id="Grupo_1210363" data-name="Grupo 1210363" clip-path="url(#clip-path-22)">
                    <path id="Trazado_1064945" data-name="Trazado 1064945" d="M122.388,152.032a13.553,13.553,0,1,0-26.34,1.279A55.162,55.162,0,0,1,98.1,163.369l.74,7.594,12.025,2.25,3.172-6.291a62.063,62.063,0,0,1,5.883-9.258,13.477,13.477,0,0,0,2.472-5.631" transform="translate(-95.512 -135.987)" fill="#fff"/>
                  </g>
                </g>
              </g>
              <path id="Trazado_1064946" data-name="Trazado 1064946" d="M106.793,179.138l2.7-14.444s2.126-4.323,1.243-6.644-4.3,6.98-.019,7.781l1.643.307" transform="translate(-30.672 -45.288)" fill="none" stroke="#4d6693" stroke-miterlimit="10" stroke-width="1"/>
              <path id="Trazado_1064947" data-name="Trazado 1064947" d="M111.047,179.938l2.537-13.566s2.291-5.2,1.408-7.521c-.785-2.061-3.61,5.279-1.237,7.511" transform="translate(-31.894 -45.52)" fill="none" stroke="#4d6693" stroke-miterlimit="10" stroke-width="1"/>
              <path id="Trazado_1064948" data-name="Trazado 1064948" d="M107.071,195.9l-2.954-.552a1.828,1.828,0,0,1-1.461-2.133l6.547,1.225a1.827,1.827,0,0,1-2.133,1.461" transform="translate(-29.475 -55.495)" fill="#425a4d"/>
              <path id="Trazado_1064949" data-name="Trazado 1064949" d="M110.68,189.189l-10.369-1.939a1.373,1.373,0,1,1,.505-2.7l10.369,1.939a1.373,1.373,0,0,1-.505,2.7" transform="translate(-28.489 -52.998)" fill="#626e7f"/>
              <path id="Trazado_1064950" data-name="Trazado 1064950" d="M110.2,191.777l-10.369-1.939a1.373,1.373,0,1,1,.505-2.7l10.369,1.939a1.373,1.373,0,0,1-.505,2.7" transform="translate(-28.35 -53.741)" fill="#626e7f"/>
              <path id="Trazado_1064951" data-name="Trazado 1064951" d="M109.711,194.365l-10.368-1.94a1.373,1.373,0,1,1,.505-2.7l10.368,1.94a1.373,1.373,0,1,1-.505,2.7" transform="translate(-28.211 -54.485)" fill="#626e7f"/>
              <path id="Trazado_1064952" data-name="Trazado 1064952" d="M36.683,135.536H34.559v2.172h-1.5v-2.172H30.918v-1.421h2.136v-2.172h1.5v2.172h2.124Z" transform="translate(-8.88 -37.896)" fill="#28362e"/>
              <path id="Trazado_1064953" data-name="Trazado 1064953" d="M58.557,120.27H54.966v3.672H52.423V120.27H48.812v-2.4h3.611V114.2h2.543v3.672h3.591Z" transform="translate(-14.02 -32.799)" fill="#28362e"/>
              <path id="Trazado_1064954" data-name="Trazado 1064954" d="M36.172,104.93h-2.7v2.756H31.568V104.93h-2.71v-1.8h2.71v-2.756h1.909v2.756h2.7Z" transform="translate(-8.288 -28.828)" fill="#28362e"/>
            </g>
          </g>
        </g>
      </g>
    </g>
  </g>
</svg>
