<svg xmlns="http://www.w3.org/2000/svg" xmlns:xlink="http://www.w3.org/1999/xlink" width="190" height="230" viewBox="0 0 190 230">
  <defs>
    <clipPath id="clip-path">
      <rect id="Rectángulo_401828" data-name="Rectángulo 401828" width="190" height="230" rx="18" transform="translate(180.051 6105)" fill="#fff" stroke="#707070" stroke-width="1"/>
    </clipPath>
    <clipPath id="clip-path-2">
      <rect id="Rectángulo_401827" data-name="Rectángulo 401827" width="189.214" height="189.217" fill="none"/>
    </clipPath>
  </defs>
  <g id="Grupo_1210587" data-name="Grupo 1210587" transform="translate(-180.051 -6105)">
    <g id="Enmascarar_grupo_1098693" data-name="Enmascarar grupo 1098693" clip-path="url(#clip-path)">
      <g id="Grupo_1210382" data-name="Grupo 1210382" transform="translate(180.051 6125)">
        <g id="Grupo_1210381" data-name="Grupo 1210381" clip-path="url(#clip-path-2)">
          <path id="Trazado_1064957" data-name="Trazado 1064957" d="M148.588,33.459a26.742,26.742,0,0,1,4.523-1.881.811.811,0,0,1,1,1.07,129.548,129.548,0,0,0-7.61,30.271l-.781,6.246a.807.807,0,0,1-.966.694,27.009,27.009,0,0,0-3.482-.543L134.35,68.7l-.03.03a12.066,12.066,0,0,0-2.338-1.661,15.368,15.368,0,0,0-3.555-1.5.81.81,0,0,1-.552-.98l2.118-8.42a.807.807,0,0,0-.213-.77l-.567-.567a7.424,7.424,0,0,0-10.517,0l-.892.891a62.989,62.989,0,0,0-10.671-22.449l-.646-.853a.81.81,0,0,1,.646-1.3,21.913,21.913,0,0,1,13.531,4.644l.03-.031a86.22,86.22,0,0,0-5.213-24.194.809.809,0,0,1,1.125-1l1.721.868a23.42,23.42,0,0,1,11.082,11.734.806.806,0,0,0,1.477.035A35.867,35.867,0,0,1,151.971,4.368l1.1-.371a.81.81,0,0,1,1.013,1.059A85.93,85.93,0,0,0,148.588,33.459Z" transform="translate(-29.349 -1.091)" fill="#b4dd7f"/>
          <path id="Trazado_1064958" data-name="Trazado 1064958" d="M148.588,33.459a26.742,26.742,0,0,1,4.523-1.881.811.811,0,0,1,1,1.07,129.548,129.548,0,0,0-7.61,30.271l-.781,6.246a.807.807,0,0,1-.966.694,27.009,27.009,0,0,0-3.482-.543L134.35,68.7l-.03.03a12.066,12.066,0,0,0-2.338-1.661,15.368,15.368,0,0,0-3.555-1.5.81.81,0,0,1-.552-.98l2.118-8.42a.807.807,0,0,0-.213-.77l-.567-.567a7.424,7.424,0,0,0-10.517,0l-.892.891a62.989,62.989,0,0,0-10.671-22.449l-.646-.853a.81.81,0,0,1,.646-1.3,21.913,21.913,0,0,1,13.531,4.644l.03-.031a86.22,86.22,0,0,0-5.213-24.194.809.809,0,0,1,1.125-1l1.721.868a23.42,23.42,0,0,1,11.082,11.734.806.806,0,0,0,1.477.035A35.867,35.867,0,0,1,151.971,4.368l1.1-.371a.81.81,0,0,1,1.013,1.059A85.93,85.93,0,0,0,148.588,33.459Z" transform="translate(-29.349 -1.091)" fill="none" stroke="#000" stroke-miterlimit="10" stroke-width="0.265"/>
          <path id="Trazado_1064959" data-name="Trazado 1064959" d="M128.334,71.215a7.4,7.4,0,0,1,5.259,2.183l.891.892-2.429,9.656a16.651,16.651,0,0,0-3.721-.43l-3.721.43-2.429-9.656.891-.892a7.4,7.4,0,0,1,5.259-2.183" transform="translate(-33.727 -19.658)" fill="#a0d468"/>
          <path id="Trazado_1064960" data-name="Trazado 1064960" d="M128.334,71.215a7.4,7.4,0,0,1,5.259,2.183l.891.892-2.429,9.656a16.651,16.651,0,0,0-3.721-.43l-3.721.43-2.429-9.656.891-.892A7.4,7.4,0,0,1,128.334,71.215Z" transform="translate(-33.727 -19.658)" fill="none" stroke="#000" stroke-miterlimit="10" stroke-width="0.265"/>
          <path id="Trazado_1064961" data-name="Trazado 1064961" d="M84.942,61.6,83.5,83.123v.03A27.693,27.693,0,0,0,67.9,101.7l-1.384,5.536H57.3l-2.307-34.6-.277-4.213L54.251,61.6c-.031-.337-.031-.645-.031-.983a14.917,14.917,0,0,1,4.982-11.1,14.716,14.716,0,0,1,7.01-3.506,15.049,15.049,0,0,1,2.892-.277h.984a15.036,15.036,0,0,1,2.891.277,14.856,14.856,0,0,1,7.011,3.506c.216.184.431.4.615.584a14.777,14.777,0,0,1,4.367,10.517C84.972,60.951,84.972,61.259,84.942,61.6Z" transform="translate(-14.967 -12.623)" fill="#fe9900"/>
          <path id="Trazado_1064962" data-name="Trazado 1064962" d="M45.609,79.672l2.307,34.6H44.84L25.282,97.139a14.729,14.729,0,0,1-5.044-11.1v-.093a14.354,14.354,0,0,1,1.476-6.365,13.827,13.827,0,0,1,2.645-3.844,14.922,14.922,0,0,1,4.89-3.352,14.712,14.712,0,0,1,16.084,3.075Z" transform="translate(-5.586 -19.658)" fill="#fe9900"/>
          <path id="Trazado_1064963" data-name="Trazado 1064963" d="M26.88,63a14.914,14.914,0,0,0-4.89,3.352L16.24,52.917a5.553,5.553,0,0,0-4.582-3.352v-.031l.03-5.782a6.57,6.57,0,0,1,6.55-6.519,6.46,6.46,0,0,1,6.427,5.75Z" transform="translate(-3.218 -10.278)" fill="#b4dd7f"/>
          <path id="Trazado_1064964" data-name="Trazado 1064964" d="M26.88,63a14.914,14.914,0,0,0-4.89,3.352L16.24,52.917a5.553,5.553,0,0,0-4.582-3.352v-.031l.03-5.782a6.57,6.57,0,0,1,6.55-6.519,6.46,6.46,0,0,1,6.427,5.75Z" transform="translate(-3.218 -10.278)" fill="none" stroke="#000" stroke-miterlimit="10" stroke-width="0.265"/>
          <path id="Trazado_1064965" data-name="Trazado 1064965" d="M8.814,54.224l.523.03a5.556,5.556,0,0,1,4.582,3.352l5.75,13.439a13.827,13.827,0,0,0-2.645,3.844h-.03L5.523,65.325A6.25,6.25,0,0,1,3.248,60.5V59.79A5.564,5.564,0,0,1,8.814,54.224Z" transform="translate(-0.897 -14.968)" fill="#b4dd7f"/>
          <path id="Trazado_1064966" data-name="Trazado 1064966" d="M8.814,54.224l.523.03a5.556,5.556,0,0,1,4.582,3.352l5.75,13.439a13.827,13.827,0,0,0-2.645,3.844h-.03L5.523,65.325A6.25,6.25,0,0,1,3.248,60.5V59.79A5.564,5.564,0,0,1,8.814,54.224Z" transform="translate(-0.897 -14.968)" fill="none" stroke="#000" stroke-miterlimit="10" stroke-width="0.265"/>
          <path id="Trazado_1064967" data-name="Trazado 1064967" d="M98.274,16.729a4.989,4.989,0,0,1-.523,2.214L87.142,40.131a14.861,14.861,0,0,0-7.011-3.505l1.691-15.253,5.72-7.626a5.008,5.008,0,0,1,4-2h1.753A4.961,4.961,0,0,1,98.274,16.729Z" transform="translate(-22.119 -3.243)" fill="#b4dd7f"/>
          <path id="Trazado_1064968" data-name="Trazado 1064968" d="M98.274,16.729a4.989,4.989,0,0,1-.523,2.214L87.142,40.131a14.861,14.861,0,0,0-7.011-3.505l1.691-15.253,5.72-7.626a5.008,5.008,0,0,1,4-2h1.753A4.961,4.961,0,0,1,98.274,16.729Z" transform="translate(-22.119 -3.243)" fill="none" stroke="#000" stroke-miterlimit="10" stroke-width="0.265"/>
          <path id="Trazado_1064969" data-name="Trazado 1064969" d="M79.264,9.094a4.388,4.388,0,0,1-.03.615l-1.046,9.317L76.5,34.28A15.094,15.094,0,0,0,73.605,34h-.984a15.094,15.094,0,0,0-2.891.277L68.04,19.027,66.994,9.71a4.285,4.285,0,0,1-.031-.615,5.841,5.841,0,0,1,5.843-5.843h.615a5.841,5.841,0,0,1,5.843,5.843" transform="translate(-18.484 -0.897)" fill="#b4dd7f"/>
          <path id="Trazado_1064970" data-name="Trazado 1064970" d="M79.264,9.094a4.388,4.388,0,0,1-.03.615l-1.046,9.317L76.5,34.28A15.094,15.094,0,0,0,73.605,34h-.984a15.094,15.094,0,0,0-2.891.277L68.04,19.027,66.994,9.71a4.285,4.285,0,0,1-.031-.615,5.841,5.841,0,0,1,5.843-5.843h.615A5.841,5.841,0,0,1,79.264,9.094Z" transform="translate(-18.484 -0.897)" fill="none" stroke="#000" stroke-miterlimit="10" stroke-width="0.265"/>
          <path id="Trazado_1064971" data-name="Trazado 1064971" d="M62.177,21.372l1.691,15.253a14.729,14.729,0,0,0-7.012,3.505L46.248,18.943a4.976,4.976,0,0,1,4.459-7.2h1.753a5.009,5.009,0,0,1,4,2Z" transform="translate(-12.622 -3.243)" fill="#b4dd7f"/>
          <path id="Trazado_1064972" data-name="Trazado 1064972" d="M62.177,21.372l1.691,15.253a14.729,14.729,0,0,0-7.012,3.505L46.248,18.943a4.976,4.976,0,0,1,4.459-7.2h1.753a5.009,5.009,0,0,1,4,2Z" transform="translate(-12.622 -3.243)" fill="none" stroke="#000" stroke-miterlimit="10" stroke-width="0.265"/>
          <path id="Trazado_1064973" data-name="Trazado 1064973" d="M103.9,93.418a14.988,14.988,0,0,0-3.6,4.121,31.286,31.286,0,0,0-4.489,16.176v6.673h-24.6l1.383-5.535A27.692,27.692,0,0,1,88.186,96.309,26.931,26.931,0,0,1,96.95,94l6.92-.615Z" transform="translate(-19.657 -25.778)" fill="#fec266"/>
          <path id="Trazado_1064974" data-name="Trazado 1064974" d="M156.28,94.741a27.726,27.726,0,0,1,20.02,20.112l1.383,5.535h-24.6v-6.674a31.285,31.285,0,0,0-4.489-16.176l-3.6-4.121.03-.03,6.92.615A28.981,28.981,0,0,1,156.28,94.741Z" transform="translate(-40.023 -25.778)" fill="#fec266"/>
          <path id="Trazado_1064975" data-name="Trazado 1064975" d="M127.364,88.636a15.321,15.321,0,0,1,4.305,1.691,11.977,11.977,0,0,1,2.337,1.661l3.6,4.121a31.285,31.285,0,0,1,4.489,16.176v6.673h-36.9v-6.673a31.286,31.286,0,0,1,4.49-16.176,14.986,14.986,0,0,1,3.6-4.121,12.034,12.034,0,0,1,2.338-1.661,15.3,15.3,0,0,1,4.305-1.691l3.72-.431A16.651,16.651,0,0,1,127.364,88.636Z" transform="translate(-29.036 -24.347)" fill="#fec266"/>
          <path id="Trazado_1064976" data-name="Trazado 1064976" d="M242.579,3.251a6.168,6.168,0,0,1,6.15,6.15,6.012,6.012,0,0,1-1.814,4.337,6.014,6.014,0,0,1-4.336,1.814H224.128V3.251Z" transform="translate(-61.867 -0.897)" fill="#e6e9ed"/>
          <path id="Trazado_1064977" data-name="Trazado 1064977" d="M242.579,3.251a6.168,6.168,0,0,1,6.15,6.15,6.012,6.012,0,0,1-1.814,4.337,6.014,6.014,0,0,1-4.336,1.814H224.128V3.251Z" transform="translate(-61.867 -0.897)" fill="none" stroke="#000" stroke-miterlimit="10" stroke-width="0.265"/>
          <path id="Trazado_1064978" data-name="Trazado 1064978" d="M196.3,126.26a30.852,30.852,0,0,0-6.15.615V21.7A18.465,18.465,0,0,1,208.6,3.252h6.15v12.3H208.6a6.169,6.169,0,0,0-6.151,6.15V126.875a30.852,30.852,0,0,0-6.15-.615" transform="translate(-52.487 -0.898)" fill="#aab2bd"/>
          <path id="Trazado_1064979" data-name="Trazado 1064979" d="M196.3,126.26a30.852,30.852,0,0,0-6.15.615V21.7A18.465,18.465,0,0,1,208.6,3.252h6.15v12.3H208.6a6.169,6.169,0,0,0-6.151,6.15V126.875A30.852,30.852,0,0,0,196.3,126.26Z" transform="translate(-52.487 -0.898)" fill="none" stroke="#000" stroke-miterlimit="10" stroke-width="0.265"/>
          <rect id="Rectángulo_401823" data-name="Rectángulo 401823" width="116.858" height="12.301" transform="translate(20.802 113.061)" fill="#dfb28b"/>
          <rect id="Rectángulo_401824" data-name="Rectángulo 401824" width="116.858" height="12.301" transform="translate(20.802 113.061)" fill="none" stroke="#000" stroke-miterlimit="10" stroke-width="0.265"/>
          <path id="Trazado_1064980" data-name="Trazado 1064980" d="M130.946,242.583H23.314a3.084,3.084,0,0,1-3.075-3.075V224.132H119.26a30.8,30.8,0,0,0,11.686,18.451" transform="translate(-5.587 -61.868)" fill="#d3a06c"/>
          <path id="Trazado_1064981" data-name="Trazado 1064981" d="M130.946,242.583H23.314a3.084,3.084,0,0,1-3.075-3.075V224.132H119.26A30.8,30.8,0,0,0,130.946,242.583Z" transform="translate(-5.587 -61.868)" fill="none" stroke="#000" stroke-miterlimit="10" stroke-width="0.265"/>
          <path id="Trazado_1064982" data-name="Trazado 1064982" d="M26.389,173.16H143.247v.615a30.79,30.79,0,0,0-23.986,36.287H20.239V176.235a3.084,3.084,0,0,1,3.075-3.075Z" transform="translate(-5.587 -47.798)" fill="#d3a06c"/>
          <path id="Trazado_1064983" data-name="Trazado 1064983" d="M26.389,173.16H143.247v.615a30.79,30.79,0,0,0-23.986,36.287H20.239V176.235a3.084,3.084,0,0,1,3.075-3.075Z" transform="translate(-5.587 -47.798)" fill="none" stroke="#000" stroke-miterlimit="10" stroke-width="0.265"/>
          <path id="Trazado_1064984" data-name="Trazado 1064984" d="M47.916,130.682h95.331v18.451H23.314a3.083,3.083,0,0,1-3.075-3.074v-12.3a3.084,3.084,0,0,1,3.075-3.075h24.6Z" transform="translate(-5.587 -36.073)" fill="#d3a06c"/>
          <path id="Trazado_1064985" data-name="Trazado 1064985" d="M47.916,130.682h95.331v18.451H23.314a3.083,3.083,0,0,1-3.075-3.074v-12.3a3.084,3.084,0,0,1,3.075-3.075h24.6Z" transform="translate(-5.587 -36.073)" fill="none" stroke="#000" stroke-miterlimit="10" stroke-width="0.265"/>
          <path id="Trazado_1064986" data-name="Trazado 1064986" d="M193.067,173.775a31.081,31.081,0,1,1-6.15-.615,30.806,30.806,0,0,1,6.15.615m12.3,30.137a18.451,18.451,0,1,0-18.451,18.451,18.465,18.465,0,0,0,18.451-18.451" transform="translate(-43.107 -47.798)" fill="#969faa"/>
          <path id="Trazado_1064987" data-name="Trazado 1064987" d="M193.067,173.775a31.081,31.081,0,1,1-6.15-.615A30.806,30.806,0,0,1,193.067,173.775Zm12.3,30.137a18.451,18.451,0,1,0-18.451,18.451A18.465,18.465,0,0,0,205.368,203.912Z" transform="translate(-43.107 -47.798)" fill="none" stroke="#000" stroke-miterlimit="10" stroke-width="0.265"/>
          <path id="Trazado_1064988" data-name="Trazado 1064988" d="M191.607,190.151A18.451,18.451,0,1,1,173.155,208.6a18.466,18.466,0,0,1,18.452-18.451m6.15,18.451a6.15,6.15,0,1,0-6.15,6.15,6.168,6.168,0,0,0,6.15-6.15" transform="translate(-47.796 -52.488)" fill="#ccd1d9"/>
          <path id="Trazado_1064989" data-name="Trazado 1064989" d="M191.607,190.151A18.451,18.451,0,1,1,173.155,208.6,18.466,18.466,0,0,1,191.607,190.151Zm6.15,18.451a6.15,6.15,0,1,0-6.15,6.15A6.168,6.168,0,0,0,197.757,208.6Z" transform="translate(-47.796 -52.488)" fill="none" stroke="#000" stroke-miterlimit="10" stroke-width="0.265"/>
          <path id="Trazado_1064990" data-name="Trazado 1064990" d="M185.9,212.12a9.226,9.226,0,1,0,9.225-9.226,9.237,9.237,0,0,0-9.225,9.226m12.3,0a3.075,3.075,0,1,1-3.075-3.075,3.078,3.078,0,0,1,3.075,3.075" transform="translate(-51.314 -56.005)"/>
          <path id="Trazado_1064991" data-name="Trazado 1064991" d="M168.908,207.429A21.526,21.526,0,1,0,190.434,185.9a21.551,21.551,0,0,0-21.526,21.526m36.9,0a15.376,15.376,0,1,1-15.376-15.376,15.394,15.394,0,0,1,15.376,15.376" transform="translate(-46.624 -51.315)"/>
          <path id="Trazado_1064992" data-name="Trazado 1064992" d="M180.713,17.006a8.51,8.51,0,0,0,8.462-9.32A8.667,8.667,0,0,0,180.464,0H156.112a20.8,20.8,0,0,0-20.8,20.8v59.63l-1.316-1.874a29.907,29.907,0,0,0-14.6-11.08l-.549-.195.644-5.154a126.6,126.6,0,0,1,8.053-31.23l.661-1.651a1.441,1.441,0,0,0-1.687-1.933l-1.727.431c-.506.127-1,.29-1.517.462l-1.456.475L121.9,27.6a83.542,83.542,0,0,1,5.64-24.375,2.351,2.351,0,0,0-2.926-3.1l-2.745.914A38.059,38.059,0,0,0,101.431,17.3l-.6.988-.625-.974a25.777,25.777,0,0,0-10.171-9.1L84.505,5.442A1.532,1.532,0,0,0,82.4,7.381l.8,2A83.561,83.561,0,0,1,88.353,28.86l.177,1.263-1.175-.494a24.506,24.506,0,0,0-9.575-1.949H72.272l5.459-10.922a7.324,7.324,0,0,0-6.551-10.6H69.418a7.293,7.293,0,0,0-5.1,2.137L63.164,9.418l-.075-1.612A8.15,8.15,0,0,0,54.953,0h-.646a8.157,8.157,0,0,0-8.14,7.8L46.091,9.42,44.937,8.29a7.272,7.272,0,0,0-5.1-2.137H38.079a7.329,7.329,0,0,0-6.554,10.605l9.839,19.68-.313.365A17.219,17.219,0,0,0,36.9,47.987c0,.383.012.766.038,1.142l.126,1.853-1.081-.451a16.709,16.709,0,0,0-9.541-1.05l-.759.132L23.777,32.442A8.8,8.8,0,0,0,15.024,24.6a8.913,8.913,0,0,0-8.9,8.864l-.014,3.67-.509.156A7.854,7.854,0,0,0,0,44.816v.723a8.608,8.608,0,0,0,3.107,6.633l10.17,8.474-.148.464a17.35,17.35,0,0,0-.827,5.282A17.088,17.088,0,0,0,18.14,79.258L33,92.259H17.727A5.426,5.426,0,0,0,12.3,97.685v12.3a5.426,5.426,0,0,0,5.426,5.426h.724v7.6h-.724a5.426,5.426,0,0,0-5.426,5.426v49.2a5.426,5.426,0,0,0,5.426,5.426H124.65l.188.132a32.835,32.835,0,0,0,18.788,6.018,33.088,33.088,0,0,0,9.212-64.923l-.526-.15V20.805a3.8,3.8,0,0,1,3.8-3.8Zm-16.1-12.3h16.1a3.8,3.8,0,0,1,0,7.6h-16.1ZM134,89.65l.652,2.609H115.41V87.94a33.88,33.88,0,0,0-4.25-16.275l-.662-1.2,1.366.132A25.369,25.369,0,0,1,134,89.65m-78.776,0A25.36,25.36,0,0,1,77.35,70.595l1.365-.132-.662,1.2A33.889,33.889,0,0,0,73.8,87.94v4.319H54.566Zm-4.561-1.14-.94,3.749H44.527l-2.9-43.445c-.02-.273-.026-.551-.026-.827a12.544,12.544,0,0,1,12.53-12.53h.99a12.544,12.544,0,0,1,12.53,12.53c0,.275-.007.553-.027.834L66.285,68.974l-.361.188A30.075,30.075,0,0,0,50.658,88.509m27.849-.57a29.112,29.112,0,0,1,4.144-14.961,13.943,13.943,0,0,1,23.912,0,29.108,29.108,0,0,1,4.144,14.962v4.319h-32.2ZM91.056,55.328l.361-.29a5.249,5.249,0,0,1,6.382,0l.36.291-1.579,6.312-1.034-.078a10.763,10.763,0,0,0-1.908,0l-1.006.081ZM82.782,33.013a19.822,19.822,0,0,1,12.46,9.727l4.208-2.105A24.567,24.567,0,0,0,93.8,33.62l-.225-.193-.024-.3a88.478,88.478,0,0,0-3.31-17.791l-.632-2.135,1.767,1.355a20.976,20.976,0,0,1,7.15,10.06l2.029,6.09,2.384-5.96A33.21,33.21,0,0,1,119.952,6.842l1.486-.683-.493,1.559a88.093,88.093,0,0,0-3.964,22.857l-.017.389-.334.2A29.835,29.835,0,0,0,105.287,43.39l-.156.313,4.2,2.107.159-.315a25.072,25.072,0,0,1,10.254-10.739l1.645-.918-.607,1.783a131.074,131.074,0,0,0-5.964,25.925l-.576,4.617-1.112-.155c-.327-.048-.654-.095-.987-.125l-6.27-.569-.163-.121a18.792,18.792,0,0,0-3.971-2.251l-.575-.239,1.8-7.221a2.859,2.859,0,0,0-.757-2.719l-.7-.693a10.061,10.061,0,0,0-11.06-1.852l-.736.331-.249-.769A64.805,64.805,0,0,0,82,34.113l-1.029-1.565ZM75.9,33.6A60.137,60.137,0,0,1,86.177,55.2l1.876,7.5-.576.24a18.8,18.8,0,0,0-3.97,2.249l-.164.122-6.27.569a30.08,30.08,0,0,0-4.97.889l-.974.258,1.192-17.9c.027-.386.038-.769.038-1.152A17.219,17.219,0,0,0,68.21,36.8l-.312-.365,4.051-8.1ZM61.977,19.031,67.319,11.9a2.645,2.645,0,0,1,2.1-1.047H71.18a2.624,2.624,0,0,1,2.346,3.8L64.191,33.327l-.662-.371A16.935,16.935,0,0,0,61.1,31.848l-.532-.2ZM54.307,4.705h.646a3.345,3.345,0,0,1,2.393.991,3.874,3.874,0,0,1,1.067,2.8l0,.074-2.467,22.2h-.648c-.047,0-.094,0-.141-.007l-1.018,0c-.071.007-.119.009-.166.009H53.32L50.83,8.182a3.48,3.48,0,0,1,3.476-3.476M35.731,14.65a2.582,2.582,0,0,1-.276-1.169,2.627,2.627,0,0,1,2.624-2.624h1.762a2.647,2.647,0,0,1,2.1,1.047l5.345,7.125,1.4,12.619-.528.2a17.874,17.874,0,0,0-2.429,1.11l-.661.369Zm-24.9,18.835a4.2,4.2,0,0,1,4.2-4.178,4.1,4.1,0,0,1,4.081,3.651l2.044,18.4-.41.236c-.108.062-.213.128-.321.2l-.718.455L15.183,41.7a7.908,7.908,0,0,0-3.948-4.059l-.421-.2ZM6.12,48.562A3.922,3.922,0,0,1,4.7,45.539v-.723a3.209,3.209,0,0,1,6.16-1.264l5.973,13.936ZM21.233,75.72A12.457,12.457,0,0,1,29.4,53.909a12.221,12.221,0,0,1,7.825,2.852l.242.2.145,2.147-11.8,11.8,3.324,3.325,8.895-8.895L39.8,91.96ZM17,96.961H135.309v13.748H17Zm118.306,26.05H23.154v-7.6H135.309ZM17,127.713H126.71l-1.872,1.316a33.172,33.172,0,0,0-14.131,27.084c0,.9.049,1.854.154,3.01l.072.789H17Zm0,50.652V164.616H111.84l.15.526a32.869,32.869,0,0,0,6.3,12.038l.979,1.185Zm155.208-22.251a28.4,28.4,0,1,1-28.4-28.4,28.433,28.433,0,0,1,28.4,28.4M147.61,20.805V123.237l-.79-.072a28.741,28.741,0,0,0-6.019,0l-.79.072V20.805a16.118,16.118,0,0,1,16.1-16.1h3.8v7.6h-3.8a8.511,8.511,0,0,0-8.5,8.5" transform="translate(0 0)"/>
          <rect id="Rectángulo_401825" data-name="Rectángulo 401825" width="12.301" height="6.15" transform="translate(48.479 48.482)"/>
          <rect id="Rectángulo_401826" data-name="Rectángulo 401826" width="12.301" height="6.15" transform="translate(48.479 60.783)"/>
        </g>
      </g>
    </g>
  </g>
</svg>
