<svg xmlns="http://www.w3.org/2000/svg" xmlns:xlink="http://www.w3.org/1999/xlink" width="610" height="187" viewBox="0 0 610 187">
  <defs>
    <clipPath id="clip-path">
      <rect id="Rectángulo_401751" data-name="Rectángulo 401751" width="610" height="187" transform="translate(180.051 2416)" fill="#fff" stroke="#707070" stroke-width="1"/>
    </clipPath>
  </defs>
  <g id="Enmascarar_grupo_1098691" data-name="Enmascarar grupo 1098691" transform="translate(-180.051 -2416)" clip-path="url(#clip-path)">
    <g id="Grupo_1210290" data-name="Grupo 1210290" transform="translate(232.051 2434)">
      <g id="Grupo_1210588" data-name="Grupo 1210588">
        <g id="Grupo_1210589" data-name="Grupo 1210589">
          <path id="Trazado_1064710" data-name="Trazado 1064710" d="M92.382,0H6.942A6.943,6.943,0,0,0,0,6.943V144.409a6.943,6.943,0,0,0,6.943,6.942h85.44a6.943,6.943,0,0,0,6.942-6.942V6.943A6.943,6.943,0,0,0,92.382,0" fill="#fe9900"/>
          <path id="Trazado_1064711" data-name="Trazado 1064711" d="M61.174,134.739a1.4,1.4,0,1,0,1.4,1.4,1.4,1.4,0,0,0-1.4-1.4" fill="#fff"/>
          <path id="Trazado_1064712" data-name="Trazado 1064712" d="M85.349,89.573,77.178,77.862V72.688a1.4,1.4,0,0,0-1.4-1.4H23.55a1.4,1.4,0,0,0-1.4,1.4v5.174L13.976,89.573a1.419,1.419,0,0,0-.252.794v5.625a7.113,7.113,0,0,0,5.756,6.881v37.481H15.127a1.4,1.4,0,1,0,0,2.808H84.2a1.4,1.4,0,1,0,0-2.808H79.846V102.873A7.113,7.113,0,0,0,85.6,95.992V90.377a1.426,1.426,0,0,0-.253-.8m-8.311,13.3v26.25H45.311v-26.25a7.251,7.251,0,0,0,4.352-2.735,7.2,7.2,0,0,0,11.512,0,7.2,7.2,0,0,0,11.511,0,7.25,7.25,0,0,0,4.352,2.735M24.283,79.707h5.77l-4.31,9.266H17.819Zm32.969,0,2.154,9.266h-8.34V79.707Zm8.923,0,4.31,9.266h-8.2l-2.154-9.266ZM51.066,91.78h8.7v4.212a4.354,4.354,0,0,1-8.7,0Zm11.512,0h8.7v4.212a4.354,4.354,0,0,1-8.7,0ZM48.259,88.973h-8.34l2.154-9.266h6.186Zm-11.223,0h-8.2l4.31-9.266h6.041ZM28.043,91.78h8.7v4.212a4.354,4.354,0,0,1-8.7,0Zm11.512,0h8.7v4.212a4.354,4.354,0,0,1-8.7,0Zm34.027-2.807-4.31-9.266h5.77l6.464,9.266ZM74.371,76.9H24.955V74.091H74.371ZM16.531,95.992V91.78h8.7v4.212a4.354,4.354,0,0,1-8.7,0m5.756,6.881a7.25,7.25,0,0,0,4.353-2.735,7.2,7.2,0,0,0,11.511,0,7.25,7.25,0,0,0,4.352,2.735v37.481H22.287Zm23.024,37.481v-8.423H77.038v2.808H66.79a1.4,1.4,0,1,0,0,2.808H77.038v2.807ZM82.794,95.992a4.354,4.354,0,0,1-8.7,0V91.78h8.7Z" fill="#fff"/>
          <path id="Trazado_1064713" data-name="Trazado 1064713" d="M38.291,126.274V119.9a2.808,2.808,0,1,0-2.808,0v6.376a2.808,2.808,0,1,0,2.808,0" fill="#fff"/>
          <path id="Trazado_1064714" data-name="Trazado 1064714" d="M66.959,116.236l-5.616,5.615a1.4,1.4,0,1,0,1.986,1.986l5.615-5.615a1.4,1.4,0,0,0-1.985-1.986" fill="#fff"/>
          <path id="Trazado_1064715" data-name="Trazado 1064715" d="M55.388,115.9,61,110.282a1.4,1.4,0,0,0-1.985-1.985L53.4,113.912a1.4,1.4,0,0,0,1.985,1.986" fill="#fff"/>
          <path id="Trazado_1064716" data-name="Trazado 1064716" d="M67.782,109.459a1.4,1.4,0,0,0-1.985,0L54.566,120.69a1.4,1.4,0,1,0,1.985,1.985l11.231-11.231a1.4,1.4,0,0,0,0-1.985" fill="#fff"/>
          <path id="Trazado_1064717" data-name="Trazado 1064717" d="M22.213,41.647a3.764,3.764,0,0,1-2.888-1.116,3.97,3.97,0,0,1-1.044-2.824v-.284a4.538,4.538,0,0,1,.984-3.026,3.5,3.5,0,0,1,2.85-1.16,3.279,3.279,0,0,1,2.542.981,3.817,3.817,0,0,1,.9,2.688v1.326H20.917l-.015.045a1.576,1.576,0,0,0,.472,1.03,1.647,1.647,0,0,0,1.183.393,5.113,5.113,0,0,0,1.209-.12,7.556,7.556,0,0,0,1.1-.382l.607,1.543a4.637,4.637,0,0,1-1.408.644,6.521,6.521,0,0,1-1.857.262m-.1-6.463a1.045,1.045,0,0,0-.9.385,1.942,1.942,0,0,0-.333,1.045l.015.038h2.187v-.195a1.688,1.688,0,0,0-.221-.951.848.848,0,0,0-.753-.322" fill="#331f00"/>
          <path id="Trazado_1064718" data-name="Trazado 1064718" d="M29.78,33.386l.09,1.072a2.675,2.675,0,0,1,.962-.9,2.71,2.71,0,0,1,1.329-.318,2.486,2.486,0,0,1,1.3.328,2.02,2.02,0,0,1,.823,1,2.718,2.718,0,0,1,.963-.985,2.638,2.638,0,0,1,1.374-.348,2.249,2.249,0,0,1,1.861.85,4.162,4.162,0,0,1,.678,2.616v4.787H36.625V36.7a2.11,2.11,0,0,0-.243-1.194.854.854,0,0,0-.73-.325,1.521,1.521,0,0,0-.648.13,1.367,1.367,0,0,0-.476.364c0,.085,0,.159.007.22s.008.123.008.184v5.408H32.012V36.7a2.121,2.121,0,0,0-.24-1.2.864.864,0,0,0-.742-.322,1.466,1.466,0,0,0-.625.13,1.354,1.354,0,0,0-.475.364v5.812H27.4v-8.1Z" fill="#331f00"/>
          <path id="Trazado_1064719" data-name="Trazado 1064719" d="M48.88,37.61a4.789,4.789,0,0,1-.824,2.932,2.726,2.726,0,0,1-2.322,1.1,2.213,2.213,0,0,1-1.827-.876V44.6H41.376V33.386h2.389l.075.884a2.454,2.454,0,0,1,.805-.764,2.12,2.12,0,0,1,1.074-.269,2.7,2.7,0,0,1,2.333,1.16,5.153,5.153,0,0,1,.828,3.056Zm-2.524-.157a3.833,3.833,0,0,0-.3-1.647,1,1,0,0,0-.959-.622,1.524,1.524,0,0,0-.723.157,1.162,1.162,0,0,0-.468.457v3.385a1.088,1.088,0,0,0,.476.39,1.844,1.844,0,0,0,.73.127,1,1,0,0,0,.955-.551,3.368,3.368,0,0,0,.288-1.539Z" fill="#331f00"/>
          <path id="Trazado_1064720" data-name="Trazado 1064720" d="M55.241,35.544l-.824-.008a1.4,1.4,0,0,0-.711.161,1,1,0,0,0-.412.453v5.34H50.762v-8.1h2.382l.09,1.191a2.451,2.451,0,0,1,.674-.989,1.484,1.484,0,0,1,.981-.352,1.875,1.875,0,0,1,.307.023,2.15,2.15,0,0,1,.285.067Z" fill="#331f00"/>
          <path id="Trazado_1064721" data-name="Trazado 1064721" d="M60.39,41.647A3.764,3.764,0,0,1,57.5,40.531a3.97,3.97,0,0,1-1.044-2.824v-.284a4.538,4.538,0,0,1,.984-3.026,3.5,3.5,0,0,1,2.85-1.16,3.279,3.279,0,0,1,2.542.981,3.817,3.817,0,0,1,.9,2.688v1.326H59.094l-.015.045a1.576,1.576,0,0,0,.472,1.03,1.647,1.647,0,0,0,1.183.393,5.113,5.113,0,0,0,1.209-.12,7.556,7.556,0,0,0,1.1-.382l.607,1.543a4.637,4.637,0,0,1-1.408.644,6.521,6.521,0,0,1-1.857.262m-.1-6.463a1.045,1.045,0,0,0-.9.385,1.942,1.942,0,0,0-.333,1.045l.015.038h2.187v-.195a1.688,1.688,0,0,0-.221-.951.848.848,0,0,0-.753-.322" fill="#331f00"/>
          <path id="Trazado_1064722" data-name="Trazado 1064722" d="M69.8,39.213a.66.66,0,0,0-.341-.535,3.682,3.682,0,0,0-1.239-.423,4.9,4.9,0,0,1-2.135-.858,1.944,1.944,0,0,1-.719-1.6,2.279,2.279,0,0,1,.9-1.816,3.694,3.694,0,0,1,2.434-.745,4.181,4.181,0,0,1,2.577.723,2.126,2.126,0,0,1,.913,1.868l-.015.045H69.716a1,1,0,0,0-.239-.726,1.06,1.06,0,0,0-.786-.247,1.033,1.033,0,0,0-.667.216.681.681,0,0,0-.269.555.659.659,0,0,0,.31.546,3.516,3.516,0,0,0,1.255.405,5.062,5.062,0,0,1,2.2.872,2,2,0,0,1,.711,1.644,2.148,2.148,0,0,1-.97,1.8,4.261,4.261,0,0,1-2.565.707,3.839,3.839,0,0,1-2.617-.839,2.309,2.309,0,0,1-.918-1.872l.015-.045H67.47a1.015,1.015,0,0,0,.348.831,1.531,1.531,0,0,0,.947.255,1.262,1.262,0,0,0,.772-.2.665.665,0,0,0,.262-.565" fill="#331f00"/>
          <path id="Trazado_1064723" data-name="Trazado 1064723" d="M78.872,41.483a2.962,2.962,0,0,1-.244-.577,4.356,4.356,0,0,1-.153-.674,3.105,3.105,0,0,1-.813,1.03,1.963,1.963,0,0,1-1.262.385,2.805,2.805,0,0,1-1.981-.655,2.314,2.314,0,0,1-.707-1.786,2.159,2.159,0,0,1,.906-1.861,4.7,4.7,0,0,1,2.748-.656h1.041v-.576a1.15,1.15,0,0,0-.247-.793.96.96,0,0,0-.757-.278.915.915,0,0,0-.655.206.853.853,0,0,0-.213.64l-2.457-.007-.014-.045a2.11,2.11,0,0,1,.924-1.853,4.145,4.145,0,0,1,2.58-.745,3.776,3.776,0,0,1,2.438.748,2.588,2.588,0,0,1,.933,2.142v3.056a6.271,6.271,0,0,0,.108,1.2,6.336,6.336,0,0,0,.326,1.108Zm-1.783-1.641a1.538,1.538,0,0,0,.82-.216,1.251,1.251,0,0,0,.5-.517V38.038H77.389a1.145,1.145,0,0,0-.877.292,1.053,1.053,0,0,0-.269.742.718.718,0,0,0,.236.558.878.878,0,0,0,.61.212" fill="#331f00"/>
          <path id="Trazado_1064724" data-name="Trazado 1064724" d="M24.783,25.4h.048l3.361-8.94h2.474V28.08h-1.94V19.731l-.047-.009-3.2,8.358H24.144l-3.257-8.517-.047.016v8.5H18.9V16.458h2.546Z" fill="#331f00"/>
          <rect id="Rectángulo_401746" data-name="Rectángulo 401746" width="1.94" height="11.623" transform="translate(36.546 16.457)" fill="#331f00"/>
          <path id="Trazado_1064725" data-name="Trazado 1064725" d="M52.852,24.28l.016.048a3.588,3.588,0,0,1-1.141,2.838,4.5,4.5,0,0,1-3.171,1.081,4.263,4.263,0,0,1-3.287-1.368,4.966,4.966,0,0,1-1.262-3.5V21.167a5.023,5.023,0,0,1,1.244-3.5A4.179,4.179,0,0,1,48.5,16.29a4.69,4.69,0,0,1,3.229,1.045A3.549,3.549,0,0,1,52.875,20.2l-.015.048H50.984a2.389,2.389,0,0,0-.631-1.784,2.54,2.54,0,0,0-1.853-.619,2.208,2.208,0,0,0-1.872.938,3.887,3.887,0,0,0-.69,2.367v2.227a3.869,3.869,0,0,0,.7,2.383,2.267,2.267,0,0,0,1.915.938,2.176,2.176,0,0,0,2.428-2.419Z" fill="#331f00"/>
          <path id="Trazado_1064726" data-name="Trazado 1064726" d="M59.945,23.259V28.08h-1.94V16.457h4a4.588,4.588,0,0,1,3,.878,3.07,3.07,0,0,1,1.062,2.507,2.591,2.591,0,0,1-.467,1.552,3.2,3.2,0,0,1-1.362,1.042,2.458,2.458,0,0,1,1.417,1.014,3.246,3.246,0,0,1,.435,1.74v.966a3.924,3.924,0,0,0,.128,1,1.423,1.423,0,0,0,.423.742v.184H64.647a1.28,1.28,0,0,1-.408-.822,7.26,7.26,0,0,1-.087-1.118v-.934a1.948,1.948,0,0,0-.515-1.421,1.869,1.869,0,0,0-1.4-.526Zm0-1.557H61.9a2.634,2.634,0,0,0,1.7-.447,1.68,1.68,0,0,0,.535-1.365,1.807,1.807,0,0,0-.527-1.377,2.262,2.262,0,0,0-1.6-.5h-2.06Z" fill="#331f00"/>
          <path id="Trazado_1064727" data-name="Trazado 1064727" d="M80.808,23.314a4.915,4.915,0,0,1-1.337,3.533,4.591,4.591,0,0,1-3.477,1.4,4.429,4.429,0,0,1-3.392-1.4,4.971,4.971,0,0,1-1.309-3.533V21.223A4.983,4.983,0,0,1,72.6,17.695a4.42,4.42,0,0,1,3.4-1.4,4.585,4.585,0,0,1,3.473,1.4,4.906,4.906,0,0,1,1.341,3.528Zm-1.94-2.107a3.618,3.618,0,0,0-.774-2.387,2.587,2.587,0,0,0-2.1-.934,2.441,2.441,0,0,0-2.023.934,3.729,3.729,0,0,0-.739,2.387v2.107a3.758,3.758,0,0,0,.743,2.407,2.436,2.436,0,0,0,2.019.938,2.578,2.578,0,0,0,2.1-.934,3.663,3.663,0,0,0,.771-2.411Z" fill="#331f00"/>
          <path id="Trazado_1064728" data-name="Trazado 1064728" d="M229.3,0H143.857a6.943,6.943,0,0,0-6.943,6.943V144.409a6.943,6.943,0,0,0,6.943,6.942H229.3a6.943,6.943,0,0,0,6.943-6.942V6.943A6.943,6.943,0,0,0,229.3,0" fill="#80b500"/>
          <path id="Trazado_1064729" data-name="Trazado 1064729" d="M159.038,41.647a3.764,3.764,0,0,1-2.888-1.116,3.97,3.97,0,0,1-1.044-2.824v-.284a4.538,4.538,0,0,1,.984-3.026,3.5,3.5,0,0,1,2.85-1.16,3.279,3.279,0,0,1,2.542.981,3.817,3.817,0,0,1,.9,2.688v1.326h-4.643l-.015.045a1.575,1.575,0,0,0,.472,1.03,1.647,1.647,0,0,0,1.183.393,5.113,5.113,0,0,0,1.209-.12,7.556,7.556,0,0,0,1.1-.382l.607,1.543a4.637,4.637,0,0,1-1.408.644,6.521,6.521,0,0,1-1.857.262m-.1-6.463a1.045,1.045,0,0,0-.9.385,1.942,1.942,0,0,0-.333,1.045l.015.038h2.187v-.195a1.688,1.688,0,0,0-.221-.951.848.848,0,0,0-.753-.322" fill="#331f00"/>
          <path id="Trazado_1064730" data-name="Trazado 1064730" d="M166.6,33.386l.09,1.072a2.675,2.675,0,0,1,.962-.9,2.71,2.71,0,0,1,1.329-.318,2.486,2.486,0,0,1,1.3.328,2.02,2.02,0,0,1,.823,1,2.718,2.718,0,0,1,.963-.985,2.638,2.638,0,0,1,1.374-.348,2.249,2.249,0,0,1,1.861.85,4.162,4.162,0,0,1,.678,2.616v4.787h-2.539V36.7a2.11,2.11,0,0,0-.243-1.194.854.854,0,0,0-.73-.325,1.521,1.521,0,0,0-.648.13,1.367,1.367,0,0,0-.476.364c0,.085,0,.159.007.22s.008.123.008.184v5.408h-2.531V36.7a2.121,2.121,0,0,0-.24-1.2.864.864,0,0,0-.742-.322,1.466,1.466,0,0,0-.625.13,1.354,1.354,0,0,0-.475.364v5.812h-2.532v-8.1Z" fill="#331f00"/>
          <path id="Trazado_1064731" data-name="Trazado 1064731" d="M185.705,37.61a4.789,4.789,0,0,1-.824,2.932,2.726,2.726,0,0,1-2.322,1.1,2.213,2.213,0,0,1-1.827-.876V44.6H178.2V33.386h2.389l.075.884a2.454,2.454,0,0,1,.805-.764,2.12,2.12,0,0,1,1.074-.269,2.7,2.7,0,0,1,2.333,1.16,5.153,5.153,0,0,1,.828,3.056Zm-2.524-.157a3.834,3.834,0,0,0-.3-1.647,1,1,0,0,0-.959-.622,1.524,1.524,0,0,0-.723.157,1.162,1.162,0,0,0-.468.457v3.385a1.088,1.088,0,0,0,.476.39,1.844,1.844,0,0,0,.73.127,1,1,0,0,0,.955-.551,3.368,3.368,0,0,0,.288-1.539Z" fill="#331f00"/>
          <path id="Trazado_1064732" data-name="Trazado 1064732" d="M192.066,35.544l-.824-.008a1.4,1.4,0,0,0-.711.161,1,1,0,0,0-.412.453v5.34h-2.532v-8.1h2.382l.09,1.191a2.451,2.451,0,0,1,.674-.989,1.484,1.484,0,0,1,.981-.352,1.875,1.875,0,0,1,.307.023,2.151,2.151,0,0,1,.285.067Z" fill="#331f00"/>
          <path id="Trazado_1064733" data-name="Trazado 1064733" d="M197.215,41.647a3.764,3.764,0,0,1-2.888-1.116,3.97,3.97,0,0,1-1.044-2.824v-.284a4.538,4.538,0,0,1,.984-3.026,3.5,3.5,0,0,1,2.85-1.16,3.279,3.279,0,0,1,2.542.981,3.817,3.817,0,0,1,.9,2.688v1.326h-4.643l-.015.045a1.575,1.575,0,0,0,.472,1.03,1.647,1.647,0,0,0,1.183.393,5.113,5.113,0,0,0,1.209-.12,7.556,7.556,0,0,0,1.1-.382l.607,1.543a4.637,4.637,0,0,1-1.408.644,6.521,6.521,0,0,1-1.857.262m-.1-6.463a1.045,1.045,0,0,0-.9.385,1.942,1.942,0,0,0-.333,1.045l.015.038h2.187v-.195a1.688,1.688,0,0,0-.221-.951.848.848,0,0,0-.753-.322" fill="#331f00"/>
          <path id="Trazado_1064734" data-name="Trazado 1064734" d="M206.623,39.213a.66.66,0,0,0-.341-.535,3.682,3.682,0,0,0-1.239-.423,4.9,4.9,0,0,1-2.135-.858,1.944,1.944,0,0,1-.719-1.6,2.279,2.279,0,0,1,.9-1.816,3.694,3.694,0,0,1,2.434-.745,4.181,4.181,0,0,1,2.577.723,2.126,2.126,0,0,1,.913,1.868l-.015.045H206.54a1,1,0,0,0-.239-.726,1.06,1.06,0,0,0-.786-.247,1.033,1.033,0,0,0-.667.216.681.681,0,0,0-.269.555.659.659,0,0,0,.31.546,3.515,3.515,0,0,0,1.255.405,5.062,5.062,0,0,1,2.2.872,2,2,0,0,1,.711,1.644,2.148,2.148,0,0,1-.97,1.8,4.261,4.261,0,0,1-2.565.707,3.839,3.839,0,0,1-2.617-.839,2.309,2.309,0,0,1-.918-1.872l.015-.045h2.292a1.015,1.015,0,0,0,.348.831,1.531,1.531,0,0,0,.947.255,1.261,1.261,0,0,0,.772-.2.665.665,0,0,0,.262-.565" fill="#331f00"/>
          <path id="Trazado_1064735" data-name="Trazado 1064735" d="M215.7,41.483a2.962,2.962,0,0,1-.244-.577,4.355,4.355,0,0,1-.153-.674,3.105,3.105,0,0,1-.813,1.03,1.963,1.963,0,0,1-1.262.385,2.805,2.805,0,0,1-1.981-.655,2.314,2.314,0,0,1-.707-1.786,2.159,2.159,0,0,1,.906-1.861,4.7,4.7,0,0,1,2.748-.656h1.041v-.576a1.15,1.15,0,0,0-.247-.793.959.959,0,0,0-.757-.278.915.915,0,0,0-.655.206.853.853,0,0,0-.213.64l-2.457-.007-.014-.045a2.11,2.11,0,0,1,.924-1.853,4.145,4.145,0,0,1,2.58-.745,3.776,3.776,0,0,1,2.438.748,2.588,2.588,0,0,1,.933,2.142v3.056a6.27,6.27,0,0,0,.108,1.2,6.335,6.335,0,0,0,.326,1.108Zm-1.783-1.641a1.538,1.538,0,0,0,.82-.216,1.251,1.251,0,0,0,.5-.517V38.038h-1.018a1.145,1.145,0,0,0-.877.292,1.053,1.053,0,0,0-.269.742.718.718,0,0,0,.236.558.878.878,0,0,0,.61.212" fill="#331f00"/>
          <path id="Trazado_1064736" data-name="Trazado 1064736" d="M156.755,24.711V28.6h-1.712V18.342h3.931a3.8,3.8,0,0,1,2.659.877,2.972,2.972,0,0,1,.962,2.307,2.968,2.968,0,0,1-.962,2.315,3.818,3.818,0,0,1-2.659.87Zm0-1.374h2.219a1.876,1.876,0,0,0,1.43-.507,1.8,1.8,0,0,0,.479-1.289,1.729,1.729,0,0,0-1.909-1.825h-2.219Z" fill="#331f00"/>
          <path id="Trazado_1064737" data-name="Trazado 1064737" d="M168.639,28.748a3.318,3.318,0,0,1-2.61-1.053,3.944,3.944,0,0,1-.94-2.73v-.282a4.078,4.078,0,0,1,.94-2.765,3.039,3.039,0,0,1,2.427-1.082,2.853,2.853,0,0,1,2.325.948,3.832,3.832,0,0,1,.789,2.532v.924h-4.714l-.014.035a2.5,2.5,0,0,0,.493,1.521,1.681,1.681,0,0,0,1.4.585,3.843,3.843,0,0,0,1.207-.169,3.4,3.4,0,0,0,.948-.486l.558,1.12a3.635,3.635,0,0,1-1.157.641,4.831,4.831,0,0,1-1.655.261m-.183-6.538a1.324,1.324,0,0,0-1.072.483,2.409,2.409,0,0,0-.5,1.257l.014.035h2.98v-.133a1.913,1.913,0,0,0-.341-1.187,1.265,1.265,0,0,0-1.081-.455" fill="#331f00"/>
          <path id="Trazado_1064738" data-name="Trazado 1064738" d="M174.084,24.894a5.019,5.019,0,0,1,.782-2.941,2.528,2.528,0,0,1,2.2-1.117,2.424,2.424,0,0,1,1.17.274,2.536,2.536,0,0,1,.866.789l.2-.922h1.388V31.53h-1.712V27.881a2.3,2.3,0,0,1-.831.648,2.841,2.841,0,0,1-3.276-.8,4.294,4.294,0,0,1-.782-2.684Zm1.712.148a3.145,3.145,0,0,0,.4,1.7,1.41,1.41,0,0,0,1.286.641,1.749,1.749,0,0,0,.884-.208,1.669,1.669,0,0,0,.6-.6V23.02a1.77,1.77,0,0,0-.606-.6,1.683,1.683,0,0,0-.866-.215,1.376,1.376,0,0,0-1.289.751,3.957,3.957,0,0,0-.416,1.934Z" fill="#331f00"/>
          <path id="Trazado_1064739" data-name="Trazado 1064739" d="M188.771,27.472a2.554,2.554,0,0,1-.9.944,2.44,2.44,0,0,1-1.279.331,2.389,2.389,0,0,1-1.916-.806,3.79,3.79,0,0,1-.691-2.5v-4.46h1.705V25.45a2.553,2.553,0,0,0,.317,1.5,1.176,1.176,0,0,0,.987.4,2.2,2.2,0,0,0,1.039-.221,1.617,1.617,0,0,0,.659-.645v-5.51H190.4V28.6h-1.472Z" fill="#331f00"/>
          <path id="Trazado_1064740" data-name="Trazado 1064740" d="M196.865,28.748a3.318,3.318,0,0,1-2.61-1.053,3.944,3.944,0,0,1-.941-2.73v-.282a4.078,4.078,0,0,1,.941-2.765,3.039,3.039,0,0,1,2.427-1.082,2.855,2.855,0,0,1,2.325.948,3.832,3.832,0,0,1,.789,2.532v.924h-4.714l-.014.035a2.5,2.5,0,0,0,.493,1.521,1.681,1.681,0,0,0,1.4.585,3.843,3.843,0,0,0,1.207-.169,3.419,3.419,0,0,0,.948-.486l.557,1.12a3.618,3.618,0,0,1-1.156.641,4.831,4.831,0,0,1-1.655.261m-.183-6.538a1.324,1.324,0,0,0-1.072.483,2.4,2.4,0,0,0-.5,1.257l.014.035h2.98v-.133a1.913,1.913,0,0,0-.341-1.187,1.266,1.266,0,0,0-1.081-.455" fill="#331f00"/>
          <path id="Trazado_1064741" data-name="Trazado 1064741" d="M204.176,20.977l.1,1.1a2.738,2.738,0,0,1,.94-.912,2.518,2.518,0,0,1,1.279-.327,2.383,2.383,0,0,1,1.857.732,3.335,3.335,0,0,1,.666,2.29V28.6H207.3V23.873a1.841,1.841,0,0,0-.345-1.261,1.353,1.353,0,0,0-1.043-.374,2.052,2.052,0,0,0-.951.208,1.68,1.68,0,0,0-.641.575V28.6h-1.712V20.977Zm4.157-3.156a1.653,1.653,0,0,1-.423,1.142,1.361,1.361,0,0,1-1.056.471,2.3,2.3,0,0,1-1.082-.313,2.14,2.14,0,0,0-.94-.314.583.583,0,0,0-.465.229.828.828,0,0,0-.191.546l-.923-.246a1.716,1.716,0,0,1,.419-1.152,1.331,1.331,0,0,1,1.054-.489,2.462,2.462,0,0,1,1.025.313,2.438,2.438,0,0,0,1,.313.6.6,0,0,0,.465-.225.808.808,0,0,0,.2-.549Z" fill="#331f00"/>
          <path id="Trazado_1064742" data-name="Trazado 1064742" d="M216.835,28.6q-.092-.288-.151-.563a4.032,4.032,0,0,1-.081-.55,2.926,2.926,0,0,1-.923.9,2.373,2.373,0,0,1-1.289.363,2.536,2.536,0,0,1-1.829-.613,2.227,2.227,0,0,1-.637-1.684,1.987,1.987,0,0,1,.874-1.722,4.216,4.216,0,0,1,2.458-.617h1.332v-.669a1.246,1.246,0,0,0-.349-.937,1.4,1.4,0,0,0-1.011-.338,1.442,1.442,0,0,0-.93.278.886.886,0,0,0-.345.722l-1.649.007-.007-.042a1.89,1.89,0,0,1,.807-1.6,3.419,3.419,0,0,1,2.23-.7,3.263,3.263,0,0,1,2.149.677,2.381,2.381,0,0,1,.817,1.944v3.389a6.284,6.284,0,0,0,.063.9,4.775,4.775,0,0,0,.205.849Zm-2.092-1.226a2.143,2.143,0,0,0,1.159-.324,1.639,1.639,0,0,0,.687-.739V25.183h-1.36a1.723,1.723,0,0,0-1.17.37,1.127,1.127,0,0,0-.422.87.888.888,0,0,0,.285.694,1.185,1.185,0,0,0,.821.257" fill="#331f00"/>
          <path id="Trazado_1064743" data-name="Trazado 1064743" d="M365.753,0H280.314a6.943,6.943,0,0,0-6.943,6.943V144.409a6.943,6.943,0,0,0,6.943,6.942h85.439a6.943,6.943,0,0,0,6.943-6.942V6.943A6.943,6.943,0,0,0,365.753,0" fill="#687b71"/>
          <path id="Trazado_1064744" data-name="Trazado 1064744" d="M295.495,41.647a3.764,3.764,0,0,1-2.888-1.116,3.97,3.97,0,0,1-1.044-2.824v-.284a4.538,4.538,0,0,1,.984-3.026,3.5,3.5,0,0,1,2.85-1.16,3.279,3.279,0,0,1,2.542.981,3.817,3.817,0,0,1,.9,2.688v1.326H294.2l-.015.045a1.576,1.576,0,0,0,.472,1.03,1.647,1.647,0,0,0,1.183.393,5.113,5.113,0,0,0,1.209-.12,7.556,7.556,0,0,0,1.105-.382l.607,1.543a4.637,4.637,0,0,1-1.408.644,6.521,6.521,0,0,1-1.857.262m-.1-6.463a1.045,1.045,0,0,0-.895.385,1.942,1.942,0,0,0-.333,1.045l.015.038h2.187v-.195a1.688,1.688,0,0,0-.221-.951.848.848,0,0,0-.753-.322" fill="#331f00"/>
          <path id="Trazado_1064745" data-name="Trazado 1064745" d="M303.062,33.386l.09,1.072a2.674,2.674,0,0,1,.962-.9,2.71,2.71,0,0,1,1.329-.318,2.486,2.486,0,0,1,1.3.328,2.02,2.02,0,0,1,.823,1,2.718,2.718,0,0,1,.963-.985,2.638,2.638,0,0,1,1.374-.348,2.249,2.249,0,0,1,1.861.85,4.162,4.162,0,0,1,.678,2.616v4.787h-2.539V36.7a2.11,2.11,0,0,0-.243-1.194.854.854,0,0,0-.73-.325,1.521,1.521,0,0,0-.648.13,1.367,1.367,0,0,0-.476.364c0,.085,0,.159.007.22s.008.123.008.184v5.408h-2.531V36.7a2.121,2.121,0,0,0-.24-1.2.864.864,0,0,0-.742-.322,1.466,1.466,0,0,0-.625.13,1.354,1.354,0,0,0-.475.364v5.812H300.68v-8.1Z" fill="#331f00"/>
          <path id="Trazado_1064746" data-name="Trazado 1064746" d="M322.162,37.61a4.789,4.789,0,0,1-.824,2.932,2.726,2.726,0,0,1-2.322,1.1,2.213,2.213,0,0,1-1.827-.876V44.6h-2.531V33.386h2.389l.075.884a2.454,2.454,0,0,1,.8-.764A2.12,2.12,0,0,1,319,33.237a2.7,2.7,0,0,1,2.333,1.16,5.153,5.153,0,0,1,.828,3.056Zm-2.524-.157a3.833,3.833,0,0,0-.3-1.647,1,1,0,0,0-.959-.622,1.524,1.524,0,0,0-.723.157,1.162,1.162,0,0,0-.468.457v3.385a1.088,1.088,0,0,0,.476.39,1.844,1.844,0,0,0,.73.127,1,1,0,0,0,.955-.551,3.369,3.369,0,0,0,.288-1.539Z" fill="#331f00"/>
          <path id="Trazado_1064747" data-name="Trazado 1064747" d="M328.523,35.544l-.824-.008a1.4,1.4,0,0,0-.711.161,1,1,0,0,0-.412.453v5.34h-2.532v-8.1h2.382l.09,1.191a2.452,2.452,0,0,1,.674-.989,1.484,1.484,0,0,1,.981-.352,1.874,1.874,0,0,1,.307.023,2.151,2.151,0,0,1,.285.067Z" fill="#331f00"/>
          <path id="Trazado_1064748" data-name="Trazado 1064748" d="M333.672,41.647a3.764,3.764,0,0,1-2.888-1.116,3.97,3.97,0,0,1-1.044-2.824v-.284a4.538,4.538,0,0,1,.984-3.026,3.5,3.5,0,0,1,2.85-1.16,3.279,3.279,0,0,1,2.542.981,3.817,3.817,0,0,1,.9,2.688v1.326h-4.643l-.015.045a1.576,1.576,0,0,0,.472,1.03,1.647,1.647,0,0,0,1.183.393,5.113,5.113,0,0,0,1.209-.12,7.556,7.556,0,0,0,1.1-.382l.607,1.543a4.637,4.637,0,0,1-1.408.644,6.521,6.521,0,0,1-1.857.262m-.1-6.463a1.045,1.045,0,0,0-.9.385,1.942,1.942,0,0,0-.333,1.045l.015.038h2.187v-.195a1.688,1.688,0,0,0-.221-.951.848.848,0,0,0-.753-.322" fill="#331f00"/>
          <path id="Trazado_1064749" data-name="Trazado 1064749" d="M343.081,39.213a.66.66,0,0,0-.341-.535,3.682,3.682,0,0,0-1.239-.423,4.9,4.9,0,0,1-2.135-.858,1.944,1.944,0,0,1-.719-1.6,2.279,2.279,0,0,1,.9-1.816,3.694,3.694,0,0,1,2.434-.745,4.181,4.181,0,0,1,2.577.723,2.126,2.126,0,0,1,.913,1.868l-.015.045H343a1,1,0,0,0-.239-.726,1.06,1.06,0,0,0-.786-.247,1.033,1.033,0,0,0-.667.216.681.681,0,0,0-.269.555.659.659,0,0,0,.31.546,3.516,3.516,0,0,0,1.255.405,5.062,5.062,0,0,1,2.2.872,2,2,0,0,1,.711,1.644,2.148,2.148,0,0,1-.97,1.8,4.261,4.261,0,0,1-2.565.707,3.839,3.839,0,0,1-2.617-.839,2.309,2.309,0,0,1-.918-1.872l.015-.045h2.292a1.015,1.015,0,0,0,.348.831,1.531,1.531,0,0,0,.947.255,1.262,1.262,0,0,0,.772-.2.665.665,0,0,0,.262-.565" fill="#331f00"/>
          <path id="Trazado_1064750" data-name="Trazado 1064750" d="M352.154,41.483a2.962,2.962,0,0,1-.244-.577,4.353,4.353,0,0,1-.153-.674,3.105,3.105,0,0,1-.813,1.03,1.963,1.963,0,0,1-1.262.385,2.805,2.805,0,0,1-1.981-.655,2.314,2.314,0,0,1-.707-1.786,2.159,2.159,0,0,1,.906-1.861,4.7,4.7,0,0,1,2.748-.656h1.041v-.576a1.15,1.15,0,0,0-.247-.793.959.959,0,0,0-.757-.278.915.915,0,0,0-.655.206.853.853,0,0,0-.213.64l-2.457-.007-.014-.045a2.11,2.11,0,0,1,.924-1.853,4.145,4.145,0,0,1,2.58-.745,3.776,3.776,0,0,1,2.438.748,2.588,2.588,0,0,1,.933,2.142v3.056a6.269,6.269,0,0,0,.108,1.2,6.336,6.336,0,0,0,.326,1.108Zm-1.783-1.641a1.538,1.538,0,0,0,.82-.216,1.251,1.251,0,0,0,.5-.517V38.038h-1.018a1.145,1.145,0,0,0-.877.292,1.053,1.053,0,0,0-.269.742.718.718,0,0,0,.236.558.878.878,0,0,0,.61.212" fill="#331f00"/>
          <path id="Trazado_1064751" data-name="Trazado 1064751" d="M297.034,25.713h.042l2.966-7.891h2.184V28.08h-1.712V20.711l-.042-.007-2.825,7.376h-1.176L293.6,20.563l-.042.014v7.5h-1.712V17.822h2.247Z" fill="#331f00"/>
          <path id="Trazado_1064752" data-name="Trazado 1064752" d="M308.89,28.228a3.32,3.32,0,0,1-2.611-1.053,3.944,3.944,0,0,1-.94-2.73v-.282a4.078,4.078,0,0,1,.94-2.765,3.042,3.042,0,0,1,2.427-1.082,2.852,2.852,0,0,1,2.325.948,3.826,3.826,0,0,1,.789,2.532v.924h-4.713l-.014.035a2.5,2.5,0,0,0,.493,1.521,1.679,1.679,0,0,0,1.4.585,3.845,3.845,0,0,0,1.208-.169,3.419,3.419,0,0,0,.948-.486l.557,1.12a3.618,3.618,0,0,1-1.156.641,4.831,4.831,0,0,1-1.655.261m-.184-6.538a1.32,1.32,0,0,0-1.07.483,2.385,2.385,0,0,0-.5,1.257l.013.035h2.981v-.133a1.92,1.92,0,0,0-.342-1.187,1.267,1.267,0,0,0-1.082-.455" fill="#331f00"/>
          <path id="Trazado_1064753" data-name="Trazado 1064753" d="M314.335,24.374a5.026,5.026,0,0,1,.781-2.941,2.53,2.53,0,0,1,2.2-1.117,2.4,2.4,0,0,1,1.109.25,2.514,2.514,0,0,1,.85.715V17.089h1.711V28.08H319.6l-.2-.966a2.533,2.533,0,0,1-.888.828,2.472,2.472,0,0,1-1.2.286,2.6,2.6,0,0,1-2.185-1.022,4.3,4.3,0,0,1-.781-2.684Zm1.712.148a3.081,3.081,0,0,0,.4,1.684,1.421,1.421,0,0,0,1.286.627,1.716,1.716,0,0,0,.919-.233,1.774,1.774,0,0,0,.618-.662V22.612a1.814,1.814,0,0,0-.621-.658,1.669,1.669,0,0,0-.9-.236,1.38,1.38,0,0,0-1.289.736,3.887,3.887,0,0,0-.415,1.92Z" fill="#331f00"/>
          <path id="Trazado_1064754" data-name="Trazado 1064754" d="M326.092,18.59H324.38v-1.5h1.712Zm0,9.49H324.38V20.457h1.712Z" fill="#331f00"/>
          <path id="Trazado_1064755" data-name="Trazado 1064755" d="M334.044,28.08c-.062-.192-.112-.38-.152-.563a4.19,4.19,0,0,1-.081-.55,2.926,2.926,0,0,1-.923.9,2.373,2.373,0,0,1-1.289.363,2.537,2.537,0,0,1-1.829-.613,2.227,2.227,0,0,1-.636-1.684,1.99,1.99,0,0,1,.874-1.722,4.212,4.212,0,0,1,2.458-.617H333.8v-.669a1.246,1.246,0,0,0-.349-.937,1.394,1.394,0,0,0-1.01-.338,1.44,1.44,0,0,0-.93.278.884.884,0,0,0-.345.722l-1.65.007-.005-.042a1.881,1.881,0,0,1,.806-1.6,3.416,3.416,0,0,1,2.229-.7,3.268,3.268,0,0,1,2.15.677,2.384,2.384,0,0,1,.816,1.944v3.389a6.284,6.284,0,0,0,.063.905,4.775,4.775,0,0,0,.205.849Zm-2.092-1.226a2.146,2.146,0,0,0,1.159-.324,1.636,1.636,0,0,0,.686-.739V24.663h-1.359a1.725,1.725,0,0,0-1.171.37,1.125,1.125,0,0,0-.421.87.882.882,0,0,0,.286.694,1.181,1.181,0,0,0,.82.257" fill="#331f00"/>
          <path id="Trazado_1064756" data-name="Trazado 1064756" d="M340.292,20.457l.1,1.1a2.721,2.721,0,0,1,.94-.912,2.5,2.5,0,0,1,1.278-.328,2.384,2.384,0,0,1,1.857.733,3.33,3.33,0,0,1,.666,2.29V28.08H343.42V23.352a1.835,1.835,0,0,0-.346-1.26,1.349,1.349,0,0,0-1.042-.374,2.052,2.052,0,0,0-.951.208,1.672,1.672,0,0,0-.642.574v5.58h-1.711V20.457Z" fill="#331f00"/>
          <path id="Trazado_1064757" data-name="Trazado 1064757" d="M352.951,28.08q-.091-.288-.152-.563a4.2,4.2,0,0,1-.081-.55,2.911,2.911,0,0,1-.922.9,2.374,2.374,0,0,1-1.29.363,2.533,2.533,0,0,1-1.828-.613,2.227,2.227,0,0,1-.637-1.684,1.987,1.987,0,0,1,.874-1.722,4.214,4.214,0,0,1,2.458-.617H352.7v-.669a1.246,1.246,0,0,0-.349-.937,1.4,1.4,0,0,0-1.011-.338,1.442,1.442,0,0,0-.93.278.886.886,0,0,0-.345.722l-1.649.007-.007-.042a1.889,1.889,0,0,1,.806-1.6,3.424,3.424,0,0,1,2.231-.7,3.26,3.26,0,0,1,2.148.677,2.379,2.379,0,0,1,.818,1.944v3.389a6.28,6.28,0,0,0,.063.905,4.772,4.772,0,0,0,.2.849Zm-2.092-1.226a2.137,2.137,0,0,0,1.158-.324,1.641,1.641,0,0,0,.688-.739V24.663h-1.36a1.723,1.723,0,0,0-1.17.37,1.123,1.123,0,0,0-.422.87.885.885,0,0,0,.285.694,1.183,1.183,0,0,0,.821.257" fill="#331f00"/>
          <path id="Trazado_1064758" data-name="Trazado 1064758" d="M499.61,0H414.171a6.942,6.942,0,0,0-6.942,6.943V144.409a6.942,6.942,0,0,0,6.942,6.942H499.61a6.943,6.943,0,0,0,6.943-6.942V6.943A6.943,6.943,0,0,0,499.61,0" fill="#d02411"/>
          <path id="Trazado_1064759" data-name="Trazado 1064759" d="M429.352,41.647a3.762,3.762,0,0,1-2.888-1.116,3.971,3.971,0,0,1-1.045-2.824v-.284A4.534,4.534,0,0,1,426.4,34.4a3.5,3.5,0,0,1,2.85-1.16,3.28,3.28,0,0,1,2.542.981,3.817,3.817,0,0,1,.9,2.688v1.326h-4.643l-.016.045a1.572,1.572,0,0,0,.473,1.03,1.646,1.646,0,0,0,1.182.393,5.122,5.122,0,0,0,1.21-.12,7.556,7.556,0,0,0,1.105-.382l.606,1.543a4.615,4.615,0,0,1-1.408.644,6.52,6.52,0,0,1-1.856.262m-.1-6.463a1.048,1.048,0,0,0-.9.385,1.959,1.959,0,0,0-.333,1.045l.015.038h2.188v-.195a1.7,1.7,0,0,0-.221-.951.848.848,0,0,0-.753-.322" fill="#331f00"/>
          <path id="Trazado_1064760" data-name="Trazado 1064760" d="M436.918,33.386l.09,1.072a2.677,2.677,0,0,1,.963-.9,2.707,2.707,0,0,1,1.329-.318,2.485,2.485,0,0,1,1.3.328,2.027,2.027,0,0,1,.824,1,2.708,2.708,0,0,1,.962-.985,2.639,2.639,0,0,1,1.375-.348,2.247,2.247,0,0,1,1.86.85A4.162,4.162,0,0,1,446.3,36.7v4.787h-2.538V36.7a2.108,2.108,0,0,0-.244-1.194.854.854,0,0,0-.73-.325,1.521,1.521,0,0,0-.648.13,1.367,1.367,0,0,0-.476.364c0,.085,0,.159.008.22s.008.123.008.184v5.408H439.15V36.7a2.121,2.121,0,0,0-.24-1.2.863.863,0,0,0-.741-.322,1.459,1.459,0,0,0-.625.13,1.349,1.349,0,0,0-.476.364v5.812h-2.532v-8.1Z" fill="#331f00"/>
          <path id="Trazado_1064761" data-name="Trazado 1064761" d="M456.018,37.61a4.782,4.782,0,0,1-.823,2.932,2.725,2.725,0,0,1-2.321,1.1,2.209,2.209,0,0,1-1.827-.876V44.6h-2.531V33.386H450.9l.074.884a2.476,2.476,0,0,1,.806-.764,2.12,2.12,0,0,1,1.074-.269,2.7,2.7,0,0,1,2.333,1.16,5.153,5.153,0,0,1,.827,3.056Zm-2.522-.157a3.816,3.816,0,0,0-.3-1.647,1,1,0,0,0-.958-.622,1.521,1.521,0,0,0-.723.157,1.147,1.147,0,0,0-.467.457v3.385a1.083,1.083,0,0,0,.474.39,1.858,1.858,0,0,0,.732.127.993.993,0,0,0,.954-.551,3.38,3.38,0,0,0,.289-1.539Z" fill="#331f00"/>
          <path id="Trazado_1064762" data-name="Trazado 1064762" d="M462.38,35.544l-.824-.008a1.4,1.4,0,0,0-.711.161,1,1,0,0,0-.412.453v5.34H457.9v-8.1h2.382l.09,1.191a2.442,2.442,0,0,1,.674-.989,1.48,1.48,0,0,1,.981-.352,1.874,1.874,0,0,1,.307.023,2.1,2.1,0,0,1,.284.067Z" fill="#331f00"/>
          <path id="Trazado_1064763" data-name="Trazado 1064763" d="M467.529,41.647a3.762,3.762,0,0,1-2.888-1.116,3.971,3.971,0,0,1-1.045-2.824v-.284a4.534,4.534,0,0,1,.985-3.026,3.5,3.5,0,0,1,2.85-1.16,3.28,3.28,0,0,1,2.542.981,3.817,3.817,0,0,1,.9,2.688v1.326h-4.643l-.016.045a1.572,1.572,0,0,0,.473,1.03,1.646,1.646,0,0,0,1.182.393,5.122,5.122,0,0,0,1.21-.12,7.556,7.556,0,0,0,1.105-.382l.606,1.543a4.615,4.615,0,0,1-1.408.644,6.52,6.52,0,0,1-1.856.262m-.1-6.463a1.048,1.048,0,0,0-.9.385,1.959,1.959,0,0,0-.333,1.045l.015.038H468.4v-.195a1.7,1.7,0,0,0-.221-.951.848.848,0,0,0-.753-.322" fill="#331f00"/>
          <path id="Trazado_1064764" data-name="Trazado 1064764" d="M476.938,39.213a.66.66,0,0,0-.341-.535,3.682,3.682,0,0,0-1.239-.423,4.9,4.9,0,0,1-2.135-.858,1.944,1.944,0,0,1-.719-1.6,2.276,2.276,0,0,1,.9-1.816,3.693,3.693,0,0,1,2.433-.745,4.183,4.183,0,0,1,2.578.723,2.126,2.126,0,0,1,.913,1.868l-.015.045h-2.457a1,1,0,0,0-.239-.726,1.06,1.06,0,0,0-.786-.247,1.031,1.031,0,0,0-.667.216.682.682,0,0,0-.27.555.66.66,0,0,0,.311.546,3.515,3.515,0,0,0,1.255.405,5.062,5.062,0,0,1,2.2.872,2,2,0,0,1,.711,1.644,2.151,2.151,0,0,1-.97,1.8,4.262,4.262,0,0,1-2.566.707,3.843,3.843,0,0,1-2.617-.839,2.311,2.311,0,0,1-.917-1.872l.015-.045h2.292a1.015,1.015,0,0,0,.348.831,1.531,1.531,0,0,0,.947.255,1.256,1.256,0,0,0,.771-.2.665.665,0,0,0,.263-.565" fill="#331f00"/>
          <path id="Trazado_1064765" data-name="Trazado 1064765" d="M486.01,41.483a3.025,3.025,0,0,1-.243-.577,4.357,4.357,0,0,1-.153-.674,3.105,3.105,0,0,1-.813,1.03,1.963,1.963,0,0,1-1.262.385,2.805,2.805,0,0,1-1.981-.655,2.314,2.314,0,0,1-.708-1.786,2.161,2.161,0,0,1,.906-1.861,4.7,4.7,0,0,1,2.749-.656h1.041v-.576a1.151,1.151,0,0,0-.248-.793.956.956,0,0,0-.756-.278.915.915,0,0,0-.655.206.854.854,0,0,0-.214.64l-2.456-.007-.014-.045a2.11,2.11,0,0,1,.924-1.853,4.145,4.145,0,0,1,2.58-.745,3.778,3.778,0,0,1,2.438.748,2.591,2.591,0,0,1,.933,2.142v3.056a6.272,6.272,0,0,0,.108,1.2,6.419,6.419,0,0,0,.325,1.108Zm-1.782-1.641a1.538,1.538,0,0,0,.82-.216,1.251,1.251,0,0,0,.5-.517V38.038h-1.018a1.145,1.145,0,0,0-.877.292,1.049,1.049,0,0,0-.27.742.719.719,0,0,0,.237.558.878.878,0,0,0,.61.212" fill="#331f00"/>
          <path id="Trazado_1064766" data-name="Trazado 1064766" d="M444.382,26.507a4.064,4.064,0,0,1-1.528,1.209,6.011,6.011,0,0,1-2.71.531,4.591,4.591,0,0,1-3.389-1.329,4.649,4.649,0,0,1-1.329-3.436V21.055a4.735,4.735,0,0,1,1.285-3.436,4.4,4.4,0,0,1,3.3-1.329,4.556,4.556,0,0,1,3.161,1.021,3.324,3.324,0,0,1,1.1,2.667l-.023.048H442.41a2.114,2.114,0,0,0-.61-1.581,2.681,2.681,0,0,0-3.7.3,3.5,3.5,0,0,0-.739,2.291v2.443a3.441,3.441,0,0,0,.771,2.311,2.511,2.511,0,0,0,2.008.906,4.173,4.173,0,0,0,1.476-.212,2.175,2.175,0,0,0,.823-.515v-2.4h-2.435V22.117h4.374Z" fill="#331f00"/>
          <path id="Trazado_1064767" data-name="Trazado 1064767" d="M454.125,21.191l-.83-.032a1.731,1.731,0,0,0-.945.24,1.566,1.566,0,0,0-.587.678v6h-1.94V19.443H451.6l.128,1.253a2.762,2.762,0,0,1,.841-1.037,1.959,1.959,0,0,1,1.186-.376,1.853,1.853,0,0,1,.327.028,2.537,2.537,0,0,1,.279.068Z" fill="#331f00"/>
          <path id="Trazado_1064768" data-name="Trazado 1064768" d="M464.037,28.08c-.069-.218-.127-.431-.172-.639a4.446,4.446,0,0,1-.092-.622,3.325,3.325,0,0,1-1.045,1.018,2.692,2.692,0,0,1-1.461.411,2.872,2.872,0,0,1-2.072-.695,2.522,2.522,0,0,1-.722-1.907,2.253,2.253,0,0,1,.99-1.952,4.774,4.774,0,0,1,2.786-.7h1.508v-.758a1.41,1.41,0,0,0-.395-1.062,1.581,1.581,0,0,0-1.145-.383,1.625,1.625,0,0,0-1.054.316,1,1,0,0,0-.392.817l-1.867.009-.009-.048a2.14,2.14,0,0,1,.915-1.812,3.871,3.871,0,0,1,2.526-.791,3.7,3.7,0,0,1,2.435.767,2.7,2.7,0,0,1,.926,2.2v3.839a7.061,7.061,0,0,0,.072,1.026,5.413,5.413,0,0,0,.231.962Zm-2.371-1.389a2.422,2.422,0,0,0,1.313-.367,1.845,1.845,0,0,0,.778-.838V24.209h-1.54a1.939,1.939,0,0,0-1.325.419,1.27,1.27,0,0,0-.479.985,1,1,0,0,0,.323.787,1.345,1.345,0,0,0,.93.291" fill="#331f00"/>
          <path id="Trazado_1064769" data-name="Trazado 1064769" d="M472.75,19.443l.112,1.246a3.1,3.1,0,0,1,1.066-1.035,2.846,2.846,0,0,1,1.449-.371,2.7,2.7,0,0,1,2.1.83,3.78,3.78,0,0,1,.754,2.595V28.08H476.3V22.724A2.084,2.084,0,0,0,475.9,21.3a1.53,1.53,0,0,0-1.181-.423,2.3,2.3,0,0,0-1.077.236,1.881,1.881,0,0,0-.727.65V28.08h-1.939V19.443Z" fill="#331f00"/>
          <path id="Trazado_1064770" data-name="Trazado 1064770" d="M222.039,134.784h-4.092V111.562a6.788,6.788,0,0,0,2.728-5.42v-5.456a1.362,1.362,0,0,0-.4-.964l-7.784-7.784V74.772h1.364a1.364,1.364,0,0,0,1.364-1.364V67.952a1.361,1.361,0,0,0-.4-.964L206.636,58.8a1.363,1.363,0,0,0-.964-.4h-38.19a1.36,1.36,0,0,0-.964.4l-8.184,8.184a1.365,1.365,0,0,0-.4.964v5.456a1.364,1.364,0,0,0,1.364,1.364h1.364V91.938l-7.784,7.784a1.366,1.366,0,0,0-.4.964v5.456a6.785,6.785,0,0,0,2.728,5.42v23.222h-4.092a1.364,1.364,0,0,0-1.364,1.364V141.6a1.364,1.364,0,0,0,1.364,1.364h70.924A1.364,1.364,0,0,0,223.4,141.6v-5.456a1.364,1.364,0,0,0-1.364-1.364m-8.184-24.55a4.092,4.092,0,0,1-4.092-4.092V102.05h8.184v4.092a4.092,4.092,0,0,1-4.092,4.092m-58.648-4.092V102.05h8.183v4.092a4.091,4.091,0,1,1-8.183,0m10.911-4.092H174.3v4.092a4.091,4.091,0,1,1-8.183,0Zm10.911,0h8.184v4.092a4.092,4.092,0,1,1-8.184,0Zm10.912,0h8.183v4.092a4.091,4.091,0,1,1-8.183,0Zm10.911,0h8.184v4.092a4.092,4.092,0,1,1-8.184,0Zm-38.19-32.734h51.829v2.728H160.662Zm7.385-8.184h37.06l5.456,5.456H162.591Zm41.716,30.007H163.39V74.772h46.373Zm-47.172,2.728h47.972l5.455,5.455H157.135Zm-4.657,18.958a6.769,6.769,0,0,0,6.82-2.632,6.757,6.757,0,0,0,10.911,0,6.759,6.759,0,0,0,10.912,0,6.757,6.757,0,0,0,10.911,0,6.757,6.757,0,0,0,10.911,0,6.77,6.77,0,0,0,6.82,2.632v21.959h-38.19V117.053a1.364,1.364,0,0,0-1.364-1.364H162.026a1.364,1.364,0,0,0-1.364,1.364v17.731h-2.728ZM174.3,134.784H163.39V118.417H174.3Zm46.374,5.456h-68.2v-2.728h68.2Z" fill="#fff"/>
          <path id="Trazado_1064771" data-name="Trazado 1064771" d="M168.846,88.411h8.183a1.364,1.364,0,0,0,1.364-1.364V78.863a1.364,1.364,0,0,0-1.364-1.364h-8.183a1.364,1.364,0,0,0-1.364,1.364v8.184a1.364,1.364,0,0,0,1.364,1.364m1.364-8.184h5.456v5.456H170.21Z" fill="#fff"/>
          <path id="Trazado_1064772" data-name="Trazado 1064772" d="M182.485,88.411h8.184a1.364,1.364,0,0,0,1.363-1.364V78.863a1.364,1.364,0,0,0-1.363-1.364h-8.184a1.364,1.364,0,0,0-1.364,1.364v8.184a1.364,1.364,0,0,0,1.364,1.364m1.364-8.184H189.3v5.456h-5.456Z" fill="#fff"/>
          <path id="Trazado_1064773" data-name="Trazado 1064773" d="M195.613,88.411H203.8a1.364,1.364,0,0,0,1.364-1.364V78.863A1.364,1.364,0,0,0,203.8,77.5h-8.183a1.364,1.364,0,0,0-1.364,1.364v8.184a1.364,1.364,0,0,0,1.364,1.364m1.364-8.184h5.456v5.456h-5.456Z" fill="#fff"/>
          <path id="Trazado_1064774" data-name="Trazado 1064774" d="M180.61,132.056h30.006a1.364,1.364,0,0,0,1.364-1.364V117.053a1.364,1.364,0,0,0-1.364-1.364H180.61a1.364,1.364,0,0,0-1.364,1.364v13.639a1.363,1.363,0,0,0,1.364,1.364m1.364-13.639h27.278v10.911H181.974Z" fill="#fff"/>
          <rect id="Rectángulo_401747" data-name="Rectángulo 401747" width="2.728" height="2.728" transform="translate(164.243 125.237)" fill="#fff"/>
          <rect id="Rectángulo_401748" data-name="Rectángulo 401748" width="7.715" height="2.728" transform="translate(186.454 125.634) rotate(-45)" fill="#fff"/>
          <rect id="Rectángulo_401749" data-name="Rectángulo 401749" width="7.715" height="2.728" transform="translate(197.363 125.634) rotate(-45)" fill="#fff"/>
          <path id="Trazado_1064775" data-name="Trazado 1064775" d="M289.923,142.968a1.566,1.566,0,0,1-1.567-1.567V66.163a1.567,1.567,0,1,1,3.134,0V141.4A1.566,1.566,0,0,1,289.923,142.968Z" fill="#fff"/>
          <path id="Trazado_1064776" data-name="Trazado 1064776" d="M324.8,142.968H289.923a1.567,1.567,0,0,1-1.568-1.568V72.37a1.569,1.569,0,0,1,2.007-1.5l34.874,10.186a1.568,1.568,0,0,1,1.128,1.5V141.4A1.567,1.567,0,0,1,324.8,142.968Zm-33.307-3.135h31.739v-56.1L291.49,74.461Z" fill="#fff"/>
          <path id="Trazado_1064777" data-name="Trazado 1064777" d="M356.145,142.968H324.8a1.567,1.567,0,0,1-1.568-1.568V94.639a1.567,1.567,0,0,1,1.568-1.568h31.348a1.567,1.567,0,0,1,1.568,1.568V141.4a1.567,1.567,0,0,1-1.568,1.568m-29.781-3.135h28.214V96.206H326.364Z" fill="#fff"/>
          <path id="Trazado_1064778" data-name="Trazado 1064778" d="M313.725,142.968H300.994a1.566,1.566,0,0,1-1.567-1.568V127.425a1.567,1.567,0,0,1,1.567-1.568h12.731a1.567,1.567,0,0,1,1.567,1.568V141.4a1.566,1.566,0,0,1-1.567,1.568m-11.163-3.135h9.6v-10.84h-9.6Z" fill="#fff"/>
          <path id="Trazado_1064779" data-name="Trazado 1064779" d="M318.625,91.276H296.093a1.568,1.568,0,0,1,0-3.135h22.532a1.568,1.568,0,0,1,0,3.135" fill="#fff"/>
          <path id="Trazado_1064780" data-name="Trazado 1064780" d="M318.625,101.039H296.093a1.568,1.568,0,0,1,0-3.135h22.532a1.568,1.568,0,0,1,0,3.135" fill="#fff"/>
          <path id="Trazado_1064781" data-name="Trazado 1064781" d="M318.625,110.8H296.093a1.568,1.568,0,0,1,0-3.135h22.532a1.568,1.568,0,0,1,0,3.135" fill="#fff"/>
          <path id="Trazado_1064782" data-name="Trazado 1064782" d="M318.625,120.567H296.093a1.568,1.568,0,0,1,0-3.135h22.532a1.568,1.568,0,0,1,0,3.135" fill="#fff"/>
          <path id="Trazado_1064783" data-name="Trazado 1064783" d="M349.19,107.832H333.516a1.568,1.568,0,1,1,0-3.135H349.19a1.568,1.568,0,0,1,0,3.135" fill="#fff"/>
          <path id="Trazado_1064784" data-name="Trazado 1064784" d="M349.19,119.588H333.516a1.567,1.567,0,1,1,0-3.135H349.19a1.567,1.567,0,0,1,0,3.135" fill="#fff"/>
          <path id="Trazado_1064785" data-name="Trazado 1064785" d="M349.19,131.343H333.516a1.568,1.568,0,1,1,0-3.135H349.19a1.568,1.568,0,0,1,0,3.135" fill="#fff"/>
          <path id="Trazado_1064786" data-name="Trazado 1064786" d="M467.5,114.164h2.338v-.909q0-14.3,0-28.608c0-1.441.243-1.684,1.684-1.685h3.971V82.11q0-2.943,0-5.885c0-1.083.323-1.585,1.016-1.593.721-.008,1.065.52,1.065,1.641q0,2.905,0,5.811v.837H479.5v-.836q0-4.916,0-9.833a6.146,6.146,0,0,1,.025-.744,1.013,1.013,0,0,1,1.987-.112,3.6,3.6,0,0,1,.065.812q.006,4.879,0,9.759v.939h1.887c.013-.258.037-.519.038-.781,0-2.111-.007-4.222.01-6.332a1.046,1.046,0,0,1,1-1.16c.605-.016,1.023.445,1.065,1.183.012.2,0,.4,0,.6q0,2.831,0,5.662v.888c1.392,0,2.7,0,4.009,0,1.373,0,1.64.271,1.64,1.667q0,14.267,0,28.533V114.2c.441,0,.8,0,1.168,0,.937.014,1.283.364,1.292,1.32.007.794,0,1.589,0,2.384q0,10.28,0,20.561c0,1.285-.275,1.559-1.579,1.559q-35.234,0-70.467,0c-1.258,0-1.548-.285-1.548-1.513,0-3.65.014-7.3-.013-10.951a1.618,1.618,0,0,1,.872-1.578c1.005-.59,1.992-1.215,2.947-1.882a1.731,1.731,0,0,0,.657-.9q6.2-24.36,12.36-48.731c.359-1.417.472-1.514,1.909-1.514,1.763,0,3.526,0,5.289,0,.934,0,1.217.231,1.45,1.151,1.4,5.528,2.809,11.052,4.172,16.588.171.7.447.876,1.141.872,5.041-.033,10.081-.018,15.122-.018,1.213,0,1.491.274,1.491,1.479q0,10.133,0,20.264Zm24.082,8.09c-.263-.012-.459-.03-.655-.03q-29.786,0-59.572.012a2.054,2.054,0,0,0-1.033.3c-2.524,1.576-5.027,3.188-7.549,4.767a1.082,1.082,0,0,0-.6,1.054c.029,2.929.014,5.858.014,8.788v.747h3.238v-.85q0-3.948,0-7.9c0-1.078.306-1.382,1.361-1.385q2.2-.006,4.394,0c1.087,0,1.42.33,1.421,1.418q.006,3.946,0,7.894v.8H434v-.955c0-2.607-.007-5.214,0-7.82,0-1,.351-1.334,1.353-1.338q2.2-.007,4.393,0c1.139,0,1.45.31,1.452,1.465.005,2.631,0,5.263,0,7.894,0,.261.023.523.034.764h1.365v-.864q0-3.873,0-7.745c0-1.2.3-1.513,1.475-1.515q2.123,0,4.244,0c1.164,0,1.457.286,1.459,1.439q.006,3.946,0,7.894v.788h3.237v-9.73c0-1.732.147-1.882,1.844-1.882h36.712ZM438.922,75.046c-2.224,8.792-4.432,17.524-6.653,26.3h18.022c-.07-.305-.124-.565-.189-.822q-1.825-7.244-3.655-14.485c-.876-3.458-1.763-6.913-2.634-10.373-.09-.356-.136-.645-.63-.634-1.388.03-2.776.01-4.261.01m52.665,41.243h-.65q-25.136,0-50.27.011a1.925,1.925,0,0,0-.965.27c-1.668,1.028-3.316,2.09-4.967,3.145a4.814,4.814,0,0,0-.446.377h57.3ZM453.521,114.2c-.057-.289-.09-.505-.142-.716-.322-1.3-.668-2.591-.964-3.895a.718.718,0,0,0-.845-.67q-10.272.029-20.543,0c-.512,0-.728.139-.853.66-.657,2.721-1.361,5.43-2.048,8.144-.357,1.408-.715,2.816-1.117,4.405.39-.238.617-.371.839-.512,3.64-2.315,7.271-4.644,10.93-6.928a3.192,3.192,0,0,1,1.582-.469c4.093-.038,8.187-.021,12.281-.021Zm18.431-.058h4.809V85.1h-4.809Zm12.368.031h4.774V85.085H484.32Zm-33.8-20.509,5.184,20.5h9.661v-20.5Zm1.164,13.138c-.226-.915-.472-1.767-.638-2.634-.11-.574-.369-.729-.948-.726-5.881.024-11.762.014-17.643.014h-.72c-.281,1.125-.553,2.212-.838,3.346Zm-12.613,23.079h-2.925v8.032h2.925Zm5.67,8h2.922v-8.006h-2.922Zm-17.194.011h2.915v-8.026h-2.915Zm58.159.007h5.844v-3.669h-5.844Zm-24.716-9.516h-5.823v3.692h5.823Zm30.558.018h-5.821v3.674h5.821Zm-30.543,5.834h-5.841v3.639h5.841Zm15.043-5.848h-5.38v3.672h5.38Zm-5.384,9.5h5.376v-3.654h-5.376Zm-2.156-9.481h-5.327v3.649h5.327Zm9.72,3.648h5.32v-3.675h-5.32Zm-9.715,2.167h-5.342v3.651h5.342Zm15.049,0h-5.345v3.654h5.345Zm-1.451-44.1h-3.146v2.9h3.146ZM478.942,113.1h3.19v-2.871h-3.19Zm0-5.053h3.167v-2.856h-3.167Zm-.015-20.11h3.183V85.1H478.93Zm3.246,7.226H478.94v2.9c.976,0,1.91.016,2.842-.019a.557.557,0,0,0,.376-.392c.036-.809.018-1.621.018-2.493m-3.233,7.847h3.187V100.2h-3.187Z" fill="#fff"/>
          <path id="Trazado_1064787" data-name="Trazado 1064787" d="M451.862,79.5c3.3,0,6.6.032,9.9-.011A3.1,3.1,0,0,0,464.64,75.2a3.041,3.041,0,0,0-2.976-1.968c-2.358-.019-4.716-.01-7.074,0-.607,0-1.088-.175-1.241-.82-.177-.742.327-1.285,1.207-1.288,2.979-.008,5.958,0,8.936-.01a4.757,4.757,0,0,0,1.249-.149,3.088,3.088,0,0,0,2.2-3.377,3,3,0,0,0-2.873-2.724c-3.922-.044-7.844-.024-11.766-.019a.947.947,0,0,0-1.056,1,.977.977,0,0,0,1.012,1.057c.468.045.943.02,1.414.02q4.878,0,9.756,0c.995,0,1.47.357,1.45,1.074-.019.686-.494,1.035-1.43,1.036-3.053,0-6.106-.012-9.159.013a3.1,3.1,0,0,0-2.959,2.3,3,3,0,0,0,1.263,3.387,4.053,4.053,0,0,0,1.881.553c2.282.065,4.566.023,6.85.028a2.385,2.385,0,0,1,.734.073.972.972,0,0,1,.707,1.09.944.944,0,0,1-.9.93,6.762,6.762,0,0,1-.818.022H442.508c-.173,0-.347,0-.521,0-.909.014-1.425.407-1.41,1.074.014.639.505,1.008,1.38,1.009q4.953.006,9.9,0Z" fill="#fff"/>
          <path id="Trazado_1064788" data-name="Trazado 1064788" d="M459.061,52.238c-3.3,0-6.6-.032-9.9.011a3.1,3.1,0,0,0-2.874,4.293,3.041,3.041,0,0,0,2.976,1.968c2.358.019,4.716.01,7.074,0,.607,0,1.088.175,1.241.82.177.742-.327,1.285-1.207,1.288-2.979.008-5.958,0-8.936.01a4.757,4.757,0,0,0-1.249.149,3.088,3.088,0,0,0-2.2,3.377,3,3,0,0,0,2.873,2.724c3.922.044,7.844.024,11.766.019a.947.947,0,0,0,1.056-1,.977.977,0,0,0-1.012-1.057c-.468-.045-.943-.02-1.414-.02q-4.878,0-9.756,0c-.995,0-1.47-.357-1.45-1.074.019-.686.494-1.035,1.43-1.036,3.053,0,6.106.012,9.159-.013a3.1,3.1,0,0,0,2.959-2.3,3,3,0,0,0-1.263-3.387,4.053,4.053,0,0,0-1.881-.553c-2.282-.065-4.566-.023-6.85-.028a2.384,2.384,0,0,1-.734-.073.972.972,0,0,1-.707-1.09.944.944,0,0,1,.9-.93,6.761,6.761,0,0,1,.818-.022h18.544c.173,0,.347,0,.521,0,.909-.014,1.425-.407,1.41-1.074-.014-.639-.505-1.008-1.38-1.009q-4.953-.006-9.9,0Z" fill="#fff"/>
          <g id="Grupo_1210590" data-name="Grupo 1210590">
            <rect id="Rectángulo_401750" data-name="Rectángulo 401750" width="506.553" height="151.351" fill="none"/>
          </g>
        </g>
      </g>
    </g>
  </g>
</svg>
