<svg xmlns="http://www.w3.org/2000/svg" xmlns:xlink="http://www.w3.org/1999/xlink" width="127.981" height="134.13" viewBox="0 0 127.981 134.13">
  <defs>
    <clipPath id="clip-path">
      <rect id="Rect치ngulo_401907" data-name="Rect치ngulo 401907" width="127.981" height="134.13" fill="none"/>
    </clipPath>
  </defs>
  <g id="Grupo_1210595" data-name="Grupo 1210595" transform="translate(-475 9103)">
    <g id="Grupo_1210503" data-name="Grupo 1210503" transform="translate(475 -9103)">
      <g id="Grupo_1210502" data-name="Grupo 1210502" clip-path="url(#clip-path)">
        <path id="Trazado_1065301" data-name="Trazado 1065301" d="M127.981,63.991A63.991,63.991,0,1,1,63.99,0a63.991,63.991,0,0,1,63.991,63.991" fill="#ffebcc"/>
        <path id="Trazado_1065302" data-name="Trazado 1065302" d="M64.661,90.23a.671.671,0,1,1-.671-.671.671.671,0,0,1,.671.671" fill="#fff"/>
        <path id="Trazado_1065303" data-name="Trazado 1065303" d="M25.091,134.13l5.141-46.245A24.069,24.069,0,0,1,53.8,68.7H74.18A24.067,24.067,0,0,1,97.748,87.885l5.142,46.245Z" fill="#fff"/>
        <path id="Trazado_1065304" data-name="Trazado 1065304" d="M49.913,94.482,48.732,70A1.718,1.718,0,0,0,46.4,68.473L42.238,70.1a1.728,1.728,0,0,0-1.094,1.515L38.8,134.12H89.183L86.838,71.611A1.729,1.729,0,0,0,85.744,70.1l-4.159-1.623A1.717,1.717,0,0,0,79.25,70l-1.181,24.48Z" fill="#7d160a"/>
        <rect id="Rect치ngulo_401906" data-name="Rect치ngulo 401906" width="28.897" height="13.447" transform="translate(49.542 99.268)" fill="#a61d0e"/>
        <path id="Trazado_1065305" data-name="Trazado 1065305" d="M80.75,42.986a1.928,1.928,0,0,0-.473-.022c.228-2.277.218-3.78.218-3.78a13.623,13.623,0,0,0-.283-2.693c-2.255-8.554-13.032-7.48-24.038-6.471a64.642,64.642,0,0,0-6.637.809,14.583,14.583,0,0,0-2.6,8.341s-.051,1.537.124,3.855c-1.513.409-2.387,2.624-1.963,5.076.431,2.495,2.042,4.307,3.631,4.115,1.4,4.528,3.888,9.022,8.287,11.242a27.081,27.081,0,0,1-2.332,4.894l5.556,9.326a6.483,6.483,0,0,0,11.139,0l5.556-9.326s-2.667-4.236-3.079-8.009a23.031,23.031,0,0,0,4.6-8.408,1.988,1.988,0,0,0,.7.269c1.62.279,3.289-1.557,3.729-4.1s-.517-4.835-2.137-5.115" fill="#fcd1c5"/>
        <path id="Trazado_1065306" data-name="Trazado 1065306" d="M58.995,63.458a26.674,26.674,0,0,1-1.815,4h0s5.7,4.63,13.619-3.575a14.481,14.481,0,0,1-5.443,1,13.918,13.918,0,0,1-6.362-1.429" fill="#eab8a0"/>
        <path id="Trazado_1065307" data-name="Trazado 1065307" d="M81.544,41.135s2.169-2.441,3,.114-.166,7.543-2.957,8.422-2.234.114-2.234.114Z" fill="#fcd1c5"/>
        <path id="Trazado_1065308" data-name="Trazado 1065308" d="M46.438,41.135s-2.169-2.441-3,.114.166,7.543,2.957,8.422,2.234.114,2.234.114Z" fill="#fcd1c5"/>
        <path id="Trazado_1065309" data-name="Trazado 1065309" d="M47.524,42.771c.767,1.021,1.049,4.4-.472,4.094A1.564,1.564,0,0,1,46.385,44c.542-.38.789-1.695,1.139-1.229" fill="#f7b8a1"/>
        <path id="Trazado_1065310" data-name="Trazado 1065310" d="M45.353,46.728a12.645,12.645,0,0,1-.429-1.893c-.016-.108-.025-.181-.04-.324-.013-.123-.024-.247-.03-.371a4.677,4.677,0,0,1,.011-.72c0-.026,0-.052.009-.079-.007.053,0,0,0-.023.009-.054.019-.107.032-.159s.025-.1.041-.149c.007-.022.015-.043.023-.065.018-.053.008-.022.008-.022a1.23,1.23,0,0,1,.059-.114l.033-.053c.036-.056-.022.023.009-.013s.054-.058.082-.086.041-.031,0,0a.579.579,0,0,1,.058-.038l.07-.037s-.04.011.016,0c.03-.008.164-.033.092-.026a1.179,1.179,0,0,1,.168-.005.5.5,0,0,1,.138.016,3.236,3.236,0,0,1,.976.41.3.3,0,0,0,.3-.509,2.5,2.5,0,0,0-1.788-.467,1.268,1.268,0,0,0-.848.985,6.8,6.8,0,0,0,.223,3.107c.064.268.133.536.215.8.112.361.681.207.568-.157" fill="#f7b8a1"/>
        <path id="Trazado_1065311" data-name="Trazado 1065311" d="M80.543,42.771c-.767,1.021-1.049,4.4.472,4.094A1.564,1.564,0,0,0,81.682,44c-.542-.38-.789-1.695-1.139-1.229" fill="#f7b8a1"/>
        <path id="Trazado_1065312" data-name="Trazado 1065312" d="M83.282,46.884a12.731,12.731,0,0,0,.464-2.15c.106-.821.235-2.236-.686-2.67a2.239,2.239,0,0,0-1.976.4.3.3,0,0,0,.3.509,3.32,3.32,0,0,1,.874-.388.815.815,0,0,1,.289-.04c.029,0,.158.015.085,0a1.344,1.344,0,0,1,.136.033c.056.016-.008-.006.005,0s.042.021.063.033.033.021.05.031c.04.025-.037-.037.01.009.029.027.056.055.083.084s-.006-.009,0,0,.028.04.04.06c.022.037.041.075.06.113s-.015-.042,0,.011c.009.025.019.05.027.075a2.311,2.311,0,0,1,.074.306c0,.012.013.082.009.05s0,.04.006.052c.005.058.01.117.014.175.006.118.008.236.005.354a7.084,7.084,0,0,1-.058.755c-.009.07-.028.2-.047.32s-.043.246-.067.368c-.042.211-.089.422-.14.631-.058.241-.121.482-.194.718-.114.363.455.519.568.157" fill="#f7b8a1"/>
        <path id="Trazado_1065313" data-name="Trazado 1065313" d="M81.756,39.17C80.67,52.293,73.775,62.339,63.929,62.339S47.41,51.839,46.1,39.17C44.789,26.442,49.573,16,63.929,16,77.193,16,82.811,26.418,81.756,39.17" fill="#fcd1c5"/>
        <path id="Trazado_1065314" data-name="Trazado 1065314" d="M52.51,35.14c.042-.035.112-.087-.085.065-.225.174-.077.057-.022.021.1-.07.208-.14.316-.2.178-.1.361-.195.546-.283s.019.05-.072.028a.919.919,0,0,0,.169-.068c.133-.051.267-.1.4-.14a7.065,7.065,0,0,1,.908-.22,1.7,1.7,0,0,1,.244-.039c-.319,0-.054.01.026,0,.2-.019.392-.029.589-.033s.421,0,.631.013c.1.007.2.015.306.025.028,0,.369.05.108.009a10.663,10.663,0,0,1,1.476.34,1.191,1.191,0,0,0,1.451-.823,1.2,1.2,0,0,0-.824-1.451c-2.535-.776-5.707-.681-7.837,1.09a1.182,1.182,0,0,0,0,1.667,1.211,1.211,0,0,0,1.667,0" fill="#86433a"/>
        <path id="Trazado_1065315" data-name="Trazado 1065315" d="M77.278,33.472c-2.13-1.77-5.3-1.866-7.837-1.089a1.179,1.179,0,1,0,.626,2.274,9.974,9.974,0,0,1,1.477-.341c-.21.031.031,0,.108-.009q.153-.015.306-.024.291-.018.584-.014t.592.029c.079.007.4.005.07,0a1.535,1.535,0,0,1,.243.038,7.25,7.25,0,0,1,.909.22c.135.043.27.089.4.14a1.771,1.771,0,0,0,.17.068c-.094-.026-.257-.116-.073-.028s.357.173.529.274c.114.066.224.139.334.213.244.165-.205-.167-.107-.086a1.179,1.179,0,1,0,1.667-1.667" fill="#86433a"/>
        <path id="Trazado_1065316" data-name="Trazado 1065316" d="M79.5,48.346c-1.226,5.769-9.4,7.246-9.548,6.4a6.021,6.021,0,0,0-5.936-3.668,6.19,6.19,0,0,0-6.005,3.818c-5.552.732-9.293-6.283-9.293-6.283a17.515,17.515,0,0,0,2.9,11.126c3.328,4.606,8.294,6.04,12.65,6.04A15.746,15.746,0,0,0,76.4,60.157c3.784-4.259,3.1-11.811,3.1-11.811M63.872,59.261c-2.523,0-4.419-1.034-4.419-2.821s2.045-3.234,4.568-3.234,4.568,1.448,4.568,3.234-2.194,2.821-4.717,2.821" fill="#86433a"/>
        <path id="Trazado_1065317" data-name="Trazado 1065317" d="M61.543,55.841c.262-.051,4.716,0,4.716,0L64.1,57.755Z" fill="#86433a"/>
        <path id="Trazado_1065318" data-name="Trazado 1065318" d="M58.207,40.58A1.783,1.783,0,1,1,56.424,38.8a1.783,1.783,0,0,1,1.783,1.783" fill="#433833"/>
        <path id="Trazado_1065319" data-name="Trazado 1065319" d="M69.774,40.58A1.783,1.783,0,1,0,71.557,38.8a1.783,1.783,0,0,0-1.783,1.783" fill="#433833"/>
        <path id="Trazado_1065320" data-name="Trazado 1065320" d="M63.991,47.213a8.866,8.866,0,0,1-2.154-.265c-1.279-.321-2.425-.678-2.425-.678a10.214,10.214,0,0,0,3.948,2.061,2.143,2.143,0,0,0,1.262,0A10.214,10.214,0,0,0,68.57,46.27s-1.146.357-2.425.678a8.866,8.866,0,0,1-2.154.265" fill="#eab8a0"/>
      </g>
    </g>
  </g>
</svg>
