<svg xmlns="http://www.w3.org/2000/svg" xmlns:xlink="http://www.w3.org/1999/xlink" width="127.981" height="134.13" viewBox="0 0 127.981 134.13">
  <defs>
    <clipPath id="clip-path">
      <rect id="Rect치ngulo_401893" data-name="Rect치ngulo 401893" width="127.981" height="134.13" fill="none"/>
    </clipPath>
  </defs>
  <g id="Grupo_1210590" data-name="Grupo 1210590" transform="translate(-769.051 -2509.87)">
    <g id="Grupo_1210482" data-name="Grupo 1210482" transform="translate(769.051 2509.87)">
      <g id="Grupo_1210481" data-name="Grupo 1210481" clip-path="url(#clip-path)">
        <path id="Trazado_1065203" data-name="Trazado 1065203" d="M127.981,63.991A63.991,63.991,0,1,1,63.99,0a63.991,63.991,0,0,1,63.991,63.991" fill="#ffebcc"/>
        <path id="Trazado_1065204" data-name="Trazado 1065204" d="M64.661,90.23a.671.671,0,1,1-.671-.671.671.671,0,0,1,.671.671" fill="#fff"/>
        <path id="Trazado_1065205" data-name="Trazado 1065205" d="M25.091,134.13l5.141-46.245A24.069,24.069,0,0,1,53.8,68.7H74.18A24.067,24.067,0,0,1,97.748,87.885l5.142,46.245Z" fill="#fff"/>
        <path id="Trazado_1065206" data-name="Trazado 1065206" d="M49.913,94.482,48.732,70A1.718,1.718,0,0,0,46.4,68.473L42.238,70.1a1.728,1.728,0,0,0-1.094,1.515L38.8,134.12H89.183L86.838,71.611A1.729,1.729,0,0,0,85.744,70.1l-4.159-1.623A1.717,1.717,0,0,0,79.25,70l-1.181,24.48Z" fill="#fe9900"/>
        <rect id="Rect치ngulo_401892" data-name="Rect치ngulo 401892" width="28.897" height="13.447" transform="translate(49.542 99.268)" fill="#fead33"/>
        <path id="Trazado_1065207" data-name="Trazado 1065207" d="M80.75,42.986a1.928,1.928,0,0,0-.473-.022c.228-2.277.218-3.78.218-3.78a13.623,13.623,0,0,0-.283-2.693c-2.255-8.554-13.032-7.48-24.038-6.471a64.642,64.642,0,0,0-6.637.809,14.583,14.583,0,0,0-2.6,8.341s-.051,1.537.124,3.855c-1.513.409-2.387,2.624-1.963,5.076.431,2.495,2.042,4.307,3.631,4.115,1.4,4.528,3.888,9.022,8.287,11.242a27.081,27.081,0,0,1-2.332,4.894L65.807,87.027,76.932,68.352s-2.667-4.236-3.079-8.009a23.031,23.031,0,0,0,4.6-8.408,1.988,1.988,0,0,0,.7.269c1.62.279,3.289-1.557,3.729-4.1s-.517-4.835-2.137-5.115" fill="#f8ccb3"/>
        <path id="Trazado_1065208" data-name="Trazado 1065208" d="M70.355,53.648a7.555,7.555,0,0,1-7.613,4.176c-3.7-.3-5.116-4.176-5.116-4.176Z" fill="#fff"/>
        <path id="Trazado_1065209" data-name="Trazado 1065209" d="M58.995,63.458a26.674,26.674,0,0,1-1.815,4h0s5.7,4.63,13.619-3.575a14.481,14.481,0,0,1-5.443,1,13.918,13.918,0,0,1-6.362-1.429" fill="#eab8a0"/>
        <path id="Trazado_1065210" data-name="Trazado 1065210" d="M58.207,43.442a1.783,1.783,0,1,1-1.783-1.783,1.783,1.783,0,0,1,1.783,1.783" fill="#433833"/>
        <path id="Trazado_1065211" data-name="Trazado 1065211" d="M69.774,43.442a1.783,1.783,0,1,0,1.783-1.783,1.783,1.783,0,0,0-1.783,1.783" fill="#433833"/>
        <path id="Trazado_1065212" data-name="Trazado 1065212" d="M51.119,39.386s2.129-3.849,8.676-2.571l.133,1.944a11.78,11.78,0,0,0-8.809.627" fill="#735e56"/>
        <path id="Trazado_1065213" data-name="Trazado 1065213" d="M76.863,39.386s-2.129-3.849-8.676-2.571l-.133,1.944a11.78,11.78,0,0,1,8.809.627" fill="#735e56"/>
        <path id="Trazado_1065214" data-name="Trazado 1065214" d="M63.991,33.979a17.291,17.291,0,0,1-4.508-.6c-1.578-.427-3.2-.863-4.556-1.229a2.551,2.551,0,0,0-2.665.883C50.7,34.989,48.1,39.266,47.7,46.434c0,0-1.435-3.743-.861-12.911A16.8,16.8,0,0,1,63.991,17.967,16.8,16.8,0,0,1,81.14,33.523c.574,9.168-.861,12.911-.861,12.911-.4-7.168-3-11.445-4.559-13.4a2.551,2.551,0,0,0-2.665-.883c-1.36.366-2.978.8-4.556,1.229a17.291,17.291,0,0,1-4.508.6" fill="#735e56"/>
        <path id="Trazado_1065215" data-name="Trazado 1065215" d="M63.991,49.075a8.915,8.915,0,0,1-2.154-.265c-1.279-.321-2.425-.678-2.425-.678a10.214,10.214,0,0,0,3.948,2.061,2.143,2.143,0,0,0,1.262,0,10.214,10.214,0,0,0,3.948-2.061s-1.146.357-2.425.678a8.915,8.915,0,0,1-2.154.265" fill="#eab8a0"/>
      </g>
    </g>
  </g>
</svg>
