<svg xmlns="http://www.w3.org/2000/svg" xmlns:xlink="http://www.w3.org/1999/xlink" width="127.981" height="133.845" viewBox="0 0 127.981 133.845">
  <defs>
    <clipPath id="clip-path">
      <rect id="Rectángulo_401904" data-name="Rectángulo 401904" width="127.981" height="133.845" fill="none"/>
    </clipPath>
  </defs>
  <g id="Grupo_1210594" data-name="Grupo 1210594" transform="translate(-156 9103)">
    <g id="Grupo_1210501" data-name="Grupo 1210501" transform="translate(-5 -182)">
      <g id="Grupo_1210500" data-name="Grupo 1210500" transform="translate(161 -8921)">
        <g id="Grupo_1210499" data-name="Grupo 1210499" clip-path="url(#clip-path)">
          <path id="Trazado_1065279" data-name="Trazado 1065279" d="M127.981,63.991A63.991,63.991,0,1,1,63.99,0a63.991,63.991,0,0,1,63.991,63.991" fill="#ffebcc"/>
          <path id="Trazado_1065280" data-name="Trazado 1065280" d="M38.94,40.289c-.108.1-2.534,24.5,24.687,24.5S89.456,38.16,89.456,38.16L53.137,26.422Z" fill="#3c4447"/>
          <path id="Trazado_1065281" data-name="Trazado 1065281" d="M87.307,50.17s2.85-3.209,3.943.15-.217,9.914-3.885,11.069-2.936.15-2.936.15Z" fill="#fcd7be"/>
          <path id="Trazado_1065282" data-name="Trazado 1065282" d="M41.168,50.17s-2.85-3.209-3.943.15.217,9.914,3.885,11.069,2.936.15,2.936.15Z" fill="#fcd7be"/>
          <path id="Trazado_1065283" data-name="Trazado 1065283" d="M42.6,52.321c1.007,1.342,1.378,5.779-.62,5.38a2.056,2.056,0,0,1-.877-3.765c.712-.5,1.037-2.227,1.5-1.615" fill="#f7b8a1"/>
          <path id="Trazado_1065284" data-name="Trazado 1065284" d="M39.742,57.52a16.457,16.457,0,0,1-.563-2.488c-.021-.142-.034-.238-.054-.425-.017-.163-.03-.325-.039-.488a6.222,6.222,0,0,1,.014-.946l.012-.1c-.009.069,0,0,.006-.031.012-.07.025-.14.041-.209s.034-.131.055-.195c.009-.029.019-.057.029-.086.025-.07.012-.029.011-.029.024-.051.049-.1.078-.15.014-.023.03-.046.044-.069.046-.074-.03.03.011-.018s.071-.075.109-.113.052-.04,0,0c.025-.017.05-.035.076-.05s.061-.034.093-.049c0,0-.053.014.021-.005.04-.01.216-.043.121-.033a1.48,1.48,0,0,1,.221-.007.677.677,0,0,1,.18.021,4.256,4.256,0,0,1,1.284.54.388.388,0,0,0,.391-.669,3.278,3.278,0,0,0-2.35-.614,1.664,1.664,0,0,0-1.114,1.293,8.95,8.95,0,0,0,.293,4.085c.084.352.174.7.282,1.049.148.474.9.272.747-.206" fill="#f7b8a1"/>
          <path id="Trazado_1065285" data-name="Trazado 1065285" d="M85.991,52.321c-1.007,1.342-1.378,5.779.62,5.38a2.056,2.056,0,0,0,.877-3.765c-.712-.5-1.037-2.227-1.5-1.615" fill="#f7b8a1"/>
          <path id="Trazado_1065286" data-name="Trazado 1065286" d="M89.591,57.726A16.635,16.635,0,0,0,90.2,54.9c.139-1.079.309-2.939-.9-3.509a2.939,2.939,0,0,0-2.6.521.388.388,0,0,0,.391.669,4.375,4.375,0,0,1,1.149-.51,1.078,1.078,0,0,1,.38-.052c.039,0,.208.019.112,0a1.779,1.779,0,0,1,.178.044c.074.02-.01-.008.008,0s.055.027.082.042.043.028.065.042c.053.033-.048-.049.014.011.038.036.074.073.109.111.051.057-.008-.012,0,.006s.035.052.052.08c.029.048.054.1.079.148.032.067-.021-.056.006.015.012.032.024.065.035.1a2.921,2.921,0,0,1,.1.4c0,.015.017.107.011.065s.006.053.008.068c.007.077.014.153.018.23.009.155.011.31.008.465a9.4,9.4,0,0,1-.076.992c-.012.092-.037.263-.063.421s-.056.323-.088.484q-.083.417-.183.829c-.077.317-.159.633-.256.944-.149.477.6.681.747.206" fill="#f7b8a1"/>
          <path id="Trazado_1065287" data-name="Trazado 1065287" d="M75.183,89.881a4.2,4.2,0,0,1-1.049-.807c-1.816-2-2.548-5.182-2.789-8.209a19.961,19.961,0,0,1-15.182.015c-.275,2.881-1.009,5.951-2.751,7.782a5.208,5.208,0,0,1-1.019.816L63.51,103.215Z" fill="#fcd7be"/>
          <path id="Trazado_1065288" data-name="Trazado 1065288" d="M31.652,98.923c-5.7,9.146-3.8,34.922-3.8,34.922h72.489s1.033-27.917-4.047-36.1c-4.39-7.071-16.47-5.213-21.115-7.854L63.509,103.221,52.392,89.493c-4.733,2.986-15.462.961-20.74,9.43" fill="#d02411"/>
          <path id="Trazado_1065289" data-name="Trazado 1065289" d="M71.344,80.865a38.822,38.822,0,0,1,.275-8.064L56.1,73.739a37.317,37.317,0,0,1,.059,7.141,19.961,19.961,0,0,0,15.182-.015" fill="#f7b8a1"/>
          <path id="Trazado_1065290" data-name="Trazado 1065290" d="M87.585,47.587c-1.427,17.247-10.49,30.45-23.429,30.45s-21.711-13.8-23.429-30.45C39,30.859,45.289,17.137,64.156,17.137c17.432,0,24.815,13.69,23.429,30.45" fill="#fcd7be"/>
          <path id="Trazado_1065291" data-name="Trazado 1065291" d="M80.106,50.045c0,1.561-1.837,2.827-4.1,2.827s-4.1-1.266-4.1-2.827,1.837-2.827,4.1-2.827,4.1,1.266,4.1,2.827" fill="#3c4447"/>
          <path id="Trazado_1065292" data-name="Trazado 1065292" d="M56.941,50.045c0,1.561-1.837,2.827-4.1,2.827s-4.1-1.266-4.1-2.827,1.837-2.827,4.1-2.827,4.1,1.266,4.1,2.827" fill="#3c4447"/>
          <path id="Trazado_1065293" data-name="Trazado 1065293" d="M48.4,41.609a4.459,4.459,0,0,1,.6-.356c.1-.053.208-.1.313-.153.06-.027.12-.054.18-.079-.153.065.068-.026.079-.03a9.92,9.92,0,0,1,.995-.318,10.187,10.187,0,0,1,6.075.49.782.782,0,0,0,.953-.541.791.791,0,0,0-.541-.953,11.654,11.654,0,0,0-6.808-.513,7.506,7.506,0,0,0-2.627,1.115.8.8,0,0,0-.278,1.06.78.78,0,0,0,1.06.278" fill="#3c4447"/>
          <path id="Trazado_1065294" data-name="Trazado 1065294" d="M81.039,40.235a7.517,7.517,0,0,0-2.635-1.1,11.648,11.648,0,0,0-6.8.565.8.8,0,0,0-.541.953.782.782,0,0,0,.953.541,10.19,10.19,0,0,1,6.071-.543,8.927,8.927,0,0,1,.971.3,4.02,4.02,0,0,1,.59.26,4.514,4.514,0,0,1,.613.357.781.781,0,0,0,1.06-.278.792.792,0,0,0-.278-1.06" fill="#3c4447"/>
          <path id="Trazado_1065295" data-name="Trazado 1065295" d="M89.416,46.916S91.553,31.31,85.46,24.674s-10.647-4.367-10.647-4.367,1.11-5.659-10.274-7.623S41.533,21.126,39.726,28.955a100.693,100.693,0,0,1-4.869,14.972l15.98-.386s7.5-3.593,8.137-8.924c0,0-.052,6.243-4.162,8.578a7.482,7.482,0,0,0,9.707-1.37c4.648-4.863,8.439-13.691,8.439-13.691l9.351,17.091Z" fill="#3c4447"/>
          <path id="Trazado_1065296" data-name="Trazado 1065296" d="M78.392,57.692H74.924a7.325,7.325,0,0,1-4.262-.907,5.748,5.748,0,0,1-2.568-4.9,16.121,16.121,0,0,1,.192-4.178,5.692,5.692,0,0,1,4.57-4.1,24.349,24.349,0,0,1,3.694-.064,9.557,9.557,0,0,1,4.211.525,5.713,5.713,0,0,1,3.248,5.1,16.882,16.882,0,0,1-.164,4.246,5.7,5.7,0,0,1-5.453,4.276.581.581,0,0,0,0,1.162,6.9,6.9,0,0,0,5.831-3.332c1.006-1.691.948-3.51.948-5.4a7.781,7.781,0,0,0-1.617-5.34,6.948,6.948,0,0,0-5.383-2.4c-1.447-.006-2.894-.01-4.341,0a6.9,6.9,0,0,0-5.421,2.572,8.118,8.118,0,0,0-1.477,5.412c0,1.925,0,3.761,1.126,5.435a6.944,6.944,0,0,0,5.836,3.05c1.5.007,3,0,4.5,0a.581.581,0,0,0,0-1.162" fill="#e0734e"/>
          <path id="Trazado_1065297" data-name="Trazado 1065297" d="M54.633,57.692H51.165a7.325,7.325,0,0,1-4.262-.907,5.748,5.748,0,0,1-2.568-4.9,16.121,16.121,0,0,1,.192-4.178,5.692,5.692,0,0,1,4.57-4.1,24.349,24.349,0,0,1,3.694-.064A9.557,9.557,0,0,1,57,44.072a5.713,5.713,0,0,1,3.248,5.1,16.882,16.882,0,0,1-.164,4.246,5.7,5.7,0,0,1-5.453,4.276.581.581,0,0,0,0,1.162,6.9,6.9,0,0,0,5.831-3.332c1.006-1.691.948-3.51.948-5.4a7.781,7.781,0,0,0-1.617-5.34,6.948,6.948,0,0,0-5.383-2.4c-1.447-.006-2.894-.01-4.341,0a6.9,6.9,0,0,0-5.421,2.572,8.118,8.118,0,0,0-1.477,5.412c0,1.925,0,3.761,1.126,5.435a6.944,6.944,0,0,0,5.836,3.05c1.5.007,3,0,4.5,0a.581.581,0,0,0,0-1.162" fill="#e0734e"/>
          <path id="Trazado_1065298" data-name="Trazado 1065298" d="M61.46,51.3c.044-.049.224-.18.063-.067a3.685,3.685,0,0,1,.539-.318,2.305,2.305,0,0,1,.317-.121,5.129,5.129,0,0,1,.584-.156,6.521,6.521,0,0,1,1.374-.119,4.049,4.049,0,0,1,2.045.469c.053.033.1.068.156.1.118.08-.088-.079.011.008.064.056.124.116.186.176.136.131-.047-.1.041.053a.581.581,0,0,0,1-.586,3.059,3.059,0,0,0-1.942-1.212,6.723,6.723,0,0,0-4.478.439,2.54,2.54,0,0,0-.721.509c-.5.555.321,1.38.822.822" fill="#e0734e"/>
          <path id="Trazado_1065299" data-name="Trazado 1065299" d="M64.431,62.491a8.915,8.915,0,0,1-2.154-.265c-1.279-.321-2.425-.678-2.425-.678A10.214,10.214,0,0,0,63.8,63.609a2.143,2.143,0,0,0,1.262,0,10.214,10.214,0,0,0,3.948-2.061s-1.146.357-2.425.678a8.915,8.915,0,0,1-2.154.265" fill="#e2a18d"/>
          <path id="Trazado_1065300" data-name="Trazado 1065300" d="M60.358,68.13c.881,0,7.486.661,10.128-1.321" fill="#e2a18d"/>
        </g>
      </g>
    </g>
  </g>
</svg>
