<svg xmlns="http://www.w3.org/2000/svg" xmlns:xlink="http://www.w3.org/1999/xlink" width="99.475" height="87.314" viewBox="0 0 99.475 87.314">
  <defs>
    <clipPath id="clip-path">
      <rect id="Rectángulo_401924" data-name="Rectángulo 401924" width="99.475" height="87.314" fill="none"/>
    </clipPath>
  </defs>
  <g id="Grupo_1210588" data-name="Grupo 1210588" transform="translate(-238.576 -3106)">
    <g id="Grupo_1210509" data-name="Grupo 1210509" transform="translate(238.576 3106)">
      <g id="Grupo_1210508" data-name="Grupo 1210508" transform="translate(0 0)" clip-path="url(#clip-path)">
        <path id="Trazado_1065324" data-name="Trazado 1065324" d="M63.893,40a20.192,20.192,0,0,0,.589-4.907A20.857,20.857,0,1,0,23.344,40H9.273V28.958H14.83a28.869,28.869,0,0,1,4.1-9.889L15,15.142l8.674-8.674L27.6,10.394a28.869,28.869,0,0,1,9.889-4.1V.74H49.759V6.3a28.869,28.869,0,0,1,9.889,4.1l3.926-3.926,8.674,8.674-3.928,3.926a28.84,28.84,0,0,1,4.1,9.889h5.557V40Z" transform="translate(6.101 0.488)" fill="#ccc"/>
        <path id="Trazado_1065325" data-name="Trazado 1065325" d="M7.622,43.675h82.9a6.632,6.632,0,1,1,0,13.263H7.622a6.632,6.632,0,1,1,0-13.263" transform="translate(0.651 28.735)" fill="#727272"/>
        <path id="Trazado_1065326" data-name="Trazado 1065326" d="M29.365,27.741l-1.89,8.124a6.806,6.806,0,0,1-7.262,5.04l-6.913-.8.763-6.715a6.762,6.762,0,0,1,6.7-5.72l8.588.066Z" transform="translate(8.75 18.208)" fill="#8dce9a"/>
        <rect id="Rectángulo_401913" data-name="Rectángulo 401913" width="29.842" height="29.842" transform="translate(34.8 42.567)" fill="#ad7753"/>
        <path id="Trazado_1065327" data-name="Trazado 1065327" d="M36.99,31.741l1.89,8.124a6.806,6.806,0,0,0,7.262,5.04l6.913-.8-.763-6.715a6.762,6.762,0,0,0-6.7-5.72l-8.588.066Z" transform="translate(24.336 20.84)" fill="#8dce9a"/>
        <path id="Trazado_1065328" data-name="Trazado 1065328" d="M63.365,27.741l-1.89,8.124a6.806,6.806,0,0,1-7.262,5.04l-6.913-.8.763-6.715a6.762,6.762,0,0,1,6.7-5.72l8.588.066Z" transform="translate(31.119 18.208)" fill="#98d8a9"/>
        <path id="Trazado_1065329" data-name="Trazado 1065329" d="M2.99,31.741l1.89,8.124a6.806,6.806,0,0,0,7.262,5.04l6.913-.8-.763-6.715a6.762,6.762,0,0,0-6.7-5.72l-8.588.066Z" transform="translate(1.967 20.84)" fill="#98d8a9"/>
        <path id="Trazado_1065330" data-name="Trazado 1065330" d="M34.622,25.675V40.6l-3.316-1.658L27.99,40.6V25.675" transform="translate(18.415 16.892)" fill="#ead6be"/>
        <path id="Trazado_1065331" data-name="Trazado 1065331" d="M29.99,25.675V38.938L33.306,40.6V25.675Z" transform="translate(19.731 16.892)" fill="#ddc0a4"/>
        <path id="Trazado_1065332" data-name="Trazado 1065332" d="M79.691,40.487V29.445a1.23,1.23,0,0,0-1.227-1.227H73.888a29.92,29.92,0,0,0-3.521-8.49l3.24-3.24a1.223,1.223,0,0,0,0-1.729L64.932,6.085a1.222,1.222,0,0,0-1.731,0l-3.238,3.24A30.25,30.25,0,0,0,51.474,5.8V1.228A1.231,1.231,0,0,0,50.247,0H37.976A1.231,1.231,0,0,0,36.75,1.228V5.8a29.835,29.835,0,0,0-8.489,3.521l-3.24-3.24a1.222,1.222,0,0,0-1.731,0l-8.673,8.674a1.22,1.22,0,0,0,0,1.729l3.238,3.24a30.259,30.259,0,0,0-3.521,8.49H9.759a1.23,1.23,0,0,0-1.227,1.227V40.487h2.454V30.672h4.33a1.233,1.233,0,0,0,1.2-.981,27.4,27.4,0,0,1,3.926-9.472,1.208,1.208,0,0,0-.161-1.534L17.231,15.63l6.943-6.943L27.23,11.74a1.225,1.225,0,0,0,1.534.161,27.658,27.658,0,0,1,9.472-3.926,1.235,1.235,0,0,0,.981-1.2V2.441h9.815v4.33a1.233,1.233,0,0,0,.981,1.2A27.4,27.4,0,0,1,59.485,11.9a1.208,1.208,0,0,0,1.534-.161l3.056-3.054,6.943,6.943-3.056,3.056a1.227,1.227,0,0,0-.159,1.534,27.658,27.658,0,0,1,3.926,9.472,1.235,1.235,0,0,0,1.2.981h4.33v9.815h2.429Z" transform="translate(5.613 0)"/>
        <path id="Trazado_1065333" data-name="Trazado 1065333" d="M60.215,35.426a21.312,21.312,0,0,0,.625-5.2,22.083,22.083,0,1,0-43.553,5.2l2.379-.577a19.9,19.9,0,0,1-.539-4.612,19.63,19.63,0,1,1,39.259,0,19,19,0,0,1-.552,4.612l2.381.6Z" transform="translate(10.969 5.356)"/>
        <rect id="Rectángulo_401914" data-name="Rectángulo 401914" width="2.454" height="3.681" transform="translate(48.499 6.134)"/>
        <rect id="Rectángulo_401915" data-name="Rectángulo 401915" width="3.681" height="2.454" transform="translate(75.49 34.354)"/>
        <rect id="Rectángulo_401916" data-name="Rectángulo 401916" width="3.681" height="2.454" transform="translate(20.28 34.354)"/>
        <rect id="Rectángulo_401917" data-name="Rectángulo 401917" width="2.453" height="3.68" transform="translate(28.03 15.63) rotate(-45)"/>
        <rect id="Rectángulo_401918" data-name="Rectángulo 401918" width="3.68" height="2.453" transform="translate(67.065 16.502) rotate(-45)"/>
        <path id="Trazado_1065334" data-name="Trazado 1065334" d="M91.168,54.517H79.563V43.874l5.587.647a8.1,8.1,0,0,0,.9.05A8.517,8.517,0,0,0,94.219,38.2l1.89-8.124a1.607,1.607,0,0,0-.315-1.393,1.685,1.685,0,0,0-1.293-.63l-8.588-.066h-.05a8.446,8.446,0,0,0-8.306,7.179l-.4,3.515a8.573,8.573,0,0,0-7.179-4.062h-.066l-3.6.033V26.333a1.663,1.663,0,0,0-1.658-1.658H34.816a1.663,1.663,0,0,0-1.658,1.658v1.674h-3.6l-.033-.017a8.48,8.48,0,0,0-8.339,7.2l-.4,3.5a8.611,8.611,0,0,0-7.179-4.062h-.066l-8.588.066a1.658,1.658,0,0,0-1.293.63,1.631,1.631,0,0,0-.315,1.393l1.89,8.124A8.517,8.517,0,0,0,13.412,51.2a8.1,8.1,0,0,0,.9-.05l5.587-.647v4H8.29a8.29,8.29,0,1,0,0,16.579h82.9a8.29,8.29,0,1,0,0-16.579Zm-24.869,0V50.406a8.286,8.286,0,0,0,3.465.8,8.1,8.1,0,0,0,.9-.05l5.587-.647v4H66.3ZM80.84,35.551a5.124,5.124,0,0,1,5.023-4.244H85.9l6.516.05L91,37.474a5.183,5.183,0,0,1-5.455,3.763l-5.272-.613.58-5.073ZM69.931,37.938h.033a5.106,5.106,0,0,1,5.007,4.244l.58,5.073-5.272.613a5.155,5.155,0,0,1-5.455-3.763l-1.409-6.118ZM48.063,27.991h3.316V38.568l-.912-.464a1.65,1.65,0,0,0-1.476,0l-.912.464V27.991Zm-3.316,0V41.254a1.656,1.656,0,0,0,.779,1.409,1.635,1.635,0,0,0,1.608.066l2.57-1.293,2.57,1.293a1.653,1.653,0,0,0,.746.182,1.681,1.681,0,0,0,.879-.249,1.656,1.656,0,0,0,.779-1.409V27.991h8.29v6.681H61.293A1.675,1.675,0,0,0,60,35.319a1.631,1.631,0,0,0-.315,1.393l1.89,8.124a7.845,7.845,0,0,0,1.393,2.9v6.781H36.441V27.991h8.306Zm-20.293,7.56a5.142,5.142,0,0,1,5.04-4.244h3.647v8.638A5.287,5.287,0,0,1,32,40.707a5.115,5.115,0,0,1-2.818.531l-5.272-.613.58-5.073ZM13.91,47.853a5.155,5.155,0,0,1-5.455-3.763L7.046,37.971l6.516-.05h.033A5.106,5.106,0,0,1,18.6,42.166l.58,5.073Zm9.284-3.979,5.587.647a8.219,8.219,0,0,0,4.36-.713v10.71H23.194V43.874Zm67.974,23.89H8.273a4.974,4.974,0,1,1,0-9.947h82.9a4.974,4.974,0,1,1,0,9.947" transform="translate(0 16.235)"/>
        <rect id="Rectángulo_401919" data-name="Rectángulo 401919" width="3.316" height="3.316" transform="translate(8.273 77.383)"/>
        <rect id="Rectángulo_401920" data-name="Rectángulo 401920" width="3.316" height="3.316" transform="translate(28.168 77.383)"/>
        <rect id="Rectángulo_401921" data-name="Rectángulo 401921" width="3.316" height="3.316" transform="translate(48.063 77.383)"/>
        <rect id="Rectángulo_401922" data-name="Rectángulo 401922" width="3.316" height="3.316" transform="translate(87.853 77.383)"/>
        <rect id="Rectángulo_401923" data-name="Rectángulo 401923" width="3.316" height="3.316" transform="translate(67.958 77.383)"/>
      </g>
    </g>
  </g>
</svg>
