<svg xmlns="http://www.w3.org/2000/svg" width="71.937" height="71.937" viewBox="0 0 71.937 71.937">
  <g id="Grupo_1210588" data-name="Grupo 1210588" transform="translate(-214.73 -3763.213)">
    <g id="Grupo_1210304" data-name="Grupo 1210304" transform="translate(214.73 3763.213)">
      <g id="Grupo_1099454" data-name="Grupo 1099454">
        <g id="Grupo_1099453" data-name="Grupo 1099453">
          <g id="Grupo_1099452" data-name="Grupo 1099452">
            <g id="Grupo_1099451" data-name="Grupo 1099451">
              <g id="Grupo_1099450" data-name="Grupo 1099450">
                <g id="Grupo_1099449" data-name="Grupo 1099449">
                  <g id="Grupo_1099448" data-name="Grupo 1099448">
                    <g id="Grupo_1099447" data-name="Grupo 1099447">
                      <g id="Grupo_1099446" data-name="Grupo 1099446">
                        <g id="Grupo_1099445" data-name="Grupo 1099445">
                          <g id="Grupo_1099444" data-name="Grupo 1099444">
                            <g id="Grupo_1099443" data-name="Grupo 1099443">
                              <g id="Grupo_1099442" data-name="Grupo 1099442">
                                <g id="Grupo_1099441" data-name="Grupo 1099441">
                                  <circle id="Elipse_11490" data-name="Elipse 11490" cx="35.968" cy="35.968" r="35.968" fill="#fff"/>
                                </g>
                              </g>
                            </g>
                          </g>
                        </g>
                      </g>
                    </g>
                  </g>
                </g>
              </g>
            </g>
          </g>
        </g>
      </g>
    </g>
    <g id="reproductor-de-video" transform="translate(-6.57 3769.213)">
      <g id="Grupo_1209677" data-name="Grupo 1209677" transform="translate(243.856 10.558)">
        <g id="Grupo_1209675" data-name="Grupo 1209675" transform="translate(10.741 16.775)">
          <g id="Grupo_1209674" data-name="Grupo 1209674">
            <path id="Trazado_1064151" data-name="Trazado 1064151" d="M765.5,665.241a3.241,3.241,0,1,1,6.481,0" transform="translate(-762.914 -662)" fill="none" stroke="#000" stroke-linecap="round" stroke-linejoin="round" stroke-miterlimit="10" stroke-width="1"/>
            <g id="Grupo_1209673" data-name="Grupo 1209673" transform="translate(0 1.726)">
              <path id="Trazado_1064152" data-name="Trazado 1064152" d="M944.3,961.413a1.513,1.513,0,1,1,3.025,0v2.116" transform="translate(-936.961 -953.706)" fill="none" stroke="#000" stroke-linecap="round" stroke-linejoin="round" stroke-miterlimit="10" stroke-width="1"/>
              <path id="Trazado_1064153" data-name="Trazado 1064153" d="M1058.1,977.713a1.513,1.513,0,1,1,3.025,0v1.138" transform="translate(-1047.736 -969.573)" fill="none" stroke="#000" stroke-linecap="round" stroke-linejoin="round" stroke-miterlimit="10" stroke-width="1"/>
              <path id="Trazado_1064154" data-name="Trazado 1064154" d="M833.623,737.034v-8.6a1.512,1.512,0,0,0-1.592-1.51,1.528,1.528,0,0,0-1.43,1.534v10.275" transform="translate(-826.284 -726.921)" fill="none" stroke="#000" stroke-linecap="round" stroke-linejoin="round" stroke-miterlimit="10" stroke-width="1"/>
              <path id="Trazado_1064155" data-name="Trazado 1064155" d="M681.628,1011v-.739a1.528,1.528,0,0,1,1.433-1.534,1.512,1.512,0,0,1,1.592,1.51v6.239c0,1.3.106,2.733-.657,3.876a4.355,4.355,0,0,1-2.945,1.9c-.133.019-.269.029-.4.035l-5.1-.029a4.125,4.125,0,0,1-2.874-1.5,15.822,15.822,0,0,1-1.8-3.116l-1.9-3.65c-.449-.861-1.228-2.14-.292-2.988.774-.7,1.9-.229,2.557.37a6.612,6.612,0,0,1,1.007,1.17c.109.16.213.327.308.495" transform="translate(-668.241 -1001.23)" fill="none" stroke="#000" stroke-linecap="round" stroke-linejoin="round" stroke-miterlimit="10" stroke-width="1"/>
            </g>
          </g>
        </g>
        <g id="Grupo_1209676" data-name="Grupo 1209676" transform="translate(0)">
          <path id="Trazado_1064156" data-name="Trazado 1064156" d="M289.144,43.473a12.476,12.476,0,0,1-6.864,11.144v-3.6a1.512,1.512,0,0,0-1.592-1.51,1.528,1.528,0,0,0-1.43,1.534v4.639a12.475,12.475,0,1,1,9.887-12.2Z" transform="translate(-264.2 -31)" fill="none" stroke="#000" stroke-linecap="round" stroke-linejoin="round" stroke-miterlimit="10" stroke-width="1"/>
          <path id="Trazado_1064157" data-name="Trazado 1064157" d="M636.381,332.283,628.1,327.5v9.562Z" transform="translate(-618.426 -319.618)" fill="none" stroke="#000" stroke-linecap="round" stroke-linejoin="round" stroke-miterlimit="10" stroke-width="1"/>
        </g>
      </g>
      <g id="Grupo_1209690" data-name="Grupo 1209690" transform="translate(243.3 10)">
        <g id="Grupo_1209680" data-name="Grupo 1209680" transform="translate(0 0)">
          <g id="Grupo_1209678" data-name="Grupo 1209678">
            <path id="Trazado_1064167" data-name="Trazado 1064167" d="M12.473,0A12.473,12.473,0,1,1,0,12.473,12.473,12.473,0,0,1,12.473,0Z" transform="translate(0.556 0.558)" fill="#ef0a0a"/>
            <path id="Trazado_1064158" data-name="Trazado 1064158" d="M256.329,36.061a13.009,13.009,0,1,1,5.072-1.026A12.972,12.972,0,0,1,256.329,36.061Zm0-24.944a11.915,11.915,0,1,0,11.915,11.915A11.928,11.928,0,0,0,256.329,11.117Z" transform="translate(-243.3 -10)"/>
          </g>
          <g id="Grupo_1209679" data-name="Grupo 1209679" transform="translate(9.671 7.881)">
            <path id="Trazado_1064159" data-name="Trazado 1064159" d="M636.381,332.283,628.1,327.5v9.562Z" transform="translate(-627.542 -326.94)" fill="#fff"/>
            <path id="Trazado_1064160" data-name="Trazado 1064160" d="M607.658,317.13a.549.549,0,0,1-.279-.074.56.56,0,0,1-.279-.484V307.01a.56.56,0,0,1,.279-.484.552.552,0,0,1,.558,0l8.281,4.78a.559.559,0,0,1,0,.968l-8.281,4.783A.549.549,0,0,1,607.658,317.13Zm.558-9.153V315.6l6.606-3.815Z" transform="translate(-607.1 -306.45)"/>
          </g>
        </g>
        <g id="Grupo_1209689" data-name="Grupo 1209689" transform="translate(10.74 16.775)">
          <g id="Grupo_1209688" data-name="Grupo 1209688" transform="translate(0 0)">
            <g id="Grupo_1209681" data-name="Grupo 1209681" transform="translate(0.557 2.282)">
              <path id="Trazado_1064161" data-name="Trazado 1064161" d="M681.634,735.852a1.528,1.528,0,0,1,1.433-1.534q.08,0,.16,0a1.51,1.51,0,0,1,1.433,1.51v6.239c0,1.3.106,2.733-.657,3.876a4.356,4.356,0,0,1-2.946,1.9c-.133.019-.268.029-.4.034l-5.1-.029a4.125,4.125,0,0,1-2.874-1.5,15.824,15.824,0,0,1-1.8-3.116l-1.9-3.65c-.077-.149-.165-.311-.253-.481-.415-.811-.813-1.805-.04-2.507s1.9-.229,2.557.369a6.618,6.618,0,0,1,1.008,1.17c.109.159.213.327.306.495V728.358a1.528,1.528,0,0,1,1.433-1.534,1.512,1.512,0,0,1,1.592,1.51v6.154a1.512,1.512,0,0,1,2.581-1.029,1.492,1.492,0,0,1,.441,1.029v.473a1.511,1.511,0,0,1,1.513-1.513,1.516,1.516,0,0,1,1.513,1.513Z" transform="translate(-668.247 -726.822)" fill="#ffe1c8"/>
            </g>
            <g id="Grupo_1209682" data-name="Grupo 1209682" transform="translate(2.584)">
              <path id="Trazado_1064162" data-name="Trazado 1064162" d="M751.54,645.357a.558.558,0,0,1-.558-.558,2.682,2.682,0,0,0-5.365,0,.558.558,0,0,1-1.117,0,3.8,3.8,0,1,1,7.6,0A.558.558,0,0,1,751.54,645.357Z" transform="translate(-744.5 -641)"/>
            </g>
            <g id="Grupo_1209687" data-name="Grupo 1209687" transform="translate(0 1.728)">
              <g id="Grupo_1209683" data-name="Grupo 1209683" transform="translate(7.337 6.192)">
                <path id="Trazado_1064163" data-name="Trazado 1064163" d="M926.884,943.645a.558.558,0,0,1-.558-.558v-2.116a.954.954,0,0,0-1.909,0,.558.558,0,0,1-1.117,0,2.071,2.071,0,1,1,4.142,0v2.116A.558.558,0,0,1,926.884,943.645Z" transform="translate(-923.3 -938.9)"/>
              </g>
              <g id="Grupo_1209684" data-name="Grupo 1209684" transform="translate(10.36 6.625)">
                <path id="Trazado_1064164" data-name="Trazado 1064164" d="M1040.584,958.967a.558.558,0,0,1-.558-.558v-1.138a.954.954,0,0,0-1.909,0,.558.558,0,1,1-1.117,0,2.071,2.071,0,0,1,4.142,0v1.138A.558.558,0,0,1,1040.584,958.967Z" transform="translate(-1037 -955.2)"/>
              </g>
              <g id="Grupo_1209685" data-name="Grupo 1209685" transform="translate(4.312)">
                <path id="Trazado_1064165" data-name="Trazado 1064165" d="M810.058,718.921a.558.558,0,0,1-.558-.558V708.09a2.072,2.072,0,1,1,4.144-.024v8.6a.558.558,0,1,1-1.117,0v-8.6a.945.945,0,0,0-.3-.691.954.954,0,0,0-1.611.715v10.272A.562.562,0,0,1,810.058,718.921Z" transform="translate(-809.5 -705.995)"/>
              </g>
              <g id="Grupo_1209686" data-name="Grupo 1209686" transform="translate(0 7.486)">
                <path id="Trazado_1064166" data-name="Trazado 1064166" d="M660.264,1002.28l-5.086-.029a.255.255,0,0,1-.045,0,4.7,4.7,0,0,1-3.265-1.691,11.447,11.447,0,0,1-1.5-2.488c-.125-.255-.245-.495-.367-.734l-1.9-3.65c-.029-.058-.061-.117-.1-.181a6.068,6.068,0,0,1-.649-1.576,1.9,1.9,0,0,1,.569-1.9,2.481,2.481,0,0,1,3.307.367,7,7,0,0,1,1.093,1.271c.12.175.231.356.335.54a.559.559,0,1,1-.976.545c-.085-.151-.178-.306-.279-.452a5.972,5.972,0,0,0-.92-1.071c-.386-.345-1.258-.869-1.81-.369-.51.46-.175,1.2.314,2.129.035.064.066.125.1.186l1.9,3.65c.13.25.258.508.38.755a10.7,10.7,0,0,0,1.345,2.254,3.594,3.594,0,0,0,2.47,1.305c.3,0,4.825.027,5.072.029a2.826,2.826,0,0,0,.332-.029,3.78,3.78,0,0,0,2.557-1.661,5.527,5.527,0,0,0,.566-3.134c0-.141,0-.29,0-.433v-6.239a.955.955,0,0,0-1-.952.965.965,0,0,0-.9.976v.739a.558.558,0,1,1-1.117,0v-.739a2.083,2.083,0,0,1,1.962-2.092,2.047,2.047,0,0,1,1.534.566,2.08,2.08,0,0,1,.646,1.5V995.9c0,.138,0,.276,0,.423a6.425,6.425,0,0,1-.752,3.764,4.912,4.912,0,0,1-3.331,2.148,4.579,4.579,0,0,1-.463.04Z" transform="translate(-647.298 -987.594)"/>
              </g>
            </g>
          </g>
        </g>
      </g>
    </g>
  </g>
</svg>
