<svg xmlns="http://www.w3.org/2000/svg" xmlns:xlink="http://www.w3.org/1999/xlink" width="85" height="145" viewBox="0 0 85 145">
  <defs>
    <clipPath id="clip-path">
      <rect id="Rectángulo_401726" data-name="Rectángulo 401726" width="85" height="145" transform="translate(705.051 397)" fill="#fff" stroke="#707070" stroke-width="1"/>
    </clipPath>
    <clipPath id="clip-path-2">
      <rect id="Rectángulo_401725" data-name="Rectángulo 401725" width="84.159" height="83.365" fill="none"/>
    </clipPath>
  </defs>
  <g id="Enmascarar_grupo_1098688" data-name="Enmascarar grupo 1098688" transform="translate(-705.051 -397)" clip-path="url(#clip-path)">
    <g id="Grupo_1210277" data-name="Grupo 1210277" transform="translate(705.841 428)">
      <rect id="Rectángulo_401720" data-name="Rectángulo 401720" width="19.451" height="5.557" transform="translate(31.957 15.284)" fill="#c0ab91"/>
      <path id="Trazado_1064686" data-name="Trazado 1064686" d="M82.306,26.729V82.306H1.72V26.729L42.013,1.72Z" transform="translate(-0.33 -0.33)" fill="#ffd699"/>
      <path id="Trazado_1064687" data-name="Trazado 1064687" d="M50.852,4.119,88.365,27.406V82.981h5.558V27.406L53.63,2.4Z" transform="translate(-9.764 -0.46)" fill="#cb7a00"/>
      <rect id="Rectángulo_401721" data-name="Rectángulo 401721" width="69.471" height="5.557" transform="translate(6.947 29.178)" fill="#d95041"/>
      <rect id="Rectángulo_401722" data-name="Rectángulo 401722" width="69.471" height="47.24" transform="translate(6.947 34.735)" fill="#e0e0e2"/>
      <rect id="Rectángulo_401723" data-name="Rectángulo 401723" width="5.557" height="47.24" transform="translate(70.86 34.735)" fill="#c6c5ca"/>
      <g id="Grupo_1210588" data-name="Grupo 1210588">
        <g id="Grupo_1210276" data-name="Grupo 1210276">
          <g id="Grupo_1210275" data-name="Grupo 1210275" clip-path="url(#clip-path-2)">
            <path id="Trazado_1064688" data-name="Trazado 1064688" d="M42.33,18.916H56.224a2.779,2.779,0,1,1,0,5.557H42.33a2.779,2.779,0,1,1,0-5.557" transform="translate(-7.594 -3.632)" fill="#ffde55"/>
            <path id="Trazado_1064689" data-name="Trazado 1064689" d="M62.441,25.134a2.787,2.787,0,0,1-2.779,2.779H45.769a2.786,2.786,0,0,1-2.779-2.779H56.884a2.787,2.787,0,0,0,2.779-2.779,2.787,2.787,0,0,1,2.779,2.779" transform="translate(-8.255 -4.292)" fill="#a78966"/>
            <path id="Trazado_1064690" data-name="Trazado 1064690" d="M61.974,21.695A2.787,2.787,0,0,1,59.2,24.473H55.027a2.779,2.779,0,0,0,0-5.557H59.2a2.787,2.787,0,0,1,2.779,2.779" transform="translate(-10.566 -3.632)" fill="#ebbf00"/>
            <rect id="Rectángulo_401724" data-name="Rectángulo 401724" width="5.557" height="5.557" transform="translate(38.904 43.072)" fill="#c6c5ca"/>
            <path id="Trazado_1064691" data-name="Trazado 1064691" d="M85.057,75.663v2.779A11.115,11.115,0,0,1,73.942,89.557V86.778A11.115,11.115,0,0,1,85.057,75.663" transform="translate(-14.198 -14.528)" fill="#ccfc5c"/>
            <path id="Trazado_1064692" data-name="Trazado 1064692" d="M78.179,59.925c0,4.6-2.487,8.337-5.557,8.337s-5.558-3.738-5.558-8.337,5.558-8.337,5.558-8.337,5.557,3.738,5.557,8.337" transform="translate(-12.877 -9.906)" fill="#ccfc5c"/>
            <path id="Trazado_1064693" data-name="Trazado 1064693" d="M85.057,75.663v2.779A11.115,11.115,0,0,1,73.942,89.557v-.806a11.127,11.127,0,0,0,6.947-10.31V76.469a11.249,11.249,0,0,1,4.168-.806" transform="translate(-14.198 -14.528)" fill="#a4e276"/>
            <path id="Trazado_1064694" data-name="Trazado 1064694" d="M78.47,59.774c0,4.613-2.487,8.337-5.557,8.337A5.153,5.153,0,0,1,68.578,65a3.779,3.779,0,0,0,1.555.333c3.071,0,5.558-3.723,5.558-8.336a8.381,8.381,0,0,0-1.973-4.96c1.542,1.25,4.752,4.252,4.752,7.739" transform="translate(-13.168 -9.991)" fill="#a4e276"/>
            <path id="Trazado_1064695" data-name="Trazado 1064695" d="M62.7,73.943v2.779A11.115,11.115,0,0,1,51.588,87.837V85.058A11.115,11.115,0,0,1,62.7,73.943" transform="translate(-9.906 -14.198)" fill="#ccfc5c"/>
            <path id="Trazado_1064696" data-name="Trazado 1064696" d="M55.824,58.2c0,4.6-2.487,8.337-5.557,8.337S44.709,62.8,44.709,58.2s5.558-8.337,5.558-8.337,5.557,3.738,5.557,8.337" transform="translate(-8.585 -9.575)" fill="#ccfc5c"/>
            <path id="Trazado_1064697" data-name="Trazado 1064697" d="M48.946,85.058v2.779A11.115,11.115,0,0,1,37.831,76.722V73.943A11.115,11.115,0,0,1,48.946,85.058" transform="translate(-7.264 -14.198)" fill="#ccfc5c"/>
            <path id="Trazado_1064698" data-name="Trazado 1064698" d="M62.7,73.943v2.779A11.115,11.115,0,0,1,51.588,87.837v-.806a11.127,11.127,0,0,0,6.947-10.31V74.749a11.249,11.249,0,0,1,4.168-.806" transform="translate(-9.906 -14.198)" fill="#a4e276"/>
            <path id="Trazado_1064699" data-name="Trazado 1064699" d="M56.115,58.055c0,4.613-2.487,8.337-5.557,8.337a5.155,5.155,0,0,1-4.336-3.112,3.786,3.786,0,0,0,1.556.333c3.071,0,5.558-3.723,5.558-8.336a8.381,8.381,0,0,0-1.973-4.96c1.542,1.25,4.752,4.252,4.752,7.739" transform="translate(-8.875 -9.661)" fill="#a4e276"/>
            <path id="Trazado_1064700" data-name="Trazado 1064700" d="M48.946,85.058v2.779a11.249,11.249,0,0,1-4.168-.806V85.058a11.125,11.125,0,0,0-6.947-10.309v-.806A11.115,11.115,0,0,1,48.946,85.058" transform="translate(-7.264 -14.198)" fill="#a4e276"/>
            <path id="Trazado_1064701" data-name="Trazado 1064701" d="M33.469,59.925c0,4.6-2.487,8.337-5.557,8.337s-5.558-3.738-5.558-8.337,5.558-8.337,5.558-8.337,5.557,3.738,5.557,8.337" transform="translate(-4.292 -9.906)" fill="#ccfc5c"/>
            <path id="Trazado_1064702" data-name="Trazado 1064702" d="M26.591,86.777v2.779A11.115,11.115,0,0,1,15.476,78.441V75.662A11.115,11.115,0,0,1,26.591,86.777" transform="translate(-2.972 -14.528)" fill="#ccfc5c"/>
            <path id="Trazado_1064703" data-name="Trazado 1064703" d="M33.76,59.774c0,4.613-2.487,8.337-5.557,8.337A5.155,5.155,0,0,1,23.867,65a3.786,3.786,0,0,0,1.556.333c3.071,0,5.558-3.723,5.558-8.336a8.381,8.381,0,0,0-1.973-4.96c1.542,1.25,4.752,4.252,4.752,7.739" transform="translate(-4.583 -9.991)" fill="#a4e276"/>
            <path id="Trazado_1064704" data-name="Trazado 1064704" d="M26.591,86.777v2.779a11.249,11.249,0,0,1-4.168-.806V86.777a11.125,11.125,0,0,0-6.947-10.309v-.806A11.115,11.115,0,0,1,26.591,86.777" transform="translate(-2.972 -14.528)" fill="#a4e276"/>
            <path id="Trazado_1064705" data-name="Trazado 1064705" d="M82.712,25.218,42.42.208a1.405,1.405,0,0,0-1.473,0L.654,25.218A1.388,1.388,0,0,0,0,26.4V81.976A1.389,1.389,0,0,0,1.39,83.365H81.975a1.389,1.389,0,0,0,1.389-1.389V26.4a1.391,1.391,0,0,0-.652-1.181M22.231,73.542a9.745,9.745,0,0,1-8.337-9.629V62.621a9.743,9.743,0,0,1,8.337,9.628Zm18.063-1.39a9.744,9.744,0,0,1-8.337-9.629V61.232a9.744,9.744,0,0,1,8.337,9.629Zm1.389-16.576c-2.265,0-4.168-3.182-4.168-6.947,0-2.862,2.779-5.474,4.168-6.6,1.39,1.126,4.168,3.738,4.168,6.6,0,3.765-1.9,6.947-4.168,6.947m1.39,15.284a9.744,9.744,0,0,1,8.337-9.629v1.292a9.745,9.745,0,0,1-8.337,9.629ZM59.744,56.966c-2.264,0-4.168-3.182-4.168-6.947,0-2.862,2.779-5.474,4.168-6.6,1.39,1.126,4.169,3.738,4.169,6.6,0,3.765-1.9,6.947-4.169,6.947m1.39,15.283a9.745,9.745,0,0,1,8.336-9.628v1.292a9.744,9.744,0,0,1-8.336,9.629Zm13.894,8.337H61.134V76.335A12.526,12.526,0,0,0,72.25,63.913V61.135a1.389,1.389,0,0,0-1.389-1.39,12.451,12.451,0,0,0-9.727,4.669V59.55c3.209-.875,5.558-4.752,5.558-9.531,0-5.28-5.919-9.323-6.169-9.49a1.391,1.391,0,0,0-1.557,0c-.249.166-6.168,4.21-6.168,9.49,0,4.779,2.348,8.656,5.557,9.531V80.586H43.072V74.945A12.526,12.526,0,0,0,54.187,62.524V59.745a1.389,1.389,0,0,0-1.389-1.39,12.453,12.453,0,0,0-9.726,4.669V58.161c3.209-.876,5.557-4.752,5.557-9.532,0-5.279-5.919-9.323-6.169-9.49a1.39,1.39,0,0,0-1.556,0c-.25.167-6.169,4.21-6.169,9.49,0,4.78,2.349,8.656,5.558,9.532v4.862a12.454,12.454,0,0,0-9.726-4.669,1.39,1.39,0,0,0-1.39,1.39v2.779A12.526,12.526,0,0,0,40.294,74.945v5.641H25.01V59.55c3.209-.875,5.558-4.752,5.558-9.531,0-5.28-5.919-9.323-6.169-9.49a1.39,1.39,0,0,0-1.556,0c-.25.166-6.169,4.21-6.169,9.49,0,4.779,2.348,8.656,5.557,9.531v4.863a12.448,12.448,0,0,0-9.726-4.669,1.39,1.39,0,0,0-1.39,1.39v2.779A12.527,12.527,0,0,0,22.231,76.335v4.252H8.337V36.125H75.028ZM23.621,56.966c-2.265,0-4.168-3.182-4.168-6.947,0-2.862,2.779-5.474,4.168-6.6,1.389,1.126,4.168,3.738,4.168,6.6,0,3.765-1.9,6.947-4.168,6.947m51.407-23.62H8.337V30.568H75.028Zm5.558,47.24H77.808V29.178a1.39,1.39,0,0,0-1.391-1.39H6.947a1.389,1.389,0,0,0-1.389,1.39V80.586H2.78V27.177l38.9-24.148,38.9,24.148Z" transform="translate(0 0)"/>
            <path id="Trazado_1064706" data-name="Trazado 1064706" d="M37.831,21.364A4.168,4.168,0,0,0,42,25.533H55.893a4.168,4.168,0,0,0,0-8.337H42a4.168,4.168,0,0,0-4.168,4.168m19.451,0a1.39,1.39,0,0,1-1.39,1.39H42a1.39,1.39,0,0,1,0-2.779H55.893a1.39,1.39,0,0,1,1.39,1.39" transform="translate(-7.264 -3.302)"/>
          </g>
        </g>
      </g>
    </g>
  </g>
</svg>
