<svg xmlns="http://www.w3.org/2000/svg" xmlns:xlink="http://www.w3.org/1999/xlink" width="190" height="218" viewBox="0 0 190 218">
  <defs>
    <clipPath id="clip-path">
      <rect id="Rect치ngulo_401990" data-name="Rect치ngulo 401990" width="190" height="218" transform="translate(1230.051 413)" fill="#fff" stroke="#707070" stroke-width="1"/>
    </clipPath>
    <clipPath id="clip-path-2">
      <rect id="Rect치ngulo_401988" data-name="Rect치ngulo 401988" width="164.479" height="149.001" fill="none"/>
    </clipPath>
  </defs>
  <g id="Grupo_1210589" data-name="Grupo 1210589" transform="translate(-1230.051 -413)">
    <g id="Enmascarar_grupo_1098698" data-name="Enmascarar grupo 1098698" clip-path="url(#clip-path)">
      <g id="Grupo_1210544" data-name="Grupo 1210544" transform="translate(1242.521 447)">
        <g id="Grupo_1210543" data-name="Grupo 1210543" clip-path="url(#clip-path-2)">
          <path id="Trazado_1065516" data-name="Trazado 1065516" d="M59.479,3.8a55.806,55.806,0,0,1,47.986,84.274,9.462,9.462,0,0,0,1.456,11.65l9.965,9.965L109.574,119l-9.964-9.965a9.464,9.464,0,0,0-11.65-1.457A55.8,55.8,0,1,1,59.479,3.8Z" transform="translate(-1.537 -1.584)" fill="#4eb875" fill-rule="evenodd"/>
          <path id="Trazado_1065517" data-name="Trazado 1065517" d="M115.033,115.114l-5.46,5.46-9.964-9.965a9.462,9.462,0,0,0-11.65-1.456A55.8,55.8,0,1,1,36.078,10.507a55.728,55.728,0,0,1,17.9-2.933c43.559,0,70.456,44.594,46.417,82.707a9.465,9.465,0,0,0,1.457,11.65l13.183,13.183Z" transform="translate(-1.537 -3.159)" fill="#f2f7e5" fill-rule="evenodd"/>
          <path id="Trazado_1065518" data-name="Trazado 1065518" d="M30.326,38.93a42.618,42.618,0,1,1,0,60.271,42.618,42.618,0,0,1,0-60.271" transform="translate(-7.442 -11.031)" fill="#82b457"/>
          <path id="Trazado_1065519" data-name="Trazado 1065519" d="M38.747,38.882a42.618,42.618,0,1,1,0,60.271,42.618,42.618,0,0,1,0-60.271" transform="translate(-10.954 -11.011)" fill="#f3f3ff"/>
          <path id="Trazado_1065520" data-name="Trazado 1065520" d="M212.5,195.664l-27.578-27.578a5.794,5.794,0,0,0-8.177,0l-8.773,8.773a5.794,5.794,0,0,0,0,8.178l27.577,27.578A11.986,11.986,0,1,0,212.5,195.664" transform="translate(-69.354 -69.401)" fill="#a34f41" fill-rule="evenodd"/>
          <path id="Trazado_1065521" data-name="Trazado 1065521" d="M172.36,175.611,167.974,180l0,0a5.794,5.794,0,0,0,0,8.176l27.578,27.577a12.033,12.033,0,0,0,14.467,1.9,12.034,12.034,0,0,0-1.9-14.467l-27.578-27.578a5.792,5.792,0,0,0-8.177,0Z" transform="translate(-69.354 -72.54)" fill="#c86f5c" fill-rule="evenodd"/>
          <path id="Trazado_1065522" data-name="Trazado 1065522" d="M61.053,106.878c0,13.594,10.275,22.355,22.355,22.355C83.408,115.57,76.27,103.622,61.053,106.878Z" transform="translate(-25.464 -44.351)" fill="#baed2c" fill-rule="evenodd"/>
          <path id="Trazado_1065523" data-name="Trazado 1065523" d="M61.053,107.265c0,13.594,10.275,22.355,22.355,22.355Q73.425,115.317,61.053,107.265Z" transform="translate(-25.464 -44.738)" fill="#a0d904" fill-rule="evenodd"/>
          <path id="Trazado_1065524" data-name="Trazado 1065524" d="M121.758,106.878c0,13.594-10.275,22.355-22.355,22.355C99.4,115.57,106.541,103.622,121.758,106.878Z" transform="translate(-41.459 -44.351)" fill="#baed2c" fill-rule="evenodd"/>
          <path id="Trazado_1065525" data-name="Trazado 1065525" d="M121.758,107.265c0,13.594-10.275,22.355-22.355,22.355Q109.386,115.317,121.758,107.265Z" transform="translate(-41.459 -44.738)" fill="#a0d904" fill-rule="evenodd"/>
          <path id="Trazado_1065526" data-name="Trazado 1065526" d="M84.338,41.131a17.618,17.618,0,1,1-15,19.9,17.618,17.618,0,0,1,15-19.9" transform="translate(-28.849 -17.083)" fill="#fdc72e"/>
          <path id="Trazado_1065527" data-name="Trazado 1065527" d="M84.571,76.219a17.624,17.624,0,0,1,0-34.967,17.624,17.624,0,0,1,0,34.967" transform="translate(-28.85 -17.205)" fill="#fcdb35" fill-rule="evenodd"/>
          <path id="Trazado_1065528" data-name="Trazado 1065528" d="M103.975,85.286a11.654,11.654,0,0,0,.613,13.04l-6.262,6.26a11.652,11.652,0,0,0-13.037-.614,53.419,53.419,0,1,1,18.685-18.686Zm7.571,13.99a3.492,3.492,0,0,0-2.473,1.025l-8.773,8.772a3.5,3.5,0,0,0,0,4.947L127.88,141.6a9.7,9.7,0,1,0,13.72-13.72L114.02,100.3A3.49,3.49,0,0,0,111.545,99.276Zm50.649-43.551h-9.957l-2.7-7.7a2.284,2.284,0,0,0-4.406.362l-3.7,21.033L135.4,38.9a2.288,2.288,0,0,0-2.241-1.844h-.006a2.285,2.285,0,0,0-2.235,1.851L126.365,62.4l-1.334-4.98a2.283,2.283,0,0,0-2.205-1.694h-6.854A57.99,57.99,0,1,0,87.621,107.9a7.152,7.152,0,0,1,7.841.261,8.077,8.077,0,0,0,1.606,9.092l27.58,27.576a14.27,14.27,0,1,0,20.182-20.181L117.25,97.069a8.069,8.069,0,0,0-9.092-1.605,7.161,7.161,0,0,1-.258-7.843,57.913,57.913,0,0,0,8.068-27.327h5.1l3.442,12.858A2.286,2.286,0,0,0,128.967,73l4.216-21.761,6.142,31.085a2.286,2.286,0,0,0,2.242,1.84h.026a2.289,2.289,0,0,0,2.226-1.889l4.3-24.483.343.979a2.284,2.284,0,0,0,2.154,1.528h11.578a2.284,2.284,0,0,0,0-4.569ZM58.01,54.435a2.283,2.283,0,0,0,2.284-2.284V51.132a8.307,8.307,0,0,0,2.093-.688A5.663,5.663,0,0,0,65.5,46.2a5.291,5.291,0,0,0-1.642-4.631,9.676,9.676,0,0,0-3.952-2.016c-.467-.134-.957-.251-1.426-.363a9.088,9.088,0,0,1-2.888-.986.99.99,0,0,1-.437-.623.773.773,0,0,1,.248-.535,4.448,4.448,0,0,1,3.38-.7,2.973,2.973,0,0,1,2.152,1.018A2.284,2.284,0,1,0,64.956,35.2a6.854,6.854,0,0,0-4.663-3.215V30.906a2.285,2.285,0,0,0-4.569,0v1.057a7.064,7.064,0,0,0-3.62,1.915,5.241,5.241,0,0,0-1.51,4.031,5.451,5.451,0,0,0,2.2,3.9,11.923,11.923,0,0,0,4.634,1.824c.444.1.862.2,1.233.307a5.211,5.211,0,0,1,2.1.986.67.67,0,0,1,.216.627,1.078,1.078,0,0,1-.623.8c-1.7.842-4.937.343-5.6-.862a2.285,2.285,0,1,0-4.008,2.194,7.416,7.416,0,0,0,4.977,3.348v1.116A2.285,2.285,0,0,0,58.01,54.435Zm2.364,28C69,81.493,77.1,75.364,77.952,64.46a19.266,19.266,0,0,0-2.477-.166,13.125,13.125,0,0,0-8.509,2.849C63.172,70.21,60.825,75.706,60.374,82.439ZM38.069,64.46c.849,10.9,8.952,17.032,17.578,17.978-.452-6.732-2.8-12.228-6.593-15.3-2.908-2.353-6.6-3.25-10.986-2.683m4.563-22.932A15.377,15.377,0,1,0,58.01,26.15,15.4,15.4,0,0,0,42.632,41.528M80.788,60.319c-6.547-1.4-12.316-.272-16.7,3.27a18.97,18.97,0,0,0-3.8,4.206V61.341a19.947,19.947,0,1,0-4.569,0V67.8a18.834,18.834,0,0,0-3.8-4.206c-4.376-3.541-10.149-4.67-16.692-3.27a2.283,2.283,0,0,0-1.808,2.232,23.88,23.88,0,0,0,22.3,24.486v5.113a2.285,2.285,0,0,0,4.57,0V87.037a23.881,23.881,0,0,0,22.3-24.486,2.28,2.28,0,0,0-1.8-2.232ZM58.01,99.337A41.329,41.329,0,1,0,16.684,58.009,41.374,41.374,0,0,0,58.01,99.337m0-87.226a45.9,45.9,0,1,0,45.9,45.9,45.947,45.947,0,0,0-45.9-45.9" fill-rule="evenodd"/>
        </g>
      </g>
    </g>
  </g>
</svg>
