<svg xmlns="http://www.w3.org/2000/svg" xmlns:xlink="http://www.w3.org/1999/xlink" width="420" height="318" viewBox="0 0 420 318">
  <defs>
    <clipPath id="clip-path">
      <rect id="Rectángulo_402039" data-name="Rectángulo 402039" width="420" height="318" transform="translate(180.051 6492)" fill="none"/>
    </clipPath>
    <clipPath id="clip-path-2">
      <rect id="Rectángulo_401849" data-name="Rectángulo 401849" width="460.003" height="401.945" fill="none"/>
    </clipPath>
    <clipPath id="clip-path-3">
      <rect id="Rectángulo_401848" data-name="Rectángulo 401848" width="468.303" height="310.208" transform="translate(-0.332)" fill="none"/>
    </clipPath>
    <clipPath id="clip-path-4">
      <rect id="Rectángulo_401832" data-name="Rectángulo 401832" width="15.609" height="12.24" fill="none"/>
    </clipPath>
    <clipPath id="clip-path-5">
      <rect id="Rectángulo_401833" data-name="Rectángulo 401833" width="11.553" height="7.898" fill="none"/>
    </clipPath>
    <clipPath id="clip-path-6">
      <rect id="Rectángulo_401834" data-name="Rectángulo 401834" width="15.84" height="17.376" fill="none"/>
    </clipPath>
    <clipPath id="clip-path-7">
      <rect id="Rectángulo_401835" data-name="Rectángulo 401835" width="9.399" height="14.602" fill="none"/>
    </clipPath>
    <clipPath id="clip-path-8">
      <rect id="Rectángulo_401836" data-name="Rectángulo 401836" width="16.88" height="12.601" fill="none"/>
    </clipPath>
    <clipPath id="clip-path-9">
      <rect id="Rectángulo_401837" data-name="Rectángulo 401837" width="15.586" height="8.492" fill="none"/>
    </clipPath>
    <clipPath id="clip-path-11">
      <rect id="Rectángulo_401839" data-name="Rectángulo 401839" width="15.285" height="13.901" fill="none"/>
    </clipPath>
    <clipPath id="clip-path-12">
      <rect id="Rectángulo_401840" data-name="Rectángulo 401840" width="15.287" height="13.901" fill="none"/>
    </clipPath>
    <clipPath id="clip-path-13">
      <rect id="Rectángulo_401841" data-name="Rectángulo 401841" width="15.283" height="13.901" fill="none"/>
    </clipPath>
    <clipPath id="clip-path-14">
      <rect id="Rectángulo_401842" data-name="Rectángulo 401842" width="8.307" height="15.363" fill="none"/>
    </clipPath>
    <clipPath id="clip-path-15">
      <rect id="Rectángulo_401843" data-name="Rectángulo 401843" width="8.305" height="15.362" fill="none"/>
    </clipPath>
    <clipPath id="clip-path-16">
      <rect id="Rectángulo_401844" data-name="Rectángulo 401844" width="149.523" height="127.368" fill="none"/>
    </clipPath>
    <clipPath id="clip-path-17">
      <rect id="Rectángulo_401845" data-name="Rectángulo 401845" width="74.698" height="58.518" fill="none"/>
    </clipPath>
    <clipPath id="clip-path-18">
      <rect id="Rectángulo_401846" data-name="Rectángulo 401846" width="77.278" height="80.9" fill="none"/>
    </clipPath>
    <clipPath id="clip-path-19">
      <rect id="Rectángulo_401847" data-name="Rectángulo 401847" width="23.335" height="13.941" fill="none"/>
    </clipPath>
  </defs>
  <g id="Enmascarar_grupo_1098702" data-name="Enmascarar grupo 1098702" transform="translate(-180.051 -6492)" clip-path="url(#clip-path)">
    <rect id="Rectángulo_401830" data-name="Rectángulo 401830" width="420" height="318.233" transform="translate(180.051 6492)" fill="#f6f0ca"/>
    <g id="Grupo_1210434" data-name="Grupo 1210434" transform="translate(139.997 6500.427)">
      <g id="Grupo_1210433" data-name="Grupo 1210433" clip-path="url(#clip-path-2)">
        <g id="Grupo_1210432" data-name="Grupo 1210432" transform="translate(40.334)">
          <g id="Grupo_1210431" data-name="Grupo 1210431" clip-path="url(#clip-path-3)">
            <path id="Trazado_1064993" data-name="Trazado 1064993" d="M150.979,29.02C145.787,42.006,132.8,57,113.58,54.982c-22.818-2.4-33.013-26.054-32.224-27.659S98.927,14.5,116.268,9.842s26.993-5.653,30.146-3.2c3.893,3.032,8.191,13.313,4.565,22.379" transform="translate(97.253 4.769)" fill="#fad24f"/>
            <path id="Trazado_1064994" data-name="Trazado 1064994" d="M129,31.724a31.361,31.361,0,0,1-20.424,4.813A36.263,36.263,0,0,1,86.92,26.006c15.5,11.08,31.815,8.979,42.079,5.718" transform="translate(102.258 23.214)" fill="#f3753b"/>
            <path id="Trazado_1064995" data-name="Trazado 1064995" d="M122.661,22.333c-4.887-5.7-13.746-6.524-13.746-7.387S121.193,11.2,121.143,5.82a4.282,4.282,0,0,1,.632.4c3.893,3.032,8.191,13.315,4.565,22.379-.454,1.136-.971,2.288-1.544,3.443.335-3.407.034-7.171-2.135-9.7" transform="translate(121.891 5.195)" fill="#f3753b"/>
            <path id="Trazado_1064996" data-name="Trazado 1064996" d="M128.6,16.585c6.427,3.558-4.408,13.975-6.191,16.373-4.075,5.341-10.7,5.7-16.778,4.3-5.3-1.278-14.766-4.537-17.719-9.427-4.631-7.281,6.011-8.859,10.493-10.845,3.515-1.522,6.467-4.423,10.058-6.079a30.812,30.812,0,0,1,9.88-2.9c2.265-.025,6.111.2,7.714,1.86,1.91,2.01.3,5.481,2.544,6.721" transform="translate(102.126 7.143)" fill="#fd8608"/>
            <path id="Trazado_1064997" data-name="Trazado 1064997" d="M91.541,25.348c-.77,1.067-1.72,2.434-.56,3.352a2.67,2.67,0,0,0,2.322-.185A10.71,10.71,0,0,1,96.617,27.3c-.335,1.253-1.139,2.443-.844,3.744.206.912,1.643.8,2.214.4s3.71-4.425,3.9-4.334a3.4,3.4,0,0,0,3.066.2c-.271,2.451-1.009,5.016.125,7.306a.581.581,0,0,0,.784.229c2.19-1.215,3.04-3.727,4.342-5.786a14.211,14.211,0,0,0,2.194,4.306.581.581,0,0,0,.994-.392,14.015,14.015,0,0,0-.426-3.384c-.439-2.7,1.628-2.758,3.619-2.8,1.756-.034,2.021-1.59,2.392-2.951a16.519,16.519,0,0,0,2.65,1.382c.505.2.848-.428.659-.833a15.8,15.8,0,0,0-1.862-2.754c2.419-1.255,5.491-2.8,3.354-5.788-.011-.015-.025-.021-.036-.036a.847.847,0,0,0-.051-.085c-.982-1.083-.583-1.177-.464-2.5a1.917,1.917,0,0,0-.81-1.613,2.113,2.113,0,0,0-2.557.3c-.106-1.317-.5-2.684-1.737-3.077-1.363-.43-1.887,1.648-2.22,2.877-1.211-.424-1.972.31-3.019,1.026a7.726,7.726,0,0,0-.649-2.175.577.577,0,0,0-.784-.229c-1.306.893-1.83,2.37-2.517,3.738-.568,1.136-2.451,3.376-3.429.721a1.277,1.277,0,0,0-.445-.664c-1.995-1.245-3.3,1.648-3.819,3.674-1.471-1.189-3.611-.581-3.159,1.37-2.161,0-3.312.558-3.119,2.788-1.925-.312-3.92-.562-5.22,1.185-.876,1.175.625,1.889,1.8,2.2" transform="translate(104.541 7.84)" fill="#ef7011"/>
            <path id="Trazado_1064998" data-name="Trazado 1064998" d="M97.759,37.868c6.342,1.72,12.5-2.53,17.778-5.528A41.1,41.1,0,0,0,131.231,17.2a.578.578,0,0,1,.99.594c-4.12,7.067-9.942,12.041-17,16.053-5.335,3.032-11.4,6.867-17.774,5.137a.578.578,0,0,1,.31-1.113" transform="translate(111.291 15.104)" fill="#ffe161"/>
            <path id="Trazado_1064999" data-name="Trazado 1064999" d="M103.432,31.469A40.8,40.8,0,0,0,120.6,16.439a.577.577,0,0,1,.988.594,41.964,41.964,0,0,1-17.6,15.45c-.664.324-1.223-.683-.553-1.014" transform="translate(116.727 14.434)" fill="#ffe161"/>
            <path id="Trazado_1065000" data-name="Trazado 1065000" d="M86.939,19.336c4.679,5.318,11.483,10.417,18.747,11.08.738.066.729,1.221-.011,1.153-7.6-.691-14.666-5.86-19.568-11.439-.49-.556.341-1.357.833-.793" transform="translate(101.398 17.088)" fill="#ffe161"/>
            <path id="Trazado_1065001" data-name="Trazado 1065001" d="M87.859,22.987a9.929,9.929,0,0,0,4.277,3.71c.685.274.38,1.385-.309,1.111a11.3,11.3,0,0,1-4.981-4.268c-.43-.6.585-1.151,1.013-.553" transform="translate(102.099 20.289)" fill="#ffe161"/>
            <path id="Trazado_1065002" data-name="Trazado 1065002" d="M114.632,7.2a.578.578,0,0,1-.6.99,6.279,6.279,0,0,0-4.62-.791.576.576,0,0,1-.28-1.117,7.479,7.479,0,0,1,5.5.918" transform="translate(56.707 5.45)" fill="#ffe161"/>
            <path id="Trazado_1065003" data-name="Trazado 1065003" d="M109.28,8.11a24.771,24.771,0,0,1,3.746.486c.732.123.416,1.228-.31,1.109a23.805,23.805,0,0,0-3.448-.443.577.577,0,0,1,.013-1.153" transform="translate(121.712 7.239)" fill="#ffe161"/>
            <path id="Trazado_1065004" data-name="Trazado 1065004" d="M98.26,11.99c.7-.259.969.863.28,1.119a32.932,32.932,0,0,0-14.168,9.363c-.481.566-1.272-.274-.8-.837C87.5,17,92.62,14.076,98.26,11.99" transform="translate(99.141 10.669)" fill="#ffe161"/>
            <path id="Trazado_1065005" data-name="Trazado 1065005" d="M164.54,46.091c-4.656-2.182-30.879,37.98-23.474,58.469s45.885,48.317,67.484,40.783,24.32-31.6,22.513-35.057-20.81-22.521-22.969-24.444S167.521,47.49,164.54,46.091" transform="translate(149.422 41.067)" fill="#ffbd2b"/>
            <path id="Trazado_1065006" data-name="Trazado 1065006" d="M231.061,110.287c-.6-1.145-3.079-4-6.208-7.372-9.217,6.834-26.635,16.634-36.965,18.851-13.071,2.809-44.716-4.6-44.924-28.755s21.574-46.919,21.574-46.919c-4.654-2.184-30.879,37.978-23.473,58.466s45.885,48.317,67.482,40.783,24.322-31.6,22.513-35.054" transform="translate(149.422 41.068)" fill="#f3753b"/>
            <path id="Trazado_1065007" data-name="Trazado 1065007" d="M166.623,52.671c1.457-1.357,2.97.738,4.607,1.775,2.519,1.737,4.014,1.673,4.658,4.8.3,1.446,4.088,2.443,4.612,3.28.636.585,1.584-.187,2.11.649s-.513,2.472.009,3.308c0,0,3.117,4.41,2.869,4.294,1.77,1.4,4.531-.057,4.293,3.136,3.534-.509,6.053,1.225,4.118,4.855,2.445-.1,4.077.695,1.957,2.987-4.109,4.457-24.739,16.843-35.656,9.157s-7.043-25.693,6.422-38.245" transform="translate(162.022 46.621)" fill="#ff975b"/>
            <path id="Trazado_1065008" data-name="Trazado 1065008" d="M215.2,80.866c.871-.577-.1-1.862-.965-1.291-9.45,6.274-18.726,15.234-30.339,16.966-5.121.765-10.449-.327-15.457-1.349a59.7,59.7,0,0,1-19.492-7.533c-.872-.541-1.879.719-1,1.268,10.006,6.185,23.164,10.076,35,9.335C195.2,97.5,205.5,87.305,215.2,80.866" transform="translate(156.427 70.905)" fill="#9f313a"/>
            <path id="Trazado_1065009" data-name="Trazado 1065009" d="M202.67,96.944c5.761-3.859,9.372-8.943,13.839-14.066.687-.789-.585-1.781-1.264-1-4.035,4.629-7.372,9.2-12.365,12.942-4.716,3.535-10.146,6.427-16.01,7.347-5.193.818-10.657-.363-15.728-1.414a46.263,46.263,0,0,1-18.105-7.514c-.837-.608-1.838.657-1,1.27,9.388,6.817,23.465,10.553,35.04,9.255,5.7-.638,10.911-3.689,15.59-6.819" transform="translate(160.103 72.834)" fill="#9f313a"/>
            <path id="Trazado_1065010" data-name="Trazado 1065010" d="M198.792,87.533c-7.87,10.173-18.932,17.768-32.311,15.805a.807.807,0,0,0-.206,1.6c13.92,2.046,25.568-5.788,33.786-16.405a.808.808,0,0,0-1.268-1" transform="translate(172.489 77.861)" fill="#9f313a"/>
            <path id="Trazado_1065011" data-name="Trazado 1065011" d="M147.523,81.837a31.128,31.128,0,0,1,2-11.873c2.322-6.67,5.78-13.425,11.821-17.4.874-.575-.1-1.86-.965-1.293-6,3.952-9.4,10.413-11.933,16.947a35.919,35.919,0,0,0-2.495,9.815c-.377,4.258.365,8.557.131,12.825-.057,1.028,1.541,1.251,1.6.208.172-3.089-.021-6.147-.153-9.229" transform="translate(154.852 45.64)" fill="#fad24f"/>
            <path id="Trazado_1065012" data-name="Trazado 1065012" d="M156.489,97.239c-10.692-11.585-6.355-28.693,1.98-40.3.606-.842-.662-1.845-1.266-1-8.729,12.155-13.186,30.15-2,42.265.7.757,1.995-.2,1.291-.967" transform="translate(157.265 49.649)" fill="#fad24f"/>
            <path id="Trazado_1065013" data-name="Trazado 1065013" d="M187.338,76.1c.92-.467.32-1.966-.608-1.491-5.008,2.549-10.249,3.172-15.807,2.973-5.2-.184-11.1-.505-15.3-3.884-.81-.655-1.806.615-1,1.268,4.527,3.641,10.508,3.9,16.086,4.213A32.021,32.021,0,0,0,187.338,76.1" transform="translate(162.431 65.627)" fill="#fad24f"/>
            <path id="Trazado_1065014" data-name="Trazado 1065014" d="M181.373,77.753c-5.761,4.8-11.687,8.119-19.413,7.166a.806.806,0,0,0-.21,1.6c8.138,1.005,14.488-2.392,20.588-7.472.8-.662-.167-1.955-.965-1.291" transform="translate(168.449 69.241)" fill="#fad24f"/>
            <path id="Trazado_1065015" data-name="Trazado 1065015" d="M163.629,78.867c-7.166-6.458-5.544-16.277,1.454-22,.806-.657-.161-1.949-.965-1.289-7.89,6.454-9.5,17.34-1.49,24.559.776.7,1.768-.575,1-1.266" transform="translate(165.129 49.445)" fill="#f3753b"/>
            <path id="Trazado_1065016" data-name="Trazado 1065016" d="M165.9,67.72c-2.137-2.275-3.8-5.21-2.591-8.36.375-.967-1.109-1.6-1.486-.625-1.418,3.681.229,7.228,2.786,9.948.706.755,2-.206,1.291-.963" transform="translate(168.655 51.995)" fill="#f3753b"/>
            <path id="Trazado_1065017" data-name="Trazado 1065017" d="M171.072,65.321c-1.556-.81-3.026-1.739-3.1-3.66-.04-1.039-1.639-.823-1.6.21.1,2.512,2.035,3.874,4.077,4.936.924.479,1.544-1.011.626-1.486" transform="translate(173.176 54.434)" fill="#f3753b"/>
            <path id="Trazado_1065018" data-name="Trazado 1065018" d="M171.769,68.883a7.325,7.325,0,0,1-5.222-2.038c-.731-.742-1.717.534-1,1.27a8.649,8.649,0,0,0,6.013,2.368c1.028.049,1.247-1.55.208-1.6" transform="translate(172.222 59.468)" fill="#f3753b"/>
            <path id="Trazado_1065019" data-name="Trazado 1065019" d="M104.723,81.42c1.4-10.559,1.959-29.33,17.159-30.1,1.647-.085,6.662.38,7.166.409,12.48.647,8.462,18.156,13.8,29.4,4.807,10.124,11.187,78.208-10.239,78.836-2.11.064-8.642-.447-9.889-.579-18.709-2.006-28.834-20.885-27.862-37.295.89-14.984,8.47-30.11,9.868-40.671" transform="translate(109.283 45.799)" fill="#425925"/>
            <path id="Trazado_1065020" data-name="Trazado 1065020" d="M124.849,51.538c13.65-.693,18.491,16.716,24.046,28.409,4.8,10.129,19.665,21.82,20.06,44.738s-17.575,34.463-39,35.093S96.78,139.931,97.824,122.314c.89-14.986,8.468-30.11,9.866-40.669s1.959-29.332,17.159-30.106" transform="translate(111.934 45.988)" fill="#ace558"/>
            <path id="Trazado_1065021" data-name="Trazado 1065021" d="M103.027,91.843a25.907,25.907,0,1,0,27.725-23.951,25.91,25.91,0,0,0-27.725,23.951" transform="translate(116.573 60.541)" fill="#bfeb7e"/>
            <path id="Trazado_1065022" data-name="Trazado 1065022" d="M107.866,99.9c.273,10.046,7.622,18,16.417,17.757s15.705-8.576,15.433-18.62-7.722-21.644-16.517-21.41-15.6,12.228-15.332,22.273" transform="translate(120.948 69.29)" fill="#995b2a"/>
            <path id="Trazado_1065023" data-name="Trazado 1065023" d="M121.68,82.616c2.574,5.366,4.266,10.684,3.94,16.7a.7.7,0,0,1-1.391-.1c.314-5.78-1.327-10.824-3.8-15.985a.7.7,0,0,1,1.249-.611" transform="translate(132.105 73.405)" fill="#8b4e21"/>
            <path id="Trazado_1065024" data-name="Trazado 1065024" d="M118.382,79.3c5.668,8.475,6.611,18.792,6.66,28.736,0,.9-1.385.791-1.389-.1-.047-9.522-.888-19.6-6.327-27.725-.49-.736.555-1.656,1.056-.91" transform="translate(129.286 70.541)" fill="#8b4e21"/>
            <path id="Trazado_1065025" data-name="Trazado 1065025" d="M116.807,80.76c.814,10.116,4.026,19.761,6.749,29.474.244.867-1.122,1.128-1.363.271-2.727-9.711-5.939-19.36-6.753-29.47-.072-.888,1.295-1.164,1.366-.274" transform="translate(127.714 71.604)" fill="#8b4e21"/>
            <path id="Trazado_1065026" data-name="Trazado 1065026" d="M115.034,79.1c.235-.867,1.546-.392,1.312.467a43.782,43.782,0,0,0,4.311,34.486c.45.782-.8,1.385-1.249.611-6.433-11.17-7.745-23.16-4.374-35.565" transform="translate(125.747 70.199)" fill="#8b4e21"/>
            <path id="Trazado_1065027" data-name="Trazado 1065027" d="M113.026,81.681c.375-.8,1.692-.348,1.31.466a26.1,26.1,0,0,0,2.943,26.6c.553.706-.5,1.622-1.054.912a27.468,27.468,0,0,1-3.2-27.973" transform="translate(123.381 72.536)" fill="#8b4e21"/>
            <path id="Trazado_1065028" data-name="Trazado 1065028" d="M116.017,90.508c.659-11.437-2.905-22.49-3.965-33.8-.085-.886,1.281-1.164,1.365-.271,1.073,11.428,4.656,22.6,3.99,34.166a.7.7,0,0,1-1.389-.1" transform="translate(124.688 49.894)" fill="#d1f1a3"/>
            <path id="Trazado_1065029" data-name="Trazado 1065029" d="M111.093,97.28c.948-13.156,1.518-26.372-.411-39.469-.131-.886,1.236-1.158,1.366-.273,1.948,13.22,1.389,26.565.433,39.844a.7.7,0,0,1-1.389-.1" transform="translate(123.461 50.876)" fill="#d1f1a3"/>
            <path id="Trazado_1065030" data-name="Trazado 1065030" d="M113.316,56.993c.18-.865,1.573-.776,1.389.1-3.276,15.7-8.909,30.941-10.061,47.038a55.618,55.618,0,0,0,4.113,25.526c3.055,7.353,8.736,12.65,12.942,19.244.483.757-.774,1.359-1.251.611-4.236-6.641-9.7-11.929-12.942-19.241a55.01,55.01,0,0,1-4.391-22.593c.053-17.333,6.7-33.916,10.2-50.687" transform="translate(116.713 50.335)" fill="#d1f1a3"/>
            <path id="Trazado_1065031" data-name="Trazado 1065031" d="M107.1,87.879a129.992,129.992,0,0,1,.587-17.588.7.7,0,0,1,1.389.1,130.017,130.017,0,0,0-.587,17.59c.055.9-1.336.78-1.389-.1" transform="translate(120.16 62.189)" fill="#d1f1a3"/>
            <path id="Trazado_1065032" data-name="Trazado 1065032" d="M117.986,60.92c5.2,22.893,25.95,44.559,17.291,69.191a.7.7,0,0,1-1.312-.466c4.3-12.23.85-24.718-4.345-36.049-4.874-10.631-10.393-20.912-13-32.406-.2-.876,1.166-1.143,1.365-.271" transform="translate(128.753 53.901)" fill="#d1f1a3"/>
            <path id="Trazado_1065033" data-name="Trazado 1065033" d="M123.587,74.2c-.541-.71.507-1.628,1.052-.91,4.207,5.511,8.375,11.049,11.263,17.4,3.166,6.954,3.049,13.663,1.845,21.061-.144.88-1.533.787-1.389-.1,1.177-7.237,1.192-13.478-1.707-20.35-2.644-6.268-6.969-11.731-11.064-17.1" transform="translate(134.854 65.193)" fill="#d1f1a3"/>
            <path id="Trazado_1065034" data-name="Trazado 1065034" d="M123.565,100.085c.125-.884,1.514-.785,1.389.1a57.739,57.739,0,0,1-2.074,8.937c-.265.855-1.578.39-1.312-.466a55.442,55.442,0,0,0,2-8.576" transform="translate(133.154 88.791)" fill="#d1f1a3"/>
            <path id="Trazado_1065035" data-name="Trazado 1065035" d="M118.821,102.815a19.848,19.848,0,0,1,2.587,2.8c.526.723-.52,1.639-1.054.912a20.072,20.072,0,0,0-2.587-2.807c-.657-.611.4-1.514,1.054-.91" transform="translate(129.608 91.599)" fill="#d1f1a3"/>
            <path id="Trazado_1065036" data-name="Trazado 1065036" d="M65.354,34.233s12.488-8.225,12.124-9.564S71,9.9,68.335,9.679,49.982,16.928,48.072,21.711Z" transform="translate(67.58 8.636)" fill="#425925"/>
            <path id="Trazado_1065037" data-name="Trazado 1065037" d="M65.788,18.058c-2.194,1.756-4.529,3.32-6.74,5.059-.763.6-1.836-.485-1.062-1.094,2.209-1.737,4.546-3.3,6.736-5.057.763-.609,1.832.475,1.066,1.092" transform="translate(76.191 14.984)" fill="#729835"/>
            <path id="Trazado_1065038" data-name="Trazado 1065038" d="M64.62,16.978c-2.283,1.332-4.217,3.142-6.352,4.681-.8.575-1.541-.759-.753-1.329,2.137-1.539,4.069-3.342,6.352-4.677a.762.762,0,0,1,.753,1.325" transform="translate(75.71 13.874)" fill="#729835"/>
            <path id="Trazado_1065039" data-name="Trazado 1065039" d="M63.789,15.117c-2.383,2.133-4.768,4.262-7.325,6.195-.772.583-1.845-.5-1.064-1.092,2.555-1.932,4.94-4.064,7.325-6.195.732-.651,1.8.437,1.064,1.092" transform="translate(73.879 12.34)" fill="#729835"/>
            <path id="Trazado_1065040" data-name="Trazado 1065040" d="M63.956,13.422a46.7,46.7,0,0,0-8.9,6.817c-.725.655-1.794-.435-1.062-1.1A48.654,48.654,0,0,1,63.2,12.1c.867-.466,1.616.859.753,1.327" transform="translate(72.65 10.709)" fill="#729835"/>
            <path id="Trazado_1065041" data-name="Trazado 1065041" d="M63.137,11.894a46.751,46.751,0,0,0-9.467,7c-.727.657-1.8-.432-1.064-1.094a48.261,48.261,0,0,1,9.781-7.234c.869-.458,1.622.869.749,1.325" transform="translate(71.408 9.349)" fill="#729835"/>
            <path id="Trazado_1065042" data-name="Trazado 1065042" d="M78.467,20.8c3.887,5.284,2.464,11.85-2.85,26.648s-2.508,42.1,1.5,66.547S79.2,169.679,63.441,171.57s-28.764-9.336-28.429-49.362S39.388,35.534,49.466,22.9s22.638-10.762,29-2.1" transform="translate(55.917 12.368)" fill="#61832c"/>
            <path id="Trazado_1065043" data-name="Trazado 1065043" d="M54.1,61.921c-6.1.39-10.26,13-9.287,28.163s6.706,27.133,12.809,26.747,10.256-13,9.283-28.164S60.2,61.53,54.1,61.921" transform="translate(64.542 55.265)" fill="#769b35"/>
            <path id="Trazado_1065044" data-name="Trazado 1065044" d="M55.29,91.6a175.868,175.868,0,0,1-.952-32.279C55,48.6,55.774,36.395,61.55,27.034a.763.763,0,0,1,1.306.787C56.514,38.1,56.162,51.928,55.63,63.669A191.5,191.5,0,0,0,57.5,97.042c2.474,19.055,5.72,40.361-5.453,57.4-.541.821-1.851.04-1.31-.787,12.043-18.362,7.039-41.708,4.55-62.05" transform="translate(69.847 23.814)" fill="#9ccd5a"/>
            <path id="Trazado_1065045" data-name="Trazado 1065045" d="M47.075,78.689c-.2,12.989,1.414,25.859,2.843,38.741.691,6.217,1.346,12.435,1.919,18.661.594,6.444,2.131,12.768,1.463,19.269-.1.971-1.624.963-1.525-.019.67-6.494-.89-12.826-1.463-19.271-.6-6.708-1.334-13.4-2.076-20.1C46.7,102.116,45.2,88.356,45.653,74.387a181.487,181.487,0,0,1,3.761-32.376c1.991-9.073,6.13-17.452,13.866-22.9.806-.568,1.546.768.753,1.325-8.409,5.92-11.924,15.355-13.788,25.1a194.482,194.482,0,0,0-3.17,33.152" transform="translate(65.347 16.939)" fill="#9ccd5a"/>
            <path id="Trazado_1065046" data-name="Trazado 1065046" d="M61.121,16.957C51.808,23.628,47.49,34.042,45.068,44.892c-2.905,13.014-3.443,26.654-3.923,39.939-.479,13.254-1.618,27.211.413,40.364,1,6.484,3.757,12.473,5.676,18.7,1.857,5.994,3.929,11.791,7.506,17,.558.81-.772,1.556-1.325.751-3.414-4.972-5.477-10.449-7.279-16.163-2.089-6.628-4.8-13.031-6.055-19.9-1.2-6.59-.99-13.4-.9-20.07.106-7.887.248-15.773.556-23.654.515-13.224,1.325-26.679,4.38-39.6,2.479-10.487,7.34-20.236,16.256-26.628.8-.573,1.541.763.753,1.327" transform="translate(59.577 13.827)" fill="#9ccd5a"/>
            <path id="Trazado_1065047" data-name="Trazado 1065047" d="M56.488,17.4C49.709,26.589,46.3,37.945,43.662,48.917a218.589,218.589,0,0,0-5.2,34.028A290.823,290.823,0,0,0,38.1,127.09c.878,11.9,2.686,25.963,12.556,33.988.763.617-.339,1.675-1.094,1.064-9.177-7.459-11.481-19.956-12.641-31.092-1.614-15.514-1.223-31.092-.095-46.625a234.672,234.672,0,0,1,4.877-33.791c2.6-11.774,6.227-24.192,13.476-34.018.575-.787,1.891-.011,1.306.784" transform="translate(56.666 14.538)" fill="#9ccd5a"/>
            <path id="Trazado_1065048" data-name="Trazado 1065048" d="M52.254,48.32c-2.476,12.533-1.512,25.322.3,37.86,1.474,10.188,2.971,20.316,3.747,30.587.717,9.511.84,19.557-2.625,28.592-.348.912-1.819.5-1.465-.424,3.715-9.688,3.2-20.42,2.379-30.579-.965-11.8-3.168-23.408-4.5-35.16a104.734,104.734,0,0,1,1.264-34.069c1.622-7.523,3.411-17.41,9.138-22.988a.763.763,0,0,1,1.064,1.092c-3.3,3.217-4.751,7.807-6.045,12.117-1.278,4.258-2.4,8.612-3.263,12.972" transform="translate(68.662 19.567)" fill="#9ccd5a"/>
            <path id="Trazado_1065049" data-name="Trazado 1065049" d="M120.206,17.256s.2-.023.57-.061a8.742,8.742,0,0,1,1.5-.044,8.438,8.438,0,0,1,4.838,1.762,13,13,0,0,1,4.115,6.151,17.942,17.942,0,0,1,.907,4.164,11.733,11.733,0,0,1,.021,2.091c-.008.172-.044.324-.059.483l-.093.589-.189,1.177c-.261,1.561-.479,3.182-.695,4.76-.172,1.6-.362,3.163-.422,4.709-.131,1.537-.081,3.036-.1,4.461.036,1.419.148,2.759.212,4,.148,1.228.282,2.356.4,3.354s.31,1.847.422,2.561l.4,2.226a2.591,2.591,0,1,0,5.1-.907c-.011-.061-.023-.123-.04-.182l-.03-.131s-.193-.744-.522-2.05c-.155-.653-.4-1.446-.577-2.362s-.386-1.953-.606-3.081c-.144-1.134-.343-2.366-.473-3.674-.081-1.31-.235-2.691-.221-4.137-.053-1.438.017-2.943.064-4.474.1-1.539.184-3.085.329-4.682l.1-1.189.047-.6c.013-.235.04-.477.034-.7a14.543,14.543,0,0,0-.216-2.625,20.415,20.415,0,0,0-1.4-4.72,15.261,15.261,0,0,0-5.373-6.829,10.207,10.207,0,0,0-5.968-1.7,10.915,10.915,0,0,0-1.719.176l-.564.1a.7.7,0,0,0,.2,1.378" transform="translate(131.281 13.918)" fill="#425925"/>
            <path id="Trazado_1065050" data-name="Trazado 1065050" d="M132.362,36.61s7.217-5.4,12.452-.091,2.9,34.187,8.56,46.941,10.076,11.229,8.271,14.494-14.67,4.667-29.754-13.778-13.75-46.722-8.392-49.29a7.354,7.354,0,0,1,8.863,1.724" transform="translate(131.601 30.41)" fill="#f53e30"/>
            <path id="Trazado_1065051" data-name="Trazado 1065051" d="M127.852,39.128c-3.942,3.221-5.1,8.33-2.587,11.407s7.75,2.951,11.695-.271,5.1-8.33,2.587-11.407-7.75-2.954-11.695.271" transform="translate(135.3 32.696)" fill="#ff4e4a"/>
            <path id="Trazado_1065052" data-name="Trazado 1065052" d="M141.435,73.056c-4.168-4.633-6.085-10.387-7.567-16.334-.22-.871,1.16-1.083,1.376-.218,1.427,5.725,3.257,11.206,7.268,15.671.6.668-.479,1.546-1.077.88" transform="translate(144.145 49.947)" fill="#ff7b6e"/>
            <path id="Trazado_1065053" data-name="Trazado 1065053" d="M134.436,66.154c-1.656-8.646-1.751-17.448-2.623-26.185-.089-.89,1.287-1.113,1.376-.216.874,8.735.967,17.539,2.623,26.185.168.882-1.208,1.1-1.376.216" transform="translate(142.327 34.975)" fill="#ff7b6e"/>
            <path id="Trazado_1065054" data-name="Trazado 1065054" d="M129.8,52.869c2.1,6.861,5.867,12.912,9.982,18.735.515.731-.56,1.616-1.079.882-4.183-5.916-8.044-12.079-10.179-19.055-.259-.846,1.011-1.423,1.276-.562" transform="translate(139.368 46.813)" fill="#ff7b6e"/>
            <path id="Trazado_1065055" data-name="Trazado 1065055" d="M127.009,51.485c-.608-4.374-.009-8.769-.32-13.156-.064-.888,1.312-1.115,1.376-.218.31,4.389-.288,8.786.32,13.156a.7.7,0,0,1-1.376.218" transform="translate(137.755 33.51)" fill="#ff7b6e"/>
            <path id="Trazado_1065056" data-name="Trazado 1065056" d="M124.776,41.162c-.693,18.3,4.646,43.2,24.744,49.055.863.254.371,1.556-.485,1.306-20.736-6.039-26.363-31.6-25.643-50.5.032-.9,1.418-.755,1.384.138" transform="translate(134.761 36.077)" fill="#ff7b6e"/>
            <path id="Trazado_1065057" data-name="Trazado 1065057" d="M222.587,120.126c-.377,13-26.192,58.064-69.123,75.939s-81.1-6.215-79.029-34.418,35.758-38.928,56.425-35.194,49.1-11.647,63.112-19.515,29.024-.9,28.615,13.188" transform="translate(91.041 92.519)" fill="#972266"/>
            <path id="Trazado_1065058" data-name="Trazado 1065058" d="M87.231,127.369c-5.644,9.4.458,23.431,13.627,31.338s28.422,6.7,34.066-2.7-.456-23.433-13.625-31.34-28.424-6.7-34.068,2.706" transform="translate(100.658 106.619)" fill="#b33871"/>
            <path id="Trazado_1065059" data-name="Trazado 1065059" d="M199.724,122.635c-12.63,19.04-31.95,33.259-52.324,43.1-9.27,4.482-19.165,8.54-29.552,9.011-11.29.505-22.515-2.283-33.644-3.734-.882-.117-.871-1.508.017-1.393,10.169,1.327,20.236,3.543,30.521,3.764,11,.237,21.145-3.825,30.966-8.384,20.558-9.547,40.185-24.033,52.824-43.08.494-.746,1.69-.034,1.192.715" transform="translate(99.249 108.549)" fill="#66163d"/>
            <path id="Trazado_1065060" data-name="Trazado 1065060" d="M197.694,119.89C181.72,132.211,165.5,144.494,147.1,153c-9.408,4.349-19.265,6.832-29.253,9.441-11.405,2.983-22.837,5.952-34.558,7.393-.88.106-1.228-1.242-.339-1.351,10.877-1.334,21.508-3.992,32.1-6.747,10.326-2.688,20.545-5.163,30.341-9.484,18.75-8.273,35.22-20.929,51.346-33.367.7-.539,1.673.462.96,1.011" transform="translate(98.251 105.979)" fill="#66163d"/>
            <path id="Trazado_1065061" data-name="Trazado 1065061" d="M197.686,115.449c-33.981,20.07-72.062,31.215-108.541,45.675-.821.327-1.5-.891-.668-1.221,36.477-14.467,74.561-25.606,108.541-45.673.772-.458,1.44.763.668,1.219" transform="translate(103.307 101.876)" fill="#66163d"/>
            <path id="Trazado_1065062" data-name="Trazado 1065062" d="M89.627,141.612q-4.735,1.189-9.471,2.364a.7.7,0,0,1-.337-1.349l9.469-2.364a.7.7,0,0,1,.339,1.349" transform="translate(95.466 125.183)" fill="#66163d"/>
            <path id="Trazado_1065063" data-name="Trazado 1065063" d="M195.539,113.542c-20.743,6.628-41.559,13.05-62.1,20.285-10.413,3.666-20.9,7.376-30.863,12.164a69.959,69.959,0,0,0-13.211,8.038c-3.571,2.828-6.53,6.132-10.756,8.032-.812.365-1.49-.85-.67-1.221,4.414-1.987,7.607-5.555,11.339-8.515a70.332,70.332,0,0,1,12.628-7.557c9.212-4.548,19.032-7.947,28.692-11.405,21.338-7.641,43.02-14.276,64.607-21.173.857-.274,1.189,1.079.337,1.351" transform="translate(93.907 100.113)" fill="#66163d"/>
            <path id="Trazado_1065064" data-name="Trazado 1065064" d="M201.948,108.009c-24.275,7.555-47.835,17.286-72.42,23.859-9.272,2.479-18.855,3.753-27.952,6.874-10,3.431-17.554,10.08-22.854,19.174a.7.7,0,0,1-1.194-.717A43.007,43.007,0,0,1,97.8,138.717c8.719-3.793,18.387-5.121,27.6-7.224,26.031-5.939,50.77-16.915,76.211-24.835.861-.269,1.192,1.088.339,1.351" transform="translate(93.784 95.176)" fill="#66163d"/>
            <path id="Trazado_1065065" data-name="Trazado 1065065" d="M85.247,124.192c7.073-3.676,14.689-7.866,22.829-5.245.855.274.481,1.62-.373,1.34-7.779-2.5-15.047,1.622-21.786,5.125-.795.413-1.469-.81-.67-1.221" transform="translate(100.444 105.447)" fill="#66163d"/>
            <path id="Trazado_1065066" data-name="Trazado 1065066" d="M160.06,140.077c-18.213,10.786-36.284,21.222-57.531,24.445-.88.136-1.226-1.215-.339-1.348,21.13-3.212,39.093-13.6,57.2-24.32.774-.458,1.442.763.67,1.223" transform="translate(115.426 123.858)" fill="#66163d"/>
            <path id="Trazado_1065067" data-name="Trazado 1065067" d="M109.818,147.316c-4.7.356-9.414.46-14.112.814-.9.072-.871-1.325.015-1.391,4.7-.356,9.416-.46,14.112-.816.9-.068.872,1.323-.015,1.393" transform="translate(109.51 130.255)" fill="#66163d"/>
            <path id="Trazado_1065068" data-name="Trazado 1065068" d="M109.727,151.567c10.869-4.213,20.225-10.9,29.976-17.132.757-.49,1.423.738.67,1.219-9.866,6.31-19.314,13-30.309,17.263-.835.326-1.164-1.03-.337-1.349" transform="translate(122.189 119.901)" fill="#66163d"/>
            <path id="Trazado_1065069" data-name="Trazado 1065069" d="M144.531,108.068c-5.88,1.745-7.957-4.775-7.957-4.775s2.018,3.778,11.768.547c7.773-2.574,14.507,1.6,18.381,7.167a5.453,5.453,0,0,0,.835-.278l1.206-.447c.433-.155.863-.405,1.325-.619a12.61,12.61,0,0,0,1.406-.729c.473-.273.954-.555,1.433-.837.916-.64,1.878-1.24,2.7-1.923.861-.645,1.6-1.293,2.231-1.853.643-.53,1.177-1.12,1.55-1.467.375-.365.587-.577.587-.577a1.433,1.433,0,0,1,2.175,1.849l-.471.668c-.322.432-.689,1.039-1.3,1.783-.581.748-1.272,1.62-2.063,2.477-.757.9-1.686,1.762-2.582,2.661-.485.42-.969.837-1.446,1.253a17.709,17.709,0,0,1-1.476,1.149c-.5.352-.954.732-1.446,1.02s-.954.577-1.382.835a7.789,7.789,0,0,1-.693.4c.774,3.912,2.761,19.171-11.146,27.385,0,0,6.454-13.131,4.921-18.308a40.807,40.807,0,0,1-23.647-11.5s8.984.182,14.159-5.22c0,0-3.189-2.409-9.07-.666" transform="translate(146.581 90.934)" fill="#729835"/>
            <path id="Trazado_1065070" data-name="Trazado 1065070" d="M143.548,110.327a15.235,15.235,0,0,0,13.943.223c.8-.4,1.474.82.668,1.223a16.742,16.742,0,0,1-15.327-.252c-.808-.4-.083-1.588.715-1.194" transform="translate(151.853 98.413)" fill="#9ccd5a"/>
            <path id="Trazado_1065071" data-name="Trazado 1065071" d="M142.145,109.35c4.607,1.469,10.542,1.342,14.893-.891.795-.409,1.469.812.668,1.223-4.669,2.394-10.983,2.591-15.936,1.013-.854-.273-.481-1.616.375-1.344" transform="translate(150.788 96.742)" fill="#9ccd5a"/>
            <path id="Trazado_1065072" data-name="Trazado 1065072" d="M150.944,107.97a19.13,19.13,0,0,1-5.576,2.12.7.7,0,0,1-.337-1.351,17.883,17.883,0,0,0,5.243-1.989c.77-.464,1.437.759.67,1.221" transform="translate(153.674 95.197)" fill="#9ccd5a"/>
            <path id="Trazado_1065073" data-name="Trazado 1065073" d="M154.259,110.516a21.783,21.783,0,0,1-1.507,13.387c-.371.816-1.561.091-1.194-.715a20.215,20.215,0,0,0,1.349-12.334c-.168-.88,1.181-1.221,1.351-.337" transform="translate(159.894 98.19)" fill="#9ccd5a"/>
            <path id="Trazado_1065074" data-name="Trazado 1065074" d="M151.941,108.5a11.072,11.072,0,0,0-5.557-3.6c-.854-.273-.483-1.616.375-1.338a12.359,12.359,0,0,1,6.191,3.98c.545.7-.456,1.671-1.009.961" transform="translate(154.906 92.407)" fill="#9ccd5a"/>
            <path id="Trazado_1065075" data-name="Trazado 1065075" d="M173.043,47.295c.414,4.275,4.665,7.36,9.492,6.889s8.4-4.317,7.981-8.595-4.665-7.362-9.493-6.891-8.4,4.319-7.979,8.6" transform="translate(179.105 34.502)" fill="#638c2c"/>
            <g id="Grupo_1210385" data-name="Grupo 1210385" transform="translate(352.114 76.493)" opacity="0.4">
              <g id="Grupo_1210384" data-name="Grupo 1210384">
                <g id="Grupo_1210383" data-name="Grupo 1210383" clip-path="url(#clip-path-4)">
                  <path id="Trazado_1065076" data-name="Trazado 1065076" d="M174.709,40.416a12.672,12.672,0,0,0,2.78,4.336c2.689,2.824,7.037,5.137,11.129,4.836a9.3,9.3,0,0,1-6.083,3.019c-4.826.471-9.075-2.612-9.494-6.889a7.255,7.255,0,0,1,1.667-5.3" transform="translate(-173.009 -40.416)" fill="#425925"/>
                </g>
              </g>
            </g>
            <path id="Trazado_1065077" data-name="Trazado 1065077" d="M167.327,52.108c.4,4.132,4.5,7.114,9.151,6.66s8.1-4.173,7.694-8.3-4.5-7.113-9.153-6.658-8.095,4.171-7.692,8.3" transform="translate(174.004 39.061)" fill="#b0c24a"/>
            <g id="Grupo_1210388" data-name="Grupo 1210388" transform="translate(341.303 89.976)" opacity="0.6">
              <g id="Grupo_1210387" data-name="Grupo 1210387">
                <g id="Grupo_1210386" data-name="Grupo 1210386" clip-path="url(#clip-path-5)">
                  <path id="Trazado_1065078" data-name="Trazado 1065078" d="M178.852,54.844a9.37,9.37,0,0,1-2.375.547c-4.654.456-8.75-2.527-9.153-6.658a6.6,6.6,0,0,1,0-1.192,20.524,20.524,0,0,0,11.528,7.3" transform="translate(-167.297 -47.54)" fill="#638c2c"/>
                </g>
              </g>
            </g>
            <path id="Trazado_1065079" data-name="Trazado 1065079" d="M160.428,25.955a8.937,8.937,0,1,0,11.324-5.53,8.91,8.91,0,0,0-11.324,5.53" transform="translate(167.452 17.803)" fill="#b0c24a"/>
            <g id="Grupo_1210391" data-name="Grupo 1210391" transform="translate(327.407 38.152)" opacity="0.6">
              <g id="Grupo_1210390" data-name="Grupo 1210390">
                <g id="Grupo_1210389" data-name="Grupo 1210389" clip-path="url(#clip-path-6)">
                  <path id="Trazado_1065080" data-name="Trazado 1065080" d="M166.025,37.054a8.866,8.866,0,0,1,.2-16.9c-.634,5.771,3.952,11.133,9.567,14.134a8.926,8.926,0,0,1-9.77,2.761" transform="translate(-159.955 -20.158)" fill="#638c2c"/>
                </g>
              </g>
            </g>
            <path id="Trazado_1065081" data-name="Trazado 1065081" d="M155.239,34.565A7.055,7.055,0,1,0,168.574,39.1a7.055,7.055,0,1,0-13.336-4.539" transform="translate(162.866 26.254)" fill="#638c2c"/>
            <g id="Grupo_1210394" data-name="Grupo 1210394" transform="translate(317.683 55.897)" opacity="0.4">
              <g id="Grupo_1210393" data-name="Grupo 1210393">
                <g id="Grupo_1210392" data-name="Grupo 1210392" clip-path="url(#clip-path-7)">
                  <path id="Trazado_1065082" data-name="Trazado 1065082" d="M160.48,29.535a12.917,12.917,0,0,0-.129,6.217,17,17,0,0,0,3.865,7.864,6.738,6.738,0,0,1-4.715.174,7.265,7.265,0,0,1-4.262-9.336,7.546,7.546,0,0,1,5.241-4.919" transform="translate(-154.817 -29.533)" fill="#425925"/>
                </g>
              </g>
            </g>
            <path id="Trazado_1065083" data-name="Trazado 1065083" d="M140.781,22.909A8.466,8.466,0,0,0,156.8,28.363a8.466,8.466,0,0,0-16.023-5.455" transform="translate(149.952 15.495)" fill="#638c2c"/>
            <g id="Grupo_1210397" data-name="Grupo 1210397" transform="translate(290.302 36.806)" opacity="0.7">
              <g id="Grupo_1210396" data-name="Grupo 1210396">
                <g id="Grupo_1210395" data-name="Grupo 1210395" clip-path="url(#clip-path-8)">
                  <path id="Trazado_1065084" data-name="Trazado 1065084" d="M157.142,22.717A8.051,8.051,0,0,1,156.8,26.5a8.466,8.466,0,0,1-16.023-5.455,7.778,7.778,0,0,1,.751-1.6,9.062,9.062,0,0,0,5.1,4.308,14.684,14.684,0,0,0,10.51-1.037" transform="translate(-140.35 -19.447)" fill="#42571f"/>
                </g>
              </g>
            </g>
            <path id="Trazado_1065085" data-name="Trazado 1065085" d="M149.457,26.48a7.676,7.676,0,1,0,9.721-4.743,7.649,7.649,0,0,0-9.721,4.743" transform="translate(157.718 19.034)" fill="#b0c24a"/>
            <path id="Trazado_1065086" data-name="Trazado 1065086" d="M153.6,21.672a13.959,13.959,0,0,0,2.824,9.149,11.418,11.418,0,0,0,4.955,3.9,7.685,7.685,0,0,1-11.922-8.555,7.571,7.571,0,0,1,4.143-4.5" transform="translate(157.718 19.345)" fill="#638c2c"/>
            <path id="Trazado_1065087" data-name="Trazado 1065087" d="M133.279,31.911c-1.7,5,.2,10.173,4.258,11.553s8.718-1.554,10.421-6.556-.2-10.175-4.255-11.556-8.721,1.558-10.425,6.56" transform="translate(143.083 22.325)" fill="#638c2c"/>
            <g id="Grupo_1210400" data-name="Grupo 1210400" transform="translate(275.87 57.637)" opacity="0.7">
              <g id="Grupo_1210399" data-name="Grupo 1210399" transform="translate(0)">
                <g id="Grupo_1210398" data-name="Grupo 1210398" clip-path="url(#clip-path-9)">
                  <path id="Trazado_1065088" data-name="Trazado 1065088" d="M139.321,34.57c3.4-.03,7.05-1.266,8.988-4.117a11.375,11.375,0,0,1-.413,1.6c-1.7,5-6.369,7.936-10.421,6.556a7.52,7.52,0,0,1-4.751-6.238,9.634,9.634,0,0,0,6.6,2.2" transform="translate(-132.725 -30.453)" fill="#42571f"/>
                </g>
              </g>
            </g>
            <path id="Trazado_1065089" data-name="Trazado 1065089" d="M140.9,92.1c-1.7,5,.2,10.175,4.258,11.553s8.719-1.552,10.423-6.556-.2-10.175-4.257-11.556S142.6,87.092,140.9,92.1" transform="translate(149.885 76.05)" fill="#638c2c"/>
            <g id="Grupo_1210403" data-name="Grupo 1210403" transform="translate(290.292 171.549)" opacity="0.7">
              <g id="Grupo_1210402" data-name="Grupo 1210402">
                <g id="Grupo_1210401" data-name="Grupo 1210401" clip-path="url(#clip-path-9)">
                  <path id="Trazado_1065090" data-name="Trazado 1065090" d="M146.94,94.754c3.4-.03,7.05-1.264,8.99-4.115a11.929,11.929,0,0,1-.415,1.6c-1.7,5-6.369,7.936-10.421,6.556a7.516,7.516,0,0,1-4.749-6.236,9.618,9.618,0,0,0,6.594,2.2" transform="translate(-140.344 -90.641)" fill="#42571f"/>
                </g>
              </g>
            </g>
            <path id="Trazado_1065091" data-name="Trazado 1065091" d="M141.056,32.064c-.407,4.1,2.85,7.783,7.272,8.218s8.331-2.538,8.736-6.638-2.854-7.783-7.273-8.218-8.331,2.534-8.735,6.638" transform="translate(150.551 22.659)" fill="#729835"/>
            <g id="Grupo_1210406" data-name="Grupo 1210406" transform="translate(291.574 49.082)" opacity="0.4">
              <g id="Grupo_1210405" data-name="Grupo 1210405">
                <g id="Grupo_1210404" data-name="Grupo 1210404" clip-path="url(#clip-path-11)">
                  <path id="Trazado_1065092" data-name="Trazado 1065092" d="M144.884,25.933a10.287,10.287,0,0,0,4.251,7.283,14.067,14.067,0,0,0,7.171,2.464,8.037,8.037,0,0,1-7.979,4.113c-4.419-.435-7.677-4.117-7.27-8.218a7.291,7.291,0,0,1,3.827-5.642" transform="translate(-141.021 -25.933)" fill="#425925"/>
                </g>
              </g>
            </g>
            <path id="Trazado_1065093" data-name="Trazado 1065093" d="M163.15,111.6c-.405,4.1,2.852,7.783,7.272,8.218s8.333-2.538,8.736-6.639-2.852-7.779-7.273-8.214-8.329,2.534-8.735,6.636" transform="translate(170.274 93.662)" fill="#729835"/>
            <g id="Grupo_1210409" data-name="Grupo 1210409" transform="translate(333.39 199.625)" opacity="0.4">
              <g id="Grupo_1210408" data-name="Grupo 1210408">
                <g id="Grupo_1210407" data-name="Grupo 1210407" clip-path="url(#clip-path-12)">
                  <path id="Trazado_1065094" data-name="Trazado 1065094" d="M166.977,105.474a10.293,10.293,0,0,0,4.253,7.283,14,14,0,0,0,7.171,2.46,8.026,8.026,0,0,1-7.979,4.115c-4.419-.435-7.677-4.115-7.272-8.218a7.3,7.3,0,0,1,3.827-5.64" transform="translate(-163.116 -105.474)" fill="#425925"/>
                </g>
              </g>
            </g>
            <path id="Trazado_1065095" data-name="Trazado 1065095" d="M92.38,38.824a7.674,7.674,0,1,0,9.721-4.741,7.648,7.648,0,0,0-9.721,4.741" transform="translate(106.769 30.053)" fill="#b0c24a"/>
            <path id="Trazado_1065096" data-name="Trazado 1065096" d="M96.523,34.015a13.948,13.948,0,0,0,2.824,9.145,11.416,11.416,0,0,0,4.951,3.908A7.685,7.685,0,0,1,92.38,38.512a7.563,7.563,0,0,1,4.143-4.5" transform="translate(106.769 30.363)" fill="#638c2c"/>
            <path id="Trazado_1065097" data-name="Trazado 1065097" d="M132.535,151.112a7.674,7.674,0,1,0,9.723-4.743,7.652,7.652,0,0,0-9.723,4.743" transform="translate(142.614 130.286)" fill="#b0c24a"/>
            <path id="Trazado_1065098" data-name="Trazado 1065098" d="M136.679,146.3a13.962,13.962,0,0,0,2.824,9.149,11.408,11.408,0,0,0,4.953,3.9,7.684,7.684,0,0,1-11.922-8.553,7.575,7.575,0,0,1,4.145-4.5" transform="translate(142.613 130.596)" fill="#638c2c"/>
            <path id="Trazado_1065099" data-name="Trazado 1065099" d="M75.1,33.665c-.405,4.1,2.852,7.781,7.272,8.216s8.331-2.538,8.736-6.639-2.852-7.779-7.273-8.214S75.5,29.562,75.1,33.665" transform="translate(91.675 24.089)" fill="#729835"/>
            <g id="Grupo_1210412" data-name="Grupo 1210412" transform="translate(166.739 52.112)" opacity="0.4">
              <g id="Grupo_1210411" data-name="Grupo 1210411">
                <g id="Grupo_1210410" data-name="Grupo 1210410" clip-path="url(#clip-path-13)">
                  <path id="Trazado_1065100" data-name="Trazado 1065100" d="M78.926,27.535a10.3,10.3,0,0,0,4.251,7.283,14.052,14.052,0,0,0,7.171,2.462,8.03,8.03,0,0,1-7.977,4.113c-4.421-.435-7.677-4.115-7.272-8.216a7.288,7.288,0,0,1,3.827-5.642" transform="translate(-75.064 -27.533)" fill="#425925"/>
                </g>
              </g>
            </g>
            <path id="Trazado_1065101" data-name="Trazado 1065101" d="M144.474,36.78c-1.442,4.234,1.179,8.956,5.85,10.542s9.628-.549,11.07-4.781S160.215,33.589,155.542,32s-9.628.553-11.068,4.783" transform="translate(153.279 28.093)" fill="#b0c24a"/>
            <g id="Grupo_1210415" data-name="Grupo 1210415" transform="translate(297.357 60.508)" opacity="0.6">
              <g id="Grupo_1210414" data-name="Grupo 1210414">
                <g id="Grupo_1210413" data-name="Grupo 1210413" clip-path="url(#clip-path-14)">
                  <path id="Trazado_1065102" data-name="Trazado 1065102" d="M148.364,31.97a10.51,10.51,0,0,0-.274,10.709,14.059,14.059,0,0,0,4.294,4.654,9.686,9.686,0,0,1-2.061-.456c-4.671-1.588-7.292-6.31-5.85-10.544a7.646,7.646,0,0,1,3.891-4.363" transform="translate(-144.079 -31.97)" fill="#638c2c"/>
                </g>
              </g>
            </g>
            <path id="Trazado_1065103" data-name="Trazado 1065103" d="M161.973,116.047c-1.442,4.232,1.177,8.954,5.85,10.544s9.63-.551,11.068-4.785-1.177-8.952-5.85-10.544-9.628.553-11.068,4.785" transform="translate(168.9 98.849)" fill="#b0c24a"/>
            <g id="Grupo_1210418" data-name="Grupo 1210418" transform="translate(330.477 210.53)" opacity="0.6">
              <g id="Grupo_1210417" data-name="Grupo 1210417">
                <g id="Grupo_1210416" data-name="Grupo 1210416" clip-path="url(#clip-path-15)">
                  <path id="Trazado_1065104" data-name="Trazado 1065104" d="M165.864,111.236a10.507,10.507,0,0,0-.276,10.7,14,14,0,0,0,4.294,4.658,9.781,9.781,0,0,1-2.059-.454c-4.673-1.588-7.292-6.312-5.85-10.544a7.642,7.642,0,0,1,3.891-4.364" transform="translate(-161.577 -111.236)" fill="#638c2c"/>
                </g>
              </g>
            </g>
            <path id="Trazado_1065105" data-name="Trazado 1065105" d="M154.008,151.131s13.065-39.967-30.188-65.938S62.309,64.5,47.17,97.44s106.838,53.691,106.838,53.691" transform="translate(65.613 61.358)" fill="#c82923"/>
            <path id="Trazado_1065106" data-name="Trazado 1065106" d="M138.094,80.971s-.187-.2-.543-.568c-.382-.382-.806-.886-1.6-1.626-.814-.74-1.806-1.69-2.985-2.576a20.4,20.4,0,0,0-1.929-1.419,22.465,22.465,0,0,0-2.279-1.438,23.183,23.183,0,0,0-2.644-1.367,24.753,24.753,0,0,0-3.023-1.187,31.2,31.2,0,0,0-3.378-.888,27.413,27.413,0,0,0-3.7-.392,25.081,25.081,0,0,0-7.769.9,29.839,29.839,0,0,0-7.266,3.159,18.764,18.764,0,0,0-1.628,1.06l-.795.549-.4.276-.2.136-.1.074-.314.263-2.481,2.1A50.513,50.513,0,0,0,90.06,83.4c-1.478,1.743-2.665,3.481-3.846,5.12-1.1,1.639-2.146,3.206-3.038,4.624l-4.207,6.738c-.99,1.546-1.554,2.43-1.554,2.43l-.081.127a6.751,6.751,0,1,0,11.38,7.264c.091-.142.184-.3.263-.447L90.45,106.5c.878-1.688,2.137-4.1,3.649-7,.742-1.414,1.558-2.869,2.432-4.417.9-1.474,1.826-3.091,2.892-4.552l.787-1.147c.265-.392.517-.649.776-.986l.77-.979a7.1,7.1,0,0,1,.9-1.045q1.15-1.133,2.311-2.279l.812-.655a10.8,10.8,0,0,1,1.05-.816,19.446,19.446,0,0,1,4.461-2.4,15.062,15.062,0,0,1,4.65-.929,17.052,17.052,0,0,1,2.309.047,20.539,20.539,0,0,1,2.237.407,14.923,14.923,0,0,1,2.118.644,14.668,14.668,0,0,1,1.965.82,16.488,16.488,0,0,1,1.773.935,14.653,14.653,0,0,1,1.563.971c1,.638,1.73,1.249,2.381,1.736.651.505,1.257,1.1,1.626,1.41l.585.52c1.666,1.486,7.041-4.311,5.6-5.818" transform="translate(92.754 62.018)" fill="#729835"/>
            <path id="Trazado_1065107" data-name="Trazado 1065107" d="M88.163,87.454c3.891-5.523,8.1-11.229,14.18-14.475,11.085-5.918,24.814-1.1,33,7.4a.844.844,0,0,1-1.221,1.166c-8.256-8.566-21.054-12.38-31.967-6.55-5.691,3.04-9.666,9.24-13.275,14.363C85.37,94.345,80.77,99.289,78.7,105.082c-.365,1.026-1.993.573-1.628-.45,2.26-6.337,7.247-11.725,11.087-17.178" transform="translate(93.423 62.807)" fill="#9ccd5a"/>
            <path id="Trazado_1065108" data-name="Trazado 1065108" d="M90.791,85.233c3.339-4.9,7.652-9.272,13.184-11.581,9.617-4.007,20.526,1,28.244,6.736.865.644.006,2.1-.869,1.448-8.14-6.051-18.771-10.576-28.6-5.78C90.8,81.885,88.6,96.54,79.836,105.225c-.774.767-1.94-.456-1.166-1.223,5.167-5.116,8.042-12.79,12.12-18.769" transform="translate(94.666 64.456)" fill="#9ccd5a"/>
            <path id="Trazado_1065109" data-name="Trazado 1065109" d="M106.577,75.4c-13.989,4.207-17.558,18.991-24.161,30.277a.844.844,0,0,1-1.446-.871c6.906-11.8,10.625-26.662,25.2-31.043,1.045-.316,1.45,1.325.409,1.637" transform="translate(96.837 65.812)" fill="#9ccd5a"/>
            <path id="Trazado_1065110" data-name="Trazado 1065110" d="M103.643,88.62s14.5-6.681,34.249,5.956c20.319,13,33.9,55.188-1.567,83.7s-69.051-6.624-69.706-20.5S103.643,88.62,103.643,88.62" transform="translate(84.129 77.531)" fill="#f3753b"/>
            <path id="Trazado_1065111" data-name="Trazado 1065111" d="M128.019,97.936S107.635,64.33,76.569,67.421-3.753,127.8,57.121,158.542Z" transform="translate(49.816 60.003)" fill="#f3753b"/>
            <g id="Grupo_1210421" data-name="Grupo 1210421" transform="translate(85.93 132.37)" opacity="0.7" style="mix-blend-mode: multiply;isolation: isolate">
              <g id="Grupo_1210420" data-name="Grupo 1210420">
                <g id="Grupo_1210419" data-name="Grupo 1210419" clip-path="url(#clip-path-16)">
                  <path id="Trazado_1065112" data-name="Trazado 1065112" d="M115.389,93.439c15.565,14.053,8.135,37.232.2,53.312a82.524,82.524,0,0,1-14.412,20.176c-4.59,4.826-12.236,11.867-19.521,8.9-1-.4-.553-2.035.454-1.626,7.249,2.953,14.782-5.114,19.176-9.857A79.039,79.039,0,0,0,113.725,146.7c7.928-15.465,15.567-38.436.439-52.093-.808-.729.418-1.891,1.225-1.168" transform="translate(11.125 -49.166)" fill="#ef7011"/>
                  <path id="Trazado_1065113" data-name="Trazado 1065113" d="M115.057,101.435a59.8,59.8,0,0,1,2.909,30.9c-1.486,8.875-5.356,19.549-13.691,24.116a.844.844,0,0,1-.81-1.48c8.044-4.408,11.276-14.628,12.874-23.09a56.684,56.684,0,0,0-2.92-30.038c-.377-1.022,1.266-1.419,1.639-.409" transform="translate(30.713 -42.348)" fill="#ef7011"/>
                  <path id="Trazado_1065114" data-name="Trazado 1065114" d="M78.509,69.959c1.066-.22,1.478,1.421.409,1.639C57.583,75.96,36.348,92.555,34.06,115.376c-.106,1.079-1.8,1.064-1.686-.021,2.362-23.584,23.991-40.866,46.135-45.4" transform="translate(-32.368 -69.94)" fill="#ef7011"/>
                </g>
              </g>
            </g>
            <path id="Trazado_1065115" data-name="Trazado 1065115" d="M124.31,90.463c20.651,14.462,46.092,39.632,15.561,74.51-36.961,42.225-74.943,4.438-74.943,4.438s-26.45-5.629-29.945-35.584c-3.9-33.422,25.52-88.036,89.327-43.364" transform="translate(55.59 65.718)" fill="#fd8608"/>
            <g id="Grupo_1210424" data-name="Grupo 1210424" transform="translate(109.114 169.278)" opacity="0.5">
              <g id="Grupo_1210423" data-name="Grupo 1210423">
                <g id="Grupo_1210422" data-name="Grupo 1210422" clip-path="url(#clip-path-17)">
                  <path id="Trazado_1065116" data-name="Trazado 1065116" d="M46.643,97.494c-6.683,11.131,3.713,29.65,23.223,41.366s40.739,12.179,47.422,1.047-3.71-29.652-23.217-41.366S53.328,86.359,46.643,97.494" transform="translate(-44.617 -89.44)" fill="#ffb41c"/>
                </g>
              </g>
            </g>
            <g id="Grupo_1210427" data-name="Grupo 1210427" transform="translate(106.474 155.123)" opacity="0.7" style="mix-blend-mode: multiply;isolation: isolate">
              <g id="Grupo_1210426" data-name="Grupo 1210426">
                <g id="Grupo_1210425" data-name="Grupo 1210425" clip-path="url(#clip-path-18)">
                  <path id="Trazado_1065117" data-name="Trazado 1065117" d="M106.8,88.946c-.083-1.088,1.607-1.056,1.686.023,2.424,31.492-24.892,55.583-50.729,68.279-.973.479-1.792-1-.812-1.48,25.324-12.444,52.233-35.915,49.854-66.822" transform="translate(-31.364 -76.441)" fill="#ef7011"/>
                  <path id="Trazado_1065118" data-name="Trazado 1065118" d="M91.113,81.976c1.067-.193,1.484,1.444.411,1.639-26.4,4.754-50.772,35.215-46.044,62.34.187,1.067-1.45,1.484-1.637.409-4.883-28,19.9-59.461,47.271-64.388" transform="translate(-43.223 -81.961)" fill="#ef7011"/>
                </g>
              </g>
            </g>
            <path id="Trazado_1065119" data-name="Trazado 1065119" d="M231.253,206.4s-33.189-6.337-95.126-43.519S53,99.373,53,99.373L0,227.155s17.045,21.165,66.867,51.081,76.516,35,76.516,35Z" transform="translate(24.669 88.705)" fill="#995b2a"/>
            <path id="Trazado_1065120" data-name="Trazado 1065120" d="M0,176.679s17.045,21.164,66.867,51.081,76.516,35,76.516,35l87.87-106.844s-71.96,40.251-145.225,39.931C30.031,195.6,0,176.679,0,176.679" transform="translate(24.669 139.181)" fill="#8b4e21"/>
            <path id="Trazado_1065121" data-name="Trazado 1065121" d="M112.32,173.976c64.3,38.608,99.2,45.569,100.655,45.846a8.125,8.125,0,0,0,3.045-15.963c-.312-.062-33.928-6.944-95.336-43.815S37.4,96.743,37.182,96.48a8.124,8.124,0,0,0-12.643,10.205c.929,1.153,23.476,28.681,87.781,67.291" transform="translate(44.972 83.443)" fill="#d18851"/>
            <path id="Trazado_1065122" data-name="Trazado 1065122" d="M119.261,160.044c61.409,36.871,95.024,43.752,95.336,43.813a8.127,8.127,0,0,1,6.456,9.5s-31.443-.07-106.652-45.225S24.339,95.283,24.339,95.283a8.136,8.136,0,0,1,11.42,1.2c.214.261,22.091,26.694,83.5,63.564" transform="translate(46.395 83.443)" fill="#f2a361"/>
            <path id="Trazado_1065123" data-name="Trazado 1065123" d="M39.7,134.211a134.964,134.964,0,0,0-11.163-10.283c-.541-.426.009-1.359.558-.929a137.863,137.863,0,0,1,11.39,10.466c.5.49-.29,1.238-.785.746" transform="translate(49.942 109.696)" fill="#f2a361"/>
            <path id="Trazado_1065124" data-name="Trazado 1065124" d="M38.471,130.013a39.415,39.415,0,0,0-7.478-6.7c-.556-.413-.006-1.342.558-.929a40.835,40.835,0,0,1,7.707,6.88c.435.539-.343,1.293-.787.749" transform="translate(52.128 109.153)" fill="#f2a361"/>
            <path id="Trazado_1065125" data-name="Trazado 1065125" d="M34.735,143.842c.528.45,1.315-.293.784-.748-1.709-1.455-3.4-2.935-5.087-4.414,2.39-2.383,4.639-4.9,7.035-7.277q1.275.965,2.578,1.906c-1.94,2.544-4.19,4.824-6.113,7.381-.42.556.513,1.111.929.556,1.9-2.527,4.124-4.79,6.047-7.3.9.661,1.8,1.323,2.674,2.012.547.433,1.1-.5.558-.926-4.444-3.517-9.588-6.4-12.923-11.1-.4-.562-1.353-.047-.95.522a24.311,24.311,0,0,0,2.964,3.4c-2.141,2.44-4.266,4.885-6.212,7.483a.427.427,0,0,0-.091.333c-1.327-1.117-2.663-2.214-4.035-3.272-.553-.424-1.1.509-.558.931,4.3,3.3,8.273,7,12.4,10.51m-5.121-5.873c-.717-.625-1.442-1.24-2.167-1.853a.543.543,0,0,0,.5-.22c1.9-2.544,3.988-4.927,6.079-7.313q1.241,1.124,2.568,2.16c-2.371,2.366-4.607,4.864-6.982,7.226" transform="translate(44.406 110.408)" fill="#f2a361"/>
            <path id="Trazado_1065126" data-name="Trazado 1065126" d="M23.556,131.464c3.009,2.406,5.655,5.339,9.232,6.918.638.278.072,1.208-.556.925-3.587-1.584-6.217-4.5-9.232-6.912-.539-.432.013-1.366.556-.931" transform="translate(45.003 117.25)" fill="#f2a361"/>
            <path id="Trazado_1065127" data-name="Trazado 1065127" d="M39.459,138.669c-2.281,2.739-4.207,5.746-6.588,8.4-.467.519-1.213-.269-.748-.785,2.383-2.652,4.31-5.663,6.588-8.4.447-.534,1.189.255.748.787" transform="translate(53.212 122.921)" fill="#f2a361"/>
            <path id="Trazado_1065128" data-name="Trazado 1065128" d="M37.527,137.725c-2.04,2.782-4.245,5.438-6.058,8.377a.542.542,0,0,1-.927-.558c1.811-2.937,4.018-5.595,6.058-8.375.409-.56,1.342-.006.927.556" transform="translate(51.856 122.235)" fill="#f2a361"/>
            <path id="Trazado_1065129" data-name="Trazado 1065129" d="M21.328,135.9a.542.542,0,0,1,.784-.749c1.145,1.185,2.358,2.288,3.59,3.373a.558.558,0,0,1,.267.238c1.607,1.4,3.248,2.771,4.845,4.19.522.462-.265,1.206-.784.746-.575-.509-1.162-1.011-1.745-1.512-.008,0-.008.013-.011.017a35.045,35.045,0,0,0-4.807,6.9.542.542,0,0,1-.929-.558,36.642,36.642,0,0,1,4.93-7.061q-.962-.82-1.921-1.648c-1.427,2.076-2.909,4.113-4.224,6.267a.542.542,0,0,1-.929-.556c1.351-2.211,2.877-4.3,4.342-6.433-1.168-1.037-2.32-2.088-3.407-3.21" transform="translate(42.799 120.491)" fill="#f2a361"/>
            <path id="Trazado_1065130" data-name="Trazado 1065130" d="M88.8,162.451c-3.257-1.949-6.543-3.84-8.918-6.878-.43-.551-1.209.2-.784.748a16.068,16.068,0,0,0,1.544,1.694.519.519,0,0,0-.229.2c-1.516,2.487-3.212,4.868-4.073,7.675a.543.543,0,0,0,1.045.3c.829-2.714,2.495-5.016,3.956-7.412a.359.359,0,0,0,.026-.076c.6.528,1.217,1.028,1.862,1.493a.6.6,0,0,0-.144.142c-1.586,2.426-2.869,5.027-4.34,7.521a.542.542,0,0,0,.927.558c1.471-2.494,2.754-5.1,4.342-7.519a.558.558,0,0,0,.049-.123c.721.494,1.461.967,2.212,1.423-.011.013-.025.017-.036.034a51.61,51.61,0,0,0-3.46,7.194c-.282.626.643,1.192.927.555a52.327,52.327,0,0,1,3.46-7.19.274.274,0,0,0,.017-.042c.354.21.7.422,1.056.632a.542.542,0,0,0,.558-.927" transform="translate(92.794 138.7)" fill="#f2a361"/>
            <path id="Trazado_1065131" data-name="Trazado 1065131" d="M89.2,161.379a104.745,104.745,0,0,1-9.058-6.639c-.553-.428-1.1.505-.558.931a105.9,105.9,0,0,0,9.058,6.636.541.541,0,0,0,.558-.927" transform="translate(95.507 138.03)" fill="#f2a361"/>
            <path id="Trazado_1065132" data-name="Trazado 1065132" d="M93.219,158.725c-.6,1.011-1.175,2.031-1.736,3.06a.474.474,0,0,0-.248-.42c-3.217-1.912-6.535-3.645-9.37-6.121a.6.6,0,0,0-.106-.059c.608-1.319,1.192-2.65,1.919-3.9a.542.542,0,0,0-.929-.558c-1.234,2.135-2.044,4.476-3.282,6.611a.542.542,0,0,0,.929.558c.324-.562.617-1.136.9-1.72a65.172,65.172,0,0,0,9.38,6.123.487.487,0,0,0,.551-.019,68.782,68.782,0,0,0-3.874,8.545c-.24.653.8.939,1.045.29a72,72,0,0,1,5.748-11.829.541.541,0,0,0-.927-.556" transform="translate(95.535 134.309)" fill="#f2a361"/>
            <path id="Trazado_1065133" data-name="Trazado 1065133" d="M90.346,156.13c-1.662,3.346-3.341,6.683-5.125,9.969-.333.611.594,1.17.927.558,1.787-3.284,3.464-6.624,5.127-9.969.309-.621-.617-1.183-.929-.558" transform="translate(100.677 139.126)" fill="#f2a361"/>
            <path id="Trazado_1065134" data-name="Trazado 1065134" d="M90.426,157.744c-1.026,2.018-1.959,4.075-3.108,6.028a.543.543,0,0,0,.931.558c1.147-1.951,2.08-4.01,3.1-6.03.314-.619-.613-1.179-.927-.556" transform="translate(102.543 140.567)" fill="#f2a361"/>
            <path id="Trazado_1065135" data-name="Trazado 1065135" d="M81.258,150.284c-1,1.7-1.777,3.509-2.652,5.271-.307.623.619,1.187.929.558.872-1.762,1.654-3.568,2.65-5.271a.542.542,0,0,0-.927-.558" transform="translate(94.781 133.918)" fill="#f2a361"/>
            <path id="Trazado_1065136" data-name="Trazado 1065136" d="M96.747,159.265c-3.689-1.751-7.13-3.923-10.622-6.028a.542.542,0,0,0-.558.927c3.492,2.107,6.935,4.281,10.622,6.032.625.3,1.189-.628.558-.931" transform="translate(100.822 136.713)" fill="#f2a361"/>
            <path id="Trazado_1065137" data-name="Trazado 1065137" d="M87.037,153.23c1.777,1.052,3.609,1.995,5.449,2.932.623.31,1.181-.615.558-.933-1.84-.933-3.676-1.872-5.449-2.926a.542.542,0,0,0-.558.927" transform="translate(102.131 135.881)" fill="#f2a361"/>
            <path id="Trazado_1065138" data-name="Trazado 1065138" d="M130.974,153.923A11.311,11.311,0,0,1,119.743,163c-.7-.036-.683-1.117.015-1.084a10.234,10.234,0,0,0,10.171-8.282c.123-.689,1.164-.39,1.045.291" transform="translate(131.097 136.789)" fill="#995b2a"/>
            <path id="Trazado_1065139" data-name="Trazado 1065139" d="M126.86,152.751a11.308,11.308,0,0,1-11.229,9.075c-.7-.036-.685-1.117.013-1.085a10.233,10.233,0,0,0,10.171-8.282c.123-.687,1.164-.388,1.045.291" transform="translate(127.425 135.744)" fill="#995b2a"/>
            <path id="Trazado_1065140" data-name="Trazado 1065140" d="M121.936,151.356a11.31,11.31,0,0,1-11.231,9.075c-.7-.032-.685-1.117.013-1.083a10.232,10.232,0,0,0,10.171-8.282c.123-.691,1.164-.39,1.047.29" transform="translate(123.028 134.498)" fill="#995b2a"/>
            <path id="Trazado_1065141" data-name="Trazado 1065141" d="M117.113,148.985a11.306,11.306,0,0,1-11.229,9.071c-.7-.036-.685-1.117.013-1.084a10.231,10.231,0,0,0,10.173-8.278c.121-.691,1.164-.39,1.043.291" transform="translate(118.724 132.381)" fill="#995b2a"/>
            <path id="Trazado_1065142" data-name="Trazado 1065142" d="M112.352,146.922A11.311,11.311,0,0,1,101.121,156c-.7-.034-.683-1.117.013-1.083a10.237,10.237,0,0,0,10.173-8.28c.121-.693,1.164-.39,1.045.29" transform="translate(114.474 130.54)" fill="#995b2a"/>
            <path id="Trazado_1065143" data-name="Trazado 1065143" d="M107.066,144.859a11.307,11.307,0,0,1-11.229,9.071c-.7-.032-.685-1.117.013-1.084a10.232,10.232,0,0,0,10.173-8.278c.121-.691,1.164-.39,1.043.291" transform="translate(109.756 128.698)" fill="#995b2a"/>
            <path id="Trazado_1065144" data-name="Trazado 1065144" d="M102.849,142.327A11.314,11.314,0,0,1,91.62,151.4c-.7-.038-.683-1.12.013-1.086a10.236,10.236,0,0,0,10.173-8.282c.123-.689,1.164-.39,1.043.291" transform="translate(105.993 126.438)" fill="#995b2a"/>
            <path id="Trazado_1065145" data-name="Trazado 1065145" d="M97.719,139.915a11.3,11.3,0,0,1-11.229,9.071c-.7-.03-.685-1.115.013-1.079a10.236,10.236,0,0,0,10.173-8.284c.121-.689,1.164-.39,1.043.291" transform="translate(101.412 124.285)" fill="#995b2a"/>
            <path id="Trazado_1065146" data-name="Trazado 1065146" d="M92.327,137.57A11.3,11.3,0,0,1,81.1,146.641c-.7-.03-.685-1.117.011-1.079a10.237,10.237,0,0,0,10.173-8.284c.123-.689,1.166-.39,1.045.292" transform="translate(96.599 122.192)" fill="#995b2a"/>
            <path id="Trazado_1065147" data-name="Trazado 1065147" d="M88.158,135.068a11.3,11.3,0,0,1-11.229,9.071c-.7-.032-.683-1.115.015-1.081a10.229,10.229,0,0,0,10.169-8.282c.123-.689,1.166-.39,1.045.291" transform="translate(92.879 119.958)" fill="#995b2a"/>
            <path id="Trazado_1065148" data-name="Trazado 1065148" d="M82.644,131.756a11.313,11.313,0,0,1-11.231,9.075c-.7-.036-.683-1.117.015-1.083A10.235,10.235,0,0,0,81.6,131.465c.121-.691,1.164-.39,1.045.291" transform="translate(87.955 117.001)" fill="#995b2a"/>
            <path id="Trazado_1065149" data-name="Trazado 1065149" d="M77.614,129.26a11.3,11.3,0,0,1-11.227,9.071c-.7-.032-.685-1.117.011-1.081a10.238,10.238,0,0,0,10.171-8.282c.123-.689,1.166-.392,1.045.291" transform="translate(83.467 114.774)" fill="#995b2a"/>
            <path id="Trazado_1065150" data-name="Trazado 1065150" d="M73.764,126.425A11.31,11.31,0,0,1,62.535,135.5c-.7-.036-.685-1.119.013-1.084a10.234,10.234,0,0,0,10.171-8.282c.123-.689,1.164-.39,1.045.291" transform="translate(80.029 112.243)" fill="#995b2a"/>
            <path id="Trazado_1065151" data-name="Trazado 1065151" d="M69.487,123.459a11.305,11.305,0,0,1-11.229,9.071c-.7-.032-.683-1.117.015-1.081a10.23,10.23,0,0,0,10.169-8.282c.123-.691,1.164-.392,1.045.291" transform="translate(76.213 109.594)" fill="#995b2a"/>
            <path id="Trazado_1065152" data-name="Trazado 1065152" d="M66.159,120.968a11.309,11.309,0,0,1-11.229,9.075c-.7-.034-.683-1.119.013-1.083a10.234,10.234,0,0,0,10.173-8.284c.123-.691,1.164-.388,1.043.291" transform="translate(73.242 107.372)" fill="#995b2a"/>
            <path id="Trazado_1065153" data-name="Trazado 1065153" d="M62.087,118.521A11.305,11.305,0,0,1,50.858,127.6c-.7-.034-.685-1.117.013-1.083a10.236,10.236,0,0,0,10.173-8.282c.121-.689,1.164-.39,1.043.29" transform="translate(69.606 105.189)" fill="#995b2a"/>
            <path id="Trazado_1065154" data-name="Trazado 1065154" d="M58.1,115.409a11.31,11.31,0,0,1-11.229,9.075c-.7-.036-.685-1.117.013-1.084a10.23,10.23,0,0,0,10.171-8.28c.123-.691,1.166-.39,1.045.29" transform="translate(66.047 102.41)" fill="#995b2a"/>
            <path id="Trazado_1065155" data-name="Trazado 1065155" d="M54.038,112.485a11.305,11.305,0,0,1-11.229,9.071c-.7-.034-.685-1.117.015-1.083a10.232,10.232,0,0,0,10.169-8.28c.123-.691,1.164-.39,1.045.291" transform="translate(62.421 99.799)" fill="#995b2a"/>
            <path id="Trazado_1065156" data-name="Trazado 1065156" d="M49.612,109.255a11.307,11.307,0,0,1-11.231,9.071c-.695-.034-.683-1.117.015-1.081a10.236,10.236,0,0,0,10.171-8.282c.123-.691,1.164-.39,1.045.291" transform="translate(58.47 96.916)" fill="#995b2a"/>
            <path id="Trazado_1065157" data-name="Trazado 1065157" d="M46.219,106.168a11.311,11.311,0,0,1-11.231,9.075c-.695-.036-.683-1.117.015-1.084a10.234,10.234,0,0,0,10.171-8.282c.125-.689,1.166-.39,1.045.291" transform="translate(55.441 94.161)" fill="#995b2a"/>
            <path id="Trazado_1065158" data-name="Trazado 1065158" d="M42.169,102.573a11.311,11.311,0,0,1-11.231,9.077c-.693-.038-.681-1.119.015-1.086a10.225,10.225,0,0,0,10.171-8.28c.123-.689,1.166-.39,1.045.29" transform="translate(51.827 90.954)" fill="#995b2a"/>
            <path id="Trazado_1065159" data-name="Trazado 1065159" d="M38.379,98.9a11.3,11.3,0,0,1-11.227,9.073c-.7-.032-.685-1.115.013-1.081a10.232,10.232,0,0,0,10.171-8.28c.121-.693,1.164-.392,1.043.288" transform="translate(48.444 87.673)" fill="#995b2a"/>
            <path id="Trazado_1065160" data-name="Trazado 1065160" d="M34.993,94.985a11.309,11.309,0,0,1-11.231,9.073c-.7-.034-.683-1.119.015-1.083a10.228,10.228,0,0,0,10.169-8.282c.123-.687,1.166-.388,1.047.291" transform="translate(45.42 84.18)" fill="#995b2a"/>
            <path id="Trazado_1065161" data-name="Trazado 1065161" d="M124.339,55.772s-.07-.187-.193-.538a9.465,9.465,0,0,0-.613-1.372,8.456,8.456,0,0,0-3.687-3.594,13.008,13.008,0,0,0-7.328-1.037,17.9,17.9,0,0,0-4.145.988,11.775,11.775,0,0,0-1.895.888c-.15.081-.273.178-.409.263l-.488.341-.98.679c-1.291.912-2.657,1.807-3.986,2.689-1.363.848-2.693,1.7-4.06,2.423-1.331.787-2.7,1.393-3.976,2.023-1.295.583-2.551,1.067-3.7,1.546-1.17.4-2.245.768-3.2,1.1s-1.8.522-2.485.729l-2.18.608a2.592,2.592,0,1,1-1.4-4.991c.061-.015.121-.03.182-.044l.129-.028s.755-.15,2.078-.416c.655-.144,1.472-.267,2.375-.505s1.927-.5,3.04-.789c1.086-.367,2.277-.721,3.515-1.168,1.217-.5,2.529-.958,3.823-1.6,1.321-.577,2.648-1.293,4-2,1.344-.753,2.7-1.5,4.077-2.324l1.028-.608.517-.3c.206-.11.413-.24.619-.335a14.554,14.554,0,0,1,2.459-.943,20.7,20.7,0,0,1,4.857-.791,15.3,15.3,0,0,1,8.487,1.878,10.213,10.213,0,0,1,4.118,4.641,10.643,10.643,0,0,1,.589,1.624l.153.551a.7.7,0,0,1-1.329.42" transform="translate(94.05 41.634)" fill="#61832c"/>
            <path id="Trazado_1065162" data-name="Trazado 1065162" d="M114.721,59.183s1.734-8.846-5.322-11.261S77.336,60.137,63.391,60.576,48.9,56.369,46.743,59.41,48.9,74.655,72.068,80.242s48.06-7.883,48.052-13.824a7.355,7.355,0,0,0-5.4-7.236" transform="translate(65.955 42.537)" fill="#425925"/>
            <g id="Grupo_1210430" data-name="Grupo 1210430" transform="translate(156.442 95.618)" opacity="0.5">
              <g id="Grupo_1210429" data-name="Grupo 1210429">
                <g id="Grupo_1210428" data-name="Grupo 1210428" clip-path="url(#clip-path-19)">
                  <path id="Trazado_1065163" data-name="Trazado 1065163" d="M92.855,60.283c-.848,3.526-6.715,5.137-13.1,3.594s-10.875-5.648-10.023-9.172,6.717-5.14,13.1-3.6,10.877,5.648,10.025,9.176" transform="translate(-69.624 -50.52)" fill="#638c2c"/>
                </g>
              </g>
            </g>
            <path id="Trazado_1065164" data-name="Trazado 1065164" d="M51.06,57.05c5.983,1.743,12,.975,18-.269.88-.182.475-1.514-.4-1.332-5.778,1.2-11.511,1.927-17.272.246-.865-.248-1.187,1.105-.327,1.355" transform="translate(69.797 49.481)" fill="#729835"/>
            <path id="Trazado_1065165" data-name="Trazado 1065165" d="M63.674,60.363c8.507-2.258,16.477-5.992,24.731-9,.838-.307.445-1.643-.4-1.334-8.248,3-16.222,6.738-24.729,9-.867.229-.469,1.563.4,1.332" transform="translate(80.717 44.62)" fill="#729835"/>
            <path id="Trazado_1065166" data-name="Trazado 1065166" d="M76.088,59.167C69,60.248,61.91,59.483,54.881,58.3c-.88-.151-1.217,1.2-.329,1.351,7.147,1.2,14.373,2.008,21.584.9.874-.132.844-1.527-.047-1.389" transform="translate(72.899 52.031)" fill="#729835"/>
            <path id="Trazado_1065167" data-name="Trazado 1065167" d="M74.1,60.694c4.205-1.349,7.9-3.8,11.994-5.419.827-.329.435-1.667-.4-1.336C81.606,55.563,77.9,58.01,73.7,59.361a.7.7,0,0,0,.4,1.332" transform="translate(90.033 48.101)" fill="#729835"/>
            <path id="Trazado_1065168" data-name="Trazado 1065168" d="M105.031,58.776C88.845,67.341,64.091,73.331,50.1,57.764c-.6-.67-1.561.343-.965,1,14.437,16.061,39.912,10.04,56.626,1.194.793-.422.062-1.607-.727-1.187" transform="translate(68.358 51.366)" fill="#729835"/>
          </g>
        </g>
      </g>
    </g>
  </g>
</svg>
