<svg xmlns="http://www.w3.org/2000/svg" xmlns:xlink="http://www.w3.org/1999/xlink" width="400" height="293" viewBox="0 0 400 293">
  <defs>
    <clipPath id="clip-path">
      <rect id="Rectángulo_401957" data-name="Rectángulo 401957" width="400" height="293" transform="translate(1020.051 1403)" fill="#fff" stroke="#707070" stroke-width="1"/>
    </clipPath>
    <clipPath id="clip-path-2">
      <rect id="Rectángulo_401956" data-name="Rectángulo 401956" width="455.854" height="292.97" fill="none"/>
    </clipPath>
  </defs>
  <g id="Grupo_1210587" data-name="Grupo 1210587" transform="translate(-1020.051 -1403)">
    <rect id="Rectángulo_401954" data-name="Rectángulo 401954" width="400" height="293" transform="translate(1020.051 1403)" fill="#d2e1f1"/>
    <g id="Enmascarar_grupo_1098697" data-name="Enmascarar grupo 1098697" clip-path="url(#clip-path)">
      <g id="Grupo_1210533" data-name="Grupo 1210533" transform="translate(1008.146 1403.405)">
        <path id="Trazado_1065382" data-name="Trazado 1065382" d="M19.9,270.546l3.117-61.585,83.563-49.725,28.893,11.841-9.028,71.874,1.923,18.122Z" transform="translate(1.504 12.04)" fill="#f2f7e5"/>
        <g id="Grupo_1210532" data-name="Grupo 1210532">
          <g id="Grupo_1210531" data-name="Grupo 1210531" clip-path="url(#clip-path-2)">
            <path id="Trazado_1065383" data-name="Trazado 1065383" d="M117.035,82.612l3.525,10.1a19.307,19.307,0,0,0,3.05,6.421c1.677,3.1,3.491,6.294,6.174,8.636a1.859,1.859,0,0,1,.735,1.372l-.588,3.157a43,43,0,0,0,6.753,7.489c6.478,5.426,14.159,7.657,21.854,10.636a9.659,9.659,0,0,1,.966-2.422,7.219,7.219,0,0,1,1.431-.044,10.173,10.173,0,0,1,3.016,1.991c2.267,1.729,4.51,3.515,6.888,5.091l.871.294c3.643,1.037,8.431,2.533,11.42,4.88a29.257,29.257,0,0,1,6.781,6.246l-5.074,38.79.513,21.741c.1,3.581-.1,7.472.39,11l.583,19.956h236.3a76.408,76.408,0,0,0-32.14-83.818,47.23,47.23,0,0,0-41.638-69.5c-.941,0-1.874.03-2.8.085a68.091,68.091,0,0,0,3.453-27.2q.142-1.952.144-3.941a53.576,53.576,0,0,0-99.916-26.883c-2.266-1.058-4.5-2.148-6.865-3a59.874,59.874,0,0,0-28.667-3.044,58.079,58.079,0,0,0-12.059,2.979A62.3,62.3,0,0,0,161.063,69.7l-21.426-.444-25.382,1.3.193,1.05a58.836,58.836,0,0,0,2.588,11.01" transform="translate(8.639)" fill="#f2f7e5"/>
            <path id="Trazado_1065384" data-name="Trazado 1065384" d="M442.052,223.747c-2.52.163-6.005.006-8,.01-8.241.015-17.99.457-26.063-.12a35.853,35.853,0,0,1-6.123.786l-.33-.008-2.466-.012a39.392,39.392,0,0,0-4.86-.876l-.237.35-101-.079-33.239.01c-5.381,0-12.037.322-17.244-.239a109.2,109.2,0,0,1-29.882.035c-2.714.631-8.55.328-11.7.326l-26.433.017.617,7.734,2.628,25.534,1.679,18.853H442.052Z" transform="translate(13.192 16.901)" fill="#82b457"/>
            <path id="Trazado_1065385" data-name="Trazado 1065385" d="M2.277,223.826a67.314,67.314,0,0,1-2.124-9.985A38.971,38.971,0,0,1,2.292,197.63,37.267,37.267,0,0,1,21.4,176.695c9.316-4.5,19.537-4.653,29.218-1.3A31.3,31.3,0,0,0,45.9,186.842a23.951,23.951,0,0,0,1.078,7.44l.1.642c.383,2.892,1.509,4.678,3.159,7l3.916,4.721-5.251,3.092c-.4,1.006-1.492,3.319-1.277,4.338a9.711,9.711,0,0,0-1.181,1.884l-.5.678-.145.013a2.715,2.715,0,0,0-1.331.493c-1.317.452-2.352,1.716-3.673,2.335l-.043.224-1.05-.1-.041,3.289.025,26.419-.006,10.056-37.153.054Z" transform="translate(0 13.086)" fill="#f2f7e5"/>
            <path id="Trazado_1065386" data-name="Trazado 1065386" d="M12.346,202.559l.215-.483c3.36.833,7.32,1.749,10.416,3.317l.608.329c1.028.5,3.554,1.571,4.164,2.513l.962.727a34.365,34.365,0,0,1,6.427,6.965l.752-.581a17.342,17.342,0,0,0,2.885,2.062l-.041,3.29c-.218,1.048-.046,3.518-.62,4.257L38.2,227.2l-.463.551a12.894,12.894,0,0,0-1.978-1.987,6.79,6.79,0,0,0-1.376-.042c-1.725-.055-4.684.248-6.205-.52-.3,1.02-.707,1.086-1.576,1.658a16.553,16.553,0,0,1-3.261-1.665l-.188-.126c-7-4.752-9.4-14.734-10.8-22.509" transform="translate(0.933 15.279)" fill="#2c8832"/>
            <path id="Trazado_1065387" data-name="Trazado 1065387" d="M34.453,217.317a26.279,26.279,0,0,1,1.989,6.486l.084,2.244a11.653,11.653,0,0,1-1.655-1.708c-.252-.465-.309-5.969-.417-7.022" transform="translate(2.605 16.431)" fill="#65bc57"/>
            <path id="Trazado_1065388" data-name="Trazado 1065388" d="M34.287,214.413a17.512,17.512,0,0,0,2.885,2.062l-.041,3.29c-.217,1.048-.046,3.518-.62,4.257a26.324,26.324,0,0,0-1.989-6.486l-.853-2.042-.134-.5Z" transform="translate(2.536 16.212)" fill="#f2f7e5"/>
            <path id="Trazado_1065389" data-name="Trazado 1065389" d="M12.546,202.076c3.36.833,7.32,1.749,10.416,3.317a22.882,22.882,0,0,0,.684,3.424c.325,1.656.5,3.356.722,5.03l-6.993-7.236a34.254,34.254,0,0,0-4.6-4.382Z" transform="translate(0.949 15.279)" fill="#82b457"/>
            <path id="Trazado_1065390" data-name="Trazado 1065390" d="M22.8,205.465c1.028.5,3.554,1.573,4.164,2.513-.1.879.858,2.374,1.125,3.337a81.764,81.764,0,0,1,1.83,8.307l-4.4-4.363a8.081,8.081,0,0,1-1.233-1.221,16.108,16.108,0,0,1-.331-2.789,56.864,56.864,0,0,0-1.151-5.784" transform="translate(1.724 15.535)" fill="#82b457"/>
            <path id="Trazado_1065391" data-name="Trazado 1065391" d="M27.56,208.478a34.334,34.334,0,0,1,6.427,6.965l.134.5a22.492,22.492,0,0,0,.378,2.731l.181,5.663A27.978,27.978,0,0,1,31.4,221.19a6.67,6.67,0,0,1-.953-.947c-.649-1.4-.772-3.93-1.142-5.551Z" transform="translate(2.084 15.763)" fill="#82b457"/>
            <path id="Trazado_1065392" data-name="Trazado 1065392" d="M12.346,202.525l11.113,11.237-4.583-.994a7.155,7.155,0,0,0-2.4-.393l.01.346c1.559.993,4.463,1.29,6.3,1.659a7.325,7.325,0,0,1,1.6.305,13.969,13.969,0,0,1,1.634,1.564c1.38,1.32,2.73,2.715,4.183,3.952L18.676,218.54l-.045.368a74.751,74.751,0,0,0,9.328,1.64,13.464,13.464,0,0,1,2.85.423c1.224.71,2.832,2.873,3.885,3.941-2.088.134-4.516-.259-6.518.256-.3,1.02-.707,1.086-1.576,1.658a16.553,16.553,0,0,1-3.261-1.665l-.188-.126c-7-4.752-9.4-14.734-10.8-22.509" transform="translate(0.933 15.313)" fill="#82b457"/>
            <path id="Trazado_1065393" data-name="Trazado 1065393" d="M34.71,217.256a25.408,25.408,0,0,1-6.5-14.03c-1.428-9.832,2.94-18.81,8.683-26.407l6.895,9.741A24.01,24.01,0,0,0,44.868,194l.1.642c.383,2.893,1.509,4.679,3.159,7l3.916,4.72-5.251,3.092c-.4,1.006-1.492,3.319-1.276,4.338a9.665,9.665,0,0,0-1.182,1.884l-.5.678-.146.013a2.729,2.729,0,0,0-1.331.493c-1.317.452-2.352,1.716-3.673,2.336l-.043.223-1.05-.1a17.512,17.512,0,0,1-2.885-2.062" transform="translate(2.113 13.369)" fill="#82b457"/>
            <path id="Trazado_1065394" data-name="Trazado 1065394" d="M36.644,193.787a16.438,16.438,0,0,0,.106-3.536l-.114-7.314a19.3,19.3,0,0,1,.082-4.074l.368.085a13.129,13.129,0,0,1,.293,3.942c.075,3.338-.091,6.795.275,10.11l.031.269Z" transform="translate(2.765 13.524)" fill="#2c8832"/>
            <path id="Trazado_1065395" data-name="Trazado 1065395" d="M37.628,204.116c-2.673-3.654-6.406-6.759-7.773-11.206l.29-.347c1.784,3.9,4.748,7.1,7.408,10.426l-.047-6.164a9.7,9.7,0,0,0-.017-2.078,10.727,10.727,0,0,0-1.326-1.826,34.051,34.051,0,0,1-3.132-4.946,2.372,2.372,0,0,1-.29-1.964,57.24,57.24,0,0,0,4.489,7.287l1.041-.518.348.02,4.931-7.475c-.786,2.8-2.308,4.906-3.94,7.27a12.12,12.12,0,0,0-1.392,2.023,9.291,9.291,0,0,0,.025,2.026l.071,6.007c2.423-2.872,5.079-5.758,6.487-9.3l.1.642c-.345,3.488-4.7,7.131-6.611,10l.06,8.038,6.467-7.818a16.2,16.2,0,0,1,2.458-2.611c-1.461,3.337-4.865,6.472-7.145,9.345a11.383,11.383,0,0,0-1.531,2.04c-.39,1.4-.017,4.045.018,5.563l-.042.224-1.05-.1.11-4.266a8.552,8.552,0,0,0,.044-1.709,7.751,7.751,0,0,0-1.2-1.488l-5.579-6.17c-.748-.823-2.053-1.961-2.053-3.113l.452.118,8.232,9.4Z" transform="translate(2.181 14.012)" fill="#2c8832"/>
            <path id="Trazado_1065396" data-name="Trazado 1065396" d="M44.238,193.388c.383,2.893,1.509,4.679,3.158,7l3.917,4.72L46.062,208.2c-.4,1.006-1.492,3.319-1.277,4.338a9.687,9.687,0,0,0-1.181,1.886l-.5.677-.145.013a2.733,2.733,0,0,0-1.332.493c-1.315.452-2.351,1.716-3.672,2.336-.037-1.518-.409-4.162-.018-5.564a11.333,11.333,0,0,1,1.531-2.04c2.279-2.872,5.684-6.008,7.145-9.344a16.193,16.193,0,0,0-2.458,2.609l-6.467,7.819-.06-8.039c1.914-2.867,6.264-6.51,6.61-10" transform="translate(2.845 14.622)" fill="#82b457"/>
            <path id="Trazado_1065397" data-name="Trazado 1065397" d="M46.8,199.9l3.916,4.72-5.251,3.092Z" transform="translate(3.438 15.114)" fill="#80b500"/>
            <path id="Trazado_1065398" data-name="Trazado 1065398" d="M25.6,225.234c.87-.571,1.275-.638,1.576-1.659,1.521.769,4.48.466,6.206.521a6.782,6.782,0,0,1,1.375.042,12.846,12.846,0,0,1,1.978,1.987,37.411,37.411,0,0,1-11.135-.891" transform="translate(1.935 16.905)" fill="#65bc57"/>
            <path id="Trazado_1065399" data-name="Trazado 1065399" d="M4.824,219.561c6.179-.825,13.487,1.361,18.692,4.67,7.371,5.536,13.43,13.069,14.938,22.459l.241.5.013.89a5.552,5.552,0,0,1-.906.179c-9.9-1.891-17.409-5.1-24.5-12.557a36.077,36.077,0,0,1-7.347-11.755,10.971,10.971,0,0,1-1.132-4.383" transform="translate(0.365 16.588)" fill="#046c4d"/>
            <path id="Trazado_1065400" data-name="Trazado 1065400" d="M37.459,248a66.761,66.761,0,0,0-6.168-6.489A174.854,174.854,0,0,0,16.825,228.1c-2.377-1.9-4.973-3.528-7.442-5.3,1.148.111,2.8,1.3,3.8,1.917,9.336,5.768,17.4,13.835,24.926,21.72l.242.5.013.89a5.463,5.463,0,0,1-.906.179" transform="translate(0.709 16.846)" fill="#07402e"/>
            <path id="Trazado_1065401" data-name="Trazado 1065401" d="M54.709,214.571a1.511,1.511,0,0,1,.992-.143,20.972,20.972,0,0,1-3.005,5.289c-3.2,4.036-6.806,7.223-12.126,7.83l-2.477.244c1.111-.985,1.622-2.423,2.951-3.178a4.19,4.19,0,0,0,.6-.416l-.251-.264c1.048-1.512,2.235-2.913,3.375-4.355a10.01,10.01,0,0,1,1.391-1.687,13.1,13.1,0,0,1,2.969-1.007,26.659,26.659,0,0,0,5.586-2.314" transform="translate(2.88 16.211)" fill="#63a546"/>
            <path id="Trazado_1065402" data-name="Trazado 1065402" d="M51.37,204.287l3.008,2.989.234.336,2.6,2.591a14.075,14.075,0,0,1-1.417,4.99,1.514,1.514,0,0,0-.993.143,26.617,26.617,0,0,1-5.585,2.314,13.161,13.161,0,0,0-2.97,1.007,10.01,10.01,0,0,0-1.391,1.687c-1.14,1.443-2.327,2.843-3.375,4.355l.251.264a3.968,3.968,0,0,1-.6.416c-1.328.755-1.84,2.194-2.951,3.178-.431,1.255-.4,17.311-.049,18.855l.278.318c.158.638.095.815.656,1.192l-.808.675c-.754,1.2-.227,5.78-.208,7.381l-.04,1.468-.429.243-.559-.194L36.9,257l.006-10.056-.025-26.418.041-3.29,1.05.1.043-.223c1.321-.621,2.357-1.884,3.673-2.336a2.729,2.729,0,0,1,1.331-.493l.146-.013.5-.677a9.641,9.641,0,0,1,1.182-1.886c-.216-1.019.879-3.332,1.276-4.338Z" transform="translate(2.788 15.446)" fill="#07402e"/>
            <path id="Trazado_1065403" data-name="Trazado 1065403" d="M53.922,207.378l2.6,2.591a14.054,14.054,0,0,1-1.418,4.99,1.511,1.511,0,0,0-.992.143l-8.093,2.7Z" transform="translate(3.479 15.68)" fill="#65bc57"/>
            <path id="Trazado_1065404" data-name="Trazado 1065404" d="M43.589,212.947c.205.919-.621,3.825-1.037,4.789a3.153,3.153,0,0,0-.125,1.379,10.552,10.552,0,0,0-.565,3.443,1.345,1.345,0,0,0-.691.823,13.866,13.866,0,0,1-2.534,3.235l-.48.214c-.51-.536-.251-8.781-.261-10.141l.042-.224c1.321-.62,2.357-1.884,3.673-2.335a2.712,2.712,0,0,1,1.331-.493l.146-.013Z" transform="translate(2.861 16.101)" fill="#63a546"/>
            <path id="Trazado_1065405" data-name="Trazado 1065405" d="M37.939,216.383c1.321-.621,2.357-1.884,3.673-2.336-2.2,4.2-2.634,7.841-2.975,12.487l-.479.214c-.511-.536-.251-8.781-.262-10.142Z" transform="translate(2.861 16.184)" fill="#f2f7e5"/>
            <path id="Trazado_1065406" data-name="Trazado 1065406" d="M51.014,204.287l3.008,2.989-8.3,10.5a60.109,60.109,0,0,1-4.148,5.435,10.583,10.583,0,0,1,.565-3.444,3.156,3.156,0,0,1,.126-1.379c.415-.963,1.241-3.87,1.036-4.788a9.641,9.641,0,0,1,1.182-1.886c-.216-1.019.879-3.332,1.276-4.338Z" transform="translate(3.144 15.446)" fill="#65bc57"/>
            <path id="Trazado_1065407" data-name="Trazado 1065407" d="M40.662,253.274l61.2.014-.554,20.532H2.388l-.034-20.466,37.154-.054.127,1.491.558.194.43-.243Z" transform="translate(0.178 19.15)" fill="#82b457"/>
            <path id="Trazado_1065408" data-name="Trazado 1065408" d="M300.708,41.842l.564-1.208c2.125-.115,11.044-.6,12.577.259a2.5,2.5,0,0,1,.788,2.189,2.17,2.17,0,0,1-.739,1.372c-1.168.942-10.22.5-12.378.5-.613-.442-.55-.963-.817-1.64a1.68,1.68,0,0,0,.005-1.47" transform="translate(22.736 3.054)" fill="#ffd699"/>
            <path id="Trazado_1065409" data-name="Trazado 1065409" d="M296.458,54.953c2.178.867,4.538,4.1,6.241,5.782.648.64,1.933,1.547,2.3,2.339a2.862,2.862,0,0,1-.1,2.367c-.613.569-1.007,1.024-1.933.995-1.541-.051-2.394-1.271-3.419-2.3-1.968-1.967-4.036-4.5-6.369-5.98a8.522,8.522,0,0,0,3.276-3.207" transform="translate(22.168 4.155)" fill="#ffd699"/>
            <path id="Trazado_1065410" data-name="Trazado 1065410" d="M267.109,54.947a9.594,9.594,0,0,1,3.358,2.958l-.058.481-5.338,5.34c-.9.9-1.875,2.213-3.1,2.618a2.9,2.9,0,0,1-2.006-.58,2.3,2.3,0,0,1-.824-1.6c-.177-2.223,6.258-7.377,7.964-9.216" transform="translate(19.594 4.155)" fill="#ffd699"/>
            <path id="Trazado_1065411" data-name="Trazado 1065411" d="M293.739,28.836l5.148-5.372a25.609,25.609,0,0,1,3.107-3.079,1.867,1.867,0,0,1,1.326-.46,1.909,1.909,0,0,1,1.5.713,2.665,2.665,0,0,1,.734,1.989,1.737,1.737,0,0,1-.436,1.228,31.3,31.3,0,0,1-3.128,3.232c-1.41,1.408-2.8,2.953-4.3,4.258a2.2,2.2,0,0,1-1.272.353l-.068-.417a10.562,10.562,0,0,0-2.61-2.445" transform="translate(22.21 1.507)" fill="#ffd699"/>
            <path id="Trazado_1065412" data-name="Trazado 1065412" d="M266.616,31.894l-5.137-5.1a22.781,22.781,0,0,1-2.727-2.885,2.029,2.029,0,0,1-.395-1.845,3.1,3.1,0,0,1,1.735-1.81,2.914,2.914,0,0,1,2.336.585c1.9,1.554,3.65,3.628,5.391,5.378a13.031,13.031,0,0,1,1.875,1.884,2.976,2.976,0,0,1,.07.641,8.754,8.754,0,0,1-3.148,3.148" transform="translate(19.529 1.531)" fill="#ffd699"/>
            <path id="Trazado_1065413" data-name="Trazado 1065413" d="M279.337,61.524a17.351,17.351,0,0,0,4.424.005l.587.609-.038,11.421a3.567,3.567,0,0,1-1.8,1.883,2.416,2.416,0,0,1-1.91-.38c-2.35-1.641-.6-10.472-1.223-13.39Z" transform="translate(21.12 4.652)" fill="#ffd699"/>
            <path id="Trazado_1065414" data-name="Trazado 1065414" d="M279.6,24.791l.024-.2a83.308,83.308,0,0,0,.034-9.515c0-.915-.2-2.557.281-3.332a3.809,3.809,0,0,1,.862-.867,2.958,2.958,0,0,1,2.076-.267,2.851,2.851,0,0,1,1.545,1.93,20.72,20.72,0,0,1,.109,3.907l.02,7.757-.582.592a19.835,19.835,0,0,0-4.368,0" transform="translate(21.141 0.797)" fill="#ffd699"/>
            <path id="Trazado_1065415" data-name="Trazado 1065415" d="M280.932,23.8a19.835,19.835,0,0,1,4.368,0,25.465,25.465,0,0,1,8.9,3.153,6.42,6.42,0,0,1,1.854,1.423l.087.176A10.583,10.583,0,0,1,298.75,31l.068.417c2.616,1.726,4.293,6.562,4.882,9.488a4.46,4.46,0,0,1-.041,2.1l-.024.1a1.676,1.676,0,0,1-.005,1.47c.671,3.7-1.274,8.05-3.37,11.038a9.275,9.275,0,0,1-1.442,1.7,8.522,8.522,0,0,1-3.276,3.207,21.19,21.19,0,0,1-10.469,3.866,17.4,17.4,0,0,1-4.424-.005,24.656,24.656,0,0,1-6.308-1.943,30.682,30.682,0,0,0-4.087-2.174,9.587,9.587,0,0,0-3.359-2.958c0-.558-.765-1.375-1.085-1.846a21.16,21.16,0,0,1-1.9-3.41,16.466,16.466,0,0,1-1.342-5.6,2.179,2.179,0,0,0-.587-1.091,4.16,4.16,0,0,0,.032-3.1c.7-.84.6-2.313.9-3.356a19.66,19.66,0,0,1,1.723-4.129c.526-.947,1.6-2.078,1.711-3.147a8.754,8.754,0,0,0,3.148-3.148,22.135,22.135,0,0,0,3.145-1.876,29.044,29.044,0,0,1,8.3-2.812" transform="translate(19.808 1.79)" fill="#fefefe"/>
            <path id="Trazado_1065416" data-name="Trazado 1065416" d="M296.459,37.369a15.65,15.65,0,0,0-9.158-7.757c-4.5-1.574-8.715-.34-12.834,1.628-3.6,2.8-6.457,5.774-7.073,10.55A14.451,14.451,0,0,0,270.32,52.7a16.962,16.962,0,0,0,10.344,6,15.709,15.709,0,0,0,11.911-3.365c1.037-.845,3.106-2.693,3.367-3.989a1.436,1.436,0,0,0,.005-.372,3.366,3.366,0,0,0,1.1-1.764,14.873,14.873,0,0,0-.584-11.835M271.4,37.083a13.185,13.185,0,0,0-.4,1.376,13.185,13.185,0,0,1,.4-1.376m7.3,16.662A13.263,13.263,0,0,1,274.94,51.4c-.147-.13-.294-.265-.437-.4.143.138.289.272.437.4a13.263,13.263,0,0,0,3.767,2.343,14.048,14.048,0,0,0,1.37.478,14.048,14.048,0,0,1-1.37-.478m8.56.9q-.653.084-1.328.133-.76.056-1.509.054.749,0,1.509-.054.674-.05,1.328-.133t1.286-.205q-.632.123-1.286.205" transform="translate(20.208 2.185)" fill="#fead33"/>
            <path id="Trazado_1065417" data-name="Trazado 1065417" d="M217.487,254.248a20.584,20.584,0,0,0-1.519-4.212,43.33,43.33,0,0,0-3.566-4.5c-.941-1.209-2.441-3.077-2.167-4.7a2.906,2.906,0,0,1,1.489-2.175,2.837,2.837,0,0,1,2.091.266,4.006,4.006,0,0,1,1.468,2.272c1.435,4.134,1.779,8.707,2.744,12.977Z" transform="translate(15.894 18.04)" fill="#63a546"/>
            <path id="Trazado_1065418" data-name="Trazado 1065418" d="M218.58,254.348l.015-.143c.478-4.7-3.118-20.181.239-23.035a3.016,3.016,0,0,1,2.069-.683,3.47,3.47,0,0,1,2.467,1.19c1.452,1.825,1.292,4.7.929,6.868-.654,3.9-2.589,7.6-3.874,11.32-.585,1.693-.841,3.47-1.4,5.156l-.279-.081Z" transform="translate(16.437 17.427)" fill="#63a546"/>
            <rect id="Rectángulo_401955" data-name="Rectángulo 401955" width="263.758" height="35.88" transform="translate(192.097 236.7)" fill="#a6d0cd"/>
            <path id="Trazado_1065419" data-name="Trazado 1065419" d="M119.157,54a46.619,46.619,0,0,1,4.718-6.987c6.3-7.455,14.6-12.146,24.406-12.958,9.283-.769,17.966,2.481,24.992,8.439,3.15,3.021,6.813,7.053,8.353,11.229Z" transform="translate(9.01 2.567)" fill="#cb7a00"/>
            <path id="Trazado_1065420" data-name="Trazado 1065420" d="M121.638,52.611l62.468-.276,2.65,7.289.312.514c11.441,2.09,22.416,3.629,31.919,10.965l-.191.356c-2.171-1.025-5.567-1.177-7.968-1.536L181.077,66.7a55.163,55.163,0,0,0-7.529-.487l-31.87-.661-24.955,1.277a183.71,183.71,0,0,0-20.139,2.319c-3.394.558-6.922,1.048-10.245,1.923,1.569-1.666,4.088-2.865,6.155-3.825A77.444,77.444,0,0,1,110,61.8a61.708,61.708,0,0,1,8.179-1.262Z" transform="translate(6.528 3.957)" fill="#cb7a00"/>
            <path id="Trazado_1065421" data-name="Trazado 1065421" d="M119.4,52.611l62.468-.276,2.65,7.289-.454.435a273.288,273.288,0,0,0-32.555-1.338c-11.918.094-23.714.578-35.57,1.82Z" transform="translate(8.766 3.957)" fill="#663d00"/>
            <path id="Trazado_1065422" data-name="Trazado 1065422" d="M70.787,221.977l.362.279,3.716,3.562c-6.661,10.763-16.391,18.541-28.835,21.461-2.628.616-5.229.6-7.869.981l.807-.674c-.56-.378-.5-.555-.655-1.192l.058-.356a11.833,11.833,0,0,0,2.1-2.122l3.847-4A89.124,89.124,0,0,1,63.4,225.263a28.952,28.952,0,0,1,7.385-3.286" transform="translate(2.885 16.784)" fill="#046c4d"/>
            <path id="Trazado_1065423" data-name="Trazado 1065423" d="M70.777,221.977l.362.279c-9.989,3.949-18.672,11.834-26.221,19.261-2.007,1.975-3.892,4.173-5.96,6.069-.56-.378-.5-.555-.655-1.192l.058-.356a11.833,11.833,0,0,0,2.1-2.122l3.847-4a89.124,89.124,0,0,1,19.08-14.654,28.952,28.952,0,0,1,7.385-3.286" transform="translate(2.896 16.784)" fill="#07402e"/>
            <path id="Trazado_1065424" data-name="Trazado 1065424" d="M67.616,219.151l3.157,3.04a28.979,28.979,0,0,0-7.384,3.285,89.135,89.135,0,0,0-19.081,14.655l-3.846,4a11.9,11.9,0,0,1-2.1,2.122,43.271,43.271,0,0,1,8.276-15.762c4.813-5.715,13.455-10.7,20.982-11.338" transform="translate(2.9 16.57)" fill="#046c4d"/>
            <path id="Trazado_1065425" data-name="Trazado 1065425" d="M86.365,70.055c3.324-.876,6.852-1.365,10.244-1.923a183.771,183.771,0,0,1,20.139-2.319l.189,1.033a57.852,57.852,0,0,0,2.545,10.825,113.2,113.2,0,0,1-16.8-2.6c-5.591-1.15-11.488-2.314-16.7-4.682Z" transform="translate(6.501 4.976)" fill="#985c00"/>
            <path id="Trazado_1065426" data-name="Trazado 1065426" d="M130.659,119.632a6.575,6.575,0,0,0,1.76-.2l3.015-15.453a42.359,42.359,0,0,0,6.641,7.364c6.37,5.336,13.921,7.529,21.487,10.457a9.433,9.433,0,0,1,.95-2.381,7.059,7.059,0,0,1,1.407-.043,10.007,10.007,0,0,1,2.964,1.957c2.231,1.7,4.435,3.457,6.772,5.007l.857.288c3.582,1.019,8.29,2.49,11.229,4.8a28.779,28.779,0,0,1,6.667,6.142L189.419,175.7l.5,21.377a103.062,103.062,0,0,0,.383,10.816l.595,20.355.29,8.437,1.232,27.855.787,20.568H98.262l.554-20.532.41-10.885a16.708,16.708,0,0,0-2.391-2.523l-4.909-5.047-.544-.133-2.506,2.121-3.159-3.081L84.54,243.97l-10.015-9.231-3.715-3.561-.364-.279-3.157-3.04L56.772,217.787l-2.6-2.591-.234-.336-3.007-2.989-3.917-4.72c-1.649-2.325-2.775-4.11-3.158-7l-.1-.642a23.977,23.977,0,0,1-1.077-7.44,31.311,31.311,0,0,1,4.718-11.445l7.46-8.961,15-15.784c6.777-6.972,13.413-14.235,21.569-19.626a68.024,68.024,0,0,1,13.63-6.633c4.842-1.437,8.96-2.855,14.083-3.107l.122.005a3.877,3.877,0,0,0,2.6-.62,45.643,45.643,0,0,1,8.793-6.265" transform="translate(3.227 7.862)" fill="#425a4d"/>
            <path id="Trazado_1065427" data-name="Trazado 1065427" d="M177.543,129.492a28.779,28.779,0,0,1,6.667,6.142l-4.988,38.138Z" transform="translate(13.424 9.791)" fill="#fec266"/>
            <path id="Trazado_1065428" data-name="Trazado 1065428" d="M116.491,124.355c3.422,4.258,6.135,9.107,9.085,13.7,1.153,1.794,2.848,5.332,4.806,6.285a4.218,4.218,0,0,0,.848.005,13.236,13.236,0,0,0,3.141-2.03l7.1-5.066a11.476,11.476,0,0,1,2.873-1.9l-.056,34.5-22.824-.112c-1.189-15.206-2.758-30.221-7.692-44.758l.122.005a3.879,3.879,0,0,0,2.6-.621" transform="translate(8.602 9.403)" fill="#fec266"/>
            <path id="Trazado_1065429" data-name="Trazado 1065429" d="M168.135,124.764l.857.289-.081,44.663-26,.01-.774.085.056-34.5.515-.748.709-.608c2.505,1.015,5.167,3.505,7.267,5.233a40.085,40.085,0,0,1,4.7,4.121l.116.444a2.032,2.032,0,0,0,1.153.666c.943-.409,1.4-1.523,1.87-2.379l3.065-5.666Z" transform="translate(10.747 9.433)" fill="#fec266"/>
            <path id="Trazado_1065430" data-name="Trazado 1065430" d="M144.576,160.376c.791-.026,1.869-.156,2.464.471a2.425,2.425,0,0,1,.7,2.024c-.071.859-.776,1.372-1.38,1.9a3.093,3.093,0,0,1-2.249-.565,2.342,2.342,0,0,1-.819-1.98c.033-.738.788-1.356,1.279-1.847" transform="translate(10.835 12.124)" fill="#e4e1c9"/>
            <path id="Trazado_1065431" data-name="Trazado 1065431" d="M144.846,148.784l.473.015a2.571,2.571,0,0,1,1.855.768,2.671,2.671,0,0,1,.535,2.225c-.127.682-.9,1.206-1.418,1.612a3.765,3.765,0,0,1-2.2-.612,2.753,2.753,0,0,1-.759-2.156c.174-.854.882-1.324,1.514-1.853" transform="translate(10.837 11.25)" fill="#e4e1c9"/>
            <path id="Trazado_1065432" data-name="Trazado 1065432" d="M142.708,133.92l.709-.607c2.505,1.015,5.167,3.5,7.267,5.232a39.993,39.993,0,0,1,4.7,4.122l.116.443-6.747-4.928-.469.193a8.219,8.219,0,0,1-.159,1.489c-.46.919-.937,1.967-1.992,2.313a2.022,2.022,0,0,1-1.547-.106l-.979-1.121-.495.2-.2,27.927-.774.085.056-34.5Z" transform="translate(10.747 10.08)" fill="#fead33"/>
            <path id="Trazado_1065433" data-name="Trazado 1065433" d="M143,138.405l.011-4.386,5.68,4.109-.469.193a8.126,8.126,0,0,1-.16,1.489,2.909,2.909,0,0,0-1.271-1.9,2.185,2.185,0,0,0-1.988-.039,3.175,3.175,0,0,0-1.376,1.4,3.374,3.374,0,0,0,.118,1.617l-.5.2Z" transform="translate(10.812 10.133)" fill="#fb8f14"/>
            <path id="Trazado_1065434" data-name="Trazado 1065434" d="M143.516,140.639a3.383,3.383,0,0,1-.118-1.616,3.172,3.172,0,0,1,1.376-1.4,2.185,2.185,0,0,1,1.988.039,2.9,2.9,0,0,1,1.271,1.9c-.459.919-.936,1.967-1.991,2.313a2.022,2.022,0,0,1-1.547-.106Z" transform="translate(10.837 10.389)" fill="#e4e1c9"/>
            <path id="Trazado_1065435" data-name="Trazado 1065435" d="M125.092,119.632a6.575,6.575,0,0,0,1.76-.2l3.015-15.453a42.359,42.359,0,0,0,6.641,7.364c6.37,5.336,13.921,7.529,21.487,10.457a9.433,9.433,0,0,1,.95-2.381,7.059,7.059,0,0,1,1.407-.043,10.007,10.007,0,0,1,2.964,1.957c2.231,1.7,4.435,3.457,6.772,5.007l-6.546,11.613-3.065,5.666c-.474.856-.927,1.971-1.87,2.379a2.037,2.037,0,0,1-1.152-.667l-.117-.443a40.093,40.093,0,0,0-4.7-4.122c-2.1-1.726-4.762-4.216-7.267-5.232l-.708.607-.516.748a11.48,11.48,0,0,0-2.873,1.9l-7.1,5.065a13.219,13.219,0,0,1-3.141,2.031,4.208,4.208,0,0,1-.846-.005c-1.958-.954-3.654-4.491-4.807-6.285-2.948-4.591-5.664-9.44-9.085-13.7a45.643,45.643,0,0,1,8.793-6.265" transform="translate(8.793 7.862)" fill="#fe9900"/>
            <path id="Trazado_1065436" data-name="Trazado 1065436" d="M124.474,119.632a6.575,6.575,0,0,0,1.76-.2l3.015-15.453a42.359,42.359,0,0,0,6.641,7.364c6.37,5.336,13.921,7.529,21.487,10.457l-12.686,13.532-13.3-11.279c-1.312-1.114-3.474-3.529-5.045-4.158a9.716,9.716,0,0,0-1.869-.26" transform="translate(9.412 7.862)" fill="#e7a26f"/>
            <path id="Trazado_1065437" data-name="Trazado 1065437" d="M103.1,225.432c.906,1.023,2.541,2.456,3.126,3.637,1.323-.311,3.239.416,4.555.712l6.805,1.2c5.287.683,10.652.951,15.975,1.162a211.41,211.41,0,0,0,54.166-4.646l1.232,27.856.787,20.568H94.8l.554-20.532.409-10.885a16.563,16.563,0,0,0-2.392-2.523l-4.908-5.048c1.553-.113,12.809-9.813,14.638-11.5" transform="translate(6.689 17.045)" fill="#1d4e52"/>
            <path id="Trazado_1065438" data-name="Trazado 1065438" d="M148.546,274.612l3.262-27.935,8.061-2.589a24.407,24.407,0,0,1,4.931-1.29l-11.534,5.547,1.086,26.266Z" transform="translate(11.232 18.358)" fill="#073535"/>
            <path id="Trazado_1065439" data-name="Trazado 1065439" d="M103.1,225.432c.906,1.023,2.541,2.456,3.126,3.637l.1.12c.873.951,3.1,1.185,4.334,1.628l7.54,3.121c1.831.679,3.876,1.027,5.654,1.8a2.828,2.828,0,0,1,1.036.866l-.053.779a4.315,4.315,0,0,1-3.581.567l-3.15-.628-.12.241c-2.119,4.1-8.83,7.432-12.8,9.7a24.679,24.679,0,0,1-4.285,2.3l-.343.068-4.8-5.126a16.563,16.563,0,0,0-2.392-2.523l-4.908-5.048c1.553-.113,12.809-9.813,14.638-11.5" transform="translate(6.689 17.045)" fill="#e7a26f"/>
            <path id="Trazado_1065440" data-name="Trazado 1065440" d="M54.854,169.858,69.86,154.075c6.776-6.972,13.412-14.235,21.568-19.626a68,68,0,0,1,13.631-6.633c4.082,10.842,4.853,22.35,5.752,33.8.58,7.378,1.235,15.434.5,22.789a40.5,40.5,0,0,1-3.192,12.485c-1.672,3.712-3.839,6.91-7.448,8.976l1.6,19.757.273.477,2.057,1.959,3.206,3.467c-.246.63-.721.876-1.241,1.292-1.829,1.692-13.085,11.392-14.639,11.5l-.544-.133-2.506,2.121-3.157-3.081-1.179-1.058-10.014-9.231-3.716-3.561-.362-.279-3.158-3.04L56.771,215.985l-2.6-2.591-.234-.336-3.007-2.989-3.916-4.72c-1.65-2.324-2.776-4.11-3.159-7l-.1-.642a23.946,23.946,0,0,1-1.078-7.44,31.313,31.313,0,0,1,4.719-11.445Z" transform="translate(3.227 9.664)" fill="#fec266"/>
            <path id="Trazado_1065441" data-name="Trazado 1065441" d="M94.027,174.089c.642-1.412,2.836-2.746,4.051-3.806,2.017-1.76,3.911-3.707,6-5.376l-4.343,15.878c-.561,2.345-2.473,13.367-3.465,14.562Z" transform="translate(7.109 12.469)" fill="#fead33"/>
            <path id="Trazado_1065442" data-name="Trazado 1065442" d="M99.6,219.188l2.057,1.958,3.206,3.468c-.246.63-.721.876-1.242,1.291C101.793,227.6,90.536,237.3,88.983,237.41l-.544-.133L85.932,239.4l-3.157-3.081L81.6,235.259a161.926,161.926,0,0,1,12.238-11c1.9-1.611,4.2-3.131,5.765-5.068" transform="translate(6.17 16.573)" fill="#fec266"/>
            <path id="Trazado_1065443" data-name="Trazado 1065443" d="M99.6,219.188l2.057,1.958L82.775,236.317,81.6,235.259a161.926,161.926,0,0,1,12.238-11c1.9-1.611,4.2-3.131,5.765-5.068" transform="translate(6.17 16.573)" fill="#fead33"/>
            <path id="Trazado_1065444" data-name="Trazado 1065444" d="M99.931,222.17c-2.882-2.458-5.462-5.9-7.982-8.745l-18.341-20.4,14.256-12.787,5.021-4.591a12.167,12.167,0,0,1,2.687-2.206L97.814,194.7l.521,7.711Z" transform="translate(5.566 13.114)" fill="#f2f7e5"/>
            <path id="Trazado_1065445" data-name="Trazado 1065445" d="M262.915,44.1l.172.808-.257.232c-2.452.015-10.512.684-12.308-.5a1.931,1.931,0,0,1-.9-1.32,2.066,2.066,0,0,1,.233-1.784,3.3,3.3,0,0,1,1.282-.871,12.882,12.882,0,0,1,3.542-.151l8.15.006.117.482a4.155,4.155,0,0,1-.032,3.1" transform="translate(18.867 3.059)" fill="#ffd699"/>
            <path id="Trazado_1065446" data-name="Trazado 1065446" d="M174.42,65.694l29.752,3.218c2.4.36,5.8.512,7.967,1.536l-27.822,6.3c-3.007.532-6.564,1.378-9.6,1.269l-.341-.34a29.538,29.538,0,0,0,.03-3.917Z" transform="translate(13.185 4.967)" fill="#985c00"/>
            <path id="Trazado_1065447" data-name="Trazado 1065447" d="M139.541,64.626l31.87.661a55.135,55.135,0,0,1,7.528.487l-.016,8.062a29.541,29.541,0,0,1-.03,3.917l.342.34c-.717,1.261-.408,3.491-.427,5l-.068,13.053c0,2.763.35,6.091-.444,8.743a13.815,13.815,0,0,1-6.468,8.17c-4.029,2.216-9.463,2.129-13.959,2.272a46.878,46.878,0,0,1-.067,6.977l1.27.086a9.51,9.51,0,0,0-.949,2.381c-7.566-2.928-15.118-5.121-21.487-10.457a42.266,42.266,0,0,1-6.64-7.364l.579-3.1a1.827,1.827,0,0,0-.722-1.349c-2.637-2.3-4.422-5.442-6.071-8.491a18.989,18.989,0,0,1-3-6.314l-3.465-9.933a57.863,57.863,0,0,1-2.545-10.826l-.189-1.032Z" transform="translate(8.664 4.886)" fill="#e7a26f"/>
            <path id="Trazado_1065448" data-name="Trazado 1065448" d="M123.137,91.942a24.318,24.318,0,0,0,4.784,2.05c.326,2.012,1.264,4.486,1.286,6.441-2.637-2.3-4.422-5.442-6.071-8.491" transform="translate(9.31 6.952)" fill="#331f00"/>
            <path id="Trazado_1065449" data-name="Trazado 1065449" d="M144.66,82.144a2.878,2.878,0,0,1,1.948.45,2.664,2.664,0,0,1,.837,1.9,3.645,3.645,0,0,1-1.194,3.1L145,87.6a2.6,2.6,0,0,1-1.371-1.722,4.437,4.437,0,0,1,1.033-3.739" transform="translate(10.853 6.211)" fill="#07402e"/>
            <path id="Trazado_1065450" data-name="Trazado 1065450" d="M166.935,81.874a2.845,2.845,0,0,1,1.693,1.272A4.324,4.324,0,0,1,168.885,86c-.26.942-.957,1.276-1.718,1.754a3.82,3.82,0,0,1-1.621-.976,4.307,4.307,0,0,1-.428-3.022c.229-.911,1.077-1.41,1.817-1.884" transform="translate(12.476 6.191)" fill="#07402e"/>
            <path id="Trazado_1065451" data-name="Trazado 1065451" d="M148.323,75.283h.746c.772.732.878.748.914,1.874-.9.816-2.082.771-3.27.986l-3.908.895-.743-.006a2.391,2.391,0,0,1-.877-1.616l.077-.115c.944-1.3,5.445-1.712,7.059-2.017" transform="translate(10.675 5.692)" fill="#07402e"/>
            <path id="Trazado_1065452" data-name="Trazado 1065452" d="M126.111,83.178c1.107-.042,2.459-.23,3.331.585.737.687.6,1.239.577,2.144-.642.675-.714.842-1.683.952-.336-.736.438-.813.664-1.6a2.339,2.339,0,0,0-1.68-.912,2.671,2.671,0,0,0-2.167.783c-.3.642-.587.981-.449,1.709a10.806,10.806,0,0,1,4.379,1.339l.242.142a1.974,1.974,0,0,1,.36.642,1.806,1.806,0,0,1-.14,1.478,3.453,3.453,0,0,1-2.506,1.54l-.516-.361.089-.389a15.454,15.454,0,0,0,1.724-1.292v-.6c-1.291-.871-3.674-.646-4.526-1.483l.355-.78a6.169,6.169,0,0,1-.5-1.167,4.541,4.541,0,0,1,2.451-2.729" transform="translate(9.35 6.285)" fill="#bc8558"/>
            <path id="Trazado_1065453" data-name="Trazado 1065453" d="M163.425,75.36l.744.006c1.729.051,6.692.556,7.842,1.783.423,1.016.293,1.165-.04,2.162l-4.786-.885c-1.187-.184-3.033-.136-3.942-.976a2.692,2.692,0,0,1,.182-2.091" transform="translate(12.332 5.698)" fill="#07402e"/>
            <path id="Trazado_1065454" data-name="Trazado 1065454" d="M157.767,82.745l.988.207c.673,1,.142,4.366.294,5.757.272,2.5,2.775,5.018,2.763,7.477-1.557,1.335-6.509.788-8.572.771a2.906,2.906,0,0,1-1.1-.22l-.062-.525a5.418,5.418,0,0,1,2.931-.337l5.608-.118c-.9-2.414-2.446-4.812-2.839-7.373a35.223,35.223,0,0,1-.01-5.637" transform="translate(11.499 6.256)" fill="#bc8558"/>
            <path id="Trazado_1065455" data-name="Trazado 1065455" d="M152.09,99.914c1.69.134,3.419.305,5.116.3,1.429-.006,3.524-.508,4.807-.018a7.116,7.116,0,0,1-1.393,2.656c-1.242.982-2.406,1.791-4.069,1.609a5.3,5.3,0,0,1-3.377-1.881,3.725,3.725,0,0,1-1.083-2.663" transform="translate(11.499 7.555)" fill="#fefefe"/>
            <path id="Trazado_1065456" data-name="Trazado 1065456" d="M129.493,101.09c1.09.48,2.179,2.507,3.043,3.471a24.679,24.679,0,0,0,14.678,8.018,51.562,51.562,0,0,0,9.373.127c.013,2.119-.288,4.794.132,6.841l1.271.087a9.478,9.478,0,0,0-.949,2.381c-7.566-2.929-15.118-5.122-21.487-10.457a42.3,42.3,0,0,1-6.64-7.364Z" transform="translate(9.747 7.643)" fill="#bc8558"/>
            <path id="Trazado_1065457" data-name="Trazado 1065457" d="M137.836,64.626l31.87.661a55.135,55.135,0,0,1,7.528.487l-.016,8.062a29.541,29.541,0,0,1-.03,3.917l-.226-1.967c-1.149-.885-3.065-1.247-4.448-1.681a146.563,146.563,0,0,0-29.169-5.7,35.35,35.35,0,0,0-6.177-.458l-.03-.184a20.859,20.859,0,0,0,.7-3.142" transform="translate(10.369 4.886)" fill="#bc8558"/>
            <path id="Trazado_1065458" data-name="Trazado 1065458" d="M139.541,64.626a20.859,20.859,0,0,1-.7,3.142l.03.184a40.7,40.7,0,0,1-7.448,14.2c-1.834-.813-3.558-1.4-5.545-.636a7.977,7.977,0,0,0-4.337,4.34,15.294,15.294,0,0,1-.76,1.841l-3.465-9.933a57.863,57.863,0,0,1-2.545-10.826l-.189-1.032Z" transform="translate(8.664 4.886)" fill="#331f00"/>
            <path id="Trazado_1065459" data-name="Trazado 1065459" d="M179.1,173.34l4.989-38.138c3.368,5.468,5.746,11.97,8.434,17.814l16.4,36.153,22.264-21.811,4.279-4.233c.466-.463,1.033-1.226,1.66-1.4l.564.336L255.6,173.857l-.051.567c0,1.365-2.636,3.879-3.559,4.967L254.5,181.1,229.225,210.1l-6.217,7.239a40.682,40.682,0,0,1-3.773,4.25,21.341,21.341,0,0,1-20.774,3.922c-1.272.688-4.008.358-5.482.356l-12.392.018-.595-20.355a102.784,102.784,0,0,1-.383-10.816Z" transform="translate(13.542 10.223)" fill="#fead33"/>
            <path id="Trazado_1065460" data-name="Trazado 1065460" d="M228.093,166.253c1.981.441,4.022,2.182,5.777,3.221l12.99,7.717a3.076,3.076,0,0,1-.351,1.9l-.475-.1c-1.823-.507-3.859-2.049-5.5-3.028l-8.871-5.282c-1.2-.7-3.386-1.71-4.08-2.932Z" transform="translate(17.208 12.57)" fill="#4e2e22"/>
            <path id="Trazado_1065461" data-name="Trazado 1065461" d="M179.929,200.589c3.857,5.265,6.886,11.834,11.864,16.133a24.626,24.626,0,0,0,6.605,3.847c-1.272.688-4.009.358-5.483.356l-12.391.018Z" transform="translate(13.605 15.167)" fill="#f2f7e5"/>
            <path id="Trazado_1065462" data-name="Trazado 1065462" d="M237.4,163.477c-3.143,0-12.267.788-14.586-1.071a4.8,4.8,0,0,1-1.873-3.463c-.356-4.422-.042-9.076-.029-13.521l.038-26.371.025-23.072a106.293,106.293,0,0,1,.053-10.686,4.542,4.542,0,0,1,1.064-2.145,3.775,3.775,0,0,1,2.943-1.232l46.475.011,18.593.017c2.914,0,5.986-.2,8.88.014a3.525,3.525,0,0,1,1.834.688l.157.1a5.048,5.048,0,0,1,2.144,3.316c.4,2.229.111,4.975.117,7.253l.031,16.468.035,32.049c0,5.479.262,11.122-.046,16.587a5.974,5.974,0,0,1-1.183,3.032,4.85,4.85,0,0,1-3.189,2.009,40.827,40.827,0,0,1-5.458.046l-15.094.026c-.9,1.13-4.562,2.158-5.984,2.765l-13.7,6.057a25.018,25.018,0,0,0-4.378,1.932c-.85.612-.756,3.224-1.86,4.167l.049-.567L234.537,166.1c1.24-.253,2.037-1.666,2.859-2.622" transform="translate(16.692 6.189)" fill="#1d4e52"/>
            <path id="Trazado_1065463" data-name="Trazado 1065463" d="M236.428,157.74l40.93.059c-.9,1.13-4.562,2.158-5.984,2.765l-13.7,6.057a25.018,25.018,0,0,0-4.378,1.932c-.85.612-.756,3.224-1.86,4.167l.049-.567-17.913-11.791c1.24-.253,2.037-1.666,2.859-2.622" transform="translate(17.66 11.927)" fill="#bc8558"/>
            <path id="Trazado_1065464" data-name="Trazado 1065464" d="M222.955,99.5c0-2.306-.5-13.359.581-14.531a2.363,2.363,0,0,1,1.325-.781,34.092,34.092,0,0,1,4.248-.042l8.533-.025,30.248-.041,20.24.06c3.169,0,6.871-.387,9.987.024a3.006,3.006,0,0,1,1.58.839,3.3,3.3,0,0,1,.812,1.412,21.506,21.506,0,0,1,.181,4.549c.026,2.548.24,5.332.017,7.854a2.735,2.735,0,0,1-.286.915l-.262-.3Z" transform="translate(16.849 6.35)" fill="#4eb875"/>
            <path id="Trazado_1065465" data-name="Trazado 1065465" d="M244.424,88.729l33,.02a2.788,2.788,0,0,1,1.218,1.665,2,2,0,0,1-1.163,1.71,1.466,1.466,0,0,1-.315.233,7.675,7.675,0,0,1-1.7.008l-4.841.012-18.147,0c-2.3,0-5.2.326-7.431-.049-.736-.123-.882-.453-1.311-1.009a3.373,3.373,0,0,1,.683-2.594" transform="translate(18.429 6.709)" fill="#f2f7e5"/>
            <path id="Trazado_1065466" data-name="Trazado 1065466" d="M222.953,98.417l77.2-.071.262.3a2.283,2.283,0,0,1,.339,1.17l-.061,34.055,0,14.976c0,2.721.146,5.55-.073,8.261a2.957,2.957,0,0,1-.838,2.093,2.292,2.292,0,0,1-1.693.689l-47.687.012-16.831-.01c-2.64,0-5.475.2-8.093-.027a2.612,2.612,0,0,1-1.623-.9,2.941,2.941,0,0,1-.892-1.912,58.707,58.707,0,0,1-.026-6.03l0-12.118Z" transform="translate(16.851 7.436)" fill="#fefefe"/>
            <path id="Trazado_1065467" data-name="Trazado 1065467" d="M253.526,144.114a59.2,59.2,0,0,1,6.657-.07l11.967-.024,4.745,0a5.705,5.705,0,0,1,1.9.115c.362.145.337.3.495.639l-.722.531-.317.177-17.73-.126-4.762-.01a8.055,8.055,0,0,1-1.644-.035,3.437,3.437,0,0,1-.6-.409Z" transform="translate(19.168 10.887)" fill="#7dcfb5"/>
            <path id="Trazado_1065468" data-name="Trazado 1065468" d="M253.264,121.193c2.566-.455,5.624-.146,8.267-.145l17.381.021.476.524-.587.711a28.325,28.325,0,0,1-5.385.069l-12.367.035-4.824.02a12.516,12.516,0,0,1-2.225.01,2.828,2.828,0,0,1-.52-.318Z" transform="translate(19.149 9.145)" fill="#7dcfb5"/>
            <path id="Trazado_1065469" data-name="Trazado 1065469" d="M253.291,110.091l.354-.049a77.311,77.311,0,0,1,8.962-.051l18.943-.009,6.212,0a9.068,9.068,0,0,1,2.05,0,2.757,2.757,0,0,1,.493.383l-.627.878-.163.052a12.568,12.568,0,0,1-2.687.042L281.2,111.3l-20.024.006-5.139.017a10.818,10.818,0,0,1-2.042.015,2.933,2.933,0,0,1-.52-.327Z" transform="translate(19.151 8.308)" fill="#7dcfb5"/>
            <path id="Trazado_1065470" data-name="Trazado 1065470" d="M253.316,138.809c2.933-.472,6.347-.152,9.335-.151l19.241.022c1.49,0,7.321-.392,8.248.122.3.167.247.355.326.67l-.7.65c-1.47.294-35.982-.271-36.054-.318-.359-.236-.315-.591-.394-.994" transform="translate(19.153 10.475)" fill="#7dcfb5"/>
            <path id="Trazado_1065471" data-name="Trazado 1065471" d="M271.894,133.266c2.173-.019,17.463-.53,18.411.158a1.173,1.173,0,0,1-.14,1.14c-1.171.57-3.452.234-4.8.232l-13.943-.048c-2.336-.005-16.374.478-17.831-.314-.034-.65-.041-.64.38-1.134Z" transform="translate(19.173 10.061)" fill="#7dcfb5"/>
            <path id="Trazado_1065472" data-name="Trazado 1065472" d="M253.529,115.89a27.894,27.894,0,0,1,4.378-.119l7.837-.005,17.452-.018c1.836,0,5.206-.423,6.865.185l.284.744-.593.591a2.069,2.069,0,0,1-.429.082c-2.76.283-5.832.006-8.624,0l-18.583-.033-6.139-.011a9.729,9.729,0,0,1-1.989,0,3.418,3.418,0,0,1-.557-.508Z" transform="translate(19.162 8.741)" fill="#7dcfb5"/>
            <path id="Trazado_1065473" data-name="Trazado 1065473" d="M247,134.89,246.911,148l-16.858.208L230,132.358l16.618,0-1.437,1.528-13.684.029-.005,12.76,13.788,0c.012-3.038.439-6.866-.082-9.812a20.452,20.452,0,0,1,1.8-1.975" transform="translate(17.39 10.007)" fill="#80b500"/>
            <path id="Trazado_1065474" data-name="Trazado 1065474" d="M246.889,110.693v14.534l-16.949,0-.012-16.675,16.275-.055-1.245,1.477-13.335.062c-.358.819-.132,2.608-.129,3.539l.044,10.038,10.586.015c.74,0,2.63.217,3.212-.155l.023-6.994a15.637,15.637,0,0,0-.154-3.771Z" transform="translate(17.385 8.203)" fill="#80b500"/>
            <path id="Trazado_1065475" data-name="Trazado 1065475" d="M246.513,132.506c.763-.84,1.39-1.86,2.5-2.149l.686.52c-.029,1.589-1.761,3.019-2.806,4.165a20.569,20.569,0,0,0-1.8,1.975c.52,2.946.092,6.774.082,9.813l-13.789-.005.005-12.76,13.684-.028Z" transform="translate(17.495 9.856)" fill="#7dcfb5"/>
            <path id="Trazado_1065476" data-name="Trazado 1065476" d="M246.352,132.506c.763-.84,1.39-1.86,2.5-2.149l.686.52c-.029,1.589-1.761,3.019-2.806,4.165a20.569,20.569,0,0,0-1.8,1.975l-7.336,8.492h-.289c-1.035-.981-3.533-2.819-3.792-4.12l.6-.714c1.208,0,2.213,1.4,3.1,2.216l7.7-8.854Z" transform="translate(17.656 9.856)" fill="#07402e"/>
            <path id="Trazado_1065477" data-name="Trazado 1065477" d="M246.1,108.672c.722-.822,1.647-2.207,2.684-2.563.666.181.663.2,1.049.772-.272,1.358-2.05,3-3.046,3.992l-1.684,2.01a15.637,15.637,0,0,1,.154,3.771l-.023,6.994c-.582.372-2.472.156-3.212.155l-10.586-.015-.044-10.038c0-.93-.229-2.719.129-3.539l13.335-.062Z" transform="translate(17.49 8.023)" fill="#7dcfb5"/>
            <path id="Trazado_1065478" data-name="Trazado 1065478" d="M245.938,108.672c.722-.822,1.647-2.207,2.684-2.563.666.181.663.2,1.049.772-.272,1.358-2.05,3-3.046,3.992l-1.684,2.01c-2.536,2.872-5.027,6.294-7.953,8.748a14.4,14.4,0,0,1-3.326-3.346,1.441,1.441,0,0,1-.146-1.309l.574-.325c1.267.207,1.834,1.593,2.92,2.249l7.684-8.751Z" transform="translate(17.65 8.023)" fill="#07402e"/>
          </g>
        </g>
      </g>
    </g>
  </g>
</svg>
