<svg xmlns="http://www.w3.org/2000/svg" xmlns:xlink="http://www.w3.org/1999/xlink" width="85" height="84.999" viewBox="0 0 85 84.999">
  <defs>
    <clipPath id="clip-path">
      <rect id="Rectángulo_401994" data-name="Rectángulo 401994" width="85" height="84.999" fill="none"/>
    </clipPath>
  </defs>
  <g id="Grupo_1210591" data-name="Grupo 1210591" transform="translate(-1020 -979.597)">
    <g id="Grupo_1210547" data-name="Grupo 1210547" transform="translate(1020 979.597)">
      <g id="Grupo_1210546" data-name="Grupo 1210546" clip-path="url(#clip-path)">
        <path id="Trazado_1065529" data-name="Trazado 1065529" d="M131.787,70.08V83.789H115.719a27.318,27.318,0,0,0,7.293-13.709h8.774Z" transform="translate(-59.125 -35.807)" fill="#dfb28b"/>
        <path id="Trazado_1065530" data-name="Trazado 1065530" d="M18.874,83.789H2.806V70.08H11.58a27.318,27.318,0,0,0,7.293,13.709" transform="translate(-1.434 -35.807)" fill="#dfb28b"/>
        <path id="Trazado_1065531" data-name="Trazado 1065531" d="M123.752,114.931l-3.537,11.79-20.222-11.79Z" transform="translate(-51.09 -58.723)" fill="#e6e9ed"/>
        <path id="Trazado_1065532" data-name="Trazado 1065532" d="M30.692,114.931a8.238,8.238,0,0,0,11.324,4.675l26.1,15.218v.014l-1.083,3.605a5.469,5.469,0,0,1-5.251,3.907H15.1a5.5,5.5,0,0,1-5.251-3.907L2.807,114.931Z" transform="translate(-1.434 -58.723)" fill="#e6e9ed"/>
        <path id="Trazado_1065533" data-name="Trazado 1065533" d="M101.669,98.112h16.068v8.226H93.978l-3.688-2.152c.014-.192.027-.384.027-.589a8.185,8.185,0,0,0-2.1-5.484h13.449Z" transform="translate(-45.075 -50.129)" fill="#d3a06c"/>
        <path id="Trazado_1065534" data-name="Trazado 1065534" d="M30.225,103.6a8.28,8.28,0,0,0,.466,2.742H2.806V98.112H32.322a8.186,8.186,0,0,0-2.1,5.484" transform="translate(-1.434 -50.129)" fill="#d3a06c"/>
        <path id="Trazado_1065535" data-name="Trazado 1065535" d="M27.468,78.06a27.318,27.318,0,0,1-7.293-13.709h-.014a28.934,28.934,0,0,1-.535-5.484H47.045L66.238,78.06H53.173a8.219,8.219,0,0,0-12.256,0Z" transform="translate(-10.028 -30.077)" fill="#e6e9ed"/>
        <path id="Trazado_1065536" data-name="Trazado 1065536" d="M19.625,30.222A27.411,27.411,0,0,1,47.044,2.8V30.222Z" transform="translate(-10.027 -1.432)" fill="#ffd699"/>
        <path id="Trazado_1065537" data-name="Trazado 1065537" d="M92.827,16.676a5.464,5.464,0,0,0,6.745.082,27.268,27.268,0,0,1,3.537,13.463,28.938,28.938,0,0,1-.535,5.484h-.014a27.326,27.326,0,0,1-7.293,13.709h-.384L75.69,30.221V2.8a27.339,27.339,0,0,1,16.725,5.69,5.47,5.47,0,0,0,.411,8.184Z" transform="translate(-38.673 -1.432)" fill="#d6e482"/>
        <path id="Trazado_1065538" data-name="Trazado 1065538" d="M154.057,30.835A5.5,5.5,0,1,1,149.094,34a5.482,5.482,0,0,1,4.963-3.167" transform="translate(-75.912 -15.755)" fill="#fcd770"/>
        <path id="Trazado_1065539" data-name="Trazado 1065539" d="M117.493,16.7a5.477,5.477,0,1,1-5.484-5.484,5.461,5.461,0,0,1,5.484,5.484" transform="translate(-54.428 -5.729)" fill="#fcd770"/>
        <path id="Trazado_1065540" data-name="Trazado 1065540" d="M93.579,42.953a4.064,4.064,0,0,1,1.549,3.208,4.129,4.129,0,1,1-1.549-3.208" transform="translate(-44.402 -21.484)" fill="#fcd770"/>
        <path id="Trazado_1065541" data-name="Trazado 1065541" d="M91.3,112.682l20.221,11.79,4.236,2.481a4.051,4.051,0,0,1,1.906,2.508,4.107,4.107,0,0,1-6.046,4.593l-2.536-1.48-26.1-15.218a8.2,8.2,0,0,0,4.634-6.827Z" transform="translate(-42.397 -56.474)" fill="#ff826e"/>
        <path id="Trazado_1065542" data-name="Trazado 1065542" d="M75.322,100.732c0,.205-.014.4-.027.589a8.225,8.225,0,0,1-15.958,2.152,8.292,8.292,0,0,1-.466-2.742,8.226,8.226,0,0,1,16.452,0Z" transform="translate(-30.079 -47.265)" fill="#fcd770"/>
        <path id="Trazado_1065543" data-name="Trazado 1065543" d="M72.826,103.718a2.742,2.742,0,1,1-2.742,2.742,2.742,2.742,0,0,1,2.742-2.742" transform="translate(-35.809 -52.993)" fill="#ffc729"/>
        <path id="Trazado_1065544" data-name="Trazado 1065544" d="M71.39,100.915a4.113,4.113,0,1,0,4.113,4.113,4.118,4.118,0,0,0-4.113-4.113m0,5.484a1.371,1.371,0,1,1,1.371-1.371A1.373,1.373,0,0,1,71.39,106.4" transform="translate(-34.374 -51.561)"/>
        <path id="Trazado_1065545" data-name="Trazado 1065545" d="M78.145,13.708a6.826,6.826,0,0,0-5.482,2.783l-8.431-3.935A6.834,6.834,0,0,0,53.682,5.34,28.491,28.491,0,0,0,37.016,0,28.6,28.6,0,0,0,8.55,32.9H0V56.208L7.111,80.113A6.812,6.812,0,0,0,13.677,85H60.353a6.817,6.817,0,0,0,6.567-4.885l.583-1.943,1.027.6a5.484,5.484,0,0,0,5.522-9.476l-3.307-1.929L73.974,56.6l.058-23.7H65.481A28.1,28.1,0,0,0,62.6,15.6a6.776,6.776,0,0,0,.467-.565L71.5,18.973a6.77,6.77,0,0,0-.205,1.59,6.855,6.855,0,1,0,6.855-6.855ZM57.581,6.854a4.113,4.113,0,1,1-4.113,4.113,4.118,4.118,0,0,1,4.113-4.113M49.271,54.837,46.6,53.281a9.537,9.537,0,0,0-.93-3.928H71.289v5.484Zm4.7,2.742h4.759l-.382,2.553Zm-50.756,0h9.315l1.645,10.968H6.5Zm25.144-8.226a9.514,9.514,0,0,0-.939,4.113,9.689,9.689,0,0,0,.11,1.371H2.742V49.353Zm7.287,19.193H27.914L26.269,57.579h2.089a9.609,9.609,0,0,0,7.287,5.374ZM15.3,57.579h8.2l1.645,10.968h-8.2ZM25.553,71.288,27.2,82.256H19L17.357,71.288Zm2.772,0h7.319V82.256H29.97Zm10.061,0h7.319L44.061,82.256H38.386Zm10.091,0h7.229l.89.518L55.028,82.256h-8.2ZM38.386,68.546V62.953a9.527,9.527,0,0,0,2.092-.547l10.527,6.141Zm-1.371-8.226a6.855,6.855,0,1,1,6.855-6.855,6.862,6.862,0,0,1-6.855,6.855m6.7-13.71a9.567,9.567,0,0,0-13.408,0H18.046A25.839,25.839,0,0,1,11.032,30.16H36.446L52.9,46.611Zm-8.074-43.8V27.418H11.036A26.04,26.04,0,0,1,35.644,2.811M9.078,35.644a28.516,28.516,0,0,0,5.338,10.967H2.742V35.644Zm.659,43.681L7.326,71.288h7.259l1.645,10.968H13.678a4.086,4.086,0,0,1-3.94-2.931m54.555,0a4.088,4.088,0,0,1-3.94,2.931H57.8l1.345-8.962,5.923,3.455Zm9.648-5.994a2.726,2.726,0,0,1-.283,2.08,2.82,2.82,0,0,1-3.747.99L43.182,60.809A9.624,9.624,0,0,0,46.2,56.223L72.67,71.661a2.722,2.722,0,0,1,1.271,1.67ZM60.9,61.619l.606-4.04h9.316l-2.509,8.363ZM71.289,35.644V46.611H59.614a28.507,28.507,0,0,0,5.339-10.967ZM56.357,46.192,38.386,28.221V2.8a25.7,25.7,0,0,1,13.4,4.556,6.714,6.714,0,0,0,.555,7.976l-3.484,4.354A5.566,5.566,0,1,0,50.987,21.4l3.489-4.361a6.65,6.65,0,0,0,5.878.181,25.969,25.969,0,0,1-4,28.968m-7-21.516a2.742,2.742,0,1,1-2.742-2.742,2.744,2.744,0,0,1,2.742,2.742m28.79,0a4.113,4.113,0,1,1,4.113-4.113,4.118,4.118,0,0,1-4.113,4.113" transform="translate(0 0.001)"/>
        <path id="Trazado_1065546" data-name="Trazado 1065546" d="M53.2,27.465v2.941h2.742V27.465a3.9,3.9,0,0,0,.579-7.214L53.85,18.916a1.172,1.172,0,0,1,.524-2.22h.4a1.172,1.172,0,0,1,1.171,1.171v.2h2.742v-.2a3.905,3.905,0,0,0-2.742-3.714V11.212H53.2v2.941a3.9,3.9,0,0,0-.579,7.214L55.3,22.7a1.172,1.172,0,0,1-.524,2.219h-.4A1.172,1.172,0,0,1,53.2,23.751V22.18H50.461v1.571A3.905,3.905,0,0,0,53.2,27.465" transform="translate(-25.782 -5.729)"/>
        <rect id="Rectángulo_401991" data-name="Rectángulo 401991" width="2.742" height="2.742" transform="translate(24.679 32.903)"/>
        <rect id="Rectángulo_401992" data-name="Rectángulo 401992" width="2.742" height="2.742" transform="translate(19.195 32.903)"/>
        <rect id="Rectángulo_401993" data-name="Rectángulo 401993" width="2.742" height="2.742" transform="translate(13.711 32.903)"/>
      </g>
    </g>
  </g>
</svg>
