<svg xmlns="http://www.w3.org/2000/svg" xmlns:xlink="http://www.w3.org/1999/xlink" width="127.981" height="134.865" viewBox="0 0 127.981 134.865">
  <defs>
    <clipPath id="clip-path">
      <rect id="Rectángulo_401889" data-name="Rectángulo 401889" width="127.981" height="134.865" fill="none"/>
    </clipPath>
  </defs>
  <g id="Grupo_1210589" data-name="Grupo 1210589" transform="translate(-454.051 -2509)">
    <g id="Grupo_1210480" data-name="Grupo 1210480" transform="translate(454.051 2509)">
      <g id="Grupo_1210479" data-name="Grupo 1210479" clip-path="url(#clip-path)">
        <path id="Trazado_1065178" data-name="Trazado 1065178" d="M127.981,63.991A63.991,63.991,0,1,1,63.99,0a63.991,63.991,0,0,1,63.991,63.991" fill="#ffebcc"/>
        <path id="Trazado_1065179" data-name="Trazado 1065179" d="M88.173,31.024a17.567,17.567,0,0,0-.149-2.829C86.6,17.577,75.858,9.779,64.037,10.776A21.362,21.362,0,0,0,48.7,18.841c-9.52-.174-16.509,2.217-17.954,6.91-2.365,7.681,11.007,18.615,29.868,24.424s36.068,4.291,38.434-3.389c1.44-4.678-2.957-10.563-10.877-15.762" fill="#d9ac57"/>
        <path id="Trazado_1065180" data-name="Trazado 1065180" d="M84.943,29.5a.435.435,0,0,1-.222-.059A79.809,79.809,0,0,0,69.05,22.791a78.581,78.581,0,0,0-17.812-3.4.45.45,0,0,1-.421-.477.433.433,0,0,1,.477-.421,79.5,79.5,0,0,1,18.021,3.435,80.72,80.72,0,0,1,15.85,6.73.45.45,0,0,1-.222.841" fill="#3f1c27"/>
        <path id="Trazado_1065181" data-name="Trazado 1065181" d="M108.023,101.326,104.4,84.213a15.866,15.866,0,0,0-5.735-9.067c-1.95-1.556-6.189-2.719-8.688-3.407l-12.3-3.387H55.425l-12.3,3.387a18.837,18.837,0,0,0-6.753,3.407,15.866,15.866,0,0,0-5.735,9.067l-3.624,17.113H40.152v30.807H98.945V101.326Z" fill="#ccdd63"/>
        <path id="Trazado_1065182" data-name="Trazado 1065182" d="M69.606,117.125H43.419a1.538,1.538,0,0,1-1.194-.569L20.134,89.337A.825.825,0,0,1,20.7,88l25.828-2.334a2.668,2.668,0,0,1,2.38,1.065L70.377,115.59a.961.961,0,0,1-.771,1.535" fill="#3f1c27"/>
        <path id="Trazado_1065183" data-name="Trazado 1065183" d="M24.421,90.231a.67.67,0,1,1-.671-.671.671.671,0,0,1,.671.671" fill="#fff"/>
        <path id="Trazado_1065184" data-name="Trazado 1065184" d="M33.561,111.205a1.228,1.228,0,0,0,.2,1.1l6.393,8.286V114l-5.746-7.08a18.686,18.686,0,0,1-.845,4.282" fill="#ffa86b"/>
        <path id="Trazado_1065185" data-name="Trazado 1065185" d="M20.038,97.506c.255-.383,2.2-2.789,2.759-3.471a1.226,1.226,0,0,1,.351-.294l5.53-3.078a1.217,1.217,0,0,1,1.283,2.066l-3.777,2.6a1.221,1.221,0,0,0-.314.315l-1.734,2.533,10.126-4.758a1.217,1.217,0,0,1,1.548.454l.029.045a1.217,1.217,0,0,1-.407,1.694l-8.54,5.1L37.88,95.9a1.219,1.219,0,0,1,1.549.516l.018.032a1.218,1.218,0,0,1-.384,1.613l-3.081,2.055,3.842-1.409a.872.872,0,0,1,.8,1.537l-5.761,3.98a1.249,1.249,0,0,0-.51,1.245c.145.863.155,2.592-.787,5.738a1.228,1.228,0,0,0,.2,1.1L40.7,121.3a17.052,17.052,0,0,1,1.853,5.249c.728,3.253-.655,7.047-3.812,8.116-1.757.595-4.39-.339-4.39-.339-2.289-.581-4.84-4.086-5.558-6.336,0,0-1.564-12.442-1.886-16.58a1.217,1.217,0,0,0-.243-.892l-5.5-7.145a1.215,1.215,0,0,1-.219-.46c-.249-1.049-1.166-5.021-.908-5.409" fill="#ffa86b"/>
        <path id="Trazado_1065186" data-name="Trazado 1065186" d="M33.561,111.205a1.228,1.228,0,0,0,.2,1.1l6.393,8.286V118.79l-5.587-6.68a1.783,1.783,0,0,1-.05-1.641,15.527,15.527,0,0,0,.624-2.643l-.733-.9a18.686,18.686,0,0,1-.845,4.282" fill="#3f1c27"/>
        <path id="Trazado_1065187" data-name="Trazado 1065187" d="M81.5,42.986a1.928,1.928,0,0,0-.473-.022c.228-2.277.218-3.78.218-3.78a13.623,13.623,0,0,0-.283-2.693c-4.232-2.828-13.032-7.48-24.038-6.471a64.6,64.6,0,0,0-6.637.809,14.583,14.583,0,0,0-2.6,8.341s-.051,1.536.124,3.855c-1.513.409-2.387,2.624-1.963,5.076.431,2.495,2.042,4.307,3.631,4.115,1.4,4.528,3.888,9.022,8.287,11.242a27.08,27.08,0,0,1-2.332,4.894L66.552,87.027,77.677,68.352S75.01,64.116,74.6,60.343a23.031,23.031,0,0,0,4.6-8.408,1.988,1.988,0,0,0,.7.269c1.62.279,3.289-1.557,3.729-4.1s-.517-4.835-2.137-5.115" fill="#ffa86b"/>
        <path id="Trazado_1065188" data-name="Trazado 1065188" d="M58.227,44.042a1.384,1.384,0,1,1-1.343-1.717,1.565,1.565,0,0,1,1.343,1.717" fill="#3f1c27"/>
        <path id="Trazado_1065189" data-name="Trazado 1065189" d="M71.471,44.042a1.384,1.384,0,1,1-1.343-1.717,1.565,1.565,0,0,1,1.343,1.717" fill="#3f1c27"/>
        <path id="Trazado_1065190" data-name="Trazado 1065190" d="M69.7,53.648a7.555,7.555,0,0,1-7.613,4.176c-3.7-.3-5.116-4.176-5.116-4.176Z" fill="#fff"/>
        <path id="Trazado_1065191" data-name="Trazado 1065191" d="M80.1,49.124a.448.448,0,0,1-.4-.655l1.787-3.456a.449.449,0,1,1,.8.412l-.977,1.891.787-.532a.449.449,0,0,1,.5.744l-2.248,1.519a.444.444,0,0,1-.251.077" fill="#3f1c27"/>
        <path id="Trazado_1065192" data-name="Trazado 1065192" d="M63.037,50.076l-.051,0c-.99-.112-1.611-.459-1.844-1.031a2.091,2.091,0,0,1,.453-1.885.449.449,0,0,1,.7.567c-.155.193-.438.688-.318.981.1.236.493.4,1.113.476a.449.449,0,0,1-.05.9" fill="#3f1c27"/>
        <path id="Trazado_1065193" data-name="Trazado 1065193" d="M52.994,40.813a.45.45,0,0,1-.255-.82c.124-.084,3.044-2.048,5.809-.312a.449.449,0,0,1-.477.761c-2.27-1.425-4.8.274-4.823.292a.453.453,0,0,1-.254.079" fill="#3f1c27"/>
        <path id="Trazado_1065194" data-name="Trazado 1065194" d="M72.774,40.95a.448.448,0,0,1-.29-.106c-.1-.081-2.372-1.97-4.767-.8a.449.449,0,0,1-.4-.806c2.931-1.44,5.631.82,5.745.917a.449.449,0,0,1-.292.79" fill="#3f1c27"/>
        <path id="Trazado_1065195" data-name="Trazado 1065195" d="M106.658,101.326h-15.7v9.594l-19.437-6.66L69.8,101.806l-3.452-5.4-.144-.26a1.37,1.37,0,0,0-1.795-.571l-2.049,1.054a1.236,1.236,0,0,0-.265-.374L59.852,94.15a1.269,1.269,0,0,0-1.27-.279l-.8.266a1.294,1.294,0,0,0-.477.287L54.9,96.732a1.669,1.669,0,0,0,2.213,2.5l.682-.559L66.147,109.9l1.845.567,25.843,19.9a8.5,8.5,0,0,0,6.441,1.673l.58-.086a8.484,8.484,0,0,0,7.165-7.244h0V124.7c.151-1.095-1.364-23.375-1.364-23.375" fill="#ffa86b"/>
        <path id="Trazado_1065196" data-name="Trazado 1065196" d="M58.72,99.07a2.225,2.225,0,0,0,.349,1.047,2.293,2.293,0,0,0,2.75.877l2.52-1.1a32.722,32.722,0,0,0,3.181,3.169l-2.849-4.293L61.46,100.17a1.367,1.367,0,0,1-1.444-2.251,1.261,1.261,0,0,0-1.44.107l-.784.643.535.722Z" fill="#3f1c27"/>
        <path id="Trazado_1065197" data-name="Trazado 1065197" d="M90.957,110.92l11.034,3.78-11.034-6.015Z" fill="#3f1c27"/>
        <path id="Trazado_1065198" data-name="Trazado 1065198" d="M52.578,69.136,46.187,83.848l10.788-3.787,9.576,6.966L55.426,68.352Z" fill="#99c433"/>
        <path id="Trazado_1065199" data-name="Trazado 1065199" d="M80.525,69.136l6.391,14.712L76.128,80.061l-9.576,6.966L77.677,68.352Z" fill="#99c433"/>
        <path id="Trazado_1065200" data-name="Trazado 1065200" d="M46.02,34.739c-.429,2.061-.5,5.167.187,9.847a2.621,2.621,0,0,1,1.6-1.542c-.176-2.327-.126-3.874-.126-3.874a14.583,14.583,0,0,1,2.594-8.327l-.032-.005a5.618,5.618,0,0,0-2.809,1.235,5.492,5.492,0,0,0-1.412,2.666" fill="#3f1c27"/>
        <path id="Trazado_1065201" data-name="Trazado 1065201" d="M80.964,36.5a13.343,13.343,0,0,1,.276,2.688s.008,1.513-.221,3.8a1.944,1.944,0,0,1,.476.006,2.431,2.431,0,0,1,1.662,1.371,18.88,18.88,0,0,0,.519-5.841,28.416,28.416,0,0,0-2.712-2.02" fill="#3f1c27"/>
        <path id="Trazado_1065202" data-name="Trazado 1065202" d="M57.759,63.458a26.787,26.787,0,0,1-1.814,4h0s5.7,4.63,13.619-3.575a14.481,14.481,0,0,1-5.443,1,13.918,13.918,0,0,1-6.362-1.429" fill="#3f1c27"/>
      </g>
    </g>
  </g>
</svg>
