<svg xmlns="http://www.w3.org/2000/svg" xmlns:xlink="http://www.w3.org/1999/xlink" width="127.981" height="134.13" viewBox="0 0 127.981 134.13">
  <defs>
    <clipPath id="clip-path">
      <rect id="Rectángulo_401898" data-name="Rectángulo 401898" width="127.981" height="134.13" fill="none"/>
    </clipPath>
  </defs>
  <g id="Grupo_1210592" data-name="Grupo 1210592" transform="translate(482 9103)">
    <g id="Grupo_1210487" data-name="Grupo 1210487" transform="translate(-482 -9103)">
      <g id="Grupo_1210485" data-name="Grupo 1210485" clip-path="url(#clip-path)">
        <path id="Trazado_1065234" data-name="Trazado 1065234" d="M127.981,63.991A63.991,63.991,0,1,1,63.99,0a63.991,63.991,0,0,1,63.991,63.991" fill="#ffebcc"/>
        <path id="Trazado_1065235" data-name="Trazado 1065235" d="M39.184,86.947s-3.507-37.806,2.774-58.386C45.646,16.48,55.485,18.109,55.485,18.109S70.036,6.924,84.31,25.646c10.233,13.422,2.952,61.008,2.952,61.008Z" fill="#ad6548"/>
        <path id="Trazado_1065236" data-name="Trazado 1065236" d="M90.8,85.205c-6.045-2.33-14.088-1.569-16.638-4.372-1.821-2-2.555-5.2-2.8-8.229a20.01,20.01,0,0,1-15.218.015c-.275,2.887-1.011,5.965-2.757,7.8-2.834,2.978-9.713,2.295-15.52,4.883,8.674.657,17.4,11.934,26.038,11.932,9.01,0,17.924-11.314,26.892-12.029" fill="#fcd1c5"/>
        <path id="Trazado_1065237" data-name="Trazado 1065237" d="M71.362,72.6a39.016,39.016,0,0,1,.275-8.084l-15.553.941a37.444,37.444,0,0,1,.06,7.158A20.005,20.005,0,0,0,71.362,72.6" fill="#f5b9a4"/>
        <path id="Trazado_1065238" data-name="Trazado 1065238" d="M31.574,90.871c-5.714,9.168-3.806,43.259-3.806,43.259h72.664s1.036-36.237-4.057-44.439A11.031,11.031,0,0,0,90.8,85.3c-8.968.715-17.957,9.247-26.967,9.261-8.635.014-17.289-8.459-25.963-9.116a13.846,13.846,0,0,0-6.293,5.427" fill="#fe9900"/>
        <path id="Trazado_1065239" data-name="Trazado 1065239" d="M83.993,45.754s2.471-2.782,3.419.13-.188,8.6-3.368,9.6-2.547.13-2.547.13Z" fill="#fcd1c5"/>
        <path id="Trazado_1065240" data-name="Trazado 1065240" d="M43.989,45.754s-2.471-2.782-3.419.13.188,8.6,3.368,9.6,2.547.13,2.547.13Z" fill="#fcd1c5"/>
        <path id="Trazado_1065241" data-name="Trazado 1065241" d="M45.226,47.619c.873,1.163,1.195,5.011-.538,4.665a1.783,1.783,0,0,1-.76-3.265c.617-.433.9-1.931,1.3-1.4" fill="#f5b9a4"/>
        <path id="Trazado_1065242" data-name="Trazado 1065242" d="M43.076,52.038a14.334,14.334,0,0,1-.488-2.158c-.005-.033-.009-.067-.015-.1s.022.174.006.044c-.009-.074-.018-.148-.026-.221-.015-.141-.026-.283-.034-.424a5.611,5.611,0,0,1,.013-.82.564.564,0,0,0,.01-.09c.006.049-.029.175-.007.062.011-.06.022-.121.036-.181s.029-.113.047-.169c.008-.025.018-.049.026-.074.037-.118-.034.069-.025.055.027-.04.043-.089.068-.13.012-.02.027-.039.038-.06.052-.1-.1.1-.043.053.032-.029.065-.066.094-.1.075-.084-.041.057-.066.048.007,0,.056-.038.065-.043a.563.563,0,0,0,.081-.042c.007-.006-.175.053-.063.029a.761.761,0,0,0,.082-.022c.115-.034-.008.019-.066.006A1.378,1.378,0,0,0,43,47.7c.034,0,.07.009.1.008.011,0-.17-.033-.037,0,.08.019.16.036.239.06.049.015.1.032.147.049.026.01.172.066.074.027s.056.026.083.038c.05.023.1.048.149.073.115.059.229.122.341.188a.672.672,0,0,0,.678-1.16,3.154,3.154,0,0,0-2.3-.567,1.774,1.774,0,0,0-1.2,1.356,8.109,8.109,0,0,0,.254,3.72c.073.306.151.611.245.91a.672.672,0,0,0,1.3-.357" fill="#f5b9a4"/>
        <path id="Trazado_1065243" data-name="Trazado 1065243" d="M82.852,47.619c-.873,1.163-1.195,5.011.538,4.665a1.783,1.783,0,0,0,.76-3.265c-.617-.433-.9-1.931-1.3-1.4" fill="#f5b9a4"/>
        <path id="Trazado_1065244" data-name="Trazado 1065244" d="M86.3,52.4a14.884,14.884,0,0,0,.541-2.539c.137-1.069.228-2.778-.949-3.332a2.84,2.84,0,0,0-2.59.451.672.672,0,0,0,.678,1.16c.18-.1.363-.2.552-.288.02-.01.04-.018.061-.027,0,0-.131.048-.062.027.045-.014.089-.035.133-.05.076-.027.154-.05.232-.07.044-.011.252-.043.122-.029s.074,0,.118,0c.028,0,.055,0,.083,0,.116,0-.043.01-.075-.013a.589.589,0,0,0,.154.038c.1.019-.094-.05-.073-.034a.434.434,0,0,0,.071.037.55.55,0,0,0,.057.036c.066.026-.125-.121-.057-.043.029.033.064.067.1.1.074.07-.062-.093-.049-.063s.032.046.046.069c.025.041.043.087.068.128.049.082-.055-.16-.028-.067.008.029.021.057.03.085a2.612,2.612,0,0,1,.085.349c.034.175-.012-.154,0,.027.006.066.013.133.017.2.007.134.009.269.006.4a8.537,8.537,0,0,1-.066.86c-.013.111-.014.022.006-.043a.678.678,0,0,0-.015.1c-.01.072-.022.144-.034.216-.023.141-.048.281-.076.42q-.071.362-.158.719c-.067.275-.138.549-.222.819A.672.672,0,0,0,86.3,52.4" fill="#f5b9a4"/>
        <path id="Trazado_1065245" data-name="Trazado 1065245" d="M83.988,43.515c-1.237,14.954-9.1,26.4-20.314,26.4S44.85,57.952,43.36,43.515c-1.5-14.5,3.955-26.4,20.314-26.4,15.115,0,21.516,11.869,20.314,26.4" fill="#fcd1c5"/>
        <path id="Trazado_1065246" data-name="Trazado 1065246" d="M50.433,38.448c.025-.021.08-.063-.029.022-.131.1.011-.008.043-.029.118-.081.237-.159.361-.232a5.618,5.618,0,0,1,1.351-.6,8.818,8.818,0,0,1,5.244.112c.829.254,1.183-1.042.357-1.295a10.1,10.1,0,0,0-5.958-.112,6.817,6.817,0,0,0-2.319,1.18.677.677,0,0,0,0,.95.686.686,0,0,0,.95,0" fill="#86433a"/>
        <path id="Trazado_1065247" data-name="Trazado 1065247" d="M78.657,37.5a6.817,6.817,0,0,0-2.319-1.18,10.1,10.1,0,0,0-5.958.112c-.825.252-.473,1.549.357,1.295a8.818,8.818,0,0,1,5.244-.112,5.634,5.634,0,0,1,1.332.584c.13.076.255.159.38.243a.58.58,0,0,0,.1.074c-.151-.058-.146-.115-.087-.066a.69.69,0,0,0,.95,0,.677.677,0,0,0,0-.95" fill="#86433a"/>
        <path id="Trazado_1065248" data-name="Trazado 1065248" d="M87.736,44.546S71.672,38.837,65.08,30.257s-9.062-6.078-9.062-6.078-5.332,8.191-9.145,13.094-2.884,8.482-2.884,8.482l-2.033-1.862,1.966-17.536,6.207-7.206,4.912-1.225,9.354-1.976,11.668,2.689,10.743,12.4Z" fill="#ad6548"/>
        <path id="Trazado_1065249" data-name="Trazado 1065249" d="M69.991,58.735a7.557,7.557,0,0,1-7.614,4.176c-3.7-.3-5.115-4.176-5.115-4.176Z" fill="#fff"/>
        <path id="Trazado_1065250" data-name="Trazado 1065250" d="M63.626,54.162a8.867,8.867,0,0,1-2.154-.266c-1.279-.32-2.425-.677-2.425-.677a10.214,10.214,0,0,0,3.948,2.061,2.143,2.143,0,0,0,1.262,0,10.214,10.214,0,0,0,3.948-2.061s-1.146.357-2.425.677a8.867,8.867,0,0,1-2.154.266" fill="#eab8a0"/>
        <path id="Trazado_1065251" data-name="Trazado 1065251" d="M57.342,45.527a1.783,1.783,0,1,1-1.783-1.783,1.783,1.783,0,0,1,1.783,1.783" fill="#433833"/>
        <path id="Trazado_1065252" data-name="Trazado 1065252" d="M69.91,45.527a1.783,1.783,0,1,0,1.783-1.783,1.783,1.783,0,0,0-1.783,1.783" fill="#433833"/>
      </g>
    </g>
  </g>
</svg>
