<svg xmlns="http://www.w3.org/2000/svg" xmlns:xlink="http://www.w3.org/1999/xlink" width="610" height="187" viewBox="0 0 610 187">
  <defs>
    <clipPath id="clip-path">
      <rect id="Rectángulo_401751" data-name="Rectángulo 401751" width="610" height="187" transform="translate(180.051 2416)" fill="#fff" stroke="#707070" stroke-width="1"/>
    </clipPath>
    <clipPath id="clip-path-2">
      <rect id="Rectángulo_402042" data-name="Rectángulo 402042" width="491.285" height="146.809" fill="none"/>
    </clipPath>
  </defs>
  <g id="Grupo_1210594" data-name="Grupo 1210594" transform="translate(-180.051 -2416)">
    <g id="Enmascarar_grupo_1098691" data-name="Enmascarar grupo 1098691" clip-path="url(#clip-path)">
      <g id="Grupo_1210588" data-name="Grupo 1210588" transform="translate(265 2445.264)">
        <g id="Grupo_1210587" data-name="Grupo 1210587" transform="translate(-28.773 -8.598)" clip-path="url(#clip-path-2)">
          <path id="Trazado_1065966" data-name="Trazado 1065966" d="M89.609,0H6.734A6.735,6.735,0,0,0,0,6.734V140.075a6.735,6.735,0,0,0,6.735,6.734H89.609a6.734,6.734,0,0,0,6.734-6.734V6.734A6.734,6.734,0,0,0,89.609,0" transform="translate(0)" fill="#fe9900"/>
          <path id="Trazado_1065967" data-name="Trazado 1065967" d="M52.1,114.371a1.362,1.362,0,1,0,1.362,1.362,1.363,1.363,0,0,0-1.362-1.362" transform="translate(7.241 16.325)" fill="#fff"/>
          <path id="Trazado_1065968" data-name="Trazado 1065968" d="M81.125,78.248,73.2,66.888V61.87a1.361,1.361,0,0,0-1.361-1.362H21.181a1.362,1.362,0,0,0-1.362,1.362v5.018l-7.925,11.36a1.369,1.369,0,0,0-.245.77v5.457a6.9,6.9,0,0,0,5.582,6.675v36.356H13.01a1.362,1.362,0,0,0,0,2.724h67a1.362,1.362,0,0,0,0-2.724H75.787V91.149a6.9,6.9,0,0,0,5.582-6.675V79.027a1.386,1.386,0,0,0-.245-.779m-8.062,12.9v25.462H42.288V91.149A7.026,7.026,0,0,0,46.509,88.5a6.986,6.986,0,0,0,11.167,0,6.986,6.986,0,0,0,11.166,0,7.037,7.037,0,0,0,4.221,2.652M21.891,68.679h5.6l-4.18,8.988H15.621Zm31.979,0,2.09,8.988H47.871V68.679Zm8.655,0,4.181,8.988h-7.95l-2.09-8.988ZM47.871,80.389h8.443v4.085a4.224,4.224,0,0,1-8.443,0Zm11.166,0H67.48v4.085a4.224,4.224,0,0,1-8.443,0Zm-13.89-2.723H37.058l2.09-8.988h6Zm-10.886,0h-7.95l4.181-8.988h5.859Zm-8.724,2.723h8.444v4.085a4.224,4.224,0,0,1-8.444,0Zm11.167,0h8.443v4.085a4.224,4.224,0,0,1-8.443,0ZM69.71,77.666l-4.18-8.988h5.6l6.27,8.988Zm.766-11.712H22.543V63.231H70.476Zm-56.1,18.52V80.389h8.443v4.085a4.224,4.224,0,0,1-8.443,0m5.583,6.675A7.029,7.029,0,0,0,24.177,88.5a6.986,6.986,0,0,0,11.167,0,7.033,7.033,0,0,0,4.22,2.653v36.356H19.956Zm22.332,36.356v-8.171H73.063v2.724H63.122a1.362,1.362,0,1,0,0,2.723h9.941v2.723ZM78.646,84.475a4.224,4.224,0,0,1-8.443,0V80.389h8.443Z" transform="translate(1.663 8.637)" fill="#fff"/>
          <path id="Trazado_1065969" data-name="Trazado 1065969" d="M33.012,108.593v-6.184a2.724,2.724,0,1,0-2.723,0v6.184a2.724,2.724,0,1,0,2.723,0" transform="translate(4.129 13.892)" fill="#fff"/>
          <path id="Trazado_1065970" data-name="Trazado 1065970" d="M57.567,98.716l-5.447,5.447a1.362,1.362,0,0,0,1.926,1.925l5.447-5.446a1.362,1.362,0,0,0-1.926-1.927" transform="translate(7.382 14.033)" fill="#fff"/>
          <path id="Trazado_1065971" data-name="Trazado 1065971" d="M47.306,99.349,52.754,93.9a1.362,1.362,0,1,0-1.926-1.926l-5.447,5.446a1.362,1.362,0,0,0,1.926,1.927" transform="translate(6.42 13.071)" fill="#fff"/>
          <path id="Trazado_1065972" data-name="Trazado 1065972" d="M59.187,92.963a1.362,1.362,0,0,0-1.926,0L46.368,103.856a1.362,1.362,0,0,0,1.926,1.925L59.187,94.888a1.362,1.362,0,0,0,0-1.926" transform="translate(6.561 13.212)" fill="#fff"/>
          <path id="Trazado_1065973" data-name="Trazado 1065973" d="M19.191,36.371a3.651,3.651,0,0,1-2.8-1.082,3.851,3.851,0,0,1-1.014-2.739v-.275a4.4,4.4,0,0,1,.955-2.936A3.4,3.4,0,0,1,19.1,28.213a3.183,3.183,0,0,1,2.466.952,3.7,3.7,0,0,1,.875,2.608v1.286h-4.5l-.015.043a1.522,1.522,0,0,0,.458,1,1.6,1.6,0,0,0,1.147.382,4.963,4.963,0,0,0,1.174-.117A7.357,7.357,0,0,0,21.771,34l.587,1.5a4.48,4.48,0,0,1-1.366.624,6.271,6.271,0,0,1-1.8.255M19.1,30.1a1.016,1.016,0,0,0-.868.374,1.874,1.874,0,0,0-.322,1.014l.014.037H20.04v-.189a1.636,1.636,0,0,0-.214-.923.822.822,0,0,0-.73-.312" transform="translate(2.195 4.027)" fill="#331f00"/>
          <path id="Trazado_1065974" data-name="Trazado 1065974" d="M25.427,28.358l.087,1.039a2.608,2.608,0,0,1,.934-.875,2.639,2.639,0,0,1,1.289-.309,2.4,2.4,0,0,1,1.265.32,1.962,1.962,0,0,1,.8.974,2.638,2.638,0,0,1,.934-.955,2.555,2.555,0,0,1,1.332-.338,2.183,2.183,0,0,1,1.806.825,4.043,4.043,0,0,1,.657,2.538v4.643H32.066V31.576a2.046,2.046,0,0,0-.235-1.158.827.827,0,0,0-.708-.317,1.473,1.473,0,0,0-.629.127,1.326,1.326,0,0,0-.462.353c0,.082,0,.153.008.214s.007.12.007.178v5.245H27.592V31.576a2.064,2.064,0,0,0-.233-1.162.84.84,0,0,0-.72-.312,1.419,1.419,0,0,0-.606.127,1.316,1.316,0,0,0-.462.353v5.637H23.116V28.358Z" transform="translate(3.299 4.027)" fill="#331f00"/>
          <path id="Trazado_1065975" data-name="Trazado 1065975" d="M42.26,32.455a4.644,4.644,0,0,1-.8,2.844,2.646,2.646,0,0,1-2.252,1.072,2.147,2.147,0,0,1-1.772-.85v3.72H34.981V28.358H37.3l.073.857a2.377,2.377,0,0,1,.78-.74,2.047,2.047,0,0,1,1.043-.262,2.616,2.616,0,0,1,2.263,1.126,5,5,0,0,1,.8,2.964ZM39.812,32.3a3.714,3.714,0,0,0-.29-1.6.97.97,0,0,0-.93-.6,1.484,1.484,0,0,0-.7.152,1.128,1.128,0,0,0-.454.443V33.98a1.053,1.053,0,0,0,.462.378,1.793,1.793,0,0,0,.708.123.965.965,0,0,0,.926-.534,3.269,3.269,0,0,0,.28-1.494Z" transform="translate(4.993 4.027)" fill="#331f00"/>
          <path id="Trazado_1065976" data-name="Trazado 1065976" d="M47.294,30.45l-.8-.008a1.362,1.362,0,0,0-.69.157.955.955,0,0,0-.4.44v5.179H42.949v-7.86H45.26l.088,1.155A2.359,2.359,0,0,1,46,28.555a1.441,1.441,0,0,1,.953-.342,1.783,1.783,0,0,1,.3.022,2.448,2.448,0,0,1,.277.065Z" transform="translate(6.13 4.027)" fill="#331f00"/>
          <path id="Trazado_1065977" data-name="Trazado 1065977" d="M51.6,36.371a3.651,3.651,0,0,1-2.8-1.082,3.851,3.851,0,0,1-1.014-2.739v-.275a4.4,4.4,0,0,1,.955-2.936A3.4,3.4,0,0,1,51.5,28.213a3.183,3.183,0,0,1,2.466.952,3.7,3.7,0,0,1,.875,2.608v1.286h-4.5l-.015.043a1.522,1.522,0,0,0,.458,1,1.6,1.6,0,0,0,1.147.382,4.963,4.963,0,0,0,1.174-.117A7.356,7.356,0,0,0,54.177,34l.587,1.5a4.48,4.48,0,0,1-1.366.624,6.271,6.271,0,0,1-1.8.255M51.5,30.1a1.016,1.016,0,0,0-.868.374,1.874,1.874,0,0,0-.322,1.014l.014.037h2.121v-.189a1.636,1.636,0,0,0-.214-.923.822.822,0,0,0-.73-.312" transform="translate(6.82 4.027)" fill="#331f00"/>
          <path id="Trazado_1065978" data-name="Trazado 1065978" d="M59.67,34.01a.64.64,0,0,0-.33-.519,3.556,3.556,0,0,0-1.2-.411,4.743,4.743,0,0,1-2.071-.831,1.885,1.885,0,0,1-.7-1.552,2.207,2.207,0,0,1,.872-1.761,3.581,3.581,0,0,1,2.36-.723,4.058,4.058,0,0,1,2.5.7,2.062,2.062,0,0,1,.886,1.812l-.015.043H59.59a.974.974,0,0,0-.233-.705,1.026,1.026,0,0,0-.762-.239,1,1,0,0,0-.647.21.66.66,0,0,0-.261.537.638.638,0,0,0,.3.53A3.4,3.4,0,0,0,59.2,31.5a4.909,4.909,0,0,1,2.136.847,1.942,1.942,0,0,1,.69,1.6,2.083,2.083,0,0,1-.94,1.747,4.132,4.132,0,0,1-2.489.686,3.727,3.727,0,0,1-2.538-.814,2.24,2.24,0,0,1-.89-1.816l.015-.043h2.223a.984.984,0,0,0,.337.806,1.484,1.484,0,0,0,.92.248,1.226,1.226,0,0,0,.747-.193.645.645,0,0,0,.255-.549" transform="translate(7.875 4.027)" fill="#331f00"/>
          <path id="Trazado_1065979" data-name="Trazado 1065979" d="M67.434,36.211a2.988,2.988,0,0,1-.237-.559A4.375,4.375,0,0,1,67.049,35a2.99,2.99,0,0,1-.787,1,1.9,1.9,0,0,1-1.225.375,2.719,2.719,0,0,1-1.921-.635A2.245,2.245,0,0,1,62.429,34a2.1,2.1,0,0,1,.879-1.806,4.557,4.557,0,0,1,2.666-.637h1.01V31a1.121,1.121,0,0,0-.24-.77.933.933,0,0,0-.734-.269.883.883,0,0,0-.635.2.825.825,0,0,0-.207.621l-2.384-.007-.014-.043a2.048,2.048,0,0,1,.9-1.8,4.018,4.018,0,0,1,2.5-.723,3.665,3.665,0,0,1,2.364.726,2.511,2.511,0,0,1,.905,2.079V33.98a6.007,6.007,0,0,0,.105,1.163,6.158,6.158,0,0,0,.315,1.074ZM65.705,34.62a1.493,1.493,0,0,0,.8-.21,1.217,1.217,0,0,0,.483-.5V32.87H66a1.109,1.109,0,0,0-.849.283,1.016,1.016,0,0,0-.262.719.7.7,0,0,0,.229.542.851.851,0,0,0,.592.207" transform="translate(8.911 4.027)" fill="#331f00"/>
          <path id="Trazado_1065980" data-name="Trazado 1065980" d="M205.769,0H122.894a6.735,6.735,0,0,0-6.735,6.734V140.075a6.735,6.735,0,0,0,6.735,6.734h82.874a6.734,6.734,0,0,0,6.734-6.734V6.734A6.734,6.734,0,0,0,205.769,0" transform="translate(16.58)" fill="#80b500"/>
          <path id="Trazado_1065981" data-name="Trazado 1065981" d="M135.414,36.371a3.651,3.651,0,0,1-2.8-1.082A3.851,3.851,0,0,1,131.6,32.55v-.275a4.4,4.4,0,0,1,.955-2.936,3.4,3.4,0,0,1,2.764-1.126,3.183,3.183,0,0,1,2.466.952,3.7,3.7,0,0,1,.875,2.608v1.286h-4.5l-.015.043a1.521,1.521,0,0,0,.458,1,1.6,1.6,0,0,0,1.147.382,4.963,4.963,0,0,0,1.174-.117,7.358,7.358,0,0,0,1.072-.37l.587,1.5a4.48,4.48,0,0,1-1.366.624,6.271,6.271,0,0,1-1.8.255M135.32,30.1a1.016,1.016,0,0,0-.868.374,1.874,1.874,0,0,0-.322,1.014l.014.037h2.121v-.189a1.636,1.636,0,0,0-.214-.923.822.822,0,0,0-.73-.312" transform="translate(18.784 4.027)" fill="#331f00"/>
          <path id="Trazado_1065982" data-name="Trazado 1065982" d="M141.65,28.358l.087,1.039a2.608,2.608,0,0,1,.934-.875,2.638,2.638,0,0,1,1.289-.309,2.4,2.4,0,0,1,1.265.32,1.962,1.962,0,0,1,.8.974,2.638,2.638,0,0,1,.934-.955,2.555,2.555,0,0,1,1.332-.338,2.183,2.183,0,0,1,1.806.825,4.043,4.043,0,0,1,.657,2.538v4.643h-2.463V31.576a2.046,2.046,0,0,0-.235-1.158.827.827,0,0,0-.708-.317,1.473,1.473,0,0,0-.629.127,1.326,1.326,0,0,0-.462.353c0,.082,0,.153.008.214s.007.12.007.178v5.245h-2.455V31.576a2.064,2.064,0,0,0-.233-1.162.84.84,0,0,0-.72-.312,1.419,1.419,0,0,0-.606.127,1.316,1.316,0,0,0-.462.353v5.637h-2.456V28.358Z" transform="translate(19.888 4.027)" fill="#331f00"/>
          <path id="Trazado_1065983" data-name="Trazado 1065983" d="M158.483,32.455a4.644,4.644,0,0,1-.8,2.844,2.646,2.646,0,0,1-2.252,1.072,2.147,2.147,0,0,1-1.772-.85v3.72H151.2V28.358h2.317l.073.857a2.377,2.377,0,0,1,.78-.74,2.047,2.047,0,0,1,1.043-.262,2.615,2.615,0,0,1,2.263,1.126,5,5,0,0,1,.8,2.964Zm-2.448-.152a3.714,3.714,0,0,0-.29-1.6.97.97,0,0,0-.93-.6,1.484,1.484,0,0,0-.7.152,1.128,1.128,0,0,0-.454.443V33.98a1.053,1.053,0,0,0,.462.378,1.793,1.793,0,0,0,.708.123.965.965,0,0,0,.926-.534,3.269,3.269,0,0,0,.28-1.494Z" transform="translate(21.582 4.027)" fill="#331f00"/>
          <path id="Trazado_1065984" data-name="Trazado 1065984" d="M163.517,30.45l-.8-.008a1.362,1.362,0,0,0-.69.157.955.955,0,0,0-.4.44v5.179h-2.457v-7.86h2.311l.088,1.155a2.359,2.359,0,0,1,.653-.959,1.441,1.441,0,0,1,.953-.342,1.783,1.783,0,0,1,.3.022,2.375,2.375,0,0,1,.275.065Z" transform="translate(22.719 4.027)" fill="#331f00"/>
          <path id="Trazado_1065985" data-name="Trazado 1065985" d="M167.82,36.371a3.651,3.651,0,0,1-2.8-1.082,3.851,3.851,0,0,1-1.014-2.739v-.275a4.4,4.4,0,0,1,.955-2.936,3.4,3.4,0,0,1,2.764-1.126,3.183,3.183,0,0,1,2.466.952,3.7,3.7,0,0,1,.875,2.608v1.286h-4.5l-.015.043a1.522,1.522,0,0,0,.458,1,1.6,1.6,0,0,0,1.147.382,4.963,4.963,0,0,0,1.174-.117A7.357,7.357,0,0,0,170.4,34l.587,1.5a4.48,4.48,0,0,1-1.366.624,6.271,6.271,0,0,1-1.8.255m-.095-6.269a1.016,1.016,0,0,0-.868.374,1.874,1.874,0,0,0-.322,1.014l.014.037h2.121v-.189a1.636,1.636,0,0,0-.214-.923.822.822,0,0,0-.73-.312" transform="translate(23.409 4.027)" fill="#331f00"/>
          <path id="Trazado_1065986" data-name="Trazado 1065986" d="M175.893,34.01a.64.64,0,0,0-.33-.519,3.556,3.556,0,0,0-1.2-.411,4.744,4.744,0,0,1-2.071-.831,1.885,1.885,0,0,1-.7-1.552,2.207,2.207,0,0,1,.872-1.761,3.581,3.581,0,0,1,2.36-.723,4.058,4.058,0,0,1,2.5.7,2.062,2.062,0,0,1,.886,1.812l-.015.043h-2.383a.974.974,0,0,0-.233-.705,1.026,1.026,0,0,0-.762-.239,1,1,0,0,0-.647.21.66.66,0,0,0-.261.537.638.638,0,0,0,.3.53,3.4,3.4,0,0,0,1.217.392,4.909,4.909,0,0,1,2.136.847,1.942,1.942,0,0,1,.69,1.6,2.083,2.083,0,0,1-.94,1.747,4.132,4.132,0,0,1-2.489.686,3.727,3.727,0,0,1-2.538-.814,2.24,2.24,0,0,1-.89-1.816l.015-.043h2.223a.984.984,0,0,0,.337.806,1.484,1.484,0,0,0,.92.248,1.226,1.226,0,0,0,.747-.193.645.645,0,0,0,.255-.549" transform="translate(24.464 4.027)" fill="#331f00"/>
          <path id="Trazado_1065987" data-name="Trazado 1065987" d="M183.657,36.211a2.986,2.986,0,0,1-.237-.559,4.378,4.378,0,0,1-.149-.655,2.99,2.99,0,0,1-.787,1,1.9,1.9,0,0,1-1.225.375,2.719,2.719,0,0,1-1.921-.635A2.245,2.245,0,0,1,178.652,34a2.1,2.1,0,0,1,.879-1.806,4.557,4.557,0,0,1,2.666-.637h1.01V31a1.121,1.121,0,0,0-.24-.77.933.933,0,0,0-.734-.269.883.883,0,0,0-.635.2.825.825,0,0,0-.207.621l-2.384-.007-.014-.043a2.048,2.048,0,0,1,.9-1.8,4.018,4.018,0,0,1,2.5-.723,3.665,3.665,0,0,1,2.364.726,2.511,2.511,0,0,1,.905,2.079V33.98a6.007,6.007,0,0,0,.105,1.163,6.157,6.157,0,0,0,.315,1.074Zm-1.729-1.591a1.493,1.493,0,0,0,.8-.21,1.217,1.217,0,0,0,.483-.5V32.87h-.988a1.109,1.109,0,0,0-.849.283,1.016,1.016,0,0,0-.262.719.7.7,0,0,0,.229.542.851.851,0,0,0,.592.207" transform="translate(25.5 4.027)" fill="#331f00"/>
          <path id="Trazado_1065988" data-name="Trazado 1065988" d="M133.208,21.748V25.52h-1.66V15.57h3.813a3.687,3.687,0,0,1,2.579.85,2.889,2.889,0,0,1,.932,2.239,2.883,2.883,0,0,1-.932,2.245,3.706,3.706,0,0,1-2.579.843Zm0-1.332h2.153a1.818,1.818,0,0,0,1.387-.493,1.748,1.748,0,0,0,.464-1.25,1.677,1.677,0,0,0-1.851-1.77h-2.153Z" transform="translate(18.776 2.222)" fill="#331f00"/>
          <path id="Trazado_1065989" data-name="Trazado 1065989" d="M143.519,25.362a3.22,3.22,0,0,1-2.532-1.022,3.829,3.829,0,0,1-.912-2.649v-.273a3.958,3.958,0,0,1,.912-2.682,2.947,2.947,0,0,1,2.354-1.049,2.77,2.77,0,0,1,2.256.919,3.72,3.72,0,0,1,.764,2.457v.9H141.79l-.014.034a2.422,2.422,0,0,0,.478,1.475,1.633,1.633,0,0,0,1.361.568,3.729,3.729,0,0,0,1.171-.165,3.334,3.334,0,0,0,.919-.472l.541,1.087a3.512,3.512,0,0,1-1.121.622,4.683,4.683,0,0,1-1.606.254m-.178-6.342a1.284,1.284,0,0,0-1.039.469,2.314,2.314,0,0,0-.485,1.219l.014.034h2.89v-.13a1.861,1.861,0,0,0-.331-1.151,1.227,1.227,0,0,0-1.049-.441" transform="translate(19.993 2.525)" fill="#331f00"/>
          <path id="Trazado_1065990" data-name="Trazado 1065990" d="M147.71,21.623a4.877,4.877,0,0,1,.758-2.852,2.455,2.455,0,0,1,2.132-1.083,2.338,2.338,0,0,1,1.135.266,2.463,2.463,0,0,1,.841.764l.191-.895h1.346V28.06h-1.66V24.521a2.226,2.226,0,0,1-.807.629,2.76,2.76,0,0,1-3.178-.779,4.171,4.171,0,0,1-.758-2.6Zm1.66.144a3.041,3.041,0,0,0,.393,1.647,1.365,1.365,0,0,0,1.247.622,1.712,1.712,0,0,0,.858-.2,1.642,1.642,0,0,0,.584-.584V19.806a1.721,1.721,0,0,0-.587-.578,1.642,1.642,0,0,0-.841-.208,1.333,1.333,0,0,0-1.25.728,3.836,3.836,0,0,0-.4,1.875Z" transform="translate(21.083 2.525)" fill="#331f00"/>
          <path id="Trazado_1065991" data-name="Trazado 1065991" d="M160.758,24.107a2.5,2.5,0,0,1-.878.916,2.379,2.379,0,0,1-1.241.321,2.317,2.317,0,0,1-1.859-.783,3.683,3.683,0,0,1-.67-2.429V17.806h1.655v4.34a2.47,2.47,0,0,0,.306,1.452,1.141,1.141,0,0,0,.958.392,2.124,2.124,0,0,0,1.007-.215,1.551,1.551,0,0,0,.639-.625V17.806h1.662V25.2h-1.428Z" transform="translate(22.282 2.542)" fill="#331f00"/>
          <path id="Trazado_1065992" data-name="Trazado 1065992" d="M167.478,25.362a3.22,3.22,0,0,1-2.532-1.022,3.829,3.829,0,0,1-.912-2.649v-.273a3.958,3.958,0,0,1,.912-2.682,2.947,2.947,0,0,1,2.354-1.049,2.77,2.77,0,0,1,2.256.919,3.72,3.72,0,0,1,.765,2.457v.9h-4.571l-.014.034a2.422,2.422,0,0,0,.478,1.475,1.633,1.633,0,0,0,1.361.568,3.729,3.729,0,0,0,1.171-.165,3.334,3.334,0,0,0,.919-.472l.541,1.087a3.5,3.5,0,0,1-1.121.622,4.683,4.683,0,0,1-1.606.254m-.178-6.342a1.284,1.284,0,0,0-1.039.469,2.314,2.314,0,0,0-.485,1.219l.014.034h2.89v-.13a1.861,1.861,0,0,0-.331-1.151,1.227,1.227,0,0,0-1.049-.441" transform="translate(23.413 2.525)" fill="#331f00"/>
          <path id="Trazado_1065993" data-name="Trazado 1065993" d="M173.444,18.222l.095,1.066a2.646,2.646,0,0,1,.913-.884,2.425,2.425,0,0,1,1.24-.318,2.312,2.312,0,0,1,1.8.71,3.23,3.23,0,0,1,.646,2.221v4.6h-1.66V21.03a1.787,1.787,0,0,0-.335-1.223,1.311,1.311,0,0,0-1.011-.362,2,2,0,0,0-.923.2,1.62,1.62,0,0,0-.622.558v5.412h-1.66V18.222Zm4.032-3.061a1.6,1.6,0,0,1-.41,1.107,1.318,1.318,0,0,1-1.025.457,2.222,2.222,0,0,1-1.049-.3,2.082,2.082,0,0,0-.912-.3.566.566,0,0,0-.451.223.8.8,0,0,0-.184.529l-.9-.239a1.665,1.665,0,0,1,.407-1.118,1.288,1.288,0,0,1,1.022-.474,2.382,2.382,0,0,1,.994.3,2.379,2.379,0,0,0,.968.3.581.581,0,0,0,.45-.219.778.778,0,0,0,.192-.533Z" transform="translate(24.54 2.126)" fill="#331f00"/>
          <path id="Trazado_1065994" data-name="Trazado 1065994" d="M184.594,25.218c-.059-.187-.107-.369-.146-.547a3.89,3.89,0,0,1-.079-.533,2.852,2.852,0,0,1-.9.871,2.3,2.3,0,0,1-1.25.352,2.457,2.457,0,0,1-1.774-.594,2.158,2.158,0,0,1-.618-1.633,1.926,1.926,0,0,1,.848-1.671,4.087,4.087,0,0,1,2.384-.6h1.292v-.649a1.207,1.207,0,0,0-.338-.908,1.355,1.355,0,0,0-.98-.328,1.4,1.4,0,0,0-.9.27.86.86,0,0,0-.335.7l-1.6.007-.007-.041a1.83,1.83,0,0,1,.782-1.551,3.317,3.317,0,0,1,2.163-.676,3.16,3.16,0,0,1,2.084.656,2.306,2.306,0,0,1,.793,1.886v3.288a6.034,6.034,0,0,0,.062.878,4.65,4.65,0,0,0,.2.824Zm-2.029-1.19a2.08,2.08,0,0,0,1.124-.314,1.584,1.584,0,0,0,.666-.718V21.9h-1.319a1.666,1.666,0,0,0-1.135.359,1.093,1.093,0,0,0-.41.844.862.862,0,0,0,.277.673,1.155,1.155,0,0,0,.8.249" transform="translate(25.668 2.525)" fill="#331f00"/>
          <path id="Trazado_1065995" data-name="Trazado 1065995" d="M321.6,0H238.724a6.735,6.735,0,0,0-6.735,6.734V140.075a6.735,6.735,0,0,0,6.735,6.734H321.6a6.734,6.734,0,0,0,6.734-6.734V6.734A6.734,6.734,0,0,0,321.6,0" transform="translate(33.113)" fill="#687b71"/>
          <path id="Trazado_1065996" data-name="Trazado 1065996" d="M251.244,36.371a3.651,3.651,0,0,1-2.8-1.082,3.851,3.851,0,0,1-1.014-2.739v-.275a4.4,4.4,0,0,1,.955-2.936,3.4,3.4,0,0,1,2.764-1.126,3.182,3.182,0,0,1,2.466.952,3.7,3.7,0,0,1,.875,2.608v1.286h-4.5l-.015.043a1.521,1.521,0,0,0,.458,1,1.6,1.6,0,0,0,1.147.382,4.963,4.963,0,0,0,1.174-.117,7.354,7.354,0,0,0,1.072-.37l.587,1.5a4.48,4.48,0,0,1-1.366.624,6.271,6.271,0,0,1-1.8.255M251.15,30.1a1.016,1.016,0,0,0-.868.374,1.874,1.874,0,0,0-.322,1.014l.014.037h2.121v-.189a1.636,1.636,0,0,0-.214-.923.822.822,0,0,0-.73-.312" transform="translate(35.317 4.027)" fill="#331f00"/>
          <path id="Trazado_1065997" data-name="Trazado 1065997" d="M257.48,28.358l.087,1.039a2.6,2.6,0,0,1,.934-.875,2.638,2.638,0,0,1,1.289-.309,2.4,2.4,0,0,1,1.265.32,1.962,1.962,0,0,1,.8.974,2.638,2.638,0,0,1,.934-.955,2.555,2.555,0,0,1,1.332-.338,2.182,2.182,0,0,1,1.805.825,4.043,4.043,0,0,1,.657,2.538v4.643h-2.463V31.576a2.046,2.046,0,0,0-.235-1.158.827.827,0,0,0-.708-.317,1.473,1.473,0,0,0-.628.127,1.326,1.326,0,0,0-.462.353c0,.082,0,.153.007.214s.008.12.008.178v5.245h-2.455V31.576a2.064,2.064,0,0,0-.233-1.162.84.84,0,0,0-.72-.312,1.42,1.42,0,0,0-.606.127,1.315,1.315,0,0,0-.462.353v5.637h-2.456V28.358Z" transform="translate(36.421 4.027)" fill="#331f00"/>
          <path id="Trazado_1065998" data-name="Trazado 1065998" d="M274.313,32.455a4.644,4.644,0,0,1-.8,2.844,2.646,2.646,0,0,1-2.252,1.072,2.147,2.147,0,0,1-1.772-.85v3.72h-2.456V28.358h2.317l.073.857a2.378,2.378,0,0,1,.78-.74,2.047,2.047,0,0,1,1.043-.262,2.616,2.616,0,0,1,2.263,1.126,5,5,0,0,1,.8,2.964Zm-2.448-.152a3.714,3.714,0,0,0-.29-1.6.97.97,0,0,0-.93-.6,1.476,1.476,0,0,0-.7.152,1.124,1.124,0,0,0-.455.443V33.98a1.053,1.053,0,0,0,.462.378,1.793,1.793,0,0,0,.709.123.965.965,0,0,0,.926-.534,3.269,3.269,0,0,0,.28-1.494Z" transform="translate(38.115 4.027)" fill="#331f00"/>
          <path id="Trazado_1065999" data-name="Trazado 1065999" d="M279.347,30.45l-.8-.008a1.362,1.362,0,0,0-.69.157.955.955,0,0,0-.4.44v5.179H275v-7.86h2.311l.088,1.155a2.359,2.359,0,0,1,.652-.959,1.441,1.441,0,0,1,.953-.342,1.783,1.783,0,0,1,.3.022,2.446,2.446,0,0,1,.277.065Z" transform="translate(39.252 4.027)" fill="#331f00"/>
          <path id="Trazado_1066000" data-name="Trazado 1066000" d="M283.65,36.371a3.651,3.651,0,0,1-2.8-1.082,3.851,3.851,0,0,1-1.014-2.739v-.275a4.4,4.4,0,0,1,.955-2.936,3.4,3.4,0,0,1,2.764-1.126,3.182,3.182,0,0,1,2.466.952,3.7,3.7,0,0,1,.875,2.608v1.286h-4.5l-.015.043a1.521,1.521,0,0,0,.458,1,1.6,1.6,0,0,0,1.147.382,4.963,4.963,0,0,0,1.174-.117A7.357,7.357,0,0,0,286.23,34l.587,1.5a4.48,4.48,0,0,1-1.366.624,6.271,6.271,0,0,1-1.8.255m-.095-6.269a1.016,1.016,0,0,0-.868.374,1.874,1.874,0,0,0-.322,1.014l.014.037H284.5v-.189a1.636,1.636,0,0,0-.214-.923.822.822,0,0,0-.73-.312" transform="translate(39.942 4.027)" fill="#331f00"/>
          <path id="Trazado_1066001" data-name="Trazado 1066001" d="M291.723,34.01a.64.64,0,0,0-.33-.519,3.557,3.557,0,0,0-1.2-.411,4.743,4.743,0,0,1-2.071-.831,1.885,1.885,0,0,1-.7-1.552,2.207,2.207,0,0,1,.872-1.761,3.581,3.581,0,0,1,2.36-.723,4.058,4.058,0,0,1,2.5.7,2.062,2.062,0,0,1,.886,1.812l-.015.043h-2.383a.974.974,0,0,0-.233-.705,1.026,1.026,0,0,0-.762-.239,1,1,0,0,0-.647.21.66.66,0,0,0-.261.537.641.641,0,0,0,.3.53,3.4,3.4,0,0,0,1.217.392,4.909,4.909,0,0,1,2.136.847,1.942,1.942,0,0,1,.69,1.6,2.083,2.083,0,0,1-.941,1.747,4.132,4.132,0,0,1-2.489.686,3.727,3.727,0,0,1-2.538-.814,2.24,2.24,0,0,1-.89-1.816l.015-.043h2.223a.981.981,0,0,0,.338.806,1.478,1.478,0,0,0,.919.248,1.226,1.226,0,0,0,.747-.193.645.645,0,0,0,.255-.549" transform="translate(40.997 4.027)" fill="#331f00"/>
          <path id="Trazado_1066002" data-name="Trazado 1066002" d="M299.487,36.211a2.988,2.988,0,0,1-.237-.559A4.372,4.372,0,0,1,299.1,35a2.991,2.991,0,0,1-.787,1,1.9,1.9,0,0,1-1.225.375,2.719,2.719,0,0,1-1.921-.635A2.245,2.245,0,0,1,294.482,34a2.1,2.1,0,0,1,.879-1.806,4.557,4.557,0,0,1,2.666-.637h1.01V31a1.121,1.121,0,0,0-.24-.77.933.933,0,0,0-.734-.269.883.883,0,0,0-.635.2.825.825,0,0,0-.207.621l-2.384-.007-.014-.043a2.048,2.048,0,0,1,.9-1.8,4.018,4.018,0,0,1,2.5-.723,3.665,3.665,0,0,1,2.364.726,2.511,2.511,0,0,1,.905,2.079V33.98a6.006,6.006,0,0,0,.105,1.163,6.156,6.156,0,0,0,.315,1.074Zm-1.729-1.591a1.493,1.493,0,0,0,.8-.21,1.217,1.217,0,0,0,.483-.5V32.87h-.988a1.113,1.113,0,0,0-.85.283,1.02,1.02,0,0,0-.261.719.7.7,0,0,0,.229.542.851.851,0,0,0,.592.207" transform="translate(42.032 4.027)" fill="#331f00"/>
          <path id="Trazado_1066003" data-name="Trazado 1066003" d="M252.7,22.782h.041l2.876-7.654h2.119v9.95h-1.66V17.93l-.04-.007-2.74,7.155h-1.142l-2.789-7.291-.04.014v7.277h-1.66v-9.95h2.179Z" transform="translate(35.351 2.159)" fill="#331f00"/>
          <path id="Trazado_1066004" data-name="Trazado 1066004" d="M262.568,24.92a3.22,3.22,0,0,1-2.532-1.022,3.829,3.829,0,0,1-.912-2.649v-.273a3.958,3.958,0,0,1,.912-2.682,2.948,2.948,0,0,1,2.354-1.049,2.768,2.768,0,0,1,2.256.919,3.713,3.713,0,0,1,.765,2.457v.9h-4.571l-.014.034a2.422,2.422,0,0,0,.478,1.475,1.635,1.635,0,0,0,1.361.568,3.728,3.728,0,0,0,1.171-.165,3.357,3.357,0,0,0,.92-.472l.539,1.087a3.5,3.5,0,0,1-1.121.622,4.679,4.679,0,0,1-1.606.254m-.178-6.342a1.284,1.284,0,0,0-1.039.469,2.324,2.324,0,0,0-.485,1.219l.014.034h2.891v-.13a1.861,1.861,0,0,0-.333-1.151,1.227,1.227,0,0,0-1.049-.441" transform="translate(36.986 2.461)" fill="#331f00"/>
          <path id="Trazado_1066005" data-name="Trazado 1066005" d="M266.761,21.571a4.867,4.867,0,0,1,.758-2.851,2.454,2.454,0,0,1,2.132-1.084,2.34,2.34,0,0,1,1.076.243,2.437,2.437,0,0,1,.824.692V14.507h1.66V25.168h-1.346l-.2-.937a2.441,2.441,0,0,1-.862.8,2.385,2.385,0,0,1-1.168.277,2.514,2.514,0,0,1-2.119-.991,4.164,4.164,0,0,1-.758-2.6Zm1.66.144a2.974,2.974,0,0,0,.392,1.633,1.376,1.376,0,0,0,1.248.609,1.67,1.67,0,0,0,.891-.225,1.713,1.713,0,0,0,.6-.642V19.864a1.754,1.754,0,0,0-.6-.639,1.619,1.619,0,0,0-.874-.229,1.339,1.339,0,0,0-1.251.714,3.767,3.767,0,0,0-.4,1.86Z" transform="translate(38.076 2.071)" fill="#331f00"/>
          <path id="Trazado_1066006" data-name="Trazado 1066006" d="M276.947,15.962h-1.66V14.506h1.66Zm0,9.2h-1.66V17.772h1.66Z" transform="translate(39.293 2.07)" fill="#331f00"/>
          <path id="Trazado_1066007" data-name="Trazado 1066007" d="M284.085,24.777c-.059-.187-.107-.369-.146-.547a3.888,3.888,0,0,1-.079-.533,2.859,2.859,0,0,1-.895.871,2.3,2.3,0,0,1-1.25.352,2.46,2.46,0,0,1-1.775-.594,2.157,2.157,0,0,1-.617-1.633,1.928,1.928,0,0,1,.847-1.671,4.089,4.089,0,0,1,2.385-.6h1.291v-.649a1.207,1.207,0,0,0-.338-.908,1.357,1.357,0,0,0-.98-.328,1.4,1.4,0,0,0-.9.27.858.858,0,0,0-.336.7l-1.6.007-.007-.041a1.831,1.831,0,0,1,.783-1.551,3.311,3.311,0,0,1,2.162-.676,3.165,3.165,0,0,1,2.085.656,2.309,2.309,0,0,1,.792,1.886v3.288a6.038,6.038,0,0,0,.062.878,4.559,4.559,0,0,0,.2.824Zm-2.029-1.19a2.082,2.082,0,0,0,1.124-.314,1.584,1.584,0,0,0,.666-.718V21.462h-1.319a1.666,1.666,0,0,0-1.135.359,1.092,1.092,0,0,0-.409.844.858.858,0,0,0,.277.673,1.15,1.15,0,0,0,.8.249" transform="translate(39.869 2.462)" fill="#331f00"/>
          <path id="Trazado_1066008" data-name="Trazado 1066008" d="M288.984,17.382l.1,1.066a2.634,2.634,0,0,1,.912-.884,2.425,2.425,0,0,1,1.24-.318,2.31,2.31,0,0,1,1.8.71,3.23,3.23,0,0,1,.646,2.221v4.6h-1.66V20.191a1.784,1.784,0,0,0-.335-1.223,1.308,1.308,0,0,0-1.011-.362,1.975,1.975,0,0,0-.922.2,1.614,1.614,0,0,0-.623.558v5.412h-1.66V17.382Z" transform="translate(41.031 2.462)" fill="#331f00"/>
          <path id="Trazado_1066009" data-name="Trazado 1066009" d="M300.134,24.777c-.059-.187-.109-.369-.147-.547a4.075,4.075,0,0,1-.079-.533,2.824,2.824,0,0,1-.895.871,2.3,2.3,0,0,1-1.25.352,2.458,2.458,0,0,1-1.774-.594,2.158,2.158,0,0,1-.618-1.633,1.926,1.926,0,0,1,.848-1.671,4.085,4.085,0,0,1,2.384-.6H299.9v-.649a1.207,1.207,0,0,0-.338-.908,1.355,1.355,0,0,0-.98-.328,1.4,1.4,0,0,0-.9.27.86.86,0,0,0-.335.7l-1.6.007-.008-.041a1.834,1.834,0,0,1,.783-1.551,3.317,3.317,0,0,1,2.163-.676,3.162,3.162,0,0,1,2.084.656,2.306,2.306,0,0,1,.793,1.886v3.288a6.034,6.034,0,0,0,.062.878,4.551,4.551,0,0,0,.2.824Zm-2.03-1.19a2.076,2.076,0,0,0,1.123-.314,1.581,1.581,0,0,0,.667-.718V21.462h-1.319a1.666,1.666,0,0,0-1.135.359,1.089,1.089,0,0,0-.41.844.858.858,0,0,0,.277.673,1.155,1.155,0,0,0,.8.249" transform="translate(42.159 2.462)" fill="#331f00"/>
          <path id="Trazado_1066010" data-name="Trazado 1066010" d="M435.221,0H352.346a6.735,6.735,0,0,0-6.735,6.734V140.075a6.735,6.735,0,0,0,6.735,6.734h82.874a6.734,6.734,0,0,0,6.734-6.734V6.734A6.734,6.734,0,0,0,435.221,0" transform="translate(49.33)" fill="#d02411"/>
          <path id="Trazado_1066011" data-name="Trazado 1066011" d="M364.866,36.371a3.651,3.651,0,0,1-2.8-1.082,3.851,3.851,0,0,1-1.014-2.739v-.275a4.4,4.4,0,0,1,.955-2.936,3.4,3.4,0,0,1,2.764-1.126,3.184,3.184,0,0,1,2.466.952,3.708,3.708,0,0,1,.875,2.608v1.286h-4.5l-.015.043a1.521,1.521,0,0,0,.458,1,1.6,1.6,0,0,0,1.147.382,4.97,4.97,0,0,0,1.174-.117,7.3,7.3,0,0,0,1.071-.37l.589,1.5a4.494,4.494,0,0,1-1.366.624,6.277,6.277,0,0,1-1.8.255m-.095-6.269a1.015,1.015,0,0,0-.868.374,1.884,1.884,0,0,0-.323,1.014l.015.037h2.121v-.189a1.646,1.646,0,0,0-.214-.923.822.822,0,0,0-.73-.312" transform="translate(51.534 4.027)" fill="#331f00"/>
          <path id="Trazado_1066012" data-name="Trazado 1066012" d="M371.1,28.358l.087,1.039a2.546,2.546,0,0,1,2.224-1.184,2.4,2.4,0,0,1,1.264.32,1.956,1.956,0,0,1,.8.974,2.638,2.638,0,0,1,.934-.955,2.559,2.559,0,0,1,1.334-.338,2.182,2.182,0,0,1,1.8.825,4.036,4.036,0,0,1,.657,2.538v4.643h-2.461V31.576a2.044,2.044,0,0,0-.237-1.158.826.826,0,0,0-.708-.317,1.473,1.473,0,0,0-.629.127,1.337,1.337,0,0,0-.462.353c0,.082,0,.153.008.214s.008.12.008.178v5.245h-2.456V31.576a2.064,2.064,0,0,0-.233-1.162.839.839,0,0,0-.719-.312,1.421,1.421,0,0,0-.607.127,1.3,1.3,0,0,0-.461.353v5.637h-2.457V28.358Z" transform="translate(52.639 4.027)" fill="#331f00"/>
          <path id="Trazado_1066013" data-name="Trazado 1066013" d="M387.935,32.455a4.644,4.644,0,0,1-.8,2.844,2.646,2.646,0,0,1-2.252,1.072,2.147,2.147,0,0,1-1.772-.85v3.72h-2.456V28.358h2.317l.073.857a2.366,2.366,0,0,1,.781-.74,2.047,2.047,0,0,1,1.043-.262,2.616,2.616,0,0,1,2.263,1.126,5,5,0,0,1,.8,2.964Zm-2.448-.152a3.713,3.713,0,0,0-.29-1.6.97.97,0,0,0-.93-.6,1.481,1.481,0,0,0-.7.152,1.128,1.128,0,0,0-.454.443V33.98a1.047,1.047,0,0,0,.462.378,1.793,1.793,0,0,0,.708.123.965.965,0,0,0,.926-.534,3.269,3.269,0,0,0,.28-1.494Z" transform="translate(54.332 4.027)" fill="#331f00"/>
          <path id="Trazado_1066014" data-name="Trazado 1066014" d="M392.969,30.45l-.8-.008a1.361,1.361,0,0,0-.689.157.958.958,0,0,0-.4.44v5.179h-2.456v-7.86h2.311l.088,1.155a2.359,2.359,0,0,1,.652-.959,1.439,1.439,0,0,1,.953-.342,1.783,1.783,0,0,1,.3.022,2.375,2.375,0,0,1,.275.065Z" transform="translate(55.47 4.027)" fill="#331f00"/>
          <path id="Trazado_1066015" data-name="Trazado 1066015" d="M397.272,36.371a3.651,3.651,0,0,1-2.8-1.082,3.851,3.851,0,0,1-1.014-2.739v-.275a4.4,4.4,0,0,1,.955-2.936,3.4,3.4,0,0,1,2.764-1.126,3.184,3.184,0,0,1,2.466.952,3.708,3.708,0,0,1,.875,2.608v1.286h-4.5L396,33.1a1.521,1.521,0,0,0,.458,1,1.6,1.6,0,0,0,1.147.382,4.97,4.97,0,0,0,1.174-.117,7.3,7.3,0,0,0,1.071-.37l.588,1.5a4.493,4.493,0,0,1-1.366.624,6.277,6.277,0,0,1-1.8.255m-.095-6.269a1.014,1.014,0,0,0-.868.374,1.884,1.884,0,0,0-.323,1.014l.015.037h2.121v-.189a1.645,1.645,0,0,0-.214-.923.822.822,0,0,0-.73-.312" transform="translate(56.16 4.027)" fill="#331f00"/>
          <path id="Trazado_1066016" data-name="Trazado 1066016" d="M405.345,34.01a.64.64,0,0,0-.33-.519,3.556,3.556,0,0,0-1.2-.411,4.738,4.738,0,0,1-2.071-.831,1.885,1.885,0,0,1-.7-1.552,2.206,2.206,0,0,1,.871-1.761,3.584,3.584,0,0,1,2.361-.723,4.058,4.058,0,0,1,2.5.7,2.062,2.062,0,0,1,.886,1.812l-.015.043h-2.383a.973.973,0,0,0-.233-.705,1.026,1.026,0,0,0-.762-.239,1,1,0,0,0-.647.21.658.658,0,0,0-.262.537.64.64,0,0,0,.3.53,3.4,3.4,0,0,0,1.217.392,4.909,4.909,0,0,1,2.136.847,1.945,1.945,0,0,1,.69,1.6,2.086,2.086,0,0,1-.94,1.747,4.132,4.132,0,0,1-2.489.686,3.73,3.73,0,0,1-2.539-.814,2.239,2.239,0,0,1-.889-1.816l.014-.043h2.224a.984.984,0,0,0,.337.806,1.482,1.482,0,0,0,.919.248,1.227,1.227,0,0,0,.748-.193.648.648,0,0,0,.255-.549" transform="translate(57.214 4.027)" fill="#331f00"/>
          <path id="Trazado_1066017" data-name="Trazado 1066017" d="M413.109,36.211a2.986,2.986,0,0,1-.237-.559,4.233,4.233,0,0,1-.149-.655,3,3,0,0,1-.787,1,1.9,1.9,0,0,1-1.225.375,2.717,2.717,0,0,1-1.921-.635A2.245,2.245,0,0,1,408.1,34a2.1,2.1,0,0,1,.879-1.806,4.557,4.557,0,0,1,2.666-.637h1.01V31a1.121,1.121,0,0,0-.24-.77.933.933,0,0,0-.734-.269.883.883,0,0,0-.635.2.825.825,0,0,0-.208.621l-2.383-.007-.014-.043a2.048,2.048,0,0,1,.9-1.8,4.018,4.018,0,0,1,2.5-.723,3.668,3.668,0,0,1,2.364.726,2.514,2.514,0,0,1,.905,2.079V33.98a6.008,6.008,0,0,0,.105,1.163,6.159,6.159,0,0,0,.315,1.074ZM411.38,34.62a1.492,1.492,0,0,0,.8-.21,1.217,1.217,0,0,0,.483-.5V32.87h-.988a1.111,1.111,0,0,0-.85.283,1.021,1.021,0,0,0-.262.719.7.7,0,0,0,.23.542.851.851,0,0,0,.592.207" transform="translate(58.25 4.027)" fill="#331f00"/>
          <path id="Trazado_1066018" data-name="Trazado 1066018" d="M378.234,23.738a3.96,3.96,0,0,1-1.482,1.174,5.838,5.838,0,0,1-2.629.514,4.452,4.452,0,0,1-3.286-1.289,4.51,4.51,0,0,1-1.289-3.333V18.449a4.593,4.593,0,0,1,1.247-3.333A4.262,4.262,0,0,1,374,13.827a4.417,4.417,0,0,1,3.066.991,3.227,3.227,0,0,1,1.068,2.587l-.023.046h-1.789a2.046,2.046,0,0,0-.592-1.532,2.6,2.6,0,0,0-3.585.294,3.4,3.4,0,0,0-.717,2.223V20.8a3.341,3.341,0,0,0,.747,2.242,2.437,2.437,0,0,0,1.947.879,4.05,4.05,0,0,0,1.433-.206,2.1,2.1,0,0,0,.8-.5v-2.33h-2.362v-1.41h4.243Z" transform="translate(52.747 1.974)" fill="#331f00"/>
          <path id="Trazado_1066019" data-name="Trazado 1066019" d="M385.94,18.219l-.806-.031a1.689,1.689,0,0,0-.917.232,1.529,1.529,0,0,0-.569.658V24.9h-1.881V16.523h1.717l.125,1.216a2.693,2.693,0,0,1,.816-1.007,1.906,1.906,0,0,1,1.151-.363,1.828,1.828,0,0,1,.316.026,2.412,2.412,0,0,1,.271.066Z" transform="translate(54.491 2.336)" fill="#331f00"/>
          <path id="Trazado_1066020" data-name="Trazado 1066020" d="M394.507,24.9q-.1-.317-.167-.619a4.218,4.218,0,0,1-.089-.6,3.21,3.21,0,0,1-1.015.986,2.6,2.6,0,0,1-1.417.4,2.783,2.783,0,0,1-2.009-.673,2.446,2.446,0,0,1-.7-1.85,2.186,2.186,0,0,1,.961-1.894,4.635,4.635,0,0,1,2.7-.678h1.463v-.736a1.365,1.365,0,0,0-.383-1.03,1.533,1.533,0,0,0-1.111-.371,1.577,1.577,0,0,0-1.023.306.971.971,0,0,0-.379.793l-1.811.008-.009-.047a2.077,2.077,0,0,1,.887-1.758,3.76,3.76,0,0,1,2.451-.767,3.587,3.587,0,0,1,2.362.744,2.615,2.615,0,0,1,.9,2.137v3.724a6.981,6.981,0,0,0,.069,1,5.353,5.353,0,0,0,.225.932Zm-2.3-1.347a2.352,2.352,0,0,0,1.274-.357,1.781,1.781,0,0,0,.754-.812V21.146h-1.494a1.885,1.885,0,0,0-1.286.406,1.239,1.239,0,0,0-.465.956.978.978,0,0,0,.314.763,1.3,1.3,0,0,0,.9.282" transform="translate(55.539 2.336)" fill="#331f00"/>
          <path id="Trazado_1066021" data-name="Trazado 1066021" d="M401.443,16.523l.109,1.208a3.011,3.011,0,0,1,1.034-1,2.77,2.77,0,0,1,1.406-.36,2.616,2.616,0,0,1,2.04.806,3.666,3.666,0,0,1,.731,2.517V24.9h-1.881v-5.2a2.027,2.027,0,0,0-.379-1.386,1.49,1.49,0,0,0-1.146-.41,2.234,2.234,0,0,0-1.046.229,1.816,1.816,0,0,0-.7.631V24.9h-1.882V16.523Z" transform="translate(57.054 2.336)" fill="#331f00"/>
          <path id="Trazado_1066022" data-name="Trazado 1066022" d="M197.174,123.663h-3.969V101.138a6.585,6.585,0,0,0,2.645-5.258V90.589a1.326,1.326,0,0,0-.387-.936l-7.55-7.55V65.452h1.322a1.323,1.323,0,0,0,1.323-1.323V58.837a1.322,1.322,0,0,0-.387-.935l-7.937-7.939a1.326,1.326,0,0,0-.936-.387H144.254a1.322,1.322,0,0,0-.935.387L135.381,57.9a1.322,1.322,0,0,0-.387.935v5.292a1.323,1.323,0,0,0,1.323,1.323h1.323V82.1l-7.551,7.55a1.326,1.326,0,0,0-.387.936v5.292a6.583,6.583,0,0,0,2.647,5.258v22.524h-3.97a1.323,1.323,0,0,0-1.322,1.323v5.292a1.322,1.322,0,0,0,1.322,1.323h68.8a1.323,1.323,0,0,0,1.323-1.323v-5.292a1.324,1.324,0,0,0-1.323-1.323m-7.939-23.813a3.969,3.969,0,0,1-3.969-3.969V91.912h7.939v3.969a3.969,3.969,0,0,1-3.97,3.969m-56.888-3.969V91.912h7.937v3.969a3.969,3.969,0,0,1-7.937,0m10.584-3.969h7.937v3.969a3.969,3.969,0,1,1-7.937,0Zm10.583,0h7.939v3.969a3.969,3.969,0,0,1-7.939,0Zm10.584,0h7.939v3.969a3.969,3.969,0,0,1-7.939,0Zm10.584,0h7.939v3.969a3.969,3.969,0,0,1-7.939,0ZM137.64,60.16h50.273v2.645H137.64Zm7.163-7.939h35.948l5.292,5.292H139.511Zm40.464,29.107H140.285V65.452h44.981Zm-45.756,2.645h46.532l5.292,5.292H134.219Zm-4.517,18.39a6.564,6.564,0,0,0,6.615-2.554,6.554,6.554,0,0,0,10.584,0,6.554,6.554,0,0,0,10.584,0,6.554,6.554,0,0,0,10.584,0,6.554,6.554,0,0,0,10.584,0,6.562,6.562,0,0,0,6.614,2.554v21.3H153.515v-17.2a1.322,1.322,0,0,0-1.322-1.323H138.962a1.322,1.322,0,0,0-1.322,1.323v17.2h-2.647Zm15.876,21.3H140.285V107.787h10.584Zm44.981,5.292H129.7v-2.645h66.149Z" transform="translate(18.135 7.076)" fill="#fff"/>
          <path id="Trazado_1066023" data-name="Trazado 1066023" d="M143.429,76.368h7.937a1.322,1.322,0,0,0,1.323-1.322V67.107a1.323,1.323,0,0,0-1.323-1.323h-7.937a1.324,1.324,0,0,0-1.323,1.323v7.939a1.323,1.323,0,0,0,1.323,1.322m1.323-7.937h5.292v5.292h-5.292Z" transform="translate(20.283 9.39)" fill="#fff"/>
          <path id="Trazado_1066024" data-name="Trazado 1066024" d="M155.006,76.368h7.939a1.323,1.323,0,0,0,1.323-1.322V67.107a1.324,1.324,0,0,0-1.323-1.323h-7.939a1.323,1.323,0,0,0-1.322,1.323v7.939a1.322,1.322,0,0,0,1.322,1.322m1.323-7.937h5.292v5.292h-5.292Z" transform="translate(21.936 9.39)" fill="#fff"/>
          <path id="Trazado_1066025" data-name="Trazado 1066025" d="M166.15,76.368h7.937a1.322,1.322,0,0,0,1.323-1.322V67.107a1.323,1.323,0,0,0-1.323-1.323H166.15a1.323,1.323,0,0,0-1.323,1.323v7.939a1.322,1.322,0,0,0,1.323,1.322m1.322-7.937h5.292v5.292h-5.292Z" transform="translate(23.526 9.39)" fill="#fff"/>
          <path id="Trazado_1066026" data-name="Trazado 1066026" d="M153.415,114.077h29.105a1.323,1.323,0,0,0,1.323-1.323V99.524a1.323,1.323,0,0,0-1.323-1.323H153.415a1.323,1.323,0,0,0-1.323,1.323v13.229a1.323,1.323,0,0,0,1.323,1.323m1.322-13.229H181.2v10.584h-26.46Z" transform="translate(21.709 14.017)" fill="#fff"/>
          <rect id="Rectángulo_402039" data-name="Rectángulo 402039" width="2.645" height="2.645" transform="translate(159.248 121.478)" fill="#fff"/>
          <rect id="Rectángulo_402040" data-name="Rectángulo 402040" width="7.482" height="2.646" transform="matrix(0.707, -0.707, 0.707, 0.707, 180.792, 121.864)" fill="#fff"/>
          <rect id="Rectángulo_402041" data-name="Rectángulo 402041" width="7.482" height="2.646" transform="matrix(0.707, -0.707, 0.707, 0.707, 191.374, 121.864)" fill="#fff"/>
          <path id="Trazado_1066027" data-name="Trazado 1066027" d="M246.228,130.851a1.519,1.519,0,0,1-1.52-1.52V56.352a1.52,1.52,0,1,1,3.041,0v72.98A1.52,1.52,0,0,1,246.228,130.851Z" transform="translate(34.928 7.826)" fill="#fff"/>
          <path id="Trazado_1066028" data-name="Trazado 1066028" d="M280.056,130.1H246.228a1.519,1.519,0,0,1-1.52-1.521V61.62a1.521,1.521,0,0,1,1.946-1.459l33.828,9.881a1.521,1.521,0,0,1,1.094,1.459v57.077A1.519,1.519,0,0,1,280.056,130.1Zm-32.307-3.041h30.786V72.641l-30.786-8.993Z" transform="translate(34.928 8.578)" fill="#fff"/>
          <path id="Trazado_1066029" data-name="Trazado 1066029" d="M306.238,127.4H275.83a1.519,1.519,0,0,1-1.52-1.521V80.523A1.519,1.519,0,0,1,275.83,79h30.408a1.52,1.52,0,0,1,1.521,1.521V125.88a1.52,1.52,0,0,1-1.521,1.521m-28.887-3.041h27.367V82.043H277.351Z" transform="translate(39.153 11.276)" fill="#fff"/>
          <path id="Trazado_1066030" data-name="Trazado 1066030" d="M267.974,123.429H255.626a1.52,1.52,0,0,1-1.521-1.521V108.353a1.52,1.52,0,0,1,1.521-1.521h12.348a1.52,1.52,0,0,1,1.521,1.521v13.555a1.52,1.52,0,0,1-1.521,1.521m-10.829-3.041h9.308V109.873h-9.308Z" transform="translate(36.269 15.249)" fill="#fff"/>
          <path id="Trazado_1066031" data-name="Trazado 1066031" d="M273.321,77.858H251.465a1.52,1.52,0,0,1,0-3.041h21.856a1.52,1.52,0,0,1,0,3.041" transform="translate(35.676 10.679)" fill="#fff"/>
          <path id="Trazado_1066032" data-name="Trazado 1066032" d="M273.321,86.145H251.465a1.52,1.52,0,0,1,0-3.041h21.856a1.52,1.52,0,0,1,0,3.041" transform="translate(35.676 11.862)" fill="#fff"/>
          <path id="Trazado_1066033" data-name="Trazado 1066033" d="M273.321,94.434H251.465a1.52,1.52,0,0,1,0-3.041h21.856a1.52,1.52,0,0,1,0,3.041" transform="translate(35.676 13.045)" fill="#fff"/>
          <path id="Trazado_1066034" data-name="Trazado 1066034" d="M273.321,102.722H251.465a1.52,1.52,0,0,1,0-3.041h21.856a1.52,1.52,0,0,1,0,3.041" transform="translate(35.676 14.228)" fill="#fff"/>
          <path id="Trazado_1066035" data-name="Trazado 1066035" d="M298.435,91.912h-15.2a1.52,1.52,0,0,1,0-3.041h15.2a1.52,1.52,0,1,1,0,3.041" transform="translate(40.21 12.685)" fill="#fff"/>
          <path id="Trazado_1066036" data-name="Trazado 1066036" d="M298.435,101.89h-15.2a1.52,1.52,0,0,1,0-3.041h15.2a1.52,1.52,0,1,1,0,3.041" transform="translate(40.21 14.109)" fill="#fff"/>
          <path id="Trazado_1066037" data-name="Trazado 1066037" d="M298.435,111.869h-15.2a1.52,1.52,0,0,1,0-3.041h15.2a1.52,1.52,0,1,1,0,3.041" transform="translate(40.21 15.533)" fill="#fff"/>
          <path id="Trazado_1066038" data-name="Trazado 1066038" d="M402.513,102.181h2.267V73.551c0-1.4.237-1.634,1.634-1.635,1.25,0,2.5,0,3.852,0V71.09q0-2.854,0-5.709c0-1.049.313-1.537.985-1.544.7-.008,1.033.5,1.034,1.591v6.448h1.867v-.81q0-4.769,0-9.538a6.3,6.3,0,0,1,.024-.721.982.982,0,0,1,1.928-.11,3.482,3.482,0,0,1,.063.788q.007,4.733,0,9.466v.91H418c.014-.249.037-.5.038-.756,0-2.048-.007-4.1.009-6.142a1.015,1.015,0,0,1,.971-1.126c.586-.016.992.432,1.033,1.147.011.192,0,.385,0,.578v6.354c1.35,0,2.619,0,3.888,0,1.332,0,1.592.263,1.592,1.617q0,13.84,0,27.677v1.01c.429,0,.781,0,1.134,0,.908.014,1.244.353,1.252,1.28.007.771,0,1.543,0,2.313q0,9.973,0,19.944c0,1.247-.266,1.513-1.531,1.513H358.04c-1.222,0-1.5-.278-1.5-1.468,0-3.54.014-7.082-.013-10.622a1.57,1.57,0,0,1,.846-1.53c.975-.573,1.932-1.179,2.859-1.826a1.678,1.678,0,0,0,.638-.872q6.015-23.631,11.988-47.269c.347-1.375.458-1.468,1.852-1.468,1.71,0,3.419,0,5.13,0,.906,0,1.18.224,1.407,1.116,1.355,5.362,2.724,10.72,4.046,16.091.167.674.433.849,1.107.844,4.889-.032,9.778-.017,14.667-.016,1.178,0,1.447.264,1.447,1.434q0,9.827,0,19.655Zm23.36,7.848c-.255-.013-.446-.03-.635-.03q-28.893,0-57.785.011a2,2,0,0,0-1,.293c-2.449,1.528-4.876,3.092-7.323,4.623a1.052,1.052,0,0,0-.583,1.022c.029,2.842.014,5.683.014,8.525v.724H361.7v-.825q0-3.828,0-7.657c0-1.044.3-1.339,1.321-1.343q2.131-.007,4.261,0c1.055,0,1.377.32,1.379,1.375q.005,3.829,0,7.657v.777h1.359v-.927c0-2.529-.006-5.057,0-7.585,0-.972.341-1.294,1.312-1.3q2.131-.007,4.262,0c1.1,0,1.406.3,1.408,1.422,0,2.553,0,5.1,0,7.657,0,.254.023.507.033.742h1.324v-.839q0-3.756,0-7.512c0-1.168.293-1.467,1.431-1.47q2.059,0,4.117,0c1.129,0,1.412.278,1.415,1.4q.005,3.829,0,7.657v.764h3.14v-9.438c0-1.681.143-1.826,1.788-1.826h35.611ZM374.8,64.238c-2.157,8.528-4.3,17-6.453,25.514h17.48c-.067-.3-.12-.547-.183-.8q-1.772-7.026-3.546-14.05c-.849-3.355-1.71-6.707-2.555-10.062-.087-.346-.131-.626-.611-.616-1.345.03-2.692.01-4.132.01m51.085,40h-.631q-24.381,0-48.762.011a1.869,1.869,0,0,0-.936.262c-1.618,1-3.217,2.026-4.818,3.05a4.576,4.576,0,0,0-.433.366h55.579Zm-36.924-2.023c-.055-.281-.087-.49-.138-.695-.312-1.259-.648-2.514-.935-3.779a.7.7,0,0,0-.819-.649q-9.964.027-19.927,0c-.5,0-.706.135-.827.64-.636,2.639-1.32,5.267-1.987,7.9l-1.083,4.274c.379-.231.6-.36.815-.5,3.53-2.245,7.053-4.5,10.6-6.72a3.111,3.111,0,0,1,1.535-.455c3.971-.037,7.942-.019,11.913-.019Zm17.878-.057H411.5V73.986h-4.665Zm12,.031h4.63V73.975h-4.63ZM386.045,82.3c1.686,6.661,3.357,13.273,5.029,19.88h9.372V82.3Zm1.129,12.744c-.219-.888-.457-1.714-.618-2.555-.107-.557-.359-.706-.92-.7-5.7.023-11.409.014-17.114.014h-.7c-.273,1.09-.538,2.145-.814,3.245ZM374.941,117.43h-2.836v7.791h2.836Zm5.5,7.763h2.834v-7.766H380.44Zm-16.677.01h2.828v-7.785h-2.828Zm56.412.007h5.669v-3.558h-5.669ZM396.2,115.98h-5.648v3.581H396.2Zm29.641.017H420.2v3.563h5.646Zm-29.626,5.66h-5.666v3.53h5.666Zm14.59-5.674h-5.219v3.562h5.219Zm-5.222,9.218H410.8v-3.544h-5.215Zm-2.091-9.2h-5.167v3.539h5.167Zm9.429,3.539h5.161V115.98h-5.161Zm-9.424,2.1h-5.181v3.541H403.5Zm14.6,0h-5.185v3.545H418.1Zm-1.407-42.777h-3.052v2.808h3.052Zm-3.074,22.286h3.093V98.368h-3.093Zm0-4.9h3.072V93.48h-3.072ZM413.6,76.745h3.088V73.99H413.6Zm3.148,7.008h-3.138V86.57c.946,0,1.852.016,2.756-.018a.542.542,0,0,0,.365-.379c.035-.785.017-1.574.017-2.419m-3.136,7.612h3.091v-2.73h-3.091Z" transform="translate(50.888 8.557)" fill="#fff"/>
          <path id="Trazado_1066039" data-name="Trazado 1066039" d="M384.865,69.263c3.2,0,6.405.031,9.607-.01a3,3,0,0,0,2.787-4.164,2.948,2.948,0,0,0-2.885-1.91c-2.288-.018-4.576-.009-6.863,0-.589,0-1.055-.17-1.2-.8-.171-.72.318-1.247,1.171-1.25,2.889-.008,5.779,0,8.668-.009a4.632,4.632,0,0,0,1.211-.145,2.994,2.994,0,0,0,2.133-3.275,2.91,2.91,0,0,0-2.786-2.643c-3.8-.042-7.609-.023-11.414-.018a.919.919,0,0,0-1.024.97.948.948,0,0,0,.982,1.026c.454.043.914.019,1.371.019q4.733,0,9.463,0c.966,0,1.426.346,1.407,1.042-.018.665-.479,1-1.386,1-2.962,0-5.924-.011-8.885.014a3,3,0,0,0-2.871,2.227,2.909,2.909,0,0,0,1.225,3.285,3.93,3.93,0,0,0,1.825.536c2.214.063,4.429.023,6.645.027a2.3,2.3,0,0,1,.712.071.943.943,0,0,1,.686,1.057.916.916,0,0,1-.868.9,6.565,6.565,0,0,1-.794.021H375.792c-.168,0-.337,0-.505,0-.882.014-1.383.4-1.368,1.042.014.619.49.978,1.339.978q4.8.007,9.607,0Z" transform="translate(53.371 7.855)" fill="#fff"/>
          <path id="Trazado_1066040" data-name="Trazado 1066040" d="M391.437,44.343c-3.2,0-6.405-.031-9.607.01a3,3,0,0,0-2.787,4.164,2.948,2.948,0,0,0,2.885,1.91c2.288.018,4.576.009,6.863,0,.589,0,1.055.17,1.2.8.171.72-.318,1.247-1.171,1.25-2.889.008-5.779,0-8.668.009a4.633,4.633,0,0,0-1.211.145,2.993,2.993,0,0,0-2.133,3.275,2.91,2.91,0,0,0,2.786,2.643c3.8.042,7.608.023,11.414.018a.919.919,0,0,0,1.024-.97.948.948,0,0,0-.982-1.026c-.454-.043-.914-.019-1.371-.019q-4.733,0-9.463,0c-.966,0-1.426-.346-1.407-1.042.018-.665.479-1,1.386-1,2.962,0,5.924.011,8.885-.014a3,3,0,0,0,2.871-2.227,2.909,2.909,0,0,0-1.225-3.285,3.931,3.931,0,0,0-1.825-.536c-2.213-.063-4.429-.023-6.645-.027a2.3,2.3,0,0,1-.712-.071.943.943,0,0,1-.686-1.057.916.916,0,0,1,.868-.9,6.565,6.565,0,0,1,.794-.021h17.987c.168,0,.337,0,.505,0,.882-.014,1.383-.4,1.368-1.042-.014-.619-.49-.978-1.339-.978q-4.8-.007-9.607,0Z" transform="translate(53.781 6.328)" fill="#fff"/>
          <path id="Trazado_1066041" data-name="Trazado 1066041" d="M32.625,23.088h.04l2.5-7.184H37.72v9.749H35.765V19l-.04-.007-2.41,6.662H31.988l-2.41-6.676-.04.007v6.669H27.583V15.9h2.564Z" transform="translate(3.937 2.27)" fill="#331f00"/>
          <path id="Trazado_1066042" data-name="Trazado 1066042" d="M39.938,16.761H37.983V15.3h1.955Zm0,8.978H37.983V18.495h1.955Z" transform="translate(5.421 2.183)" fill="#331f00"/>
          <path id="Trazado_1066043" data-name="Trazado 1066043" d="M44.169,24a1.087,1.087,0,0,0,.81-.305,1.1,1.1,0,0,0,.3-.814h1.78l.014.041a2.267,2.267,0,0,1-.817,1.838,3.051,3.051,0,0,1-2.089.739,3.087,3.087,0,0,1-2.484-1.027,3.9,3.9,0,0,1-.876-2.628v-.2a3.928,3.928,0,0,1,.873-2.627,3.06,3.06,0,0,1,2.474-1.035,2.987,2.987,0,0,1,2.136.763,2.551,2.551,0,0,1,.784,2.009l-.014.04h-1.78a1.444,1.444,0,0,0-.3-.934,1,1,0,0,0-.827-.371,1.116,1.116,0,0,0-1.074.606,3.319,3.319,0,0,0-.318,1.55v.2a3.308,3.308,0,0,0,.318,1.561,1.131,1.131,0,0,0,1.088.6" transform="translate(5.825 2.566)" fill="#331f00"/>
          <path id="Trazado_1066044" data-name="Trazado 1066044" d="M51.1,19.793l-.716-.021a1.3,1.3,0,0,0-.716.182,1.145,1.145,0,0,0-.429.509v4.894H47.288V18.112H49.1l.087,1.072a2.3,2.3,0,0,1,.659-.888,1.476,1.476,0,0,1,.935-.318,1.421,1.421,0,0,1,.271.024c.082.015.166.034.251.056Z" transform="translate(6.75 2.566)" fill="#331f00"/>
          <path id="Trazado_1066045" data-name="Trazado 1066045" d="M51.132,21.668a3.889,3.889,0,0,1,.9-2.655,3.149,3.149,0,0,1,2.5-1.035,3.182,3.182,0,0,1,2.517,1.032,3.862,3.862,0,0,1,.911,2.658v.141a3.87,3.87,0,0,1-.907,2.661,3.579,3.579,0,0,1-5.021,0,3.875,3.875,0,0,1-.907-2.661Zm1.948.141a3.156,3.156,0,0,0,.349,1.591,1.338,1.338,0,0,0,2.233,0,3.135,3.135,0,0,0,.351-1.587v-.141a3.1,3.1,0,0,0-.354-1.574,1.2,1.2,0,0,0-1.119-.609,1.186,1.186,0,0,0-1.107.613,3.125,3.125,0,0,0-.352,1.57Z" transform="translate(7.298 2.566)" fill="#331f00"/>
        </g>
      </g>
    </g>
  </g>
</svg>
