<svg xmlns="http://www.w3.org/2000/svg" xmlns:xlink="http://www.w3.org/1999/xlink" width="127.981" height="134.285" viewBox="0 0 127.981 134.285">
  <defs>
    <clipPath id="clip-path">
      <rect id="Rectángulo_401901" data-name="Rectángulo 401901" width="127.981" height="134.285" fill="none"/>
    </clipPath>
  </defs>
  <g id="Grupo_1210593" data-name="Grupo 1210593" transform="translate(163 9103)">
    <g id="Grupo_1210494" data-name="Grupo 1210494" transform="translate(-163 -9103)" clip-path="url(#clip-path)">
      <path id="Trazado_1065253" data-name="Trazado 1065253" d="M127.981,63.99A63.991,63.991,0,1,1,63.99,0,63.991,63.991,0,0,1,127.981,63.99" fill="#ffebcc"/>
      <path id="Trazado_1065254" data-name="Trazado 1065254" d="M90.8,85.2c-6.045-2.33-14.088-1.569-16.638-4.372-1.821-2-2.555-5.2-2.8-8.229a20.01,20.01,0,0,1-15.218.015c-.275,2.888-1.011,5.965-2.757,7.8-2.834,2.978-9.713,2.295-15.52,4.883,8.674.657,17.4,11.934,26.038,11.932,9.01,0,17.924-11.314,26.892-12.029" fill="#fcd1c5"/>
      <path id="Trazado_1065255" data-name="Trazado 1065255" d="M63.623,13.221c15.707.249,22.395,11.743,22.7,26.381s-3.794,36.129,2.4,42.064a33.4,33.4,0,0,1-9.008,2.1s-2.421-5.221-2.636-7.952c0,0,.1,7.054.625,8.463H50.786s1.8-5.684.257-8.356l-1.568,8.146s-7.763-.224-11.565-2.625c0,0,3.7-3.841,4.054-7.441s-3-26.195-2.227-36.038S43.387,12.9,63.623,13.221" fill="#3f2723"/>
      <path id="Trazado_1065256" data-name="Trazado 1065256" d="M84.75,45.645s2.591-2.917,3.585.137-.2,9.011-3.532,10.061-2.67.136-2.67.136Z" fill="#f5b9a4"/>
      <path id="Trazado_1065257" data-name="Trazado 1065257" d="M83.554,47.6c-.916,1.219-1.253,5.254.564,4.891a1.869,1.869,0,0,0,.8-3.423c-.647-.454-.942-2.025-1.36-1.468" fill="#e68870"/>
      <path id="Trazado_1065258" data-name="Trazado 1065258" d="M86.827,52.514a15.145,15.145,0,0,0,.554-2.568c.127-.981.281-2.672-.82-3.19a2.672,2.672,0,0,0-2.36.474.352.352,0,0,0,.355.608,4.005,4.005,0,0,1,1.045-.464.975.975,0,0,1,.346-.047c.034,0,.188.017.1,0,.055.01.108.025.162.04s-.009-.008.007,0,.05.024.074.038.04.026.06.038c.048.03-.044-.044.012.01.035.033.067.066.1.1.046.051-.008-.012,0,.005s.032.047.047.072c.027.044.049.089.072.135s-.019-.051.006.013c.011.03.022.06.032.09a2.7,2.7,0,0,1,.089.365c0,.014.015.1.01.06s0,.048.007.062c.006.07.013.139.017.209.008.141.009.282.006.422a8.532,8.532,0,0,1-.069.9c-.011.083-.033.238-.057.382s-.051.294-.08.44c-.05.252-.1.5-.166.754-.07.287-.145.575-.233.858-.135.433.544.619.679.187" fill="#e68870"/>
      <path id="Trazado_1065259" data-name="Trazado 1065259" d="M42.809,45.645s-2.591-2.917-3.585.137.2,9.011,3.532,10.061,2.67.136,2.67.136Z" fill="#f5b9a4"/>
      <path id="Trazado_1065260" data-name="Trazado 1065260" d="M44.107,47.6c.916,1.219,1.253,5.254-.564,4.891a1.869,1.869,0,0,1-.8-3.423c.647-.454.942-2.025,1.36-1.468" fill="#e68870"/>
      <path id="Trazado_1065261" data-name="Trazado 1065261" d="M41.513,52.327A14.982,14.982,0,0,1,41,50.065c-.019-.129-.031-.216-.049-.386-.015-.148-.027-.3-.035-.444a5.611,5.611,0,0,1,.013-.86c0-.031.006-.063.01-.094-.008.063,0,0,.006-.028.011-.064.023-.127.037-.19s.031-.119.05-.178c.008-.026.018-.052.027-.077.022-.064.01-.027.01-.027.022-.046.044-.092.07-.136l.04-.063c.042-.067-.027.027.011-.016s.064-.069.1-.1.048-.036,0,0a.627.627,0,0,1,.069-.045c.028-.016.055-.031.084-.045,0,0-.048.013.019,0,.036-.009.2-.039.11-.03a1.351,1.351,0,0,1,.2-.006.588.588,0,0,1,.164.018,3.863,3.863,0,0,1,1.166.491.352.352,0,0,0,.356-.608,2.976,2.976,0,0,0-2.136-.558,1.512,1.512,0,0,0-1.013,1.176,8.135,8.135,0,0,0,.267,3.712c.076.32.158.64.256.954.135.431.815.247.679-.187" fill="#e68870"/>
      <path id="Trazado_1065262" data-name="Trazado 1065262" d="M50.262,86.4a8.329,8.329,0,0,0,8.267,8.166l8.827.064a8.048,8.048,0,0,0,8.1-8.285l-.111-3.792a.581.581,0,0,1,.291-.515,4.988,4.988,0,0,1-1.805-1.181c-1.827-2.009-2.564-5.216-2.807-8.261a20.088,20.088,0,0,1-15.278.015c-.276,2.9-1.015,5.988-2.768,7.831a7.1,7.1,0,0,1-2.951,1.706.582.582,0,0,1,.154.376Z" fill="#f5b9a4"/>
      <path id="Trazado_1065263" data-name="Trazado 1065263" d="M71.029,72.6a39.117,39.117,0,0,1,.276-8.116l-15.614.945a37.547,37.547,0,0,1,.06,7.186A20.083,20.083,0,0,0,71.029,72.6" fill="#e68870"/>
      <path id="Trazado_1065264" data-name="Trazado 1065264" d="M31.085,90.937c-5.736,9.205-3.821,43.348-3.821,43.348h72.95s1.04-36.3-4.073-44.532c-4.2-6.761-15.385-5.493-20.5-7.619a.51.51,0,0,0-.291.468l.111,3.768a8.04,8.04,0,0,1-8.1,8.274l-8.828-.071A8.332,8.332,0,0,1,50.262,86.4l-.076-3.877c0-.146-.063-.181-.153-.282-5.318,1.787-14.266,1.179-18.948,8.692" fill="#4a7db2"/>
      <path id="Trazado_1065265" data-name="Trazado 1065265" d="M85,43.3c-1.3,15.678-9.535,27.68-21.3,27.68S43.97,58.433,42.408,43.3c-1.57-15.206,4.147-27.68,21.3-27.68,15.847,0,22.558,12.445,21.3,27.68" fill="#f5b9a4"/>
      <path id="Trazado_1065266" data-name="Trazado 1065266" d="M48.858,37.5c.168-.081-.029.007.036-.017.176-.065.35-.132.529-.19a10.588,10.588,0,0,1,1.862-.413,14.217,14.217,0,0,1,6.779.9c.851.318,1.218-1.043.375-1.358a15.3,15.3,0,0,0-7.263-.941,9.834,9.834,0,0,0-3.029.8c-.816.394-.1,1.609.711,1.216" fill="#3f2723"/>
      <path id="Trazado_1065267" data-name="Trazado 1065267" d="M79.58,36.108a10.051,10.051,0,0,0-3.066-.7,15.076,15.076,0,0,0-7.2,1.195.728.728,0,0,0-.492.866.708.708,0,0,0,.866.492A14.215,14.215,0,0,1,76.4,36.805a10.427,10.427,0,0,1,1.871.335c.179.05.358.1.533.167.132.047.309.125.062.017a.729.729,0,0,0,.964-.252.71.71,0,0,0-.253-.964" fill="#3f2723"/>
      <path id="Trazado_1065268" data-name="Trazado 1065268" d="M41.893,44.388c.694.421,20.991-11.4,20.757-24.547,0,0,12.589,24.525,22.727,25.056,0,0,.935-8.185,0-12.528S79.2,20.428,79.2,20.428l-8.04-5.282-14.111-.587L45.982,21.367l-3.287,7.512L41.148,40.147Z" fill="#3f2723"/>
      <path id="Trazado_1065269" data-name="Trazado 1065269" d="M64.18,54.557a8.915,8.915,0,0,1-2.154-.265c-1.279-.321-2.425-.678-2.425-.678a10.214,10.214,0,0,0,3.948,2.061,2.143,2.143,0,0,0,1.262,0,10.214,10.214,0,0,0,3.948-2.061s-1.146.357-2.425.678a8.915,8.915,0,0,1-2.154.265" fill="#e2a18d"/>
      <path id="Trazado_1065270" data-name="Trazado 1065270" d="M57.9,45.923a1.783,1.783,0,1,1-1.783-1.783A1.783,1.783,0,0,1,57.9,45.923" fill="#433833"/>
      <path id="Trazado_1065271" data-name="Trazado 1065271" d="M70.464,45.923a1.783,1.783,0,1,0,1.783-1.783,1.783,1.783,0,0,0-1.783,1.783" fill="#433833"/>
      <path id="Trazado_1065272" data-name="Trazado 1065272" d="M39.9,45.013s-7.09-32.729,22.344-32.729" fill="none" stroke="#000" stroke-miterlimit="10" stroke-width="1.536"/>
      <path id="Trazado_1065273" data-name="Trazado 1065273" d="M85.622,45.013s7.09-32.729-22.344-32.729H62.247" fill="none" stroke="#000" stroke-miterlimit="10" stroke-width="1.536"/>
      <path id="Trazado_1065274" data-name="Trazado 1065274" d="M42.952,58.026V37.235s-5.838,3.529-5.744,10.237,5.744,10.554,5.744,10.554" fill="#666"/>
      <path id="Trazado_1065275" data-name="Trazado 1065275" d="M84.306,59.347V38.556s5.838,3.529,5.744,10.237-5.744,10.554-5.744,10.554" fill="#666"/>
      <path id="Trazado_1065276" data-name="Trazado 1065276" d="M85.012,55.113s-2.1,10.129-9.353,10.413" fill="none" stroke="#000" stroke-linecap="round" stroke-miterlimit="10" stroke-width="1.536"/>
      <path id="Trazado_1065277" data-name="Trazado 1065277" d="M76.183,64.691a1.264,1.264,0,0,0-.764-1.039,1.361,1.361,0,0,0-.485-.016,6.6,6.6,0,0,0-2.225.625,2.851,2.851,0,0,0-1.022.751,1.27,1.27,0,0,0-.258,1.168A2.02,2.02,0,0,0,72.658,67.2a6.886,6.886,0,0,0,1.989.579,1.952,1.952,0,0,0,.9-.08c1.053-.409.819-2.193.636-3.01" fill="#666"/>
      <path id="Trazado_1065278" data-name="Trazado 1065278" d="M60.547,60.083s5.725-.661,7.927-.661-3.083,6.606-5.065,4.624a14.758,14.758,0,0,1-2.862-3.963" fill="#fff"/>
    </g>
  </g>
</svg>
