<svg xmlns="http://www.w3.org/2000/svg" width="49.807" height="56.275" viewBox="0 0 49.807 56.275">
  <g id="Grupo_1210587" data-name="Grupo 1210587" transform="translate(-180.001 -4825.694)">
    <g id="agriculture_18007581" transform="translate(150.578 4825.695)">
      <g id="Grupo_1210275" data-name="Grupo 1210275" transform="translate(30.192 0.769)">
        <path id="Trazado_1064686" data-name="Trazado 1064686" d="M77.323,41.523a19.636,19.636,0,0,0,2.433-5.885l2.131-.539,2.6-.654a24.193,24.193,0,0,0,0-6.608l-2.6-.654-2.131-.539a19.524,19.524,0,0,0-2.433-5.886l1.125-1.885,1.374-2.3a24.4,24.4,0,0,0-4.673-4.67l-2.3,1.374L70.964,14.4a19.59,19.59,0,0,0-5.885-2.433L64.54,9.831l-.655-2.6a24.439,24.439,0,0,0-6.608,0l-.657,2.6-.535,2.131A19.61,19.61,0,0,0,50.2,14.4l-1.885-1.125-2.3-1.374a24.025,24.025,0,0,0-2.5,2.175,25.13,25.13,0,0,0-2.178,2.495l1.377,2.3,1.125,1.885A19.644,19.644,0,0,0,41.4,26.643l-2.131.539-2.6.655a24.315,24.315,0,0,0,0,6.608l2.6.654,2.131.539a19.644,19.644,0,0,0,2.436,5.885l-1.125,1.885-1.377,2.3a25.131,25.131,0,0,0,2.178,2.495,24.025,24.025,0,0,0,2.5,2.175l2.3-1.374L50.2,47.882a19.523,19.523,0,0,0,5.886,2.434l.536,2.131.657,2.6a24.2,24.2,0,0,0,6.608,0l.654-2.6.539-2.128a19.678,19.678,0,0,0,5.885-2.436l1.885,1.125,2.3,1.374a24.378,24.378,0,0,0,2.5-2.175,25.094,25.094,0,0,0,2.175-2.495l-1.374-2.3Z" transform="translate(-36.446 -7.008)" fill="#fe9900" fill-rule="evenodd"/>
        <path id="Trazado_1064687" data-name="Trazado 1064687" d="M143.906,114.459a15.166,15.166,0,1,0-21.448,0A15.166,15.166,0,0,0,143.906,114.459Z" transform="translate(-109.049 -79.604)" fill="#d8ddda" fill-rule="evenodd"/>
        <path id="Trazado_1064688" data-name="Trazado 1064688" d="M262.717,189.562c-3.362-.651-5.6.633-6.717,3.879C259.368,194.1,261.6,192.8,262.717,189.562Z" transform="translate(-231.867 -169.35)" fill="#80b500" fill-rule="evenodd"/>
        <path id="Trazado_1064689" data-name="Trazado 1064689" d="M242.338,121.472c-2.243,2.586-2.256,5.172,0,7.758C244.6,126.644,244.584,124.058,242.338,121.472Z" transform="translate(-218.204 -108.89)" fill="#80b500" fill-rule="evenodd"/>
        <path id="Trazado_1064690" data-name="Trazado 1064690" d="M194.885,189.562c3.362-.651,5.608.633,6.717,3.879C198.234,194.1,196,192.8,194.885,189.562Z" transform="translate(-177.469 -169.35)" fill="#80b500" fill-rule="evenodd"/>
        <path id="Trazado_1064691" data-name="Trazado 1064691" d="M262.717,240.7c-3.362-.651-5.6.629-6.717,3.876C259.368,245.237,261.6,243.931,262.717,240.7Z" transform="translate(-231.867 -214.865)" fill="#80b500" fill-rule="evenodd"/>
        <path id="Trazado_1064692" data-name="Trazado 1064692" d="M194.885,240.7c3.362-.651,5.608.629,6.717,3.876C198.234,245.237,196,243.931,194.885,240.7Z" transform="translate(-177.469 -214.865)" fill="#80b500" fill-rule="evenodd"/>
        <path id="Trazado_1064693" data-name="Trazado 1064693" d="M196.495,278.993a23.1,23.1,0,0,1,10.042,2.281,24.215,24.215,0,0,1-33.221,20.8,23.181,23.181,0,0,1,23.18-23.08Z" transform="translate(-158.27 -249.098)" fill="#80b500" fill-rule="evenodd"/>
        <path id="Trazado_1064694" data-name="Trazado 1064694" d="M239.634,326.87a23.147,23.147,0,0,1,5.1.564A24.234,24.234,0,0,1,216.8,346.068,23.186,23.186,0,0,1,239.634,326.87Z" transform="translate(-196.972 -291.712)" fill="#597e00" fill-rule="evenodd"/>
        <path id="Trazado_1064695" data-name="Trazado 1064695" d="M271,386.51a23.187,23.187,0,0,1,20.572-14.569A24.211,24.211,0,0,1,271,386.51Z" transform="translate(-245.218 -331.83)" fill="#3f5a00" fill-rule="evenodd"/>
        <path id="Trazado_1064696" data-name="Trazado 1064696" d="M46.448,281.941A23.181,23.181,0,0,1,69.625,304.7a24.213,24.213,0,0,1-33.2-20.485,23.053,23.053,0,0,1,10.02-2.271Z" transform="translate(-36.428 -251.722)" fill="#80b500" fill-rule="evenodd"/>
        <path id="Trazado_1064697" data-name="Trazado 1064697" d="M45.226,326.814A23.189,23.189,0,0,1,68.082,346.1,24.231,24.231,0,0,1,40.6,327.278a23.116,23.116,0,0,1,4.627-.464Z" transform="translate(-40.141 -291.663)" fill="#597e00" fill-rule="evenodd"/>
        <path id="Trazado_1064698" data-name="Trazado 1064698" d="M52.983,370.326a23.2,23.2,0,0,1,19.93,14.687A24.221,24.221,0,0,1,52.983,370.326Z" transform="translate(-51.163 -330.392)" fill="#3f5a00" fill-rule="evenodd"/>
        <path id="Trazado_1064699" data-name="Trazado 1064699" d="M44.565,16.562a24.69,24.69,0,0,1,2.175-2.495Q47.3,13.515,47.874,13l-1.863-1.112a24.024,24.024,0,0,0-2.5,2.175,25.13,25.13,0,0,0-2.178,2.495l1.377,2.3,1.125,1.885A19.644,19.644,0,0,0,41.4,26.635l-2.131.539-2.6.655a24.315,24.315,0,0,0,0,6.608l2.6.654,2.131.539a19.362,19.362,0,0,0,.589,2.019,22.925,22.925,0,0,1,3.094-.389c-.178-.539-.327-1.081-.455-1.629L42.5,35.091l-2.6-.654a24.448,24.448,0,0,1,0-6.608l2.6-.654,2.134-.539a19.557,19.557,0,0,1,2.433-5.886l-1.125-1.885Zm14.743-4.607.539-2.131.655-2.6c.561-.075,1.128-.134,1.692-.171a24.251,24.251,0,0,0-4.916.171l-.657,2.6-.535,2.131a19.8,19.8,0,0,0-4.216,1.508l1.555.928A19.611,19.611,0,0,1,59.308,11.954Z" transform="translate(-36.446 -7)" fill="#ed9e00" fill-rule="evenodd"/>
      </g>
      <path id="Trazado_1064700" data-name="Trazado 1064700" d="M78.793,32.251A23.768,23.768,0,0,0,74,30.547c.049-.171.1-.343.141-.515l4.28-1.08a.769.769,0,0,0,.575-.641,24.959,24.959,0,0,0,0-6.819.769.769,0,0,0-.575-.641l-4.28-1.079a20.245,20.245,0,0,0-2.173-5.256l2.262-3.79a.769.769,0,0,0-.048-.86A25.145,25.145,0,0,0,69.36,5.048.769.769,0,0,0,68.5,5L64.713,7.262a20.405,20.405,0,0,0-5.255-2.175L58.378.806a.769.769,0,0,0-.642-.575,25.216,25.216,0,0,0-6.816,0A.769.769,0,0,0,50.277.8L49.2,5.086a20.332,20.332,0,0,0-5.255,2.175L40.152,5a.769.769,0,0,0-.859.047,24.873,24.873,0,0,0-2.577,2.245,25.679,25.679,0,0,0-2.245,2.573.769.769,0,0,0-.048.861l2.264,3.79a20.338,20.338,0,0,0-2.176,5.256l-4.28,1.08a.77.77,0,0,0-.575.641,25.091,25.091,0,0,0,0,6.818.769.769,0,0,0,.575.642l4.281,1.08q.106.409.228.812a23.646,23.646,0,0,0-4.882,1.722.769.769,0,0,0-.433.755,24.98,24.98,0,0,0,.47,3.212.011.011,0,0,0,0,0v.005A24.982,24.982,0,0,0,51.818,56.149l.037,0q1.221.12,2.462.121a25.113,25.113,0,0,0,3.926-.308h.019l.025-.006a24.809,24.809,0,0,0,5.391-1.5l.025-.013c.018-.006.037-.012.055-.019a25.027,25.027,0,0,0,13.475-13.2.734.734,0,0,0,.036-.083,24.815,24.815,0,0,0,1.43-4.452c0-.011.007-.022.009-.033s0-.027.007-.04A24.937,24.937,0,0,0,79.227,33a.769.769,0,0,0-.434-.746ZM35.9,29.224a.769.769,0,0,0-.561-.571l-4.22-1.065a23.545,23.545,0,0,1,0-5.372l4.221-1.065a.769.769,0,0,0,.561-.572,18.809,18.809,0,0,1,2.341-5.655.769.769,0,0,0,.007-.8l-2.232-3.736A24.34,24.34,0,0,1,37.806,8.38a23.392,23.392,0,0,1,2.008-1.789l3.737,2.23a.769.769,0,0,0,.8-.007,18.814,18.814,0,0,1,5.655-2.341.769.769,0,0,0,.572-.562l1.064-4.219a23.678,23.678,0,0,1,5.373,0L58.08,5.912a.769.769,0,0,0,.571.561,18.878,18.878,0,0,1,5.655,2.341.769.769,0,0,0,.8.007l3.733-2.229a23.6,23.6,0,0,1,3.8,3.8L70.41,14.124a.769.769,0,0,0,.007.8,18.723,18.723,0,0,1,2.337,5.654.769.769,0,0,0,.561.572l4.221,1.065a23.419,23.419,0,0,1,0,5.372l-4.221,1.065a.769.769,0,0,0-.561.573c-.078.337-.168.675-.267,1.01a24.012,24.012,0,0,0-3.032-.318,15.938,15.938,0,1,0-30.146.318,24.08,24.08,0,0,0-3.05.3c-.135-.432-.257-.873-.361-1.316ZM54.326,14.6a4.21,4.21,0,0,1,0,5.262A4.218,4.218,0,0,1,54.326,14.6ZM55.1,31.368a8.263,8.263,0,0,0,.827.044c2.8,0,4.811-1.555,5.848-4.561a.769.769,0,0,0-.581-1.007c-2.6-.506-4.667.076-6.095,1.689V25.75c.282.028.557.044.824.044,2.808,0,4.815-1.555,5.852-4.563a.769.769,0,0,0-.582-1.006c-2.6-.5-4.665.082-6.094,1.7V21.39c2.306-2.795,2.244-5.743-.189-8.544a.769.769,0,0,0-1.162,0c-2.429,2.8-2.491,5.748-.188,8.543v.53c-1.429-1.613-3.493-2.2-6.094-1.694a.769.769,0,0,0-.581,1.007c1.039,3.006,3.047,4.563,5.849,4.563a8.248,8.248,0,0,0,.826-.045v1.784c-1.428-1.612-3.493-2.194-6.095-1.689a.769.769,0,0,0-.58,1.007c1.039,3.006,3.046,4.561,5.852,4.561a8.234,8.234,0,0,0,.824-.044v2.91a23.8,23.8,0,0,0-12.6-4.049A14.4,14.4,0,1,1,67.83,29.9,23.656,23.656,0,0,0,55.1,33.939Zm.31-1.514a4.2,4.2,0,0,1,4.556-2.629,4.207,4.207,0,0,1-4.556,2.629Zm0-5.618a4.214,4.214,0,0,1,4.555-2.63,4.207,4.207,0,0,1-4.555,2.63Zm-2.158,0a4.209,4.209,0,0,1-4.556-2.63,4.216,4.216,0,0,1,4.557,2.629Zm0,5.619a4.211,4.211,0,0,1-4.556-2.63,4.2,4.2,0,0,1,4.557,2.629ZM33.286,41.606A22.527,22.527,0,0,1,50.7,54.451,23.652,23.652,0,0,1,33.286,41.606Zm21.031,13.13c-.619,0-1.233-.026-1.841-.074a23.963,23.963,0,0,0-19.92-14.687A23.069,23.069,0,0,1,31.585,37,22.426,22.426,0,0,1,57.228,54.555,23.648,23.648,0,0,1,54.317,54.736Zm4.433-.42a23.68,23.68,0,0,0-9.9-14.944A23.939,23.939,0,0,0,31.26,35.489q-.158-.87-.252-1.761a22.047,22.047,0,0,1,4.854-1.551l.011,0a22.578,22.578,0,0,1,4.339-.418,22.308,22.308,0,0,1,18.019,9.006.755.755,0,0,0,.3.411,22.213,22.213,0,0,1,2.858,5.576.764.764,0,0,0,.107.322A22.687,22.687,0,0,1,62.6,53.226a23.267,23.267,0,0,1-3.852,1.089Zm5.359-1.721a23.951,23.951,0,0,0-1.06-5.676,22.453,22.453,0,0,1,12.227-5.177A23.588,23.588,0,0,1,64.108,52.595ZM76,40.137a23.994,23.994,0,0,0-13.5,5.238,23.674,23.674,0,0,0-2.463-4.655,22.383,22.383,0,0,1,16.98-3.638A23.354,23.354,0,0,1,76,40.137Zm1.347-4.558a23.919,23.919,0,0,0-18.22,3.9,24.177,24.177,0,0,0-2.245-2.5q-.735-.712-1.521-1.353a22.449,22.449,0,0,1,22.285-2.208q-.1,1.093-.3,2.163Z" transform="translate(0 0)"/>
    </g>
  </g>
</svg>
